<svg xmlns="http://www.w3.org/2000/svg" viewBox="0 0 360.71 217.5"><defs><style>.cls-1{fill:#f6921e;}.cls-2{fill:#29bef0;}.cls-3{fill:#b8babc;}.cls-4{fill:#c2e7f1;}.cls-5{fill:#f05a28;}.cls-6{fill:#f1f2f2;}.cls-7{fill:#003a4e;}.cls-8{fill:#fff;}</style></defs><title>Bus</title><g id="Wheel_Back" data-name="Wheel Back"><ellipse cx="72.51" cy="173.7" rx="32.59" ry="43.8"/></g><g id="Bus"><path class="cls-1" d="M1142.35,538l-1.61,24.89-5.82,90.16H794.31L793.82,640l-.08-2-2.86-75.09-.58-15.14-.08-2-.29-7.75a14.86,14.86,0,0,1,14.86-14.86h322.7A14.86,14.86,0,0,1,1142.35,538Z" transform="translate(-786.14 -523.14)"/><path class="cls-2" d="M1140.56,653.05v37.22a5.72,5.72,0,0,1,0,.59,13.23,13.23,0,0,1-.28,2.37,13.52,13.52,0,0,1-.52,1.86,12.14,12.14,0,0,1-.48,1.18,15,15,0,0,1-4.25,5.46,15.5,15.5,0,0,1-9.14,3.39H805.22a15.18,15.18,0,0,1-15-11.9,13.23,13.23,0,0,1-.28-2.37,5.72,5.72,0,0,1,0-.59V653.05Z" transform="translate(-786.14 -523.14)"/><path class="cls-3" d="M1140.54,690.86a13.23,13.23,0,0,1-.28,2.37,13.52,13.52,0,0,1-.52,1.86,12.14,12.14,0,0,1-.48,1.18,15,15,0,0,1-4.25,5.46,15.5,15.5,0,0,1-9.14,3.39H805.22a15.18,15.18,0,0,1-15-11.9,13.23,13.23,0,0,1-.28-2.37Z" transform="translate(-786.14 -523.14)"/><rect class="cls-1" x="39.92" y="141.7" width="20.71" height="14.25" rx="5.18" ry="5.18"/><rect class="cls-4" x="22.91" y="141.7" width="14.25" height="14.25" rx="4.29" ry="4.29"/><rect class="cls-5" x="346.46" y="141.7" width="14.25" height="14.25" rx="4.29" ry="4.29"/><path class="cls-6" d="M1142.35,538l-1.61,24.89H790.88l-1-24.89a14.86,14.86,0,0,1,14.86-14.86h322.7A14.86,14.86,0,0,1,1142.35,538Z" transform="translate(-786.14 -523.14)"/><polygon class="cls-7" points="71.31 181.99 69.62 39.75 120.09 39.75 116.75 181.99 71.31 181.99"/><polygon class="cls-1" points="71.62 41.75 93.03 41.75 93.03 179.99 73.31 179.99 71.62 41.75"/><path class="cls-4" d="M877.17,570.27V687.48a3.38,3.38,0,0,1-3.38,3.38h-9a3.38,3.38,0,0,1-3.38-3.38l-1.34-92.66h0l-.12-8.75-.17-11.37v0l-.06-4.4a3.38,3.38,0,0,1,3.38-3.38h10.65A3.38,3.38,0,0,1,877.17,570.27Z" transform="translate(-786.14 -523.14)"/><polygon class="cls-1" points="118.09 41.75 114.75 179.99 95.03 179.99 95.03 41.75 118.09 41.75"/><path class="cls-4" d="M902.23,570.55l-1.8,62.73h0l-.61,21.48h0l-.21,7.24-.32,11.24-.4,13.94a3.66,3.66,0,0,1-3.66,3.66h-8.4a3.66,3.66,0,0,1-3.66-3.66V570.55a3.66,3.66,0,0,1,3.66-3.66h11.74A3.66,3.66,0,0,1,902.23,570.55Z" transform="translate(-786.14 -523.14)"/><path class="cls-7" d="M922.36,640a13.12,13.12,0,0,1-13.11-13.11V577a13.12,13.12,0,0,1,13.11-13.1H1117.8a13.12,13.12,0,0,1,13.1,13.1l-4.55,49.84A13.12,13.12,0,0,1,1113.24,640Z" transform="translate(-786.14 -523.14)"/><path class="cls-4" d="M1113.24,638H922.36a11.1,11.1,0,0,1-11.11-11.11V577a11.1,11.1,0,0,1,11.11-11.1H1117.8a11.1,11.1,0,0,1,11.1,11.1l-4.55,49.84A11.1,11.1,0,0,1,1113.24,638Z" transform="translate(-786.14 -523.14)"/><path class="cls-7" d="M854.3,559.64v66.45A14.16,14.16,0,0,1,839.92,640H791.7l-.08-2-3-75.09-.6-15.14-.08-2h51.94A14.16,14.16,0,0,1,854.3,559.64Z" transform="translate(-786.14 -523.14)"/><path class="cls-4" d="M852.3,559.64v66.45c0,6.56-5.69,11.89-12.69,11.89h-49.8l-1.12-27.67h0l-.44-10.64h0l-.49-12-.88-21.68-.12-3-.62-15.14h53.47C846.61,547.75,852.3,553.08,852.3,559.64Z" transform="translate(-786.14 -523.14)"/><polygon class="cls-8" points="266.02 42.79 300.86 114.84 327.93 114.84 290.34 42.77 266.02 42.79"/><polygon class="cls-8" points="248.34 42.79 284.33 114.84 295.77 114.84 258.18 42.77 248.34 42.79"/><polygon class="cls-8" points="156.99 42.79 191.83 114.84 218.9 114.84 181.31 42.77 156.99 42.79"/><polygon class="cls-8" points="53.05 114.84 25.99 114.84 1.62 64.46 0 24.61 5.97 24.58 53.05 114.84"/><polygon class="cls-8" points="139.31 42.79 175.29 114.84 186.74 114.84 149.15 42.77 139.31 42.79"/><path class="cls-8" d="M877.17,588.69v20.72l-17.35-34.72v0l-.06-4.4a3.38,3.38,0,0,1,3.38-3.38h2.66Z" transform="translate(-786.14 -523.14)"/><polygon class="cls-8" points="114.29 110.14 114.29 110.15 113.68 131.63 97.03 98.29 97.03 77.05 114.29 110.14"/><polygon class="cls-8" points="91.03 95.86 91.03 105.83 73.97 71.68 73.97 71.67 73.85 62.92 91.03 95.86"/><polygon class="cls-8" points="113.47 138.88 113.15 150.12 97.03 117.84 97.03 107.36 113.47 138.88"/><polygon class="cls-8" points="22.1 114.84 16.37 114.84 2.55 87.17 2.55 87.16 2.11 76.52 22.1 114.84"/><rect class="cls-7" x="202.06" y="42.79" width="2" height="74.05"/><rect class="cls-7" x="279.93" y="42.79" width="2" height="74.05"/></g><g id="Wheel_Front" data-name="Wheel Front"><ellipse cx="151.19" cy="173.7" rx="32.59" ry="43.8"/><ellipse class="cls-6" cx="151.19" cy="173.7" rx="18.56" ry="24.94"/><ellipse cx="280.93" cy="173.7" rx="32.59" ry="43.8"/><ellipse class="cls-6" cx="280.93" cy="173.7" rx="18.56" ry="24.94"/></g></svg>