<svg xmlns="http://www.w3.org/2000/svg" viewBox="0 0 288.05 262.49"><defs><style>.cls-1{fill:#1f2457;}.cls-2{fill:#263c91;}.cls-3{fill:#000028;opacity:0.31;}.cls-4{fill:#3e5ba9;}.cls-5{fill:#c7c8ca;}.cls-6{fill:#95979a;}.cls-7{fill:#434345;}.cls-8{fill:#fff;}.cls-9{fill:#ef4877;}.cls-10{fill:#7dcaae;}.cls-11{fill:#bdd751;}.cls-12{fill:#f05d97;}.cls-13{fill:#00000a;opacity:0.05;}.cls-14{fill:#dc8427;}.cls-15{fill:#97999b;}.cls-16{fill:#f3f4f4;}.cls-17{fill:#6a6c6e;}.cls-18{fill:#231f20;}.cls-19{fill:#b9babc;}.cls-20{fill:#f69322;}.cls-21{fill:#2daad5;}.cls-22{fill:#2fbeef;}.cls-23{fill:#393839;}.cls-24{fill:#2a292a;}.cls-25{fill:#cfd2d3;}.cls-26{fill:#eeeded;}.cls-27{fill:#5c595a;}.cls-28{fill:#5c5a5b;}.cls-29{fill:#f7f8f9;}.cls-30{fill:none;stroke:#fff;stroke-linecap:round;stroke-linejoin:round;stroke-width:0;}</style></defs><title>GraphicDesignBus</title><g id="Layer_2" data-name="Layer 2"><g id="Layer_1-2" data-name="Layer 1"><path class="cls-1" d="M278.69,208.46c.27,12.84-9.11,23-19.94,21.63l-32.69-4.21-23.21-3-8.22-1.06-16.54-2.13-39.18-5c-8.76-1.13-15.54-9.57-16-19.95l-2.47-53.9a24.24,24.24,0,0,1,2-10.89c2.37-5.41,6.68-9.54,12-11l28.24-7.52L225,94.83,254.59,87a15.32,15.32,0,0,1,9.54.51c6.95,2.69,12.21,10.28,12.41,19.66l.89,41.9.44,20.57Z"/><path class="cls-2" d="M71.45,97.81,52.57,159.6a21,21,0,0,1-28.3,13.24L12.87,168A21,21,0,0,1,.36,144.79L11.85,83A21,21,0,0,1,37.73,66.48l.44.12,18.35,4.67A21,21,0,0,1,71.45,97.81Z"/><path class="cls-3" d="M70.87,95.39c.3.91-26.1,15.18-26.1,15.18L38,68.25l.16-1.65,18.35,4.67a21,21,0,0,1,7.75,3.79C67.6,85.31,70.73,95,70.87,95.39Z"/><path class="cls-3" d="M246.48,89.06l-29.56,7.87L185.14,191l-12.54-6.76s-1.8,25.48-2.62,37.55L194.74,225l-.93-26.43,7.45,1.86c4.58,2.11,12-1,14.16-6.21C215.42,194.21,249.79,88.17,246.48,89.06Z"/><path class="cls-4" d="M53.7,114c-2-16.46-5.77-49.79-8.3-71.88-1.27-11.08,5.77-20.81,14.44-20L237,39.5c9.19.9,15,13.08,11.52,24.06l-38.7,121.35c-2.83,8.86-10.66,13.14-17.57,9.59L62.09,127.62C57.62,125.33,54.43,120.16,53.7,114Z"/><polygon class="cls-3" points="277.87 169.59 218.52 190.22 212.99 177.47 255.82 152.68 277.43 149.02 277.87 169.59"/><path class="cls-5" d="M187.33,100.54l-.55,2.59L142.46,107s-17.34-11.81-2.55-24.48l4,0,36.86-.21s-18.47,6.47-7.85,14.53a19.17,19.17,0,0,0,11,3.67Z"/><path class="cls-6" d="M187.33,100.54l-.55,2.59L142.46,107s-17.34-11.81-2.55-24.48l4,0,.12.33s-14.63,13,1.73,19.93Z"/><path class="cls-7" d="M89.38,6.72l3,75a4.19,4.19,0,0,0,4.32,4l114.42-3.55a4.2,4.2,0,0,0,4-3.75l7.95-73.82A4.2,4.2,0,0,0,218.89,0L93.49,2.36A4.19,4.19,0,0,0,89.38,6.72Z"/><path class="cls-8" d="M95.54,7.08,216.8,4.8a1.36,1.36,0,0,1,1.38,1.5l-7.54,70a1.36,1.36,0,0,1-1.31,1.21L98.48,81a1.36,1.36,0,0,1-1.4-1.3L94.21,8.49A1.35,1.35,0,0,1,95.54,7.08Z"/><path class="cls-5" d="M158.62,4a.94.94,0,1,0-.93.93A.93.93,0,0,0,158.62,4Z"/><path class="cls-9" d="M105.06,15.11l8.1,55.7S156.7,67,156.7,66.25s-3.55-53.67-3.55-53.67Z"/><polygon class="cls-10" points="146.06 23.21 152.9 51.57 200.24 57.39 203.02 17.65 146.06 23.21"/><path class="cls-11" d="M133.91,38.4l9.88,38.48s36.7-2,36.45-2.78-2-41.27-2-41.27Z"/><polygon class="cls-6" points="241.88 98.8 241.64 100.5 187.12 135.75 187.94 128.84 241.88 98.8"/><path class="cls-5" d="M140.45,106.48c.92-.31,71.93-17.52,72.85-17.21l28.58,9.53-79.61,49.49Z"/><path class="cls-6" d="M219.24,107.74l0,.48-26.19,15.16-5.21-7.12s14-10.18,14.32-10.18S219.24,107.74,219.24,107.74Z"/><polygon class="cls-6" points="200.98 97.99 200.96 98.49 167.04 108.98 166.81 107.76 200.98 97.99"/><path class="cls-8" d="M157.65,105.75c.76,0,39.17-9.46,39.17-9.46L201,98,161.05,110.1Z"/><polygon class="cls-8" points="167.22 114.07 203.32 100.73 219.24 107.74 188.95 125.2 167.22 114.07"/><polygon class="cls-6" points="201.36 95.53 201.27 96.04 223.4 105.39 236.04 99.8 235.98 99.31 209.31 95.66 201.36 95.53"/><polygon class="cls-8" points="212.52 91.75 235.98 99.31 223.49 104.8 201.36 95.53 212.52 91.75"/><path class="cls-6" d="M177.89,133.81c-.22-.91-3.64-11.61-3.64-11.61l82.84-16.61,31,54.39-96.5,35.28Z"/><polygon class="cls-8" points="181.76 124.94 244.35 111.96 271.2 161.35 206.12 185.02 181.76 124.94"/><polygon class="cls-7" points="174.25 122.2 171.98 126.3 180.63 149.97 176.3 128.35 174.25 122.2"/><path class="cls-7" d="M259.85,134.59c-1.24-3-.56-6.06,1.53-6.93s4.78.8,6,3.75.56,6.07-1.52,6.94S261.1,137.55,259.85,134.59Z"/><polygon class="cls-7" points="255.49 126.36 263.74 123.95 262.82 122.23 254.35 124.75 255.49 126.36"/><polygon class="cls-7" points="254 123.38 262.25 120.97 261.33 119.25 252.86 121.78 254 123.38"/><polygon class="cls-7" points="252.17 120.06 260.42 117.65 259.5 115.93 251.02 118.45 252.17 120.06"/><polygon class="cls-7" points="268.55 149.05 276.8 146.64 275.89 144.92 267.41 147.44 268.55 149.05"/><polygon class="cls-7" points="267.06 146.07 275.31 143.66 274.4 141.94 265.92 144.46 267.06 146.07"/><polygon class="cls-7" points="265.23 142.74 273.48 140.34 272.56 138.62 264.09 141.14 265.23 142.74"/><path class="cls-6" d="M231.71,120.81s.06,2.69.55,3.18a7,7,0,0,0,1.65-2.82S232.38,120.26,231.71,120.81Z"/><path class="cls-5" d="M243.18,86l-.89,3.56-.26,1-4.87,19.36-.23.95-2.59,10.29s-1.81,2.81-3-.61l1.41-10,.15-1.06L235.77,89l.14-1,.44-3.1A5.93,5.93,0,0,1,243.18,86Z"/><path class="cls-7" d="M243.18,86c-3.86,2.76-6.83-1-6.83-1A5.93,5.93,0,0,1,243.18,86Z"/><path class="cls-6" d="M237.37,85.16s.64-3.08,2.9-3S242,85.8,242,85.8A4.48,4.48,0,0,1,237.37,85.16Z"/><path class="cls-6" d="M242.29,89.53l-.26,1c-1.34.2-4.38.38-6.26-1.52l.14-1C236.63,88.86,238.64,90.51,242.29,89.53Z"/><path class="cls-6" d="M237.16,109.9l-.23.95a4.28,4.28,0,0,1-4.2-.29l.15-1.06A3.65,3.65,0,0,0,237.16,109.9Z"/><path class="cls-12" d="M232.26,124c-.6,1.22-1.28,2.32-1.92,3.47A18.07,18.07,0,0,0,228.8,131c-.74,2.44-.75,5.2.72,7.27a5.11,5.11,0,0,0,.54.75l.67.67.33.34.38.29.76.59a12.77,12.77,0,0,0,3.41,1.69c1.22.39,2.5.6,3.83.91a9.15,9.15,0,0,1,3.84,1.74,16.66,16.66,0,0,1,4.31,7l.36.95c.11.33.19.7.27,1.05a4.32,4.32,0,0,1,.15,1.07,5.58,5.58,0,0,1,0,1.08,12.43,12.43,0,0,1-1,4.1,23.3,23.3,0,0,1-4.81,6.65,33.83,33.83,0,0,1-6.43,5,29.22,29.22,0,0,1-7.54,3.24,16.14,16.14,0,0,1-4.18.55,9.58,9.58,0,0,1-4.28-.92,8.44,8.44,0,0,1-1.9-1.25,8.83,8.83,0,0,1-1.41-1.78,11.68,11.68,0,0,1-1.45-4.12l-.19-2.11,0-2.09a20.26,20.26,0,0,1,.66-4.16,24.72,24.72,0,0,1,3.54-7.52,41.31,41.31,0,0,1,5.3-6.25c1.93-1.9,4-3.66,6.07-5.34s4.22-3.3,6-5a7.19,7.19,0,0,0,1.08-1.25,1.14,1.14,0,0,0,.18-.37s0,.19,0,.16a2.89,2.89,0,0,0-1-.48,13.75,13.75,0,0,0-1.75-.38,60.84,60.84,0,0,0-7.73-.57c-5.25-.12-10.59-.06-15.82.12a73.58,73.58,0,0,0-7.76.69,26.15,26.15,0,0,0-7.18,1.93,5.14,5.14,0,0,0-2.26,1.82,2,2,0,0,0-.21,1,3.45,3.45,0,0,0,.38,1.25A10.33,10.33,0,0,0,196.8,142a24.81,24.81,0,0,0,2.88,2.36,59.65,59.65,0,0,0,13.75,7,57.53,57.53,0,0,0,15,3.5,19.41,19.41,0,0,0,7.21-.61,7.71,7.71,0,0,0,.77-.29c.25-.12.49-.22.78-.39l1.66-.94a17.31,17.31,0,0,0,1.6-1c.5-.37,1.07-.68,1.53-1.08l1.43-1.17,1.29-1.29c.39-.45.73-.92,1.11-1.38s.63-1,.86-1.47a10.91,10.91,0,0,0,.92-3.12c.22-1.07.54-2.13.94-3.78a4.47,4.47,0,0,1,2.45,3.94,4.73,4.73,0,0,1-.06,1.19,5.46,5.46,0,0,1-.24,1.15c-.12.38-.21.76-.36,1.12l-.47,1.05a20.11,20.11,0,0,1-1.15,2c-.46.57-.9,1.17-1.39,1.71l-1.53,1.54-1.65,1.34c-.55.47-1.15.81-1.72,1.21a17.4,17.4,0,0,1-1.77,1.11l-1.81,1a8.46,8.46,0,0,1-1,.5,11.12,11.12,0,0,1-1.09.42,22.71,22.71,0,0,1-8.56.76,60.75,60.75,0,0,1-15.93-3.73,63.19,63.19,0,0,1-14.57-7.43,28.28,28.28,0,0,1-3.26-2.7,13.25,13.25,0,0,1-2.75-3.62,6.63,6.63,0,0,1-.7-2.56,5.39,5.39,0,0,1,.65-2.83,8.3,8.3,0,0,1,3.77-3.19,29.58,29.58,0,0,1,8.17-2.14,79.31,79.31,0,0,1,8.1-.63c5.38-.12,10.66-.12,16,.06a63.15,63.15,0,0,1,8.13.7,16.3,16.3,0,0,1,2.13.5,4.85,4.85,0,0,1,2.39,1.46,2.57,2.57,0,0,1,.53,2,3.68,3.68,0,0,1-.59,1.45,10,10,0,0,1-1.52,1.75c-2.08,1.93-4.22,3.44-6.29,5.09s-4.09,3.29-6,5.08c-3.74,3.55-7,7.71-8.41,12.55a17.84,17.84,0,0,0-.65,3.69l-.07,1.89.14,1.85a9.43,9.43,0,0,0,1.11,3.37,6.39,6.39,0,0,0,1,1.35,6.53,6.53,0,0,0,1.39.94,7.53,7.53,0,0,0,3.42.77,14.21,14.21,0,0,0,3.7-.42,27,27,0,0,0,7.09-2.93,31.55,31.55,0,0,0,6.2-4.64,21.78,21.78,0,0,0,4.57-6.1,10.67,10.67,0,0,0,1-3.57,7.94,7.94,0,0,0-.65-3.6,15.47,15.47,0,0,0-3.81-6.5c-1.86-1.63-4.63-1.66-7.23-2.56a13.73,13.73,0,0,1-3.67-1.89l-.81-.63-.4-.33-.36-.37-.72-.76a6.76,6.76,0,0,1-.61-.87,7.77,7.77,0,0,1-1.27-4l0-1,.13-1a6.69,6.69,0,0,1,.2-1c.09-.33.14-.68.26-1a19.09,19.09,0,0,1,1.68-3.71A10,10,0,0,1,232.26,124Z"/><path class="cls-13" d="M227.76,155l-1.7,70.9-23.21-3-8.22-1.06c-11.81-15.12-45.1-57.45-72.23-91.91L83.28,80.25s10.83-.72,7-10.58l72.4,41.77,60.12,34.68A9.94,9.94,0,0,1,227.76,155Z"/><path class="cls-14" d="M155.3,256.56l-1.64.25-3,.47-1,3.62a10.77,10.77,0,0,0,10.89.2l56.18-32.43a8.43,8.43,0,0,0,4.22-7.31V152.73a4.16,4.16,0,0,0-2.16-3.56l-.94,2.52.34.33L162.11,184.4l-6.43-3.92-10,6.91-.92.63,1.71.8L155.3,193Z"/><path class="cls-15" d="M149.67,260.9a10.77,10.77,0,0,0,10.89.2l56.18-32.43a8.43,8.43,0,0,0,4.22-7.31v-2.3L155.12,257l-1.46-.14-3,.47Z"/><path class="cls-16" d="M24,114.8a3.69,3.69,0,0,1,2.13-3.51l2.26,3.37s-2.26,4.08-2.34,4S24,114.8,24,114.8Z"/><path class="cls-17" d="M117.48,242.3,94.86,229.24l.33-14.38,25.42,9.53s-.15,17.44-.62,17.52Z"/><path class="cls-17" d="M64.89,212,39.64,197.38,40,183l25.42,9.53s-.15,17.45-.62,17.52S64.89,212,64.89,212Z"/><path class="cls-18" d="M100.25,224.7h0l.15-.09,5.46-3.43a9.73,9.73,0,0,1,1.1-.7h0a9.58,9.58,0,0,1,9.43.14h0a18,18,0,0,1,9,15.59h0a9.59,9.59,0,0,1-5.06,8.5h0L115.18,248l-.12.07-.21.14h0a9.62,9.62,0,0,1-9.9.13h0a18,18,0,0,1-9-15.59h0A9.56,9.56,0,0,1,100.25,224.7Z"/><path class="cls-19" d="M107.32,231h0a4.94,4.94,0,0,0-7.42,4.28h0a9.19,9.19,0,0,0,4.6,8h0a4.94,4.94,0,0,0,7.42-4.28h0A9.19,9.19,0,0,0,107.32,231Z"/><path class="cls-18" d="M45.45,193.12h0l.14-.09,5.46-3.44a11.29,11.29,0,0,1,1.1-.69h0a9.56,9.56,0,0,1,9.42.14h0a18,18,0,0,1,9,15.59h0a9.59,9.59,0,0,1-5.06,8.5h0l-5.17,3.3-.12.08-.21.14h0a9.59,9.59,0,0,1-9.9.14h0a18,18,0,0,1-9-15.6h0A9.56,9.56,0,0,1,45.45,193.12Z"/><path class="cls-19" d="M52.52,199.38h0a5,5,0,0,0-7.42,4.29h0a9.22,9.22,0,0,0,4.6,8h0a5,5,0,0,0,7.42-4.29h0A9.21,9.21,0,0,0,52.52,199.38Z"/><path class="cls-20" d="M24,114.81v70.41l17.16,13a11,11,0,0,1,3.8-5.08l.09-.07a8.18,8.18,0,0,1,9.12-.37,17.93,17.93,0,0,1,8.23,10.4.5.5,0,0,1,0,.13,17.79,17.79,0,0,1,.73,5.06,9.22,9.22,0,0,1-.31,2.44l33,19a11,11,0,0,1,3.76-5.09l.09-.06a8.14,8.14,0,0,1,9.12-.41A18.07,18.07,0,0,1,117,234.67a.5.5,0,0,0,0,.13,18,18,0,0,1,.72,5,9.81,9.81,0,0,1-.31,2.46l32.19,18.6a3.75,3.75,0,0,0,5.63-3.25V194.26a10.94,10.94,0,0,0-.18-1.91,10.27,10.27,0,0,0-5-7L26,113.66A1.32,1.32,0,0,0,24,114.81Z"/><polygon class="cls-21" points="220.96 211.99 155.12 250 155.29 256.88 220.96 219.05 220.96 211.99"/><path class="cls-22" d="M24,174.19v6.88l21,12.1.09-.07a8.18,8.18,0,0,1,9.12-.37,17.93,17.93,0,0,1,8.23,10.4.5.5,0,0,1,0,.13l37.15,21.45.09-.06a8.14,8.14,0,0,1,9.12-.41A18.07,18.07,0,0,1,117,234.67a.5.5,0,0,0,0,.13l38.23,22.08V250Z"/><path class="cls-19" d="M117,234.67a17.82,17.82,0,0,1,.76,5.17,9.81,9.81,0,0,1-.31,2.46l32.19,18.6a3.75,3.75,0,0,0,5.63-3.25v-.88Z"/><path class="cls-19" d="M62.39,203.13a17.67,17.67,0,0,1,.77,5.19,9.22,9.22,0,0,1-.31,2.44l33,19a11.07,11.07,0,0,1,3.85-5.15Z"/><path class="cls-19" d="M24,181v4.27l17.16,13A11.08,11.08,0,0,1,45,193.1Z"/><path class="cls-23" d="M124.2,190.62v52.71l9.19,5.31.68.39,1.07.62L146.08,256V203.54a6,6,0,0,0-3-5.19l-8-4.59-1.07-.61-.68-.4L126.94,189l-.21-.11A1.83,1.83,0,0,0,124.2,190.62Z"/><path class="cls-23" d="M30.8,136v27.82a3.65,3.65,0,0,0,.71,2.18,3.59,3.59,0,0,0,1.15,1L57.12,181.2l.69.39,33.07,19.09.68.4,26.9,15.53a1.44,1.44,0,0,0,2.15-1.24V187.58a3.77,3.77,0,0,0-1.89-3.27L91.56,168.63l-.68-.4L57.81,149.14l-.69-.4L33,134.79A1.43,1.43,0,0,0,30.8,136Z"/><path class="cls-23" d="M30.8,136v27.82a3.65,3.65,0,0,0,.71,2.18,3.59,3.59,0,0,0,1.15,1h0L57.12,181.2l.69.39.69.4,32.38,18.69.68.4.79.45,26.11,15.08a1.44,1.44,0,0,0,2.15-1.24V187.58a3.77,3.77,0,0,0-1.89-3.27L92.35,169.08l-.79-.45-.68-.4L58.5,149.54l-.69-.4-.69-.4L33,134.79A1.42,1.42,0,0,0,30.8,136Z"/><path class="cls-24" d="M31.51,166a3.59,3.59,0,0,0,1.15,1L57.12,181.2l.69.39,33.07,19.09.68.4,26.9,15.53a1.38,1.38,0,0,0,1.43,0,3.73,3.73,0,0,0-1.17-1.06L91.56,199.86l-.68-.4L57.81,180.38l-.69-.4L33,166A1.4,1.4,0,0,0,31.51,166Z"/><path class="cls-25" d="M145.64,187.39l.79,1.43L155.3,193v11.51L221,166.59V152.73a4.16,4.16,0,0,0-2.16-3.56l-.94,2.52.34.33L162.11,184.4l-6.43-3.92Z"/><path class="cls-8" d="M92.24,76.11,218.8,149.18a1.44,1.44,0,0,1,0,2.49L161.06,185a11.56,11.56,0,0,1-11.52,0L26.12,113.75a1.42,1.42,0,0,1,0-2.46L87,76.11A5.23,5.23,0,0,1,92.24,76.11Z"/><path class="cls-26" d="M24,114.81v12.4l131.13,75.92V192.35a10.27,10.27,0,0,0-5-7L26,113.66A1.32,1.32,0,0,0,24,114.81Z"/><path class="cls-23" d="M152.65,242a5.07,5.07,0,0,0,5.45.24l57.33-33.1L221,206V155.45l-6.58,3.71-57.21,32.27a7.56,7.56,0,0,0-3.74,5.65l-.25,4.93-1.7,34c-.07.69-.15,1.41-.19,2.11C151.21,239.69,151.38,241.15,152.65,242Z"/><path class="cls-27" d="M212.92,207.29l2.51,1.89L221,206V155.45l-6.58,3.71v44.46Z"/><path class="cls-24" d="M152.65,242a5.07,5.07,0,0,0,5.45.24L221,206l-6.58-2.37-63.09,34.5C151.21,239.69,151.38,241.15,152.65,242Z"/><polygon class="cls-24" points="146.08 253.74 126.73 242.56 124.2 243.33 146.08 255.97 146.08 253.74"/><polygon class="cls-28" points="133.38 192.75 133.38 248.63 134.07 249.03 134.07 193.15 133.38 192.75"/><polygon class="cls-28" points="90.88 168.23 90.88 200.68 91.56 201.08 91.56 168.63 90.88 168.23"/><polygon class="cls-28" points="57.12 148.74 57.12 181.2 57.81 181.59 57.81 149.14 57.12 148.74"/><path class="cls-24" d="M124.2,190.62v52.71l2.53-.77V188.92A1.83,1.83,0,0,0,124.2,190.62Z"/><polygon class="cls-24" points="134.07 193.15 134.07 249.03 135.14 249.65 135.14 193.76 134.07 193.15"/><path class="cls-24" d="M30.8,136v27.82a3.65,3.65,0,0,0,.71,2.18,3.59,3.59,0,0,0,1.15,1h0l.29-1a1.93,1.93,0,0,1-.74-1.51V134.59A1.44,1.44,0,0,0,30.8,136Z"/><polygon class="cls-24" points="91.56 168.63 91.56 201.08 92.35 201.53 92.35 169.08 91.56 168.63"/><polygon class="cls-24" points="57.81 149.14 57.81 181.59 58.5 181.99 58.5 149.54 57.81 149.14"/><polygon class="cls-24" points="156.54 250.22 156.54 255.48 159.81 253.6 159.81 248.33 159.15 248.71 156.54 250.22"/><polygon class="cls-14" points="156.54 250.22 156.54 254.86 159.15 253.39 159.15 248.71 156.54 250.22"/><polygon class="cls-24" points="160.95 247.62 160.95 252.89 166.68 249.59 166.68 244.32 166.22 244.58 160.95 247.62"/><polygon class="cls-16" points="160.95 247.62 160.95 252.32 166.22 249.32 166.22 244.58 160.95 247.62"/><polygon class="cls-24" points="216.31 215.75 216.31 221.01 219.58 219.13 219.58 213.86 218.93 214.24 216.31 215.75"/><polygon class="cls-14" points="216.31 215.75 216.31 220.39 218.93 218.92 218.93 214.24 216.31 215.75"/><polygon class="cls-24" points="209.76 219.55 209.76 224.81 215.49 221.51 215.49 216.25 215.03 216.51 209.76 219.55"/><polygon class="cls-16" points="209.76 219.55 209.76 224.25 215.03 221.24 215.03 216.51 209.76 219.55"/><path class="cls-24" d="M153.18,202,221,163.88v-8.43l-6.58,3.71-57.21,32.27a7.56,7.56,0,0,0-3.74,5.65Z"/><path class="cls-25" d="M112.21,149.13l22.88,13.21a8.66,8.66,0,0,0,8.66,0L181,140.86a1.52,1.52,0,0,0,0-2.62l-4.88-3.33-.72.07-15.58-9.07a11.44,11.44,0,0,0-11.47,0l-10.44,6-18.39,10.62-2.39-.33-5,4.63a1,1,0,0,0-.22.19l0,0h0A1.38,1.38,0,0,0,112.21,149.13Z"/><path class="cls-26" d="M112.21,149.13l22.88,13.21a8.68,8.68,0,0,0,4.33,1.16l.47-6.92,3.84-9.52-3.84-15.23-2,.08-18.39,10.62-2.39-.33-5,4.63a1,1,0,0,0-.22.19l0,0h0A1.38,1.38,0,0,0,112.21,149.13Z"/><path class="cls-29" d="M148.08,124.32l-31,17.88a1.19,1.19,0,0,0,0,2.06l19.63,11.33a7.42,7.42,0,0,0,7.43,0l31.92-18.43a1.3,1.3,0,0,0,0-2.25l-18.17-10.58A9.83,9.83,0,0,0,148.08,124.32Z"/><path class="cls-25" d="M50.46,113.84l22.88,13.21a8.64,8.64,0,0,0,8.65,0l37.22-21.48a1.52,1.52,0,0,0,0-2.62l-4.89-3.33-.71.07L98,90.62a11.44,11.44,0,0,0-11.47,0l-10.44,6L57.74,107.25l-2.39-.34-5,4.63a1.07,1.07,0,0,0-.22.2l0,0h0A1.37,1.37,0,0,0,50.46,113.84Z"/><path class="cls-26" d="M50.46,113.84l22.88,13.21a8.58,8.58,0,0,0,4.33,1.16l.47-6.91L82,111.78,78.14,96.54l-2,.09L57.74,107.25l-2.39-.34-5,4.63a1.07,1.07,0,0,0-.22.2l0,0h0A1.37,1.37,0,0,0,50.46,113.84Z"/><path class="cls-29" d="M86.32,89l-31,17.89a1.18,1.18,0,0,0,0,2L75,120.3a7.4,7.4,0,0,0,7.42,0l31.93-18.43a1.3,1.3,0,0,0,0-2.25L96.17,89.05A9.82,9.82,0,0,0,86.32,89Z"/><path class="cls-18" d="M82.94,209.69c-2.46-1.63-.73-5.87-3.61-6.92a2.14,2.14,0,0,0-2,.25.53.53,0,0,0-.14.12.55.55,0,0,0-.31.08c-.1.05-.31.33-.37.34s-.27-.31-.3-.38a6.33,6.33,0,0,1-.38-.87c.68-1.9,1-4.39-.53-6s-3.56-.53-4.65.92a6.68,6.68,0,0,0-.67,6.47c.28.82.88,1.86.63,2.75a2.67,2.67,0,0,1-1,1,1.47,1.47,0,0,1-.66-.13,4,4,0,0,1-.56-2c0-1.38.73-2.49.43-3.94-.36-1.78-1.89-2.85.06-4.42.55-.44,1.07-.36,1.3-1.2.44-1.6-1.59-3.51-3.07-3.64a2.23,2.23,0,0,0-1.9.83,4.53,4.53,0,0,0-.68,1.14c-.21.46-.28.92-.43,1.27-.39.28-.73.26-1-.62A9.36,9.36,0,0,0,60.08,190v0a2.77,2.77,0,0,0-1.54-1.29c-.46-.17-1-.1-1.45-.24-.09-.11-.18-.23-.28-.34a1.35,1.35,0,0,0-.65-.62.31.31,0,0,0-.31.54l.18.14a.63.63,0,0,1,.13.2,1.81,1.81,0,0,1-.71-.24.25.25,0,0,0-.3.4,2.2,2.2,0,0,0,.51.35A11.91,11.91,0,0,1,56.85,190a.14.14,0,0,0,.23-.12h0c.2.89,1.21,1.26,2,1.36a.49.49,0,0,0,.35-.1l0,0a8.66,8.66,0,0,1,1.16,3.95,4.52,4.52,0,0,0,.62,2.5c1,1.32,2.68.83,3.55-.37l0,0c.74-.62,1.38-1.59,2-2.2a4,4,0,0,1-.4,1.74c-.08.24-.26.44-.35.68a3.83,3.83,0,0,0-.09,1.78,20.31,20.31,0,0,1,.44,3.38,21.74,21.74,0,0,0-.26,3.32,4,4,0,0,0,.24,1,3.1,3.1,0,0,0,1.18,2,2.9,2.9,0,0,0,3.62.2l.28-.09a1.05,1.05,0,0,0,.34-.22c1.07-.71,1.1-2,.83-3.17a9.14,9.14,0,0,0-.41-2,6.94,6.94,0,0,1-.45-2.7c.07-.68.38-1.26.45-1.94a.43.43,0,0,0,0,0s0,0,0-.05c.66-.53,1.9-.83,2.26.06a6.79,6.79,0,0,1,.06,1.19c-.08,1.45-1.13,2.69-.88,4.17a2.18,2.18,0,0,0,3.79,1.31c.57-.53,1-1.23,1.63-.1.4.71.11,1.81.51,2.58.58,1.11,2.05,1.39,3.09,1.93A.14.14,0,0,0,82.94,209.69Z"/><path class="cls-8" d="M99,212.86a.85.85,0,0,0,.32,1.08.84.84,0,0,0,1.07-.12c.11-.14-.08-.33-.2-.2a.57.57,0,0,1-.78.08.62.62,0,0,1,0-1c.58-.49,1.13.08,1.64.34a.06.06,0,0,0,.09-.05C101.14,211.89,99.4,211.92,99,212.86Z"/><path class="cls-8" d="M103.32,212.7a2.89,2.89,0,0,0-3.73-1.4.14.14,0,0,0-.1-.06,2.29,2.29,0,0,0-2.7,2.62c.27,2,2.8,2.72,4.52,2.45A2.6,2.6,0,0,0,103.32,212.7Zm-1.85,2.89a4,4,0,0,1-3.63-1,1.9,1.9,0,0,1,1.48-3,.18.18,0,0,0,.24.11,2.58,2.58,0,0,1,2.89.51A2.06,2.06,0,0,1,101.47,215.59Z"/><path class="cls-8" d="M104.83,212c-1.49-2.84-5.14-3-7.72-1.68l0,0c-1,.31-2.06.46-2.7,1.4a4.7,4.7,0,0,0-.17,3.75c1,2.85,5.14,3.65,7.71,3A4.44,4.44,0,0,0,104.83,212Zm-.74,4.31a4.38,4.38,0,0,1-3.26,1.6c-2.25.29-5.31-.4-6.19-2.8s.69-3.36,2.36-4.39a.28.28,0,0,0,.36.17c2-.76,4.32-1.18,6.06.43A4.14,4.14,0,0,1,104.09,216.32Z"/><path class="cls-8" d="M124.07,238.59a39.73,39.73,0,0,0-7.9-11.55c-3.3-3.3-7.15-5.11-11.21-7.14a4.17,4.17,0,0,0,1.11-1,3.89,3.89,0,0,0,.58-1.13c2.57,2.23,5.89,3.25,8.65,5.23a21.26,21.26,0,0,1,7.82,10,.39.39,0,1,0,.72-.31,27.78,27.78,0,0,0-6.87-9.16c-3.12-2.55-7.07-3.65-10.21-6.1a8.3,8.3,0,0,0,.25-1.74,10.51,10.51,0,0,0,3.32,1.64,26.85,26.85,0,0,1,5.49,2.75,21.56,21.56,0,0,1,7.71,9c.14.31.65,0,.48-.28a24.6,24.6,0,0,0-6.8-8.63c-3-2.32-6.63-3.59-10.19-4.86a14.08,14.08,0,0,0-.14-2.24c-.66-4.62-5.79-5.34-9.57-4.76a.37.37,0,0,0-.32.38,1,1,0,0,1-.17,0s0,0,0,0c-1.36-3.6-6.55-4.61-7.33-8.48,0-.09-.15-.06-.16,0-.12,1.61.94,2.58,2.08,3.57,1.66,1.44,4.09,2.86,4.83,5a10.06,10.06,0,0,0-2.13.62.23.23,0,0,0,0-.18,13.55,13.55,0,0,0-3.75-4.43c-2.14-1.73-4.28-3.05-4-6.2,0-.4-.6-.4-.63,0a5.69,5.69,0,0,0,2.11,5.07c2.15,1.85,4.31,3.35,5.85,5.81a.26.26,0,0,0,.11.1,5.31,5.31,0,0,0-1.86,1.54l-.06.09a11.56,11.56,0,0,0-3.6-5.27c-2.42-2.31-6.39-4.34-5.45-8.35a.12.12,0,0,0-.23-.06c-1,2.46.42,4.65,2.19,6.34,2.39,2.27,5.62,4.47,6.19,8a.39.39,0,0,0,.36.36,7.28,7.28,0,0,0-.12,4.36c.4,1.71,1.09,3.39,2.8,4.09a13.23,13.23,0,0,0,6.86.54,13.48,13.48,0,0,0,3.64-1c1.81,1,3.79,1.63,5.61,2.66a26.86,26.86,0,0,1,5.8,4.5A37.16,37.16,0,0,1,123.43,239C123.62,239.41,124.27,239,124.07,238.59ZM100.65,220.3a13.84,13.84,0,0,1-5-.1,4.34,4.34,0,0,1-3.51-3.52c-.49-1.82-.92-4.12.56-5.61,1.13-1.15,3-1.57,4.53-1.91a.47.47,0,0,0,.17,0c2.88.06,7,0,8.65,2.89a6.08,6.08,0,0,1-.69,6.32C104.24,219.59,102.22,220.05,100.65,220.3Z"/><path class="cls-8" d="M81.23,197a.36.36,0,0,0-.26-.11.39.39,0,0,0-.27.11.41.41,0,0,0-.11.26.39.39,0,0,0,.11.26.4.4,0,0,0,.27.11.38.38,0,0,0,.26-.11.36.36,0,0,0,.11-.26A.35.35,0,0,0,81.23,197Z"/><path class="cls-8" d="M81.1,199.32a.46.46,0,0,0-.46-.12.46.46,0,0,0-.33.33l0,.07a.45.45,0,0,0,0,.23.4.4,0,0,0,.11.19.44.44,0,0,0,.19.12.45.45,0,0,0,.23,0l.08,0a.57.57,0,0,0,.21-.13.37.37,0,0,0,.12-.2A.49.49,0,0,0,81.1,199.32Z"/><path class="cls-8" d="M81.37,202.16a.26.26,0,0,0,0,.51A.26.26,0,0,0,81.37,202.16Z"/><path class="cls-8" d="M83.68,204.27a.23.23,0,0,0-.08-.09.24.24,0,0,0-.11-.06l-.13,0h-.19a.51.51,0,0,0-.16.09.39.39,0,0,0-.1.25.37.37,0,0,0,.1.25.29.29,0,0,0,.16.09.31.31,0,0,0,.19,0h.13l.08,0a.34.34,0,0,0,.09-.08.38.38,0,0,0,.07-.21A.37.37,0,0,0,83.68,204.27Z"/><path class="cls-8" d="M85.64,206.06a.42.42,0,0,0-.13-.22.53.53,0,0,0-.36-.15.36.36,0,0,0-.2,0,.42.42,0,0,0-.16.11.46.46,0,0,0-.11.16.45.45,0,0,0,0,.2l0,.13a.48.48,0,0,0,.13.23.53.53,0,0,0,.36.15.35.35,0,0,0,.2-.05.34.34,0,0,0,.16-.1.39.39,0,0,0,.11-.17.41.41,0,0,0,0-.19Z"/><path class="cls-8" d="M86.77,208.12a.24.24,0,0,0,0,.47A.24.24,0,0,0,86.77,208.12Z"/><path class="cls-8" d="M87.58,208.81a.63.63,0,0,0,0,1.26A.63.63,0,0,0,87.58,208.81Z"/><path class="cls-8" d="M90.21,211.68l-.07-.15a.58.58,0,0,0-.22-.22l0,0a.59.59,0,0,0-.26-.07.6.6,0,0,0-.27.07l0,0a.55.55,0,0,0-.18.16.47.47,0,0,0-.08.14.6.6,0,0,0,0,.24l0,.16.07.15a.55.55,0,0,0,.16.18.35.35,0,0,0,.13.08.53.53,0,0,0,.25.05l.16,0,.15-.06a.58.58,0,0,0,.18-.17.41.41,0,0,0,.08-.13.52.52,0,0,0,0-.24Z"/><path class="cls-8" d="M96.89,206.56a.45.45,0,0,0,0,.9A.45.45,0,0,0,96.89,206.56Z"/><path class="cls-8" d="M95.76,204.87l-.05-.14a.45.45,0,0,0-.87,0l0,.14a.63.63,0,0,0,0,.36.5.5,0,0,0,.49.38.52.52,0,0,0,.5-.38A.63.63,0,0,0,95.76,204.87Z"/><path class="cls-8" d="M92.57,202.6a.49.49,0,0,0,0,1A.49.49,0,0,0,92.57,202.6Z"/><path class="cls-8" d="M91.09,201.62a.26.26,0,0,0,0,.51A.26.26,0,0,0,91.09,201.62Z"/><path class="cls-8" d="M108.5,214.2a.24.24,0,0,0,0,.47A.24.24,0,0,0,108.5,214.2Z"/><path class="cls-8" d="M110.53,214.87a.37.37,0,0,0,0,.74A.37.37,0,0,0,110.53,214.87Z"/><path class="cls-8" d="M113.21,215.91a.31.31,0,0,0,0-.1.43.43,0,0,0-.12-.11h0a.5.5,0,0,0-.21-.05.54.54,0,0,0-.21.05h0l-.08.07a.34.34,0,0,0-.09.14.19.19,0,0,0,0,.1.37.37,0,0,0,0,.18.51.51,0,0,0,.16.25.37.37,0,0,0,.5,0,.56.56,0,0,0,.16-.25l0-.12A.29.29,0,0,0,113.21,215.91Z"/><path class="cls-8" d="M115.39,217a.5.5,0,0,0,0,1A.5.5,0,0,0,115.39,217Z"/><path class="cls-8" d="M118.17,219.08l0-.1a.35.35,0,0,0-.31-.18.35.35,0,0,0-.3.18l-.05.1a.42.42,0,1,0,.71,0Z"/><path class="cls-8" d="M120.37,221.19a.2.2,0,0,0,0-.13l-.06-.08a.32.32,0,0,0-.16-.09h0a.25.25,0,0,0-.17,0,.29.29,0,0,0-.14.08.32.32,0,0,0-.08.14.43.43,0,0,0,0,.16s0,0,0,.06l0,.08,0,0,.1.09a.28.28,0,0,0,.13,0h.13a.27.27,0,0,0,.19-.08.24.24,0,0,0,.08-.19A.53.53,0,0,0,120.37,221.19Z"/><path class="cls-8" d="M121.86,222.68a.39.39,0,0,0,0,.78A.39.39,0,0,0,121.86,222.68Z"/><path class="cls-8" d="M123.21,224.33a.63.63,0,0,0,0,1.26A.63.63,0,0,0,123.21,224.33Z"/><path class="cls-8" d="M121.38,237.09a.5.5,0,0,0-.27,0,.3.3,0,0,0-.21.31v0h0v0a.39.39,0,0,0,.16.32.26.26,0,0,0,.43.18.73.73,0,0,0,.19-.45A.4.4,0,0,0,121.38,237.09Z"/><path class="cls-8" d="M120.9,237.4v0h0v0Z"/><path class="cls-8" d="M120.24,234.59a.36.36,0,0,0,0,.71A.36.36,0,0,0,120.24,234.59Z"/><path class="cls-8" d="M119.13,232a.35.35,0,0,0-.24-.1.33.33,0,0,0-.28.17l-.1.15,0,.07a.17.17,0,0,0,0,.12.27.27,0,0,0,.08.17.35.35,0,0,0,.13.08.31.31,0,0,0,.23,0l.15-.1a.36.36,0,0,0,.17-.29A.43.43,0,0,0,119.13,232Z"/><path class="cls-8" d="M117,229.54a.42.42,0,0,0,0,.83A.42.42,0,0,0,117,229.54Z"/><path class="cls-8" d="M115.72,227.49a.71.71,0,0,0-.26-.31.72.72,0,0,0-.52-.07l-.07,0a.53.53,0,0,0-.37.33.42.42,0,0,0,0,.22.51.51,0,0,0,.08.29l0,.07a.44.44,0,0,0,.17.19.25.25,0,0,0,.14.08l.09,0,.17,0a.43.43,0,0,0,.25-.05.39.39,0,0,0,.14-.08.58.58,0,0,0,.17-.18.27.27,0,0,0,0-.13v0l0-.17A.43.43,0,0,0,115.72,227.49Z"/><path class="cls-8" d="M112.23,225.08l0-.11a.39.39,0,0,0-.18-.18.52.52,0,0,0-.52,0,.52.52,0,0,0-.18.18l0,.11a.57.57,0,0,0-.08.28.57.57,0,0,0,1.14,0A.57.57,0,0,0,112.23,225.08Z"/><path class="cls-8" d="M108.48,222.89a.45.45,0,0,0-.32-.14h0l-.12,0-.12,0a.41.41,0,0,0-.16.16.43.43,0,0,0-.06.22.44.44,0,0,0,.06.23.41.41,0,0,0,.16.16.67.67,0,0,0,.24.07h0a.45.45,0,0,0,.32-.14.42.42,0,0,0,.09-.14.37.37,0,0,0,0-.18A.42.42,0,0,0,108.48,222.89Z"/><path class="cls-8" d="M104.45,221.41a.31.31,0,0,0,0,.62A.31.31,0,0,0,104.45,221.41Z"/><path class="cls-8" d="M87.34,224.26a24.34,24.34,0,0,1-2.61-3.13,19.54,19.54,0,0,1-1.46-3.93,8,8,0,0,0-2.38-3.88,5.2,5.2,0,0,0-4.46-.72,34.11,34.11,0,0,1-4.13.77c-1.31.08-2.58-.16-3.89-.19-.42,0-.64.65-.23.84a8.22,8.22,0,0,0,4.63.48c2.67-.43,5.84-2.63,8.28-.43,1.73,1.55,2,4.22,2.73,6.29a11.64,11.64,0,0,0,3,4.45C87.15,225.17,87.66,224.64,87.34,224.26Z"/><path class="cls-8" d="M83,222.26a1.54,1.54,0,0,0-.17-.19c-.07-.06-.16-.1-.24-.16a2,2,0,0,1-.39-.42.17.17,0,0,0-.32.13,1,1,0,0,0,.44.64,1.14,1.14,0,0,0,.34.15.49.49,0,0,0,.33-.09S83,222.28,83,222.26Z"/><path class="cls-8" d="M81.24,220.35a0,0,0,1,0,0,0S81.26,220.35,81.24,220.35Z"/><path class="cls-8" d="M79.66,215.49c-.74-.39-1.25-.1-2.06,0a9.18,9.18,0,0,1-5.74-.49.43.43,0,1,0-.33.79c1.67.69,3.18.42,4.91.21s3.19-.14,3.91,1.78c.29.77.46,1.56.79,2.31,0,0,.07,0,.08,0C81.3,218.68,81.13,216.26,79.66,215.49Z"/><path class="cls-8" d="M80.18,220.79A7.13,7.13,0,0,1,79,219.18a.21.21,0,0,0-.26-.06c-.21-.52-.23-1.23-.86-1.41a4.59,4.59,0,0,0-1.17,0,5.21,5.21,0,0,0-1.37.08l0,0a.08.08,0,0,0,0,.15h0a8.54,8.54,0,0,0,1.89.19c.44.07.8.23.9.68a1.58,1.58,0,0,0,.23.67.25.25,0,0,0,.34.08,1.78,1.78,0,0,0,1.44,1.42A.08.08,0,0,0,80.18,220.79Z"/><path class="cls-8" d="M26.2,183.09c-.29-.58-1.06-1.47-1.78-1.42a.09.09,0,0,0-.07.12,2,2,0,0,0,.48.43,3.5,3.5,0,0,1,.8,1,3.18,3.18,0,0,1,.45,2.31c0,.24.32.35.38.1A3.61,3.61,0,0,0,26.2,183.09Z"/><path class="cls-8" d="M24.43,183.6a.16.16,0,0,0-.08.31c.29.1.29.45.23.7a.2.2,0,0,0,.33.19C25.35,184.41,25,183.68,24.43,183.6Z"/><path class="cls-8" d="M24.63,180.13c-.25-.07-.43.32-.18.43a5,5,0,0,1,2.9,6.16c-.11.35.41.48.53.15A5.07,5.07,0,0,0,24.63,180.13Z"/><path class="cls-8" d="M36.42,178.11c1.77-1.79,1.85-4.51,1.78-6.87a.48.48,0,0,0-1,0c.11,3.59-.27,6.88-4.36,7.73-1.67.35-3.26.6-4.19,2.14a9.25,9.25,0,0,0-1.2-1.3c1.73-2.25,4.62-1.78,6.65-3.46a5.45,5.45,0,0,0,1.46-5.55.16.16,0,0,0-.3,0c-.39,1.3-.09,2.69-.76,3.95-.78,1.46-2.36,1.81-3.82,2.25s-3,1.08-3.43,2.64a3.59,3.59,0,0,0-2.94-.88c-.09,0-.06.15,0,.16,3.55.29,7.31,5.6,4.6,8.75a.47.47,0,1,0,.74.57c1.31-2,.86-4.39-.42-6.3l-.4-.57,0,0C30.62,178.76,34.34,180.2,36.42,178.11Z"/><path class="cls-8" d="M33.9,169.43c0-.23-.36-.15-.38.06a8.09,8.09,0,0,1-.84,3.79c-.86,1.34-2.44,1.57-3.77,2.2A5.44,5.44,0,0,0,26,178.82c0,.07.09.09.11,0,.89-2.15,2.43-2.81,4.45-3.47a5.52,5.52,0,0,0,2.19-1.13A5.35,5.35,0,0,0,33.9,169.43Z"/><path class="cls-8" d="M33.59,169.06s0,0,0,0A0,0,0,1,0,33.59,169.06Z"/><path class="cls-8" d="M25.29,177.16A.49.49,0,0,0,25,177a.39.39,0,0,0-.18,0,.31.31,0,0,0-.15.1.4.4,0,0,0-.1.15.58.58,0,0,0,0,.18.5.5,0,0,0,.14.33A.47.47,0,0,0,25,178a.34.34,0,0,0,.18,0,.39.39,0,0,0,.16-.1.38.38,0,0,0,.09-.15.34.34,0,0,0,0-.18A.44.44,0,0,0,25.29,177.16Z"/><path class="cls-8" d="M26.53,175.77l0-.06-.06-.07a.27.27,0,0,0-.15,0l-.12,0a.19.19,0,0,0-.1.14l0,.13a.15.15,0,0,0,0,.13.2.2,0,0,0,.06.11.25.25,0,0,0,.18.08.23.23,0,0,0,.18-.08.16.16,0,0,0,.07-.11.29.29,0,0,0,0-.13Z"/><path class="cls-8" d="M28.08,174.71a.47.47,0,0,0-.3-.12.5.5,0,0,0-.31.12.42.42,0,0,0-.09.14.32.32,0,0,0,0,.17.41.41,0,0,0,.12.3.46.46,0,0,0,.31.13.43.43,0,0,0,.3-.13.3.3,0,0,0,.09-.13.35.35,0,0,0,0-.17A.46.46,0,0,0,28.08,174.71Z"/><path class="cls-8" d="M30.21,174.07a.72.72,0,0,0-.14-.24.57.57,0,0,0-.39-.16.36.36,0,0,0-.21.05.45.45,0,0,0-.29.29.36.36,0,0,0-.05.21l0,.15a.49.49,0,0,0,.14.24.57.57,0,0,0,.39.16.41.41,0,0,0,.21-.05.45.45,0,0,0,.29-.29.46.46,0,0,0,.05-.21Z"/><path class="cls-8" d="M32.36,172.55a.58.58,0,0,0-.22-.22l-.1-.05a.69.69,0,0,0-.34-.09.63.63,0,0,0-.33.09.66.66,0,0,0,0,1.16.63.63,0,0,0,.33.09.69.69,0,0,0,.34-.09l.1-.05a.6.6,0,0,0,.22-.84Z"/><path class="cls-8" d="M32.87,170.3a.33.33,0,0,0-.11-.25.34.34,0,0,0-.25-.11.41.41,0,0,0-.25.11.32.32,0,0,0-.1.25v.09a.23.23,0,0,0,.06.12l.07.07,0,0a.27.27,0,0,0,.18.08.3.3,0,0,0,.18-.08l0,0A.36.36,0,0,0,32.87,170.3Z"/><path class="cls-8" d="M32.51,167.82a.32.32,0,0,0,0,.63A.32.32,0,0,0,32.51,167.82Z"/><path class="cls-8" d="M30.89,188.68a.51.51,0,0,0,0,1A.51.51,0,0,0,30.89,188.68Z"/><path class="cls-8" d="M31.57,187.41a.3.3,0,0,0,0,.59A.3.3,0,0,0,31.57,187.41Z"/><path class="cls-8" d="M31.91,185.76l0,0a.09.09,0,0,0-.06-.06.19.19,0,0,0-.13-.05.23.23,0,0,0-.11,0,.22.22,0,0,0-.1.13l0,.13a.24.24,0,0,0,0,.12.41.41,0,0,0,.07.11.24.24,0,0,0,.16.07.26.26,0,0,0,.17-.07.24.24,0,0,0,.06-.11.24.24,0,0,0,0-.12Z"/><path class="cls-8" d="M31.62,184.11a.42.42,0,0,0-.06-.19.3.3,0,0,0-.26-.16.3.3,0,0,0-.27.16.41.41,0,0,0-.05.19.28.28,0,0,0,0,.18.29.29,0,0,0,.08.14.37.37,0,0,0,.24.1.34.34,0,0,0,.23-.1.42.42,0,0,0,.09-.14A.54.54,0,0,0,31.62,184.11Z"/><path class="cls-8" d="M31,182l-.17-.09-.1,0a.29.29,0,0,0-.16,0,.23.23,0,0,0-.11,0,.38.38,0,0,0-.13.09.54.54,0,0,0-.11.18.46.46,0,0,0,.05.32l.08.16a.45.45,0,0,0,.41.23.46.46,0,0,0,.33-.13.39.39,0,0,0,.1-.16.34.34,0,0,0,0-.18A.46.46,0,0,0,31,182Z"/><path class="cls-8" d="M30.22,180.78a.18.18,0,0,0,0,.35A.18.18,0,0,0,30.22,180.78Z"/><path class="cls-8" d="M32.39,180.44l0-.1-.07-.09-.09-.07-.1,0a.37.37,0,0,0-.18,0,.19.19,0,0,0-.1,0,.34.34,0,0,0-.14.09l-.07.07a.34.34,0,0,0-.1.23.43.43,0,0,0,.1.24l.07.07.08.07.11,0a.32.32,0,0,0,.17,0,.23.23,0,0,0,.11,0,.15.15,0,0,0,.09-.06.19.19,0,0,0,.08-.07.21.21,0,0,0,.06-.1.32.32,0,0,0,0-.17Z"/><path class="cls-8" d="M34.27,179.8a.22.22,0,0,0,0,.43A.22.22,0,0,0,34.27,179.8Z"/><path class="cls-8" d="M36,178.75a.59.59,0,0,0,0,1.18A.59.59,0,0,0,36,178.75Z"/><path class="cls-8" d="M38.05,177.54a.32.32,0,0,0,0,.63A.32.32,0,0,0,38.05,177.54Z"/><path class="cls-8" d="M39.26,175.49a.48.48,0,0,0,0,.95A.48.48,0,0,0,39.26,175.49Z"/><path class="cls-8" d="M39.4,174a.34.34,0,0,0,0,.67A.34.34,0,0,0,39.4,174Z"/><path class="cls-8" d="M39.53,171.72a.33.33,0,0,0,0,.66A.33.33,0,0,0,39.53,171.72Z"/><path class="cls-8" d="M83.12,209.54c-1.83-1.42-1.1-4.1-2.23-5.92a2.88,2.88,0,0,0-2-1.41,3.49,3.49,0,0,0-2.33.88c-.53-2.44,1.21-7.06-2.36-7.64a4.12,4.12,0,0,0-3.86,1.39,5.46,5.46,0,0,0-1,4,23,23,0,0,0,.69,3.17c.14.55.77,3.1-.26,3.11-1.94-.65-.78-3.31-.61-4.73a4.06,4.06,0,0,0-.5-2.34c-.34-.7-.86-1.79-.23-2.49.47-.52,1.29-.48,1.71-1.09a2.6,2.6,0,0,0,.2-2c-.35-1.49-2.15-2.31-3.56-2.35a2.35,2.35,0,0,0-2,.86,5.45,5.45,0,0,0-.7,1.64.87.87,0,0,1-.17.21c-.14.13-.26.22-.42.07a1,1,0,0,1-.22-.38c-.28-.65-.53-1.31-.87-1.94A8.2,8.2,0,0,0,61.3,191a3.19,3.19,0,0,0-.72-.7,1.92,1.92,0,0,1-.43-.32,3.34,3.34,0,0,1-.36-.48s-.07,0-.11-.06a2.11,2.11,0,0,0-.19-.23,3.48,3.48,0,0,0-.7-.51,2.15,2.15,0,0,0-1.42-.31,2.94,2.94,0,0,0-.71-.6,3.3,3.3,0,0,0-1.19-.37c-.11,0-.27.11-.18.24a5.62,5.62,0,0,1,.35.5,1.71,1.71,0,0,0-.78,0,.17.17,0,0,0,0,.3c.37.27.74.56,1.09.86l.51.46.35.3a2.83,2.83,0,0,0,.32.43,2.67,2.67,0,0,0,.72.57,2.78,2.78,0,0,0,.85.3,1.24,1.24,0,0,0,.69,0c.42.24.58,1.06.69,1.44a11.63,11.63,0,0,1,.36,1.85,5.14,5.14,0,0,0,1,3.07A2,2,0,0,0,64,198,6.26,6.26,0,0,0,65.24,197c.2-.2.4-.41.62-.6s.23-.17.35-.25l0,0a9.89,9.89,0,0,0-.77,2.07,8.5,8.5,0,0,0,.56,3,11.21,11.21,0,0,1,0,3.61c-.06.72-.15,2,.41,2.66a3.52,3.52,0,0,0,2.3,2.31,3.83,3.83,0,0,0,3.56-1.25c.89-1.07.58-2.53.31-3.78-.19-.86-.43-1.73-.58-2.6a2.65,2.65,0,0,1,.11-1.37,2.55,2.55,0,0,0,.23-1,.11.11,0,0,0,0-.08,1.89,1.89,0,0,1,.91-.94c.94-.43,1.32.49,1.29,1.27-.06,1.43-.94,2.7-.79,4.16.12,1.12.75,2.4,2,2.31a3.09,3.09,0,0,0,2.52-1.36c.68.23.87,1,1,1.66a4.42,4.42,0,0,0,.78,1.67A3.64,3.64,0,0,0,83,210a.19.19,0,0,0,.16-.23A.11.11,0,0,0,83.12,209.54ZM80,207.33c-.34-1-.39-2.53-1.72-2.75-.11,0-.25,0-.29.12a2.07,2.07,0,0,1-1.61,1.12,2.44,2.44,0,0,1-1,.05c-.41-.12-.65-.62-.79-1-.61-1.53.36-3,.54-4.49a2.4,2.4,0,0,0-.56-2h.22a.08.08,0,0,0,0,0s0,0,0-.05a.14.14,0,0,0,0-.06l0,0h0l0,0h0l0,0h-.08l-.06,0,0,0a.14.14,0,0,0,0,.07s0,0,0,.05,0,0,0,0a1.08,1.08,0,0,0-.37-.19.06.06,0,0,0,0-.06.17.17,0,0,0,0-.17.05.05,0,0,0,0,0h-.12a.1.1,0,0,0-.08,0h0l0,0,0,.06a.09.09,0,0,0,0,.07v0h-.11a2,2,0,0,0-1.79,2.28,3.67,3.67,0,0,0-.32,1,6.09,6.09,0,0,0,.22,1.85,11.45,11.45,0,0,1,.52,4,3,3,0,0,1-3,2.1c-1.33-.07-2.08-1.19-2.75-2.2l-.09-.26a3.9,3.9,0,0,1-.12-.9,9.36,9.36,0,0,1,.18-1.75,7,7,0,0,0-.07-3.28,5.41,5.41,0,0,1-.27-3.34,10.34,10.34,0,0,0,.78-1.77s0,0,0,0v0a1.38,1.38,0,0,0-.1-.74.17.17,0,0,0-.19-.1h0l-.06,0h0l-.16.14c-.05.06-.08.13-.13.19l-.19.3a6.09,6.09,0,0,0-1.34,1.14,3.2,3.2,0,0,1-1.51,1,1.56,1.56,0,0,1-1.59-.76,4.31,4.31,0,0,1-.59-1.92,14.28,14.28,0,0,0-.36-1.82c-.17-.65-.52-2.44-1.48-2.37h0a2.38,2.38,0,0,1-.37-.06,2.28,2.28,0,0,1-.7-.3,2.47,2.47,0,0,1-.56-.51,2,2,0,0,1-.19-.28,1,1,0,0,0-.24-.37c-.12-.11-.37-.1-.41.09l0,0-.55-.49c-.25-.21-.52-.42-.79-.62a1.35,1.35,0,0,1,.61.18.16.16,0,0,0,.21-.22,6.26,6.26,0,0,0-.34-.55,2.66,2.66,0,0,1,.61.3,2.94,2.94,0,0,1,.82.71.21.21,0,0,0,.28.07.21.21,0,0,0,.1-.19l.3.06a4.77,4.77,0,0,1,.72.26,3.31,3.31,0,0,1,.64.41l.33.27a8.62,8.62,0,0,0,.62.87c.22.32.56.57.8.88a9.29,9.29,0,0,1,1.3,2.24c.17.38.31.77.47,1.15a1.11,1.11,0,0,0,.74.75.61.61,0,0,0,.75-.38.72.72,0,0,0,0-.25c.24-.4.35-.89.56-1.29a2.16,2.16,0,0,1,2.34-1,3.94,3.94,0,0,1,2.43,1.3c.44.64.66,2-.1,2.51-.54.35-1.21.34-1.6.92a2.16,2.16,0,0,0-.18,1.76c.21.75.72,1.39.92,2.15a6.14,6.14,0,0,1-.33,2.87,3.59,3.59,0,0,0,.09,2.44,1.69,1.69,0,0,0,1.54,1,.22.22,0,0,0,.18-.33,1,1,0,0,0,.35-.26,2.29,2.29,0,0,0,.21-1.85c-.25-1.79-.89-3.57-.76-5.39a3.92,3.92,0,0,1,2.5-3.72,3,3,0,0,1,2.4,0A2.76,2.76,0,0,1,76.17,198a7.47,7.47,0,0,1-.17,2.7,6.19,6.19,0,0,0,.16,2.87.26.26,0,0,0,.38.15c.82-.46,1.57-1.26,2.59-.95A3.12,3.12,0,0,1,81,205.12a24.67,24.67,0,0,0,.84,3.11.17.17,0,0,0-.14-.06.18.18,0,0,0,0,.36.17.17,0,0,0,.17-.22,3.71,3.71,0,0,0,.87,1.25A3.54,3.54,0,0,1,80,207.33Z"/><path class="cls-8" d="M58.58,189.34l0,0-.1,0h-.07l-.06,0a.2.2,0,0,0,0,.08.17.17,0,0,0,0,.1l0,0v0l0,0,0,0h.15s0,0,0,0a.09.09,0,0,0,0-.06l0,0a.17.17,0,0,0,0-.1A.14.14,0,0,0,58.58,189.34Z"/><path class="cls-8" d="M57.85,189.24a.07.07,0,1,0,0,.13A.07.07,0,0,0,57.85,189.24Z"/><path class="cls-8" d="M56.8,188.75l0,0a.12.12,0,0,0-.08,0h-.06l-.05,0a.13.13,0,0,0,0,.07.14.14,0,0,0,0,.09v0l0,0a.1.1,0,0,0,0,.05l0,0h.13a.1.1,0,0,0,.05,0,.08.08,0,0,0,0-.05v0a.14.14,0,0,0,0-.09A.25.25,0,0,0,56.8,188.75Z"/><path class="cls-8" d="M58.13,189.86l0,0a.12.12,0,0,0-.08,0,.08.08,0,0,0-.07,0,.13.13,0,0,0-.08.13.16.16,0,0,0,.08.13l.07,0,.08,0,0,0a.14.14,0,0,0,.06-.11A.13.13,0,0,0,58.13,189.86Z"/><path class="cls-8" d="M58.73,190.17a.07.07,0,0,0,0,.15A.07.07,0,0,0,58.73,190.17Z"/><path class="cls-8" d="M59.39,190.12a.07.07,0,0,0,0,.14A.07.07,0,0,0,59.39,190.12Z"/><path class="cls-8" d="M59.23,190.41a.1.1,0,0,0,0,.21A.1.1,0,0,0,59.23,190.41Z"/><path class="cls-8" d="M60.39,191a.16.16,0,0,0,0,.32A.16.16,0,0,0,60.39,191Z"/><path class="cls-8" d="M60.88,192.44a.07.07,0,0,0,0,.13A.07.07,0,1,0,60.88,192.44Z"/><path class="cls-8" d="M60.94,191.75a.1.1,0,1,0,0,.19A.1.1,0,0,0,60.94,191.75Z"/><path class="cls-8" d="M61.77,192.79a.1.1,0,0,0,0,.2A.1.1,0,0,0,61.77,192.79Z"/><path class="cls-8" d="M61.74,193.8l0,0h-.1l0,0,0,.06v.06l0,.05v0l0,0h.1s0,0,0,0l0,0,0-.05v-.06Z"/><path class="cls-8" d="M61.32,193.09a.14.14,0,0,0,0,.27A.14.14,0,1,0,61.32,193.09Z"/><path class="cls-8" d="M62.37,194.31a.13.13,0,0,0,0,.26A.13.13,0,0,0,62.37,194.31Z"/><path class="cls-8" d="M62,195.5s0,0,0,0l0,0h-.07l-.05,0,0,0a.08.08,0,0,0,0,0v.06a.06.06,0,0,0,0,0s0,0,0,0l0,0h.06l.05,0,0,0a.09.09,0,0,0,0-.05v-.1Z"/><path class="cls-8" d="M62.65,196.54a.16.16,0,0,0,0,.32A.16.16,0,0,0,62.65,196.54Z"/><path class="cls-8" d="M64,196.16l0,0a.1.1,0,0,0,0,0l-.05,0h-.14l-.07,0,0,0a.24.24,0,0,0,0,.08.15.15,0,0,0,0,.07l0,.06a.16.16,0,0,0,.16,0h0l0,0a.1.1,0,0,0,0,0l0,0a.15.15,0,0,0,0-.07Z"/><path class="cls-8" d="M63.42,197.05a.09.09,0,0,0,0,.18A.09.09,0,1,0,63.42,197.05Z"/><path class="cls-8" d="M62.81,195.64a.18.18,0,0,0,0,.36A.18.18,0,0,0,62.81,195.64Z"/><path class="cls-8" d="M62.1,196.3l-.05-.08a.08.08,0,0,0-.06,0,.08.08,0,0,0-.07,0l-.05.08a.25.25,0,0,0,0,.14.14.14,0,0,0,.12.06.13.13,0,0,0,.11-.06.13.13,0,0,0,0-.14Z"/><path class="cls-8" d="M61.77,194.74l0-.05,0,0-.06,0h-.1s0,0,0,0l0,0a.09.09,0,0,0,0,.05v0a.05.05,0,0,0,0,0l0,0,.06,0h.1l0,0s0,0,0,0a.09.09,0,0,0,0,0Z"/><path class="cls-8" d="M61.93,193.33a.12.12,0,0,0,0,.23A.12.12,0,0,0,61.93,193.33Z"/><path class="cls-8" d="M64.3,196.69a.07.07,0,0,0,0,.13A.07.07,0,1,0,64.3,196.69Z"/><path class="cls-8" d="M63.42,196.42a.12.12,0,0,0,0,.23A.12.12,0,0,0,63.42,196.42Z"/><path class="cls-8" d="M62.92,197.07a.13.13,0,0,0,0,.26A.13.13,0,0,0,62.92,197.07Z"/><path class="cls-8" d="M62.32,196.86a.18.18,0,0,0,0,.35A.18.18,0,0,0,62.32,196.86Z"/><path class="cls-8" d="M64.94,196.13v0l0,0,0,0,0,0h-.06l0,0v0a.14.14,0,0,0,0,.06s0,0,0,0a.05.05,0,0,0,0,0l0,0h.06l0,0h0l0,0a0,0,0,0,1,0,0,.08.08,0,0,0,0,0Z"/><path class="cls-8" d="M66.24,194.57a.09.09,0,0,0,0,.18A.09.09,0,0,0,66.24,194.57Z"/><path class="cls-8" d="M66.4,193.4a.11.11,0,0,0,0,.21A.11.11,0,0,0,66.4,193.4Z"/><path class="cls-8" d="M65.65,194.17l0-.06,0,0h-.08l0,0,0,0v0a.14.14,0,0,0,0,.06l0,0,.06.05h.08l0,0v0a0,0,0,0,0,0,0S65.66,194.18,65.65,194.17Z"/><path class="cls-8" d="M67.12,194a.13.13,0,0,0,0,.25A.13.13,0,0,0,67.12,194Z"/><path class="cls-8" d="M65.63,193.38a.07.07,0,0,0,0,.13A.07.07,0,0,0,65.63,193.38Z"/><path class="cls-8" d="M67.29,193.2a.14.14,0,0,0,0,.27C67.45,193.47,67.45,193.2,67.29,193.2Z"/><path class="cls-8" d="M66.57,194a.09.09,0,0,0,0,.18A.09.09,0,0,0,66.57,194Z"/><path class="cls-8" d="M65.83,195.11a.08.08,0,0,0,0-.06l0,0-.08,0h-.06a.1.1,0,0,0-.05,0,.05.05,0,0,0,0,0,.08.08,0,0,0,0,.06v0a.25.25,0,0,0,0,.07l0,0a.12.12,0,0,0,.08,0h.06l.05,0s0,0,0-.05a.14.14,0,0,0,0-.06Z"/><path class="cls-8" d="M65.08,194.48a.13.13,0,0,0,0,.25A.13.13,0,0,0,65.08,194.48Z"/><path class="cls-8" d="M65,195.19a.08.08,0,0,0,0,.15C65.11,195.34,65.12,195.19,65,195.19Z"/><path class="cls-8" d="M65.56,195.56a.05.05,0,0,0,0,0l-.05,0h-.13l0,0,0,0v.08l0,0,0,0h.11l.05,0v0s0,0,0-.05S65.57,195.57,65.56,195.56Z"/><path class="cls-8" d="M64.69,195.65a.12.12,0,0,0,0,.23A.12.12,0,0,0,64.69,195.65Z"/><path class="cls-8" d="M68.08,196.46a.11.11,0,0,0-.11,0,.11.11,0,0,0-.07.08l0,.06a.07.07,0,0,0,.09.09l.06,0a.11.11,0,0,0,.08-.07A.11.11,0,0,0,68.08,196.46Z"/><path class="cls-8" d="M67.66,195.75l0,0h-.11a.11.11,0,0,0-.06.1.1.1,0,0,0,.06.09l0,0,.06,0,0,0a.08.08,0,0,0,0-.14Z"/><path class="cls-8" d="M67.89,194.44a.11.11,0,0,0,0,.21A.11.11,0,0,0,67.89,194.44Z"/><path class="cls-8" d="M69.33,194.89a.1.1,0,0,0,0,.2A.1.1,0,0,0,69.33,194.89Z"/><path class="cls-8" d="M69.27,195.76a.12.12,0,0,0,0,.23A.12.12,0,0,0,69.27,195.76Z"/><path class="cls-8" d="M69,194a.07.07,0,1,0,0,.14A.07.07,0,0,0,69,194Z"/><path class="cls-8" d="M68.11,193.48a.07.07,0,0,0,0,.15A.07.07,0,0,0,68.11,193.48Z"/><path class="cls-8" d="M68.55,194.67a.1.1,0,0,0,0,.2A.1.1,0,1,0,68.55,194.67Z"/><path class="cls-8" d="M67.78,193.69a.09.09,0,0,0,0,.17A.09.09,0,0,0,67.78,193.69Z"/><path class="cls-8" d="M68.44,194.14a0,0,0,0,0,0,.05S68.48,194.14,68.44,194.14Z"/><path class="cls-8" d="M68,195.07a.14.14,0,0,0,0,.28A.14.14,0,0,0,68,195.07Z"/><path class="cls-8" d="M68.61,195.57a.14.14,0,0,0,0,.28A.14.14,0,0,0,68.61,195.57Z"/><path class="cls-8" d="M67,198.54a.15.15,0,0,0,0,.29A.15.15,0,0,0,67,198.54Z"/><path class="cls-8" d="M67.51,199.84a.12.12,0,0,0,0,.24A.12.12,0,0,0,67.51,199.84Z"/><path class="cls-8" d="M66.68,199.41a.09.09,0,0,0,0,0l0,0,0,0s0,0,0,0h0a.05.05,0,0,0-.05,0l0,0a.13.13,0,0,0,0,.06v.11a.06.06,0,0,0,0,0,.05.05,0,0,0,0,0l0,0s0,0,0,0h0l.05,0,0,0a.14.14,0,0,0,0-.06Z"/><path class="cls-8" d="M66.84,197.39a.09.09,0,0,0,0,.17A.09.09,0,0,0,66.84,197.39Z"/><path class="cls-8" d="M67.51,197a.12.12,0,1,0,0,.23A.12.12,0,0,0,67.51,197Z"/><path class="cls-8" d="M67.29,196.65a.05.05,0,1,0,0,.1A.05.05,0,0,0,67.29,196.65Z"/><path class="cls-8" d="M66.6,198v0l0,0,0,0h0s-.05,0-.06,0l0,0a.43.43,0,0,0,0,.05v.11a.08.08,0,0,0,0,0l0,0,0,0h.07l0,0v0s0,0,0-.05Z"/><path class="cls-8" d="M67.17,197.63a.12.12,0,0,0,0,.24A.12.12,0,1,0,67.17,197.63Z"/><path class="cls-8" d="M66.62,198.45a.13.13,0,0,0,0,.25A.13.13,0,0,0,66.62,198.45Z"/><path class="cls-8" d="M67.17,199.54a.09.09,0,0,0,0,.18A.09.09,0,0,0,67.17,199.54Z"/><path class="cls-8" d="M68.5,208.09a.09.09,0,0,0,0,.18A.09.09,0,0,0,68.5,208.09Z"/><path class="cls-8" d="M68,206.87a.16.16,0,0,0,0,.31A.16.16,0,1,0,68,206.87Z"/><path class="cls-8" d="M67.36,206.7a.3.3,0,0,0-.08-.08l0,0,0,0h-.13l-.06,0,0,0,0,.05a.09.09,0,0,0,0,.07.24.24,0,0,0,0,.08l0,0a.18.18,0,0,0,.08.07.19.19,0,0,0,.1,0h.06a.13.13,0,0,0,.09-.05.18.18,0,0,0,.05-.07.11.11,0,0,0,0-.08A.3.3,0,0,0,67.36,206.7Z"/><path class="cls-8" d="M67.53,204.82a.43.43,0,0,0,0,0l0-.05,0,0,0,0h0l-.06,0,0,0a.14.14,0,0,0,0,.07v.05a.07.07,0,0,0,0,0l0,.05,0,0h.09a.06.06,0,0,0,.06,0l0,0a.08.08,0,0,0,0-.07Z"/><path class="cls-8" d="M68,203.07l0,0,0,0h-.08l0,0,0,0a.08.08,0,0,0,0,.06s0,0,0,.07v.07s0,0,0,0h.11l0,0,0,0v-.05s0-.05,0-.07A.07.07,0,0,0,68,203.07Z"/><path class="cls-8" d="M67.29,202a.15.15,0,0,0,0,.29A.15.15,0,0,0,67.29,202Z"/><path class="cls-8" d="M67.84,201.16a.07.07,0,1,0,0,.13A.07.07,0,0,0,67.84,201.16Z"/><path class="cls-8" d="M67.06,200.32c-.16,0-.16.27,0,.27A.14.14,0,0,0,67.06,200.32Z"/><path class="cls-8" d="M67.77,200.43l0,0,0,0h-.14l0,0,0,0a.09.09,0,0,0,0,.05v0a.08.08,0,0,0,0,.05l0,0h.15l0,0s0,0,0,0a0,0,0,0,0,0,0Z"/><path class="cls-8" d="M67.33,201.19l0,0,0,0H67.2l0,0a.09.09,0,0,0,0,.07v.11s0,0,0,0l0,0,0,0h.07s0,0,0,0a.09.09,0,0,0,0-.07v-.11S67.33,201.2,67.33,201.19Z"/><path class="cls-8" d="M68.06,201.82a.13.13,0,0,0,0,.25A.13.13,0,0,0,68.06,201.82Z"/><path class="cls-8" d="M67.38,203.62l0,0,0,0,0,0h-.15a.22.22,0,0,0-.08.05l0,0,0,.06s0,0,0,.06v0a.17.17,0,0,0,0,.07l0,0,0,0,0,0h.09l0,0a.08.08,0,0,0,0,0s0,0,0,0l0,0h0s0,0,0,0l0,0a.13.13,0,0,0,0-.06Z"/><path class="cls-8" d="M67.73,204.09a.18.18,0,0,0,0,.35A.18.18,0,0,0,67.73,204.09Z"/><path class="cls-8" d="M67.66,202.78h0a0,0,0,0,0,0,0h-.06a0,0,0,0,0,0,0s0,0,0,0v0l0,0,0,0h0l0,0a.05.05,0,0,0,0,0A.08.08,0,0,0,67.66,202.78Z"/><path class="cls-8" d="M68.32,202.12a.19.19,0,0,0-.19-.05l-.09.05v0l0,.06a.19.19,0,0,0,0,.08.19.19,0,0,0,0,.07.16.16,0,0,0,0,.07l0,0,.1,0h0l.09-.05h0a.16.16,0,0,0,.05-.09A.2.2,0,0,0,68.32,202.12Z"/><path class="cls-8" d="M67.34,202.79a.1.1,0,0,0,0,.19A.1.1,0,0,0,67.34,202.79Z"/><path class="cls-8" d="M66.46,205.71a0,0,0,1,0,0,.09A0,0,0,0,0,66.46,205.71Z"/><path class="cls-8" d="M67.17,205.62a.13.13,0,0,0,0,.26A.13.13,0,0,0,67.17,205.62Z"/><path class="cls-8" d="M66.85,204.93l-.06,0-.06,0,0,0a.1.1,0,0,0,0,.09s0,.07,0,.08l0,0a.1.1,0,0,0,.12,0,.11.11,0,0,0,.06-.1A.11.11,0,0,0,66.85,204.93Z"/><path class="cls-8" d="M67.56,205.94a.15.15,0,0,0,0,.29A.15.15,0,0,0,67.56,205.94Z"/><path class="cls-8" d="M67.56,205.16a0,0,0,0,0,0,.09A0,0,0,1,0,67.56,205.16Z"/><path class="cls-8" d="M67.85,207.43a0,0,0,0,0,0,0l0,0h0l0,0,0,0s0,0,0,0v.05a0,0,0,0,0,0,0v0l0,0h0s0,0,0,0h0a.06.06,0,0,0,0,0v-.05S67.86,207.44,67.85,207.43Z"/><path class="cls-8" d="M69.31,208.19l0,0a.1.1,0,0,0,0,0s0,0,0,0h-.14a.18.18,0,0,0-.07.05l0,0a.15.15,0,0,0,0,.09.13.13,0,0,0,0,.06l0,.06.07,0h.14l0,0s0,0,0,0a.08.08,0,0,0,0,0,.14.14,0,0,0,0-.06Z"/><path class="cls-8" d="M69,208.57a.1.1,0,1,0,0,.21A.1.1,0,0,0,69,208.57Z"/><path class="cls-8" d="M67.67,207.9a.17.17,0,0,0,0,.34A.17.17,0,0,0,67.67,207.9Z"/><path class="cls-8" d="M68.44,207.31s0,.09,0,.09A0,0,0,1,0,68.44,207.31Z"/><path class="cls-8" d="M70.71,208.74a.08.08,0,0,0,0,0l0,0h-.17l0,0s0,0,0,.05a.05.05,0,0,0,0,0,.06.06,0,0,0,0,0,0,0,0,0,0,0,.05.06.06,0,0,0,0,0,.13.13,0,0,0,0,.06l0,0,0,0h.1l0,0a.12.12,0,0,0,.05-.05.05.05,0,0,0,0,0,.14.14,0,0,0,0-.06v-.06A.09.09,0,0,0,70.71,208.74Z"/><path class="cls-8" d="M71.08,207.37a0,0,0,0,1,0,0l0,0H71l0,0-.08.09a.09.09,0,0,0,0,.06.08.08,0,0,0,0,.07v0s0,0,.05,0H71l.06,0,0-.06,0-.12v0S71.08,207.39,71.08,207.37Z"/><path class="cls-8" d="M71.87,207.57a.12.12,0,1,0,0,.23A.12.12,0,0,0,71.87,207.57Z"/><path class="cls-8" d="M71.32,208.32v0l0,0,0,0h-.08l0,0,0,0a.05.05,0,0,0,0,0v.05a.09.09,0,0,0,0,.07s0,0,0,.06l0,0h.06a0,0,0,0,0,0,0l0,0,0-.06a.09.09,0,0,0,0-.07Z"/><path class="cls-8" d="M70.21,207.89a.19.19,0,0,0,0,.37A.19.19,0,0,0,70.21,207.89Z"/><path class="cls-8" d="M69.72,209v0s0,0,0,0h-.1v0s0,0,0,0v.08l0,0h0l0,0v0a0,0,0,0,0,0,0Z"/><path class="cls-8" d="M71.67,206.89l0,0a.12.12,0,0,0-.05,0l-.06,0-.07,0,0,0,0,0a.19.19,0,0,0,0,.08.24.24,0,0,0,0,.08.16.16,0,0,0,.14.08.16.16,0,0,0,.13-.08.12.12,0,0,0,0-.08A.11.11,0,0,0,71.67,206.89Z"/><path class="cls-8" d="M71.37,205a.14.14,0,0,0,0,.28A.14.14,0,0,0,71.37,205Z"/><path class="cls-8" d="M71.45,207.52a.19.19,0,0,0,0-.07.08.08,0,0,0,0-.06.09.09,0,0,0-.06,0l-.07,0h-.05a.14.14,0,0,0-.08,0l0,0a.16.16,0,0,0,0,.09v.06a.19.19,0,0,0,0,.07.09.09,0,0,0,0,.06l.06,0h.13a.14.14,0,0,0,.09,0l0,0a.16.16,0,0,0,0-.09Z"/><path class="cls-8" d="M70.76,208.31a.1.1,0,0,0,0,.19A.1.1,0,0,0,70.76,208.31Z"/><path class="cls-8" d="M69.88,208.24a.17.17,0,0,0,0,.33A.17.17,0,0,0,69.88,208.24Z"/><path class="cls-8" d="M71.7,205.81a.06.06,0,0,0,0,.11A.06.06,0,1,0,71.7,205.81Z"/><path class="cls-8" d="M71.21,205.89v0l0,0,0,0-.06,0H71a.1.1,0,0,0,0,0l0,0a.1.1,0,0,0,0,.07.09.09,0,0,0,0,.05s0,0,0,0a.1.1,0,0,0,0,0h.07l.06,0h0l0,0s0,0,0,0a.09.09,0,0,0,0-.05Z"/><path class="cls-8" d="M72.12,206.39v0l0,0,0,0h-.1l0,0a.08.08,0,0,0,0,0l0,0v0a.11.11,0,0,0,0,.08.1.1,0,0,0,0,.07l0,0,.08,0H72l0,0a.16.16,0,0,0,0-.07.11.11,0,0,0,0-.08Z"/><path class="cls-8" d="M71.94,205.09l0,0,0,0,0,0h-.06l-.05,0,0,0,0,0v0a.06.06,0,0,0,0,.06,77265801283.34,77265801283.34,0,0,0,0,.06l0,0,0,0a0,0,0,0,0,0,0h.07l0,0,0,0v0a.07.07,0,0,0,0-.05Z"/><path class="cls-8" d="M70.87,204.16a.16.16,0,0,0,0,.32A.16.16,0,0,0,70.87,204.16Z"/><path class="cls-8" d="M71.65,204.19a.13.13,0,0,0,0,.26A.13.13,0,0,0,71.65,204.19Z"/><path class="cls-8" d="M71.15,202.72a.11.11,0,0,0,0,.22A.11.11,0,0,0,71.15,202.72Z"/><path class="cls-8" d="M70.65,202.08l-.05,0a0,0,0,0,0,0,0,.05.05,0,0,0,0,0l0,0-.06,0h0a.09.09,0,0,0-.06,0l-.06.05a.05.05,0,0,0,0,0,.07.07,0,0,0,0,0,.06.06,0,0,0,0,0,.05.05,0,0,0,0,0l0,0,.06,0h0a.13.13,0,0,0,.06,0l0-.06h0a.07.07,0,0,0,.07.07A.09.09,0,0,0,70.65,202.08Z"/><path class="cls-8" d="M70.87,199.77a.08.08,0,0,0,0,.16A.08.08,0,0,0,70.87,199.77Z"/><path class="cls-8" d="M71.59,199.87a.09.09,0,0,0,0,.18A.09.09,0,0,0,71.59,199.87Z"/><path class="cls-8" d="M71.68,197.74s0,0,0,0l-.06,0h0l-.07,0a.1.1,0,0,0,0,.05.07.07,0,0,0,0,.06s0,0,0,.06l0,0,.05,0h.11l0,0,0,0a.14.14,0,0,0,0-.06Z"/><path class="cls-8" d="M73.8,197a.17.17,0,0,0,0,.33A.17.17,0,0,0,73.8,197Z"/><path class="cls-8" d="M75.56,197.84a.19.19,0,0,0,0,.37A.19.19,0,0,0,75.56,197.84Z"/><path class="cls-8" d="M75.29,201.63a.1.1,0,1,0,0,.19A.1.1,0,1,0,75.29,201.63Z"/><path class="cls-8" d="M75,204.44a0,0,0,1,0,0,.09A0,0,0,1,0,75,204.44Z"/><path class="cls-8" d="M76.53,204.73s0,0,0,0l0,0h0a.09.09,0,0,0-.07,0s0,0,0,.06v.11a0,0,0,0,0,0,0l0,0s0,0,0,0h0l.06,0v0s0,0,0,0v-.11A0,0,0,0,0,76.53,204.73Z"/><path class="cls-8" d="M77.72,203a.09.09,0,0,0,0,.17A.09.09,0,0,0,77.72,203Z"/><path class="cls-8" d="M79.87,203.72a.1.1,0,0,0,0,.2A.1.1,0,0,0,79.87,203.72Z"/><path class="cls-8" d="M80,205.57a.08.08,0,0,0,0,.15A.08.08,0,0,0,80,205.57Z"/><path class="cls-8" d="M81.28,207.64a.11.11,0,0,0-.09,0,.1.1,0,0,0-.08,0,.07.07,0,0,0,0,.05.11.11,0,0,0,0,.05l0,0a.07.07,0,0,0,.06,0,.08.08,0,0,0,.07,0l0,0a.11.11,0,0,0,0-.05A.07.07,0,0,0,81.28,207.64Z"/><path class="cls-8" d="M82,208.93a.09.09,0,0,0,0,.17A.09.09,0,0,0,82,208.93Z"/><path class="cls-8" d="M80.37,207.83a0,0,0,1,0,0,0S80.39,207.83,80.37,207.83Z"/><path class="cls-8" d="M81.3,208.49v0l0,0,0,0,0,0h-.06l-.06,0,0,0a.13.13,0,0,0,0,.06.07.07,0,0,0,0,.05.05.05,0,0,0,0,0,.09.09,0,0,0,.06,0h.06l0,0h0l0,0s0,0,0,0,0,0,0,0Z"/><path class="cls-8" d="M80.58,207.33v0l0,0h-.12l0,0a.05.05,0,0,0,0,0l0,0a.06.06,0,0,0,0,.06.09.09,0,0,0,0,.06l0,0h.12l0,0,0-.06v-.06Z"/><path class="cls-8" d="M81,206h0a.16.16,0,0,0,0-.07.1.1,0,0,0-.07,0h-.07l-.1,0a.18.18,0,0,0-.07.08.17.17,0,0,0,0,.1h0v0a.17.17,0,0,0,0,.07l0,.05,0,0,.09,0h0a.17.17,0,0,0,.1,0l0,0s0,0,0,0a.09.09,0,0,0,0-.07A.22.22,0,0,0,81,206Z"/><path class="cls-8" d="M80.16,206.5a.09.09,0,0,0,0-.05h0l0,0h0l0,0-.09-.06h-.1l0,0h0l0,0h0l0,0,0,0v0a.08.08,0,0,0,0,.07.08.08,0,0,0,0,0l0,0,0,0h.21l.05,0a.09.09,0,0,0,0-.06.07.07,0,0,0,0-.05Z"/><polygon class="cls-8" points="79.89 206.64 79.89 206.64 79.89 206.64 79.89 206.64"/><path class="cls-8" d="M79.9,206.64h0Z"/><path class="cls-8" d="M80.81,206.86a.1.1,0,1,0,0,.21A.1.1,0,0,0,80.81,206.86Z"/><path class="cls-8" d="M80.48,204.85a.13.13,0,0,0,0,.26A.13.13,0,0,0,80.48,204.85Z"/><path class="cls-8" d="M79.52,204.73v0s0,0,0,0h0l0,0h-.06l0,0v0a.14.14,0,0,0,0,.06s0,0,0,0,0,0,0,0l0,0h.14l0,0v0s0,0,0,0Z"/><path class="cls-8" d="M80.09,204a.16.16,0,0,0,0,.31A.16.16,0,0,0,80.09,204Z"/><path class="cls-8" d="M80,205.09a.14.14,0,0,0,0-.06l0-.06a.09.09,0,0,0-.06,0l-.06,0h0l-.08,0,0,0a.11.11,0,0,0,0,.08v.11a.14.14,0,0,0,0,.07.07.07,0,0,0,0,.06.1.1,0,0,0,0,0l.08,0h0l.08,0,0,0a.12.12,0,0,0,0-.09Z"/><path class="cls-8" d="M79,203.82a.17.17,0,0,0,0,.34A.17.17,0,0,0,79,203.82Z"/><path class="cls-8" d="M79,203.06a.1.1,0,0,0,0,.2A.1.1,0,1,0,79,203.06Z"/><path class="cls-8" d="M77.66,204.18a.14.14,0,0,0,0,.28A.14.14,0,0,0,77.66,204.18Z"/><path class="cls-8" d="M78.27,203.18a.09.09,0,1,0,0,.18A.09.09,0,1,0,78.27,203.18Z"/><path class="cls-8" d="M78.45,204a.11.11,0,0,0-.16,0l0,0c-.18.13,0,.37.18.19l0,0A.1.1,0,0,0,78.45,204Z"/><path class="cls-8" d="M77.44,203.7a.13.13,0,0,0,0,.25A.13.13,0,0,0,77.44,203.7Z"/><path class="cls-8" d="M77.28,205.13s0,0,0-.06l0,0,0,0h-.1L77,205l0,0,0,0,0,0a.22.22,0,0,0,0,.08.17.17,0,0,0,0,.05l0,0,0,0,0,0h.12l0,0,0,0,0,0,0-.05a.17.17,0,0,0,0-.07A.08.08,0,0,0,77.28,205.13Z"/><path class="cls-8" d="M75.9,204a.13.13,0,0,0,0,.26A.13.13,0,0,0,75.9,204Z"/><path class="cls-8" d="M75.6,205.4l0,0,0,0h-.07a.1.1,0,0,0,0,0l-.06.11a0,0,0,0,0,0,0v0l0,0,0,0h.1l0,0,0-.11v-.07Z"/><path class="cls-8" d="M75,203.57v0l0,0,0,0h-.1l0,0s0,0,0,0v.05a.09.09,0,0,0,0,.07l0,.06,0,0,.07,0h.05l0,0a.09.09,0,0,0,0-.06.09.09,0,0,0,0-.07Z"/><path class="cls-8" d="M75.45,202.8a.14.14,0,0,0,0,.28A.14.14,0,0,0,75.45,202.8Z"/><path class="cls-8" d="M75.29,204.26a.06.06,0,0,0,0,.12C75.36,204.38,75.36,204.26,75.29,204.26Z"/><path class="cls-8" d="M76,205a.05.05,0,0,0,0,0l-.06,0H75.8l0,0,0,0a0,0,0,0,0,0,0,.14.14,0,0,0,0,.06v.07l0,0s0,0,0,0h.14l.06,0,0,0a.19.19,0,0,0,0-.07A.14.14,0,0,0,76,205Z"/><path class="cls-8" d="M76.45,205.54a.1.1,0,1,0,0,.21A.1.1,0,0,0,76.45,205.54Z"/><path class="cls-8" d="M77.33,204.53a.12.12,0,0,0,0,.24A.12.12,0,1,0,77.33,204.53Z"/><path class="cls-8" d="M76.88,204a.05.05,0,0,0,0,0l0,0,0,0-.07,0h0l0,0,0,0,0,0,0,0a.08.08,0,0,0,0,.07.06.06,0,0,0,0,0l0,0,0,0,0,0,0,0h0l.06,0,0,0,0,0,0,0a.09.09,0,0,0,0-.07S76.89,204,76.88,204Z"/><path class="cls-8" d="M78,203.32a.17.17,0,0,0,0,.34A.17.17,0,0,0,78,203.32Z"/><path class="cls-8" d="M79.54,203.57a.15.15,0,0,0,0,.29A.15.15,0,0,0,79.54,203.57Z"/><path class="cls-8" d="M75.68,203.42a.18.18,0,0,0,0,.36A.18.18,0,0,0,75.68,203.42Z"/><path class="cls-8" d="M75.06,202.74l0,0s0,0,0-.06l-.08,0-.07,0-.06.06,0,0a.24.24,0,0,0,0,.09.29.29,0,0,0,0,.09.19.19,0,0,0,.16.09.17.17,0,0,0,.16-.09.16.16,0,0,0,0-.09A.14.14,0,0,0,75.06,202.74Z"/><path class="cls-8" d="M75.62,201.84a.16.16,0,0,0,0,.32A.16.16,0,0,0,75.62,201.84Z"/><path class="cls-8" d="M75.56,200.36a.1.1,0,0,0,0,.19A.1.1,0,1,0,75.56,200.36Z"/><path class="cls-8" d="M75.53,200.78l0,0a.14.14,0,0,0-.15,0h-.08l0,0,0,0a.07.07,0,0,0,0,.05v0l0,0s0,0,0,0l0,0,0,0h.08l.07,0,0,0a.24.24,0,0,0,0-.08A.13.13,0,0,0,75.53,200.78Z"/><path class="cls-8" d="M75.68,201a.16.16,0,1,0,0,.33A.16.16,0,0,0,75.68,201Z"/><path class="cls-8" d="M75.79,199.66a.13.13,0,0,0,0,.26A.13.13,0,0,0,75.79,199.66Z"/><path class="cls-8" d="M75.34,199.26a.09.09,0,0,0,0,.18A.09.09,0,0,0,75.34,199.26Z"/><path class="cls-8" d="M75.68,198.49a.15.15,0,0,0,0,.29A.15.15,0,0,0,75.68,198.49Z"/><path class="cls-8" d="M75.23,198.62a.13.13,0,0,0,0,.25A.13.13,0,0,0,75.23,198.62Z"/><path class="cls-8" d="M76.1,199.42a.1.1,0,0,0,0-.07l0,0a.11.11,0,0,0-.08,0h-.11a.1.1,0,0,0,0,0s0,0,0,0a.07.07,0,0,0,0,.06v0a.16.16,0,0,0,0,.07l0,0a.11.11,0,0,0,.08,0H76a.1.1,0,0,0,0,0,.05.05,0,0,0,0,0,.14.14,0,0,0,0-.06Z"/><path class="cls-8" d="M75.26,197.38l0,0,0,0,0,0h-.13l0,0s0,0,0,0v.05a.11.11,0,0,0,0,.08.16.16,0,0,0,0,.07l0,0s0,0,.07,0l.06,0a.05.05,0,0,0,0,0,.16.16,0,0,0,0-.07.11.11,0,0,0,0-.08Z"/><path class="cls-8" d="M74.63,196.49a.11.11,0,0,0,0,.21A.11.11,0,0,0,74.63,196.49Z"/><path class="cls-8" d="M73,196.92a.17.17,0,0,0,0,.34A.17.17,0,0,0,73,196.92Z"/><path class="cls-8" d="M72.86,197.94a.15.15,0,0,0,0,.29A.15.15,0,0,0,72.86,197.94Z"/><path class="cls-8" d="M71.66,197a.15.15,0,0,0,0-.07.09.09,0,0,0,0-.06l-.06,0-.07,0-.07,0-.06,0,0,0a.17.17,0,0,0,0,.1v0a.2.2,0,0,0,0,.08l0,0,.07,0h.11s0,0,.05,0l0,0V197Z"/><path class="cls-8" d="M72.06,198.11l0-.09a.08.08,0,0,0,0,0l-.06,0-.06,0,0,0,0,.09a.17.17,0,0,0,0,.16.15.15,0,0,0,.28,0,.12.12,0,0,0,0-.16Z"/><path class="cls-8" d="M72.14,197.19a.12.12,0,0,0,0,.24A.12.12,0,0,0,72.14,197.19Z"/><path class="cls-8" d="M72.2,196.61l0-.06a.1.1,0,0,0-.08-.05h0l0,0s0,0,0,0v0a.09.09,0,0,0,0,.08l.06,0h.07s0,0,0,0h0v-.05S72.21,196.61,72.2,196.61Z"/><path class="cls-8" d="M72.86,197.51a.13.13,0,0,0,0,.26A.13.13,0,0,0,72.86,197.51Z"/><path class="cls-8" d="M73.19,196.34a.14.14,0,0,0,0,.28A.14.14,0,0,0,73.19,196.34Z"/><path class="cls-8" d="M74,196.38a.1.1,0,0,0,0,.2A.1.1,0,0,0,74,196.38Z"/><path class="cls-8" d="M74.57,197a.05.05,0,0,0,0,0l0,0h-.08a.09.09,0,0,0-.06,0l0,0s0,0,0,.06v0a.07.07,0,0,0,0,.05.05.05,0,0,0,0,0l0,0h.08a.07.07,0,0,0,.06,0l0,0a.14.14,0,0,0,0-.07v0A.08.08,0,0,0,74.57,197Z"/><path class="cls-8" d="M74.46,197.37a.16.16,0,0,0,0,.32A.16.16,0,0,0,74.46,197.37Z"/><path class="cls-8" d="M71.87,198.88a.13.13,0,0,0-.05-.09s0,0-.06,0a.12.12,0,0,0-.08,0,.17.17,0,0,0-.1,0,.12.12,0,0,0-.07.07h0l0,0V199s0,0,0,0a.15.15,0,0,0,.05.06l0,0,0,0h.08l.07,0h0a.12.12,0,0,0,.07-.07.17.17,0,0,0,0-.1Z"/><path class="cls-8" d="M71.09,197.92a.25.25,0,0,0,0-.07h0l-.08,0a.08.08,0,0,0-.07,0l-.07,0-.06.06v0h0v0s0,0,0,0v0l0,0v0l.06.06a.26.26,0,0,0,.14,0l.08,0h0a.09.09,0,0,0,0-.05.14.14,0,0,0,0-.07Z"/><path class="cls-8" d="M70.92,198.54a.05.05,0,0,0,0,0l0,0h-.08l-.05,0-.06.05s0,0,0,0a.06.06,0,0,0,0,0,.09.09,0,0,0,0,.05l0,0,0,0h.08a.05.05,0,0,0,0,0l.06-.05a.05.05,0,0,0,0,0,.06.06,0,0,0,0,0S70.93,198.55,70.92,198.54Z"/><path class="cls-8" d="M71.3,199.37a.05.05,0,0,0,0,0h0l-.06,0h0l-.05,0-.06,0a.05.05,0,0,0,0,0,.06.06,0,0,0,0,0s0,0,0,0a.05.05,0,0,0,0,0l0,0h.09l0,0,0-.06s0,0,0,0a.08.08,0,0,0,0,0S71.31,199.38,71.3,199.37Z"/><path class="cls-8" d="M70.6,198.84a.13.13,0,0,0,0,.25A.13.13,0,0,0,70.6,198.84Z"/><path class="cls-8" d="M70.6,199.74a.11.11,0,1,0,0,.22A.11.11,0,0,0,70.6,199.74Z"/><path class="cls-8" d="M71.15,200.64a.15.15,0,0,0,0,.29A.15.15,0,0,0,71.15,200.64Z"/><path class="cls-8" d="M71.2,201.8a.09.09,0,0,0,0,.18A.09.09,0,1,0,71.2,201.8Z"/><path class="cls-8" d="M70.49,200.66a.13.13,0,0,0,0,.26A.13.13,0,0,0,70.49,200.66Z"/><path class="cls-8" d="M71.2,201a.13.13,0,0,0-.13.12H71l-.22.11a.08.08,0,0,0,0,.06.06.06,0,0,0,0,.07.1.1,0,0,0,.05,0h.07l.22-.11,0,0a.13.13,0,0,0,.09,0A.15.15,0,0,0,71.2,201Z"/><path class="cls-8" d="M71.09,203.4a.15.15,0,0,0,0,.29A.15.15,0,0,0,71.09,203.4Z"/><path class="cls-8" d="M70.6,203.05a.06.06,0,0,0,0,.11C70.66,203.16,70.66,203.05,70.6,203.05Z"/><path class="cls-8" d="M70.43,201.29a.11.11,0,0,0,0,.21A.11.11,0,1,0,70.43,201.29Z"/><path class="cls-8" d="M71.57,203.24v0l0,0h-.11l0,0a0,0,0,0,0,0,0l0,0a.09.09,0,0,0,0,.07s0,0,0,0l0,0h.11l0,0s0,0,0,0a.09.09,0,0,0,0-.07Z"/><path class="cls-8" d="M68.77,208.81l0,0a.17.17,0,0,0-.06-.06l-.08,0-.08,0a.17.17,0,0,0-.06.06l0,0a.21.21,0,0,0,0,.18.19.19,0,0,0,.32,0,.21.21,0,0,0,0-.18Z"/><path class="cls-8" d="M39.33,194a2.7,2.7,0,0,0,.32-1.17,1.29,1.29,0,0,0-.49-.94,2,2,0,0,0-2.18,0c-.47.24-.86.57-1.34.77a1.86,1.86,0,0,1-1.37.06c-.09,0-.18.11-.1.17.73.59,1.54,0,2.2-.39s1.7-.84,2.48-.29,0,1.57-.14,2.3a3.12,3.12,0,0,0,.42,2.38c.13.2.46,0,.33-.19A2.76,2.76,0,0,1,39.33,194Z"/><path class="cls-8" d="M37.63,195.26c-.2-.29-.05-.57,0-.88a.76.76,0,0,0-.28-.82.52.52,0,0,0-.44,0c-.15.07-.28.15-.44.21a1.38,1.38,0,0,1-.49.06l-.25,0-.13,0h0a0,0,0,0,0,0-.05c-.06-.07-.17,0-.2.06s.11.22.22.26a1.62,1.62,0,0,0,.9,0,1.52,1.52,0,0,0,.4-.16c.1-.07.22-.18.35-.11.29.15.09.55,0,.77a1.11,1.11,0,0,0-.09.48.59.59,0,0,0,0,.23.49.49,0,0,0,.18.22C37.53,195.6,37.72,195.4,37.63,195.26Z"/><path class="cls-8" d="M40.88,197.76a2.16,2.16,0,0,1-.57-2.21,12.27,12.27,0,0,0,.22-1.92,3.91,3.91,0,0,0-1.19-3.14,2.47,2.47,0,0,0-2.79-.4c-.58.31-1.09.74-1.69,1a4.37,4.37,0,0,1-1,.37c-.36.08-.73,0-1.08.09a.16.16,0,0,0,0,.29,2.27,2.27,0,0,0,1.62-.08,7.65,7.65,0,0,0,1.69-.85,2.61,2.61,0,0,1,1.75-.65,2.39,2.39,0,0,1,1.5.87c.9,1.07.79,2.6.62,3.89-.13.95-.25,2.41.92,2.77C40.9,197.84,40.91,197.79,40.88,197.76Z"/><path class="cls-8" d="M48.2,184.58Z"/><path class="cls-8" d="M48.41,184.35a.43.43,0,0,0-.27-.1.35.35,0,0,0-.23.09.25.25,0,0,0-.13,0,.67.67,0,0,0-.13.21.83.83,0,0,0-.06.21.35.35,0,0,0,0,.33.37.37,0,0,0,.31.07,1.14,1.14,0,0,0,.3-.09.53.53,0,0,0,.29-.49A.41.41,0,0,0,48.41,184.35Zm-.22.43h0a.08.08,0,0,1,0,0h0l0,0h0l-.07,0h-.1v-.06h0a.13.13,0,0,0,0-.06l0-.12v0h0a.08.08,0,0,1,0,0v0h0a.27.27,0,0,0,.09,0l.06,0h.07l0,0h0s0,0,0,0v0h0v0h0v0s0,0,0,0v.05Z"/><path class="cls-8" d="M49.43,184.11a1.57,1.57,0,0,0-1-.87,1.27,1.27,0,0,0-1.2.3.15.15,0,0,0,0,.24,1.6,1.6,0,0,0-.63.79,1.34,1.34,0,0,0,.32,1.37,1.15,1.15,0,0,0,1.47,0,1.57,1.57,0,0,0,.63-1.47.86.86,0,0,0-1.22-.63A.12.12,0,0,0,48,184a.55.55,0,0,1,.77.44,1.25,1.25,0,0,1-.49,1.12.76.76,0,0,1-1,.07.93.93,0,0,1-.27-.92,1.75,1.75,0,0,1,.88-1,.11.11,0,0,0,0-.18,1.14,1.14,0,0,1,1.17.64,1.55,1.55,0,0,1-.3,1.8,2.08,2.08,0,0,1-1.87.46,1.06,1.06,0,0,1-.77-.56,1.52,1.52,0,0,1,0-1.07,2.46,2.46,0,0,1,1.41-1.53c.08,0,.05-.15,0-.12a2.35,2.35,0,0,0-1.64,1.48,2,2,0,0,0-.07,1.25,1.3,1.3,0,0,0,.77.77,2.39,2.39,0,0,0,2.36-.36A1.9,1.9,0,0,0,49.43,184.11Z"/><path class="cls-8" d="M51.32,191.55a4.18,4.18,0,0,0-1.6-2,8,8,0,0,1-.95-.89,3.22,3.22,0,0,1-.42-.57.79.79,0,0,1-.08-.45,4.51,4.51,0,0,0,1.7-1.25,1.8,1.8,0,0,0,.41-1.73,3.15,3.15,0,0,0-.87-1.44,2.67,2.67,0,0,0-.79-.51,4,4,0,0,0,0-1.92,4.7,4.7,0,0,0-.9-2c-.91-1.21-2.34-2.38-1.89-4.08a.17.17,0,0,0-.33-.09c-.4,1.42.61,2.71,1.4,3.79a6.74,6.74,0,0,1,1.09,2,4.53,4.53,0,0,1,.22,1.22c0,.32,0,.64-.06,1a1.58,1.58,0,0,0-.38-.05,2.88,2.88,0,0,0-.82.1c.72-1.25-.15-2.87-.94-3.88a10.58,10.58,0,0,1-1.56-2.2,3.25,3.25,0,0,1,0-2.47c0-.08-.07-.12-.12-.07a2,2,0,0,0-.51,1.8,5,5,0,0,0,1,2.22,15,15,0,0,1,1.48,2.16,3,3,0,0,1,.14,2.55.19.19,0,0,0,0,.07,3,3,0,0,0-.63.3c-.22-.83,0-1.71-.24-2.55a6.86,6.86,0,0,0-1.13-1.85,10.15,10.15,0,0,1-1.42-2,4.44,4.44,0,0,1-.06-3.17.07.07,0,0,0-.13-.05c-1,1.63,0,3.44,1,4.79a8.27,8.27,0,0,1,1.33,2.16c.32,1-.09,2,.23,3a.27.27,0,0,0,.16.17,2.63,2.63,0,0,0-1,2.26,2.24,2.24,0,0,0,1.31,1.78,1.25,1.25,0,0,0,.07.91,2.77,2.77,0,0,0,.73,1c.33.32.7.58,1,.87a4.89,4.89,0,0,1,.46.45,5.57,5.57,0,0,1,.4.59.21.21,0,0,0,.39-.17,2.34,2.34,0,0,0-.74-1c-.32-.28-.67-.52-1-.77a3.12,3.12,0,0,1-.88-.93,1.77,1.77,0,0,1-.23-.59c0-.11,0-.22,0-.32a2.88,2.88,0,0,0,1.92.06,1.34,1.34,0,0,0,.12.54,3.77,3.77,0,0,0,1,1.16c.37.33.76.63,1.12,1a3.93,3.93,0,0,1,.5.58,4.17,4.17,0,0,1,.35.66C51.13,191.81,51.35,191.7,51.32,191.55Zm-4.09-4.08A2.15,2.15,0,0,1,45,186.09a2.52,2.52,0,0,1,.73-2.55l.07,0h0a4,4,0,0,0,.81-.3,3.93,3.93,0,0,1,.83-.23,2,2,0,0,1,1.44.32c.76.51,1.47,1.75.89,2.61a3.86,3.86,0,0,1-1.36,1.2h0s0,0,0,0A2.81,2.81,0,0,1,47.23,187.47Z"/><path class="cls-8" d="M50,191.28a3.33,3.33,0,0,0-1.17-1.71c-.28-.25-.59-.47-.89-.7-.15-.11-.29-.23-.44-.33a1,1,0,0,1-.37-.42,0,0,0,0,0-.08,0,1.32,1.32,0,0,0,.5.8c.29.25.59.48.88.74a3.57,3.57,0,0,1,1.19,1.7A.2.2,0,0,0,50,191.28Z"/><path class="cls-8" d="M51.78,191a.16.16,0,0,0,0,.32A.16.16,0,0,0,51.78,191Z"/><path class="cls-8" d="M50.65,189.47a.18.18,0,0,0,0,.35A.18.18,0,0,0,50.65,189.47Z"/><path class="cls-8" d="M49.85,188.16v0a.1.1,0,0,0,0,0l0,0h-.14s0,0,0,0l0,0,0,.06v.09a.18.18,0,0,0,.05.07l0,0a.15.15,0,0,0,.09,0h.06l.06,0a.16.16,0,0,0,0-.07.14.14,0,0,0,0-.09Z"/><path class="cls-8" d="M51.21,190.16l0,0,0-.06,0,0L51,190H51l0,0a.12.12,0,0,0,0,0l0,.06v.24a.17.17,0,0,0,0,.07l0,.06.06,0,.08,0h0a.14.14,0,0,0,.08-.05.22.22,0,0,0,.06-.13v-.17S51.21,190.19,51.21,190.16Z"/><path class="cls-8" d="M50,188.74a.09.09,0,0,0,0,.17A.09.09,0,0,0,50,188.74Z"/><path class="cls-8" d="M49.9,187.16a.17.17,0,0,0,0,.33A.17.17,0,0,0,49.9,187.16Z"/><path class="cls-8" d="M50.7,185.88s0,0,0,0l0,0,0,0h0a.11.11,0,0,0-.08,0l0,0a.13.13,0,0,0,0,.06V186a.06.06,0,0,0,0,0,.05.05,0,0,0,0,0l0,0h.08l.05,0a.12.12,0,0,0,0-.08Z"/><path class="cls-8" d="M50.8,184.58a.08.08,0,0,0,0,0l-.07,0h-.07l0,0v0a0,0,0,0,0,0,0s0,0,0,0l.05.07,0,0h.08s0,0,0,0,0,0,0,0,0,0,0,0A.06.06,0,0,0,50.8,184.58Z"/><path class="cls-8" d="M50.15,183.28a.15.15,0,0,0,0,.3A.15.15,0,0,0,50.15,183.28Z"/><path class="cls-8" d="M49.62,182.46l0-.05s0,0-.06-.06l-.08,0-.08,0a.09.09,0,0,0-.06.06l0,.05a.29.29,0,0,0,0,.09.3.3,0,0,0,0,.1.2.2,0,0,0,.17.09.18.18,0,0,0,.16-.09.17.17,0,0,0,0-.1A.16.16,0,0,0,49.62,182.46Z"/><path class="cls-8" d="M49.27,180.92l0,0a.12.12,0,0,0-.09,0l-.06,0s0,0-.06,0A.35.35,0,0,0,49,181v.1l0,.05v0a.12.12,0,0,0,0,.05l0,0a.07.07,0,0,0,.06,0h0l0,0,0,0a.07.07,0,0,0,0-.06v-.05a.17.17,0,0,0,0-.1S49.29,181,49.27,180.92Z"/><path class="cls-8" d="M49,179.74a.12.12,0,0,0,0-.08s0,0,0-.06a.09.09,0,0,0-.06,0h-.12l-.08,0,0,0a.17.17,0,0,0,0,.1v0a.19.19,0,0,0,0,.08l0,.06.06,0,.08,0h.05a.16.16,0,0,0,.09,0l0,0a.17.17,0,0,0,0-.1Z"/><path class="cls-8" d="M48.39,178.59a.13.13,0,1,0,0,.27A.13.13,0,0,0,48.39,178.59Z"/><path class="cls-8" d="M47.39,177.43a.17.17,0,0,0,0,.33A.17.17,0,0,0,47.39,177.43Z"/><path class="cls-8" d="M46.9,176.7l0-.06h0v0h-.07s0,0,0,0l0,.06a.06.06,0,0,0,0,.07.05.05,0,0,0,0,0h0l0,0A.06.06,0,0,0,46.9,176.7Z"/><path class="cls-8" d="M46.47,175.42a.21.21,0,0,0,0-.06l0,0,0,0-.07,0h0a.2.2,0,0,0-.08,0l0,0,0,0a.11.11,0,0,0,0,.05v0a.09.09,0,0,0,0,.06l0,0,.06,0h.11a.12.12,0,0,0,.07,0h0l0,0a.13.13,0,0,0,0-.06Z"/><path class="cls-8" d="M42.33,173.29a.16.16,0,0,0,0-.07h0l0,0h-.11l-.07,0,0,0,0,0s0,0,0,.05v0a.09.09,0,0,0,0,.06l0,0,0,0h.11l.07,0h0a.09.09,0,0,0,0-.06.14.14,0,0,0,0-.06Z"/><path class="cls-8" d="M41.87,174.38a.15.15,0,0,0,0,.29A.15.15,0,0,0,41.87,174.38Z"/><path class="cls-8" d="M42.07,175.89a.37.37,0,0,0-.07-.12l-.06,0a.23.23,0,0,0-.14,0l-.1,0a.2.2,0,0,0-.09.06.24.24,0,0,0-.06.09.2.2,0,0,0,0,.11V176a.19.19,0,0,0,.07.12l0,0a.25.25,0,0,0,.14,0l.11,0a.24.24,0,0,0,.09-.06.48.48,0,0,0,.08-.19Z"/><path class="cls-8" d="M42.37,177.31a.23.23,0,0,0,0,.45A.23.23,0,0,0,42.37,177.31Z"/><path class="cls-8" d="M43.12,179.2a.22.22,0,0,0,0,.43A.22.22,0,0,0,43.12,179.2Z"/><path class="cls-8" d="M44.48,180.42a.21.21,0,0,0-.06-.1l-.05,0a.27.27,0,0,0-.12,0l-.09,0-.08,0a.65.65,0,0,0-.07.17v.06a.21.21,0,0,0,.06.1l.05,0a.27.27,0,0,0,.12,0,.15.15,0,0,0,.09,0,.14.14,0,0,0,.08,0,.18.18,0,0,0,0-.07.29.29,0,0,0,0-.09Z"/><path class="cls-8" d="M44.55,181.86a.36.36,0,0,0-.07-.1l0,0a.28.28,0,0,0-.13,0,.16.16,0,0,0-.09,0,.1.1,0,0,0-.08,0,.18.18,0,0,0,0,.07.3.3,0,0,0,0,.1V182a.24.24,0,0,0,.06.11l0,0a.27.27,0,0,0,.12,0l.1,0a.18.18,0,0,0,.07-.05.14.14,0,0,0,.05-.08.16.16,0,0,0,0-.09Z"/><path class="cls-8" d="M44.56,183.11a.2.2,0,0,0,0,.39A.2.2,0,1,0,44.56,183.11Z"/><path class="cls-30" d="M44.06,184.69s0,0,0,0"/><path class="cls-8" d="M44.06,184.55a.08.08,0,0,0,0,.15A.08.08,0,0,0,44.06,184.55Z"/><path class="cls-8" d="M44,185.69a.26.26,0,0,0-.07-.11.14.14,0,0,0-.08-.05.1.1,0,0,0-.09,0,.28.28,0,0,0-.13,0l-.09.09,0,.08,0,0a.28.28,0,0,0,0,.09s0,0,0,.05a.16.16,0,0,0,0,.07l0,0,.05,0h.08a.11.11,0,0,0,.08,0l.08,0a.2.2,0,0,0,.09-.09.2.2,0,0,0,0-.13Z"/><path class="cls-8" d="M44.21,187.11a.13.13,0,0,0-.06-.07l0,0a.18.18,0,0,0-.2,0,.2.2,0,0,0-.1.18.18.18,0,0,0,.1.17.18.18,0,0,0,.2,0l0,0a.17.17,0,0,0,.06-.06.15.15,0,0,0,0-.18Z"/><path class="cls-8" d="M45.11,188l0,0a.1.1,0,0,0,0,0v0l0,0,0-.07-.06,0-.08,0h0l-.06,0s0,0,0,0l0,.06v.05a.17.17,0,0,0,0,.1l0,.08a.32.32,0,0,0,.12.14l.1,0,.1,0a.27.27,0,0,0,.07-.08.17.17,0,0,0,0-.1Z"/><path class="cls-8" d="M45.49,189.62v0h0a.11.11,0,0,0-.18,0h0a.08.08,0,0,0,0,0v0h0v.06s0,0,0,0l0,0h.1l0,0,0,0v0s0,0,0,0h0S45.49,189.64,45.49,189.62Z"/><path class="cls-8" d="M46.59,190.54v0a.1.1,0,0,0,0,0,.05.05,0,0,0-.05,0l0,0h-.1a.18.18,0,0,0-.08.05l0,0a.17.17,0,0,0,0,.1.11.11,0,0,0,0,.07s0,0,0,.06l.08,0a.17.17,0,0,0,.1,0l0,0h0a.1.1,0,0,0,0,0l0,0a.14.14,0,0,0,0-.06Z"/><path class="cls-8" d="M47.64,191.41a.13.13,0,0,0,0-.09l0,0a.17.17,0,0,0-.1,0l-.08,0s0,0-.06,0l-.05.06a.22.22,0,0,0,0,.08v.06a.24.24,0,0,0,.06.09l0,0a.16.16,0,0,0,.1,0,.11.11,0,0,0,.08,0l.06,0a.1.1,0,0,0,0-.07.11.11,0,0,0,0-.08Z"/><path class="cls-8" d="M99.25,207a.29.29,0,0,0-.08-.13l-.06,0a.24.24,0,0,0-.15,0,.23.23,0,0,0-.11,0,.28.28,0,0,0-.15.15.23.23,0,0,0,0,.11v.08a.22.22,0,0,0,.08.13l.06.05a.23.23,0,0,0,.14,0,.24.24,0,0,0,.12,0,.28.28,0,0,0,.15-.15.24.24,0,0,0,0-.12Z"/><path class="cls-8" d="M100.76,207.15l0-.06,0,0,0,0-.05,0a.18.18,0,0,0-.1,0l-.06,0a.12.12,0,0,0-.07.05l0,0s0,0,0,.06a.13.13,0,0,0,0,.08v.06a.2.2,0,0,0,0,.09l0,0,0,0,.06,0h.15l.06,0,0,0,0-.06a.2.2,0,0,0,0-.09Z"/><path class="cls-8" d="M108,213.26v0h0a.28.28,0,0,0,0-.15l0-.06,0,0-.06,0-.06,0h-.08a.22.22,0,0,0-.11,0l-.06,0a.12.12,0,0,0,0,.05l0,.06a.36.36,0,0,0,0,.11v.05a.22.22,0,0,0,0,.08l0,.07v0l.06.08,0,0a.16.16,0,0,0,.08.06h.17l.07,0,0,0a.22.22,0,0,0,0-.08.19.19,0,0,0,0-.1Z"/><path class="cls-8" d="M107.31,211.2a.22.22,0,0,0,0,.43A.22.22,0,0,0,107.31,211.2Z"/><path class="cls-8" d="M89.89,214.23a.35.35,0,0,0-.08-.13l0,0a.25.25,0,0,0-.14,0,.2.2,0,0,0-.11,0,.19.19,0,0,0-.09,0,.24.24,0,0,0-.06.09.23.23,0,0,0,0,.11v.08a.25.25,0,0,0,.08.12l0,.05a.37.37,0,0,0,.15,0,.12.12,0,0,0,.1,0,.28.28,0,0,0,.15-.15.2.2,0,0,0,0-.11Z"/><path class="cls-8" d="M89.88,216.12l0-.11a.37.37,0,0,0-.12-.13.42.42,0,0,0-.16-.09h-.12a.27.27,0,0,0-.18,0,.39.39,0,0,0-.16.1L89,216a.48.48,0,0,0-.06.18.37.37,0,0,0,0,.18l0,.12a.55.55,0,0,0,.17.17h0l.1,0a.33.33,0,0,0,.17,0,.3.3,0,0,0,.16-.05h0a.31.31,0,0,0,.1-.08l.07-.09a.32.32,0,0,0,.06-.18A.41.41,0,0,0,89.88,216.12Z"/><path class="cls-8" d="M91.49,219a.64.64,0,0,0-.15-.25l-.12-.09a.57.57,0,0,0-.29-.08.54.54,0,0,0-.22,0,.36.36,0,0,0-.18.12.35.35,0,0,0-.12.19.33.33,0,0,0,0,.22l0,.15a.44.44,0,0,0,.15.25l.11.1a.59.59,0,0,0,.29.07.33.33,0,0,0,.22-.05.35.35,0,0,0,.19-.12.36.36,0,0,0,.12-.18.42.42,0,0,0,.05-.22Z"/><path class="cls-8" d="M92.6,221.14a.43.43,0,0,0-.12-.22l-.1-.08a.59.59,0,0,0-.25-.07.46.46,0,0,0-.2,0,.39.39,0,0,0-.16.1.44.44,0,0,0-.1.16.41.41,0,0,0,0,.19l0,.13a.43.43,0,0,0,.12.22l.1.08a.59.59,0,0,0,.26.07.34.34,0,0,0,.19-.05.39.39,0,0,0,.16-.1.44.44,0,0,0,.1-.16.41.41,0,0,0,0-.19Z"/><path class="cls-8" d="M95.28,222.46a.46.46,0,0,0-.33-.33.36.36,0,0,0-.25,0h0a.51.51,0,0,0-.35.35.57.57,0,0,0,0,.26.51.51,0,0,0,.35.35.57.57,0,0,0,.26,0,.51.51,0,0,0,.35-.35v0A.36.36,0,0,0,95.28,222.46Z"/><path class="cls-8" d="M97.69,222.67l0-.15a.5.5,0,0,0-.1-.19.32.32,0,0,0-.1-.1.44.44,0,0,0-.19-.1l-.15,0a.57.57,0,0,0-.28.08h0l-.06.05-.06,0v0h0l-.09.12h0a.6.6,0,0,0-.08.29l0,.15a.58.58,0,0,0,.15.25.36.36,0,0,0,.18.12.51.51,0,0,0,.44,0,.36.36,0,0,0,.18-.12.33.33,0,0,0,.1-.14.31.31,0,0,0,0-.1A.36.36,0,0,0,97.69,222.67Z"/><path class="cls-8" d="M100.05,222.26a.75.75,0,0,0-.07-.12.44.44,0,0,0-.16-.14l-.06,0a.35.35,0,0,0-.14,0,.28.28,0,0,0-.22,0h-.09a.61.61,0,0,0-.24.15l-.09.11a.6.6,0,0,0-.08.29.38.38,0,0,0,0,.21.44.44,0,0,0,.12.19.42.42,0,0,0,.18.11.38.38,0,0,0,.21.05.57.57,0,0,0,.29-.08l0,0h0l.11-.08.09-.12a.29.29,0,0,0,0-.13l0-.14A.41.41,0,0,0,100.05,222.26Z"/><path class="cls-8" d="M102.24,222.36l0-.12a.44.44,0,0,0-.13-.14A.24.24,0,0,0,102,222a.28.28,0,0,0-.13,0,.15.15,0,0,0-.13,0,.37.37,0,0,0-.18.05l-.1.08a.35.35,0,0,0-.08.1l0,.12,0,.13,0,.14a.26.26,0,0,0,.09.16.2.2,0,0,0,.09.09.21.21,0,0,0,.11.07.27.27,0,0,0,.12,0,.34.34,0,0,0,.2,0c.12,0,.1,0,.17-.09a.24.24,0,0,0,.09-.08.56.56,0,0,0,.09-.17h0l0-.14Z"/><path class="cls-8" d="M28.18,148.5a25.89,25.89,0,0,0-2.26-2.95,6.58,6.58,0,0,1-1.61-3.85c0-.12-.2-.16-.22,0-.38,2.5,2.17,4.45,3.32,6.35a17.15,17.15,0,0,1,2,7.57c0,.44.74.44.7,0A16.77,16.77,0,0,0,28.18,148.5Z"/><path class="cls-8" d="M28.53,145.74c-.75-1-1.68-1.73-2.5-2.63a6.05,6.05,0,0,1-1.68-3.57.07.07,0,0,0-.14,0c-.44,2.34,1.81,4.15,3.2,5.68a8.16,8.16,0,0,1,1.9,3.3,23.38,23.38,0,0,1,.64,3.74c.05.39.67.4.63,0C30.33,150,30,147.6,28.53,145.74Z"/><path class="cls-8" d="M30.61,146.72a9.92,9.92,0,0,0-3-4.38,18.13,18.13,0,0,1-1.88-2.13,8.53,8.53,0,0,1-.72-1.29,10.69,10.69,0,0,0-.8-1.67.07.07,0,0,0-.13.05,9.41,9.41,0,0,0,2.81,5.1c1.25,1.34,2.69,2.63,3.13,4.48A.3.3,0,0,0,30.61,146.72Z"/><path class="cls-8" d="M29.53,157.82a.21.21,0,0,0-.06-.1l0,0a.26.26,0,0,0-.09-.05.19.19,0,0,0-.1,0h-.08a.37.37,0,0,0-.12.07l0,0-.05.06,0,.08a.24.24,0,0,0,0,.12.11.11,0,0,0,0,.08.16.16,0,0,0,0,.07.17.17,0,0,0,.06.06s0,0,.06,0a.19.19,0,0,0,.13,0h.08l.07,0,.07-.05.05-.06,0-.08a.24.24,0,0,0,0-.12A.11.11,0,0,0,29.53,157.82Z"/><path class="cls-8" d="M28.34,155a.39.39,0,0,0,0,.78A.39.39,0,0,0,28.34,155Z"/><path class="cls-8" d="M28.06,153.18v-.05a.32.32,0,0,0-.1-.1.24.24,0,0,0-.12-.07h-.1l-.15,0-.08.05-.1.1,0,.09a.34.34,0,0,0,0,.2.38.38,0,0,0,.05.15.4.4,0,0,0,.1.12l.07.06.08,0,.1,0a.28.28,0,0,0,.13,0l.08-.05s.05,0,.07-.06a.2.2,0,0,0,0-.08.32.32,0,0,0,0-.14s0,0,0-.06A.39.39,0,0,0,28.06,153.18Z"/><path class="cls-8" d="M27.11,150.7a.36.36,0,0,0,0,.72A.36.36,0,0,0,27.11,150.7Z"/><path class="cls-8" d="M26.43,148.91v-.08s0-.06,0-.09l0-.09-.06-.07h0l0,0-.08-.05-.08,0H26a.24.24,0,0,0-.11.06l-.06.06a.24.24,0,0,0-.06.11v.05a.28.28,0,0,0,0,.13v.06a.37.37,0,0,0,.07.12.22.22,0,0,0,.1.09h0l0,0,.09,0a.22.22,0,0,0,.16,0l.07,0a.27.27,0,0,0,.11-.1l0,0a.25.25,0,0,0,0-.12Z"/><path class="cls-8" d="M25.33,146.85v-.11a.41.41,0,0,0-.05-.09l-.05-.05-.1,0H25a.2.2,0,0,0-.09,0l0,0a.2.2,0,0,0-.05.09.28.28,0,0,0,0,.09v.07a.11.11,0,0,0,.05.09.1.1,0,0,0,0,.05.19.19,0,0,0,.1.05h.15l0,0a.09.09,0,0,0,.1,0,.08.08,0,0,0,0-.09v0h0a.12.12,0,0,0,0-.09,0,0,0,0,0,0,0Z"/><path class="cls-8" d="M24.72,136a.1.1,0,0,0,0,.2A.1.1,0,0,0,24.72,136Z"/><path class="cls-8" d="M25.46,137.19a.31.31,0,0,0,0,.61A.31.31,0,0,0,25.46,137.19Z"/><path class="cls-8" d="M26.73,139.07a.33.33,0,0,0-.21-.21.4.4,0,0,0-.15,0h-.11a.59.59,0,0,0-.17.1L26,139a.51.51,0,0,0-.06.2v.05a.24.24,0,0,0,0,.15.22.22,0,0,0,.08.13.26.26,0,0,0,.13.08.24.24,0,0,0,.15,0l.1,0a.4.4,0,0,0,.18-.1l.06-.08a.46.46,0,0,0,.05-.2v-.05A.4.4,0,0,0,26.73,139.07Z"/><path class="cls-8" d="M28.09,141.2a.41.41,0,0,0,0,.81A.41.41,0,0,0,28.09,141.2Z"/><path class="cls-8" d="M29.87,143.23a.25.25,0,0,0,0-.07l-.09-.08h0a.34.34,0,0,0-.31,0h0l-.06,0a.23.23,0,0,0-.07.1.24.24,0,0,0,0,.08.28.28,0,0,0,0,.13l0,.06,0,.07.08.08.07,0a.2.2,0,0,0,.11,0h.08l.08,0,.08-.08a.16.16,0,0,0,.05-.1l0-.06,0-.08A.28.28,0,0,0,29.87,143.23Z"/><path class="cls-8" d="M24.45,159.57a.22.22,0,0,0-.26.15.22.22,0,0,0,.15.26,1,1,0,0,1,.58.92,1,1,0,0,1-.17.52,1.34,1.34,0,0,1-.2.21l-.25.22a.16.16,0,0,0,.11.28.72.72,0,0,0,.41-.14,1.26,1.26,0,0,0,.3-.31,1.35,1.35,0,0,0-.67-2.11Z"/><path class="cls-8" d="M26,159.36a2.66,2.66,0,0,0-1.34-1.16c-.27-.09-.38.28-.18.43a3.35,3.35,0,0,1,1,.92,2.45,2.45,0,0,1,.4,1.39,2.5,2.5,0,0,1-.42,1.4,1,1,0,0,1-1.2.34c-.19-.07-.27.2-.13.3a1.26,1.26,0,0,0,1.61-.08,2.53,2.53,0,0,0,.72-1.73A3.12,3.12,0,0,0,26,159.36Z"/><path class="cls-8" d="M24.74,156.92c-.35-.22-.68.34-.32.55a5.33,5.33,0,0,1,2.53,3.8,2.73,2.73,0,0,1-.64,2.06,2.21,2.21,0,0,1-1.93.72c-.22,0-.32.28-.1.35a2.49,2.49,0,0,0,2.2-.47,3.14,3.14,0,0,0,1.09-2.32A5.74,5.74,0,0,0,24.74,156.92Z"/><path class="cls-8" d="M24.64,164.6a0,0,0,0,0,0,.05A0,0,0,0,0,24.64,164.6Z"/><path class="cls-8" d="M28.85,161.11a7.48,7.48,0,0,0-4.31-5.63.23.23,0,1,0-.18.43,6.68,6.68,0,0,1,4,4.89,4.23,4.23,0,0,1-.45,3.36c-.81,1-2.45.82-3.56,1.15a.09.09,0,0,0,0,.17,9.92,9.92,0,0,0,2.24-.18,2.77,2.77,0,0,0,1.53-.75A4.14,4.14,0,0,0,28.85,161.11Z"/><path class="cls-8" d="M65.24,186.48s-.11,0-.16,0a.2.2,0,0,0-.08.08l0,0h0s0,0,0,0l0,0s0,0,0,0l0,0a.31.31,0,0,1-.1,0h0l-.07,0h-.16l-.06,0h0l0,0h0l0,0h0s0,0,0,0v0s0,0,0,0h0v0a.43.43,0,0,1,0,0v0h0a.17.17,0,0,1,0-.1h0a.43.43,0,0,1,0,0h0l0,0,0,0,0,0v0s0,0,0,0l0,0a.06.06,0,0,0,0-.11.29.29,0,0,0-.22,0,.39.39,0,0,0-.11.15.61.61,0,0,0,0,.42.56.56,0,0,0,.26.34.67.67,0,0,0,.52,0,1,1,0,0,0,.44-.29.3.3,0,0,0,.1-.19A.17.17,0,0,0,65.24,186.48Z"/><path class="cls-8" d="M64.26,186.49Z"/><polygon class="cls-8" points="64.29 186.69 64.28 186.69 64.28 186.69 64.29 186.69"/><path class="cls-8" d="M64.37,186.8Z"/><path class="cls-8" d="M65.67,186.81a1.75,1.75,0,0,1-.57.61,1.29,1.29,0,0,1-.81.19,1.25,1.25,0,0,1-1.1-1.13,1.37,1.37,0,0,1,.21-1c.06-.08-.07-.18-.13-.1a1.64,1.64,0,0,0-.05,2,1.6,1.6,0,0,0,2,.48A1.35,1.35,0,0,0,66,187,.2.2,0,0,0,65.67,186.81Z"/><path class="cls-8" d="M67,187.92a3.2,3.2,0,0,1-3.92.56,2.26,2.26,0,0,1-1.25-1.75,4.09,4.09,0,0,1,.19-1.3c.07-.3.3-.8.14-1.09a.08.08,0,0,0-.08,0c-.18.1-.23.32-.3.5s-.15.47-.23.7a3.26,3.26,0,0,0-.17,1.45,2.81,2.81,0,0,0,1.44,2,3.75,3.75,0,0,0,4.59-.6C67.65,188,67.24,187.63,67,187.92Z"/><path class="cls-8" d="M123.43,201.3a.28.28,0,0,0,0-.13.43.43,0,0,1,0-.07l-.08-.13,0-.07h0l0,0a.43.43,0,0,1,0-.05h0v-.07a.22.22,0,0,0,0-.08v0l0,0s0,0,0,0h.06a.18.18,0,0,0,.13-.16s0,0,0-.05a.16.16,0,0,0-.16-.12.44.44,0,0,0-.34.16l0,.06,0,0h0l0,.06a.48.48,0,0,0-.07.23.74.74,0,0,0,.11.41.49.49,0,0,0,.14.18.27.27,0,0,0,.08.07.28.28,0,0,0,.14.06l.11,0a.08.08,0,0,0,.1-.1A.29.29,0,0,1,123.43,201.3Z"/><polygon class="cls-8" points="123.22 200.81 123.22 200.8 123.22 200.8 123.22 200.81"/><path class="cls-8" d="M123.45,202.48a8.07,8.07,0,0,0-.6-.92,2.7,2.7,0,0,1-.49-.81.84.84,0,0,1,.08-.77.55.55,0,0,1,.31-.18c.14,0,.24.07.38,0a.21.21,0,0,0,.09-.23c0-.2-.3-.24-.48-.23a1,1,0,0,0-.49.17,1.08,1.08,0,0,0-.44,1,2.2,2.2,0,0,0,.51,1.09c.13.17.26.34.4.5s.37.33.55.5A.12.12,0,0,0,123.45,202.48Z"/><path class="cls-8" d="M122.94,203.19a13.08,13.08,0,0,1-1.47-2.73,1.71,1.71,0,0,1,0-1.45.86.86,0,0,1,1-.38.27.27,0,0,0,.2-.49,1.24,1.24,0,0,0-1.43.26,1.84,1.84,0,0,0-.5,1.66,5.32,5.32,0,0,0,.72,1.84,4.22,4.22,0,0,0,1.27,1.48C122.87,203.47,123,203.3,122.94,203.19Z"/><path class="cls-8" d="M152,221a10.19,10.19,0,0,1-2.38-2.39,7.84,7.84,0,0,1-1.18-3.13,23.42,23.42,0,0,0-.43-3.73c-.2-.62-.74-1.8-1.5-1.87,0,0,0,0,0,0a3.18,3.18,0,0,0,.41.41,3,3,0,0,1,.49.7,4.8,4.8,0,0,1,.45,1.86,21.16,21.16,0,0,0,.26,3.64,8.06,8.06,0,0,0,3.5,5C151.91,221.63,152.29,221.19,152,221Z"/><path class="cls-8" d="M152,219.49a7.17,7.17,0,0,1-2-2.62,11.65,11.65,0,0,1-.71-3.46c-.19-2-.85-4.22-3-4.89a.07.07,0,0,0-.06.13,4.9,4.9,0,0,1,2.22,2.53,17.38,17.38,0,0,1,.45,3.67c.23,1.87,1,4.07,2.67,5.14C151.89,220.17,152.24,219.73,152,219.49Z"/><path class="cls-8" d="M152,223.24c-.57-1-1.94-1.49-2.82-2.2a5.9,5.9,0,0,1-2-3.11,9.24,9.24,0,0,1-.18-3.63c.14-1.05.29-2.19-.58-3,0,0-.1,0-.07.06.74,1.05.28,2.45.15,3.61a8.55,8.55,0,0,0,.33,3.52,6.77,6.77,0,0,0,1.68,2.85,9.8,9.8,0,0,0,1.41,1.06,12.86,12.86,0,0,1,1.52,1.24A.35.35,0,0,0,152,223.24Z"/><path class="cls-8" d="M151.1,224.68a.25.25,0,0,0-.08-.12.28.28,0,0,0-.16-.09.31.31,0,0,0-.19,0l-.07,0-.08,0a.22.22,0,0,0-.1.09.13.13,0,0,0,0,.07.17.17,0,0,0,0,.14v.09l0,.08a.2.2,0,0,0,.09.09.23.23,0,0,0,.12.06l.07,0a.31.31,0,0,0,.19,0,.28.28,0,0,0,.16-.09l.06-.07a.41.41,0,0,0,0-.18A.32.32,0,0,0,151.1,224.68Z"/><path class="cls-8" d="M149.6,223.29a.32.32,0,0,0-.1-.1.24.24,0,0,0-.12-.07h-.3l-.09,0-.06,0a.33.33,0,0,0-.07.13h0a.19.19,0,0,0,0,.08v0h0s0,.06,0,.09h0a.05.05,0,0,1,0,0,.41.41,0,0,0,.07.11l.07,0h0l.09,0h.17a.41.41,0,0,0,.18-.05l.07-.06a.24.24,0,0,0,.09-.15.26.26,0,0,0,0-.15A.28.28,0,0,0,149.6,223.29Z"/><polygon class="cls-8" points="149.12 223.14 149.11 223.14 149.11 223.14 149.12 223.14"/><path class="cls-8" d="M147.89,221.59a.35.35,0,0,0,0,.69A.35.35,0,0,0,147.89,221.59Z"/><path class="cls-8" d="M147.13,220.59a.3.3,0,0,0,0-.08h0l0,0a.27.27,0,0,0-.11-.1.27.27,0,0,0-.28,0,.24.24,0,0,0-.1.1l0,0h0a.08.08,0,0,0,0,0,.27.27,0,0,0,0,.12.28.28,0,0,0,0,.09.29.29,0,0,0,.08.14h0a.21.21,0,0,0,.1.06.2.2,0,0,0,.11,0h.08a.35.35,0,0,0,.13-.08h0a.29.29,0,0,0,.08-.14.29.29,0,0,0,0-.09Z"/><path class="cls-8" d="M151.91,217.55l0,0s-.06-.07-.1-.08l-.1-.05-.12,0h-.13l-.07,0a.2.2,0,0,0-.09.09.1.1,0,0,0,0,.07.27.27,0,0,0,0,.12v.09a.39.39,0,0,0,.08.14l0,0,0,0,0,0a.23.23,0,0,0,.12.06h0l0,0h.17l.08-.05h0s0,0,0,0h0l0,0s0,0,0-.05a.29.29,0,0,0,0-.09v0a.25.25,0,0,0,0-.17A.29.29,0,0,0,151.91,217.55Z"/><path class="cls-8" d="M150.86,216l-.05-.05,0,0h0l0,0s0,0,0,0a.21.21,0,0,0-.1-.06.14.14,0,0,0-.11,0,.28.28,0,0,0-.15,0h0l-.07.06a.24.24,0,0,0-.06.08.26.26,0,0,0-.05.17v0h0s0,.06,0,.09h0a.25.25,0,0,0,0,.09h0a.27.27,0,0,0,.13.13.35.35,0,0,0,.18.05h.09a.39.39,0,0,0,.16-.1.41.41,0,0,0,.07-.11.31.31,0,0,0,0-.13A.35.35,0,0,0,150.86,216Z"/><path class="cls-8" d="M150.79,215.89v0h0v0h0Z"/><path class="cls-8" d="M150.05,212.16v0a.31.31,0,0,0,0-.1.39.39,0,0,0-.08-.14l-.09-.07a.25.25,0,0,0-.25,0,.24.24,0,0,0-.14.17.08.08,0,0,0,0,0,.5.5,0,0,0,0,.12.27.27,0,0,0,.06.17.08.08,0,0,1,0,0l.05.09.09.18a.26.26,0,0,0,.14.11.2.2,0,0,0,.15,0,.17.17,0,0,0,.11-.09l0-.06a.24.24,0,0,0,0-.12Z"/><path class="cls-8" d="M149,209.23a.3.3,0,0,0,0,.59A.3.3,0,0,0,149,209.23Z"/><path class="cls-8" d="M147.46,207.24a.17.17,0,0,0-.06-.1.14.14,0,0,0-.08,0,.09.09,0,0,0-.09,0l-.12,0-.08.08-.06.1,0,.05a.11.11,0,0,0,0,.08.07.07,0,0,0,0,.05.16.16,0,0,0,0,.07l.05,0,0,0h.08a.13.13,0,0,0,.08,0l.09-.05a.26.26,0,0,0,.09-.09.27.27,0,0,0,0-.12Z"/><path class="cls-8" d="M147.24,236.14a.55.55,0,0,0-.56-.19.19.19,0,0,0,0,.36h0l.07,0h0l0,0h0l0,0h0l0,0,0,0h0l0,0s0,.07,0,0l0,0s0,0,0,0v.14a.07.07,0,0,0,0,.05.42.42,0,0,1,0,.1l0,0s0,0,0,.05l-.07.11-.06.07a1.47,1.47,0,0,0-.1.13l-.14.19a.14.14,0,0,0,0,.18.13.13,0,0,0,.17,0l.27-.17a1.34,1.34,0,0,0,.26-.27,1.05,1.05,0,0,0,.23-.59A.8.8,0,0,0,147.24,236.14Z"/><path class="cls-8" d="M146.63,234.63a.26.26,0,0,0-.2.48,2.27,2.27,0,0,1,1,.67,1.75,1.75,0,0,1,.31,1.21,1.34,1.34,0,0,1-.59,1c-.34.17-.78,0-1.05.34a.15.15,0,0,0,.21.21c.17-.14.46,0,.67-.06a1,1,0,0,0,.62-.23,1.93,1.93,0,0,0,.68-1.37A2.15,2.15,0,0,0,146.63,234.63Z"/><path class="cls-8" d="M148.83,234.92a6.48,6.48,0,0,0-1.91-1.7.31.31,0,0,0-.31.54,5.87,5.87,0,0,1,1.57,1.37,3.51,3.51,0,0,1,.93,2c0,1.41-1.53,2.28-2.78,2.28a.13.13,0,0,0,0,.25,2.77,2.77,0,0,0,3.43-2.27A3.52,3.52,0,0,0,148.83,234.92Z"/><path class="cls-8" d="M178,230.83c.05,1.74-1,3.17-2,4.46a9.19,9.19,0,0,0-2,3.83c-.3,1.53-.16,3.11-.51,4.63a4.46,4.46,0,0,1-1,2c-.45.48-1,.84-1.27,1.47,0,.08.08.11.12.05.48-.64,1.24-1,1.75-1.58a5.18,5.18,0,0,0,.85-1.65c.51-1.58.36-3.25.66-4.86.57-3.12,4-5.06,3.94-8.36C178.47,230.53,178,230.53,178,230.83Z"/><path class="cls-8" d="M179.54,230.85c0-.16-.27-.09-.24.07.2,1.38-.67,2.64-1.3,3.79a31.61,31.61,0,0,0-1.76,3.3,17.48,17.48,0,0,0-.61,3.54,12.12,12.12,0,0,1-.46,1.77c-.22.62-.54,1.19-.8,1.79a.21.21,0,0,0,.36.21,8.81,8.81,0,0,0,1.3-3.47c.24-1.38.11-2.75.71-4s1.3-2.43,1.95-3.64A4.71,4.71,0,0,0,179.54,230.85Z"/><path class="cls-8" d="M181,229.74a.23.23,0,0,0-.44.13c.83,2.68-1,5.11-2.17,7.38a23.23,23.23,0,0,0-1.33,3.32c-.2.61-.36,1.22-.51,1.84a7,7,0,0,0-.27,1.82.1.1,0,0,0,.2,0,14,14,0,0,0,.5-1.93c.17-.65.37-1.28.59-1.91a25.19,25.19,0,0,1,1.62-3.69C180.3,234.59,181.76,232.26,181,229.74Z"/><path class="cls-8" d="M176.87,232.94v0l0,0a.1.1,0,0,0-.05-.06l0,0a.08.08,0,0,0-.07,0h0l-.05,0a.13.13,0,0,0-.06.05l0,.06v0h0a.21.21,0,0,0,0,.11.08.08,0,0,0,0,0,.2.2,0,0,0,.36,0A.18.18,0,0,0,176.87,232.94Z"/><path class="cls-8" d="M175.44,234.68a.23.23,0,0,0-.06-.12.28.28,0,0,0-.1-.09l0,0h0l-.07,0H175l-.08,0h0l-.07.05h0l0,.06a.36.36,0,0,0,0,.09.31.31,0,0,0,0,.09.17.17,0,0,0,0,.1h0l0,.06h0v0h0a.37.37,0,0,0,.05.11l.06.06.07,0,.09,0a.2.2,0,0,0,.13,0l.08,0h0a.18.18,0,0,0,.07,0h0l.06-.07,0-.06a.25.25,0,0,0,0-.07A.31.31,0,0,0,175.44,234.68Z"/><path class="cls-8" d="M173.87,237.21a.54.54,0,0,0-.15-.15l0,0-.1,0a.32.32,0,0,0-.17,0,.19.19,0,0,0-.1,0,.31.31,0,0,0-.14.09l-.06.08,0,.1a.33.33,0,0,0,0,.17.27.27,0,0,0,.05.15v0a.46.46,0,0,0,.16.15.43.43,0,0,0,.22.06h.11a.4.4,0,0,0,.19-.11.42.42,0,0,0,.09-.14.33.33,0,0,0,0-.17A.43.43,0,0,0,173.87,237.21Z"/><path class="cls-8" d="M172.73,240a.24.24,0,0,0-.09-.15l-.07-.06a.35.35,0,0,0-.18-.05.2.2,0,0,0-.13,0,.21.21,0,0,0-.12.07.38.38,0,0,0-.09.15.6.6,0,0,0,0,.19l0,.16,0,.08a.2.2,0,0,0,.09.09l.07,0a.27.27,0,0,0,.12,0h.09l.08,0a.26.26,0,0,0,.09-.09.24.24,0,0,0,.06-.11l0-.16A.31.31,0,0,0,172.73,240Z"/><path class="cls-8" d="M172.68,242.49a.33.33,0,0,0-.07-.13.21.21,0,0,0-.1-.06.27.27,0,0,0-.12,0,.2.2,0,0,0-.11,0,.21.21,0,0,0-.1.06.35.35,0,0,0-.08.13l0,.18a.14.14,0,0,0,0,.11.19.19,0,0,0,0,.1l.05.05a.15.15,0,0,0,.09.06l.06,0a.14.14,0,0,0,.11,0l.07,0a.47.47,0,0,0,.1-.1l.1-.15a.29.29,0,0,0,0-.16Z"/><path class="cls-8" d="M171.22,245.72a.3.3,0,0,0-.07-.11l-.07-.06-.09,0a.22.22,0,0,0-.14,0,.25.25,0,0,0-.12,0l0,0s0,0,0,0,0,0,0,0a.16.16,0,0,0-.06.08h0l-.05.08,0,.08a.2.2,0,0,0,0,.13.16.16,0,0,0,0,.09.24.24,0,0,0,.06.11l.07.05.08,0a.2.2,0,0,0,.13,0,.28.28,0,0,0,.13,0l.08-.05h0a.51.51,0,0,0,.15-.14l0,0,0-.09a.22.22,0,0,0,0-.14A.19.19,0,0,0,171.22,245.72Z"/><path class="cls-8" d="M169.6,247.84a.17.17,0,0,0,0,.33A.17.17,0,0,0,169.6,247.84Z"/><path class="cls-8" d="M177.72,243.17l0-.06s0-.05-.06-.07l0,0s0,0-.06-.07l0,0a.39.39,0,0,0-.38,0,.38.38,0,0,0-.18.32.37.37,0,0,0,.18.32.39.39,0,0,0,.38,0,.29.29,0,0,0,.1-.09l0-.05,0,0s0,0,0,0a.16.16,0,0,0,0-.1Z"/><path class="cls-8" d="M178.06,241.66l0-.08a.25.25,0,0,0-.08-.1l-.07,0a.31.31,0,0,0-.13,0h-.09l-.08,0a.24.24,0,0,0-.09.08.27.27,0,0,0-.06.12.34.34,0,0,0,0,.26l.06.07h0l0,0a.24.24,0,0,0,.09.06l.11,0h.07a.24.24,0,0,0,.12-.07l0,0h0l.06-.07A.39.39,0,0,0,178.06,241.66Z"/><path class="cls-8" d="M179.81,239.6l0-.07,0-.08a.2.2,0,0,0-.09-.09.1.1,0,0,0-.07,0,.28.28,0,0,0-.13,0h-.08l-.08,0a.2.2,0,0,0-.09.09.24.24,0,0,0-.06.11l0,.07a.6.6,0,0,0,0,.19.51.51,0,0,0,.09.16l.08.05a.34.34,0,0,0,.17.05.32.32,0,0,0,.14,0,.26.26,0,0,0,.11-.07.39.39,0,0,0,.1-.16A.6.6,0,0,0,179.81,239.6Z"/><path class="cls-8" d="M181.32,236.86v0h0a.32.32,0,0,0,0-.14.36.36,0,0,0-.08-.12h0l0,0a.2.2,0,0,0-.1-.07.28.28,0,0,0-.13,0h-.08a.42.42,0,0,0-.14.09l0,0h0a.25.25,0,0,0-.08.12.32.32,0,0,0,0,.14h0v.06a.28.28,0,0,0,0,.15.23.23,0,0,0,.08.12.25.25,0,0,0,.12.08.32.32,0,0,0,.14,0h.11a.34.34,0,0,0,.16-.1l.06-.08a.32.32,0,0,0,0-.19Z"/><path class="cls-8" d="M182.26,233a.43.43,0,0,0,0,.86A.43.43,0,0,0,182.26,233Z"/><path class="cls-8" d="M182.61,230.78a.34.34,0,0,0-.09-.14.23.23,0,0,0-.1-.07l-.12,0a.34.34,0,0,0-.17.05.29.29,0,0,0-.11.11l0,0,0,.08a.24.24,0,0,0,0,.12.19.19,0,0,0,0,.08.17.17,0,0,0,.06.1l.07,0,.07,0a.28.28,0,0,0,.13,0,.19.19,0,0,0,.12,0l0,0a.32.32,0,0,0,.11-.12.3.3,0,0,0,.05-.16Z"/><path class="cls-8" d="M182.4,229.51a.17.17,0,0,0,0-.1h0a.16.16,0,0,0-.08-.08h0l-.07,0h-.07a.37.37,0,0,0-.14,0,.16.16,0,0,0-.07.07.14.14,0,0,0,0,.1.17.17,0,0,0,0,.14h0a.39.39,0,0,0,.06.11l.11.06h0a.17.17,0,0,0,.14,0,.14.14,0,0,0,.1-.05.16.16,0,0,0,.07-.07.37.37,0,0,0,0-.14Z"/><path class="cls-8" d="M151.68,252.43a1,1,0,0,0-.67-.38.76.76,0,0,0-.75.29.42.42,0,0,0,0,.49.34.34,0,0,0,.42.06c.06,0,.07-.17,0-.19s0,0,0-.06a.43.43,0,0,1,0,0s0,0,0,0a.3.3,0,0,1,.2-.11.61.61,0,0,1,.26,0,1.05,1.05,0,0,1,.24.15,1.66,1.66,0,0,1,.37,1.43c0,.13.21.17.24,0A2.08,2.08,0,0,0,151.68,252.43Z"/><path class="cls-8" d="M152.79,253.44c0-.4,0-.81,0-1.22a4.16,4.16,0,0,0-.5-2.19,1.2,1.2,0,0,0-1.64-.46c-.47.32-.56.92-.83,1.39s-1.07.82-1,1.52c0,.13.22.11.26,0,.19-.6.88-.88,1.16-1.43s.45-1.45,1.19-1.14.85,1.52.86,2.22c0,.42,0,.85,0,1.27a4.79,4.79,0,0,0,.06,1.31.2.2,0,0,0,.39-.05C152.81,254.26,152.78,253.85,152.79,253.44Z"/><path class="cls-8" d="M153.8,255.11c-.73-1.19-.09-2.68-.21-4a4.86,4.86,0,0,0-1.53-2.9,10.82,10.82,0,0,0-1.29-1.15c-.45-.33-.78-.19-1,.29a11.93,11.93,0,0,1-2.23,3.3c-.23.24.14.62.37.37a12.3,12.3,0,0,0,2-2.79l.21-.43c0-.09.09-.31.16-.35s.49.26.63.39a10.59,10.59,0,0,1,1.18,1.14,4.73,4.73,0,0,1,.85,1.39,4.26,4.26,0,0,1,.16,1.81,3.92,3.92,0,0,0,.49,3.07C153.69,255.4,153.89,255.24,153.8,255.11Z"/><path class="cls-8" d="M201.26,222.71a.89.89,0,0,0-.55-.19,1,1,0,0,0-.25,0,1.13,1.13,0,0,0-.18,0l-.12.05a.21.21,0,0,0-.15.22l0,.07a.48.48,0,0,0-.08.42.53.53,0,0,0,.25.32.9.9,0,0,0,.39.13.76.76,0,0,0,.81-.26A.65.65,0,0,0,201.26,222.71Zm-.19.54v.05h0v0l0,0,0,0h0l-.07,0h-.32l-.09,0-.07,0h0l0,0h-.05l-.05,0a.31.31,0,0,1-.11-.21.36.36,0,0,1,0-.1l.07,0a.82.82,0,0,0,.22,0h.3l.08,0h.07l.05,0h0s0,0,0,0l.06,0v0h0l0,.06v0s0,0,0,0S201.07,223.22,201.07,223.25Z"/><path class="cls-8" d="M200.93,223Z"/><path class="cls-8" d="M202,222.23a3,3,0,0,0-1-.65c-.18-.08-.34.18-.16.27.46.24,1,.5,1.23,1a.77.77,0,0,1-.54,1.06,2.16,2.16,0,0,1-1.46-.07,1,1,0,0,1-.66-1.28A1.4,1.4,0,0,1,200,222c.12-.09.54-.4.66-.18,0,.06.12,0,.11-.05,0-.26-.35-.29-.56-.25a1.55,1.55,0,0,0-.79.48,1.19,1.19,0,0,0,.09,1.73,2.33,2.33,0,0,0,1.83.54,1.2,1.2,0,0,0,1.15-1A1.36,1.36,0,0,0,202,222.23Z"/><path class="cls-8" d="M203.32,222.78a2.39,2.39,0,0,0-.61-1.3c-.1-.09-.25.05-.15.15a2.06,2.06,0,0,1,.49,1,2,2,0,0,1,0,1.17,2.41,2.41,0,0,1-.82.86,2.2,2.2,0,0,1-1.08.53,2.12,2.12,0,0,1-1.22-.33,3.77,3.77,0,0,1-.94-.63,1.9,1.9,0,0,1-.55-2.1A2.68,2.68,0,0,1,200,220.6a1.82,1.82,0,0,1,.57,0,2,2,0,0,1,.92.37c.08.06.17-.08.08-.15a2.28,2.28,0,0,0-1.17-.43.09.09,0,0,0-.11-.08,3.19,3.19,0,0,0-.44.13,1.24,1.24,0,0,0-.32.12l0,0a2.66,2.66,0,0,0-1.32,1.22,2.27,2.27,0,0,0,.33,2.51,3.85,3.85,0,0,0,1.09.83,3.12,3.12,0,0,0,1.34.47,2.16,2.16,0,0,0,1.29-.44,3.56,3.56,0,0,0,1-.94A1.94,1.94,0,0,0,203.32,222.78Z"/><path class="cls-8" d="M208.64,224.09a6.29,6.29,0,0,0-1.17-.88,2.05,2.05,0,0,0-1.3-.29c-.48.07-.93.34-1.41.37a3.61,3.61,0,0,0-.29-1.28,8.43,8.43,0,0,1,2.24-.64,3.07,3.07,0,0,1,1.09.07,3.52,3.52,0,0,1,1,.46c.18.12.37-.14.23-.29a2.72,2.72,0,0,0-2.23-.63,6.6,6.6,0,0,0-2.4.83,6.41,6.41,0,0,0-.74-1.22c-1.36-1.76-3.56-1.22-5.28-.32-.22.12-.06.5.17.41,1.32-.51,3-1.33,4.28-.24a5,5,0,0,1,1.2,1.71,2.77,2.77,0,0,1,.18,1.94,3.29,3.29,0,0,1-2.55,2.37,4.29,4.29,0,0,1-3.67-1.15l-.18-.19a.21.21,0,0,0-.08-.4l-.26,0c-.79-1.15-1-2.78.22-3.73.1-.08,0-.24-.1-.17a2.86,2.86,0,0,0-.63,3.83c-.87-.12-1.73-.24-2.59-.33a4.41,4.41,0,0,0-2.77.43,17.47,17.47,0,0,1-2.58,1.58,5.84,5.84,0,0,1-3.21.1s-.07.05,0,.07a5.19,5.19,0,0,0,5.15-.87,6.09,6.09,0,0,1,1.35-.8,4,4,0,0,1,1.72-.17c1.09.09,2.18.29,3.27.46a4.79,4.79,0,0,0,1,1c-.81.84-2.1.44-3.08.09a5.37,5.37,0,0,0-1.58-.38,4.71,4.71,0,0,0-1.77.4,19.24,19.24,0,0,1-3.56,1.16,5.38,5.38,0,0,1-1.7,0,3.34,3.34,0,0,1-.83-.19c-.27-.11-.48-.29-.74-.41a.12.12,0,0,0-.16.16c.53,1,2,1.05,3,1a14.23,14.23,0,0,0,4-1.15,4.12,4.12,0,0,1,2.46-.44c.67.14,1.3.46,2,.58a2,2,0,0,0,2.12-.77,5.4,5.4,0,0,0,.77.46,1.87,1.87,0,0,1-1.28.68,5.28,5.28,0,0,1-2-.29,4.94,4.94,0,0,0-3.49.17c-1.25.56-2.38,1.38-3.79,1.46a9.6,9.6,0,0,1-2.33-.23,2.17,2.17,0,0,1-1.73-.92.05.05,0,0,0-.1,0c.46,1.13,2.14,1.24,3.17,1.35a5.5,5.5,0,0,0,2.42-.22,18.89,18.89,0,0,0,1.89-.86,5.35,5.35,0,0,1,2.24-.64,13.8,13.8,0,0,1,2.6.6c1,.19,2.4.08,2.86-.95a4.39,4.39,0,0,0,1.29.24,3.82,3.82,0,0,0,3.57-2.23.64.64,0,0,0,0-.07v0a.76.76,0,0,0,.06.16l0,0a.39.39,0,0,0,.08.1l0,0,.1.07.08,0,.08,0h.13a.2.2,0,0,0,.11,0,.2.2,0,0,0,.09-.09.21.21,0,0,0,.06-.1v-.09a.37.37,0,0,0,0-.15l-.05-.07a.34.34,0,0,0-.12-.06h0l0,0h0v0a.24.24,0,0,0-.06-.11.18.18,0,0,0-.09-.08.21.21,0,0,0-.11,0,.2.2,0,0,0-.13,0l-.07,0,0,0a3.17,3.17,0,0,0,.16-1,2.7,2.7,0,0,0,1-.09,1.82,1.82,0,0,1,1.35.2,7.29,7.29,0,0,1,1.06.79,3.49,3.49,0,0,1,.43.43,2.62,2.62,0,0,1,.33.59.2.2,0,0,0,.37-.1A1.8,1.8,0,0,0,208.64,224.09Z"/><path class="cls-8" d="M208.87,222.94c-.26-.61-1.08-.78-1.68-.82-.85-.06-1.71.21-2.56.07,0,0-.07.06,0,.08a3.77,3.77,0,0,0,1.16.2c.38,0,.77,0,1.16,0a3.13,3.13,0,0,1,.91.18,3,3,0,0,1,.77.5A.17.17,0,0,0,208.87,222.94Z"/><path class="cls-8" d="M217.15,208.52a.18.18,0,1,0-.34.09,1.1,1.1,0,0,0,0,.18.77.77,0,0,0,0-.15c0-.12-.22-.11-.24,0l0,.13c0,.06,0,.11,0,.17a1.23,1.23,0,0,1-.05.25,1.2,1.2,0,0,1-.11.23.27.27,0,0,1-.07.08l-.07.06-.17.06h-.25l-.08-.05s0,0-.06,0a.11.11,0,0,1,0-.06.09.09,0,0,0-.18,0,.53.53,0,0,0,.62.39.66.66,0,0,0,.4-.17.93.93,0,0,0,.28-.45,1.31,1.31,0,0,0,.06-.27.55.55,0,0,0,0-.18,1.67,1.67,0,0,1-.05.86,1.07,1.07,0,0,1-.56.55,1.12,1.12,0,0,1-1.41-.63.05.05,0,0,0-.1,0,1.24,1.24,0,0,0,1.14,1,1.34,1.34,0,0,0,1.29-.87A2.19,2.19,0,0,0,217.15,208.52Z"/><path class="cls-8" d="M218.3,208a.18.18,0,0,0-.3.18,2.38,2.38,0,0,1-.1,1.74,2.81,2.81,0,0,1-.89,1.45c-1.08.64-2.25-.24-3.14-.79a.11.11,0,0,0-.12.17c.87.89,2.34,1.79,3.56,1a3.38,3.38,0,0,0,1-1.7A2.3,2.3,0,0,0,218.3,208Z"/><path class="cls-8" d="M208.24,219.83a.3.3,0,0,0,0,.59A.3.3,0,0,0,208.24,219.83Z"/><path class="cls-8" d="M207.4,219.94a.14.14,0,0,0-.05-.08l0,0h0s0,0-.06-.05l-.06,0H207a.17.17,0,0,0-.1,0l0,0a.16.16,0,0,0-.06.08.19.19,0,0,0,0,.07.34.34,0,0,0,0,.1l0,.07a.28.28,0,0,0,.1.09l0,0,.09,0,.07,0h.07l.09,0,.06,0a.11.11,0,0,0,.06-.07l0-.06V220A.17.17,0,0,0,207.4,219.94Z"/><path class="cls-8" d="M205.77,220h0a.05.05,0,0,0,0,0,.31.31,0,0,0-.05-.1l-.06,0-.09,0h-.14l-.11,0-.05,0a.24.24,0,0,0-.06.09.19.19,0,0,0,0,.07.24.24,0,0,0,0,.12l0,.06a.2.2,0,0,0,.08.08h0l0,0s0,0,.06.05h0l0,0a.19.19,0,0,0,.1,0,.2.2,0,0,0,.21,0,.18.18,0,0,0,0-.07.25.25,0,0,0,0-.07,0,0,0,0,1,0,0s0-.06,0-.09A.29.29,0,0,0,205.77,220Z"/><path class="cls-8" d="M204.21,220.33a.21.21,0,0,0,0,.42A.21.21,0,0,0,204.21,220.33Z"/><path class="cls-8" d="M203,219.64h0Z"/><path class="cls-8" d="M203,219.65h0Z"/><path class="cls-8" d="M203.33,219.25l0-.07a.24.24,0,0,0-.08-.09.18.18,0,0,0-.07-.05l-.08,0a.14.14,0,0,0-.09,0l-.08,0-.1.07-.05.07,0,.07,0,.09,0,.08,0,.08a.24.24,0,0,0,.08.09l.07,0H203l0,0h0l0,0h.1l.07,0a.2.2,0,0,0,.09-.09h0l0-.07v0a.36.36,0,0,0,0-.1Z"/><path class="cls-8" d="M201.64,218.52a.28.28,0,0,0-.09-.1h0l-.07,0h-.19a.48.48,0,0,0-.19.08.24.24,0,0,0-.06.09.22.22,0,0,0,0,.11v.07a.19.19,0,0,0,.07.12l.05,0a.35.35,0,0,0,.14,0h.11a.49.49,0,0,0,.16-.05l0,0a.2.2,0,0,0,.09-.09.23.23,0,0,0,0-.26Z"/><path class="cls-8" d="M199.54,218.87a.15.15,0,0,0-.06-.09.24.24,0,0,0-.09-.06.15.15,0,0,0-.11,0h-.07a.24.24,0,0,0-.13.07l0,.06a.23.23,0,0,0,0,.14v.15a.36.36,0,0,0,0,.1.47.47,0,0,0,.06.09.19.19,0,0,0,.09.05.12.12,0,0,0,.1,0h.07a.23.23,0,0,0,.12-.06l0-.06a.22.22,0,0,0,0-.13V219A.36.36,0,0,0,199.54,218.87Z"/><path class="cls-8" d="M198,220v0l0,0a.12.12,0,0,0-.08,0h-.16l-.06,0h0l-.08.08,0,0s0,0,0,.07v0s0,0,0,.06a.09.09,0,0,0,.06.06s0,0,.06,0h.07l.1,0h0l0,0a.1.1,0,0,0,.06,0s0,0,0,0v0a.14.14,0,0,0,0-.06V220A.31.31,0,0,0,198,220Z"/><path class="cls-8" d="M196,220.91a.12.12,0,0,0,0,.24A.12.12,0,0,0,196,220.91Z"/><path class="cls-8" d="M195.91,222.51a.25.25,0,0,0,0,.5A.25.25,0,0,0,195.91,222.51Z"/><path class="cls-8" d="M196.2,223.79a.24.24,0,0,0-.06-.11l-.07-.05-.08,0h-.17l-.07,0a.2.2,0,0,0-.09.09.1.1,0,0,0,0,.07.27.27,0,0,0,0,.12V224a.15.15,0,0,0,0,.09.16.16,0,0,0,0,.07l.05,0a.27.27,0,0,0,.12,0H196l.08,0a.2.2,0,0,0,.09-.09.16.16,0,0,0,0-.07.11.11,0,0,0,0-.08.11.11,0,0,0,0-.08A.11.11,0,0,0,196.2,223.79Z"/><polygon class="cls-8" points="193.58 223.59 193.58 223.59 193.58 223.59 193.58 223.59"/><polygon class="cls-8" points="193.74 223.42 193.74 223.42 193.73 223.43 193.74 223.42 193.74 223.42"/><path class="cls-8" d="M193.6,223.55v0l0-.06Z"/><path class="cls-8" d="M194.16,223.48a.27.27,0,0,0-.07-.08l-.1-.05h-.11a.19.19,0,0,0-.1,0l0,0,0,0h0s0,0-.05.05l0,0h0s-.05,0-.06,0l0,0h0a.22.22,0,0,0,0,.08.14.14,0,0,0,0,.07h0a.17.17,0,0,1,0,.07h0a.42.42,0,0,1,0,.06h0l.1.1a.32.32,0,0,0,.14,0,.39.39,0,0,0,.18,0l0,0,0,0a.25.25,0,0,0,.08-.12v-.07A.57.57,0,0,0,194.16,223.48Z"/><polygon class="cls-8" points="193.59 223.55 193.6 223.55 193.6 223.54 193.59 223.55"/><polygon class="cls-8" points="193.57 223.6 193.58 223.59 193.58 223.59 193.57 223.6"/><path class="cls-8" d="M193.58,223.58h0v0Z"/><path class="cls-8" d="M192.59,223.7a.23.23,0,0,0-.07-.1.42.42,0,0,0-.14-.09h-.21a.26.26,0,0,0-.14.09.29.29,0,0,0-.09.22.31.31,0,0,0,.09.22.32.32,0,0,0,.14.08h0a.28.28,0,0,0,.18,0,.29.29,0,0,0,.14-.08l0-.07a.3.3,0,0,0,.05-.16A.28.28,0,0,0,192.59,223.7Z"/><path class="cls-8" d="M190.87,224.26a.34.34,0,0,0-.07-.11.41.41,0,0,0-.11-.07.28.28,0,0,0-.13,0,.34.34,0,0,0-.17,0l-.06.05-.07,0a.23.23,0,0,0-.07.1.29.29,0,0,0,0,.09s0,0,0,.05v.07h0a.09.09,0,0,0,0,0s0,0,0,.05l0,0v0h0a.18.18,0,0,0,.07,0l.09,0h.13l.07,0a.28.28,0,0,0,.15-.08l0-.07a.37.37,0,0,0,.05-.18A.31.31,0,0,0,190.87,224.26Z"/><path class="cls-8" d="M189.29,225.13a.32.32,0,0,0-.18-.11.21.21,0,0,0-.11,0,.19.19,0,0,0-.12.07l-.12.1,0,0a.28.28,0,0,0-.07.13l0,.06a.17.17,0,0,0,0,.1.09.09,0,0,0,0,.07l0,0,.1,0h.08a.37.37,0,0,0,.14,0l0,0,.13-.07a.24.24,0,0,0,.1-.1l0-.06a.38.38,0,0,0,0-.15A.19.19,0,0,0,189.29,225.13Z"/><path class="cls-8" d="M187.79,225.89l0-.08a.2.2,0,0,0-.08-.08.19.19,0,0,0-.1,0l-.06,0h-.16a.47.47,0,0,0-.14.08l-.05.07a.29.29,0,0,0,0,.16.17.17,0,0,0,0,.12.36.36,0,0,0,.07.1.32.32,0,0,0,.14.08h.22l.07,0a.24.24,0,0,0,.09-.08.16.16,0,0,0,0-.07.36.36,0,0,0,0-.11Z"/><path class="cls-8" d="M184.93,228.8l-.1-.15a.09.09,0,0,0-.06-.06.1.1,0,0,0-.07,0h-.06s-.07,0-.09,0a.05.05,0,0,0-.05,0,.09.09,0,0,0-.06.06l0,.06a.24.24,0,0,0,0,.12l.07.17a.3.3,0,0,0,.06.11l.05,0a.2.2,0,0,0,.13,0l.09,0a.16.16,0,0,0,.08,0A.21.21,0,0,0,185,229a.36.36,0,0,0,0-.1A.22.22,0,0,0,184.93,228.8Z"/><path class="cls-8" d="M185.71,229.2a.3.3,0,0,0,0,.6A.3.3,0,0,0,185.71,229.2Z"/><path class="cls-8" d="M188.15,229.6a.22.22,0,0,0-.13,0,.23.23,0,0,0-.14,0l-.06,0a.2.2,0,0,0-.08.08.22.22,0,0,0,0,.22.2.2,0,0,0,.08.08l.06,0a.23.23,0,0,0,.14,0,.22.22,0,0,0,.13,0,.26.26,0,0,0,.13-.23A.28.28,0,0,0,188.15,229.6Z"/><path class="cls-8" d="M189.74,229.1a.32.32,0,0,0,0,.64A.32.32,0,0,0,189.74,229.1Z"/><path class="cls-8" d="M191.78,228.72h0a.25.25,0,0,0,0-.07l0,0,0,0h0a.1.1,0,0,0-.09,0h-.13l-.07,0-.06,0a.47.47,0,0,0-.06.09.29.29,0,0,0,0,.09l-.05.1,0,0a.09.09,0,0,0,0,.07s0,0,0,0a.13.13,0,0,0,0,.06l.07.05h.08l.06,0,.1,0,.09,0a.24.24,0,0,0,.09-.06h0l0-.06v0l0,0a.21.21,0,0,0,0-.07v-.13Z"/><path class="cls-8" d="M193.28,227.82a.29.29,0,0,0,0,.57A.29.29,0,0,0,193.28,227.82Z"/><path class="cls-8" d="M195.31,228.38a.2.2,0,0,0-.09-.09l-.05,0a.28.28,0,0,0-.15,0,.2.2,0,0,0-.11,0,.15.15,0,0,0-.09.06.33.33,0,0,0-.06.1h0v0h0s0,0,0,.06,0,0,0,0h0v0h0a.33.33,0,0,0,.06.1.15.15,0,0,0,.09.06.2.2,0,0,0,.11,0,.28.28,0,0,0,.15,0l.05,0a.2.2,0,0,0,.09-.09.22.22,0,0,0,0-.13A.23.23,0,0,0,195.31,228.38Z"/><polygon class="cls-8" points="197.34 228.82 197.34 228.82 197.34 228.82 197.34 228.82"/><path class="cls-8" d="M197.33,228.81h0Z"/><path class="cls-8" d="M197.55,229a.06.06,0,0,0,0-.06.12.12,0,0,0-.05,0l-.06,0h-.07l0,0a.2.2,0,0,0-.11,0h0a.23.23,0,0,0-.14,0,.36.36,0,0,0-.11.1.26.26,0,0,0,0,.11.24.24,0,0,0,0,.12.22.22,0,0,0,.08.13.29.29,0,0,0,.13.08h.17l.08,0h0l.07-.05,0-.06,0-.06v-.08A.19.19,0,0,0,197.55,229Z"/><path class="cls-8" d="M199.08,228.42l0-.07-.05-.07a.41.41,0,0,0-.11-.07.17.17,0,0,0-.12,0h-.05l-.09,0a.26.26,0,0,0-.13.06l-.11.07-.06,0a.35.35,0,0,0-.06.09.19.19,0,0,0,0,.07.49.49,0,0,0,0,.12l0,.07,0,0a.21.21,0,0,0,.1.06.2.2,0,0,0,.11,0h.12l.14,0a.33.33,0,0,0,.13-.07l.07-.05a.17.17,0,0,0,.06-.1.11.11,0,0,0,0-.08A.29.29,0,0,0,199.08,228.42Z"/><path class="cls-8" d="M199.69,227.32a.3.3,0,0,0,0,.59A.3.3,0,0,0,199.69,227.32Z"/><path class="cls-8" d="M201.53,227.84l0-.05-.05,0-.06,0h-.2a.27.27,0,0,0-.13.07.26.26,0,0,0-.08.13.43.43,0,0,0,0,.16.26.26,0,0,0,.08.13.29.29,0,0,0,.13.08h.15a.33.33,0,0,0,.21-.21V228h0a.18.18,0,0,0,0-.1A.14.14,0,0,0,201.53,227.84Z"/><path class="cls-8" d="M203.26,227.39a.23.23,0,0,0,0-.1.18.18,0,0,0-.09-.08l-.09-.05h0l-.08,0h-.25l0,0h-.07a.12.12,0,0,0-.08,0s0,0,0,0a.16.16,0,0,0,0,.07.24.24,0,0,0,0,.12.3.3,0,0,0,0,.08l.06,0h0l0,0,0,0h0l0,0,.07,0a.15.15,0,0,0,.09,0h.24a.23.23,0,0,0,.1-.05.34.34,0,0,0,.06-.06.31.31,0,0,0,0-.1v-.15Z"/><path class="cls-8" d="M204.35,226.32h0a.31.31,0,0,0-.07-.14.39.39,0,0,0-.14-.08.34.34,0,0,0-.29.08.3.3,0,0,0-.08.3.35.35,0,0,0,.08.13h0a.09.09,0,0,0,0,.05.19.19,0,0,0,.08.07.2.2,0,0,0,.11,0h.14a.28.28,0,0,0,.12-.12h0s0,0,0,0,0,0,0,0a.29.29,0,0,0,0-.09v0S204.35,226.35,204.35,226.32Z"/><path class="cls-8" d="M205.89,224l0-.07a.35.35,0,0,0-.1-.11l-.08,0h-.19a.17.17,0,0,0-.1,0l0,0a.24.24,0,0,0-.09.08.32.32,0,0,0,0,.16s0,.07,0,.1a.24.24,0,0,0,0,.09.3.3,0,0,0,.08.08l0,0h0l.08,0h.13l.1,0a.22.22,0,0,0,.11-.05.18.18,0,0,0,.07-.08.19.19,0,0,0,0-.12A.24.24,0,0,0,205.89,224Z"/><polygon class="cls-8" points="205.55 223.78 205.55 223.78 205.54 223.78 205.54 223.78 205.55 223.78"/><polygon class="cls-8" points="205.52 223.77 205.51 223.77 205.52 223.77 205.52 223.77"/><path class="cls-8" d="M207.18,224.42l-.1,0a.33.33,0,0,0-.14,0,.21.21,0,0,0-.12.07.24.24,0,0,0-.06.11.17.17,0,0,0,0,.14l0,.1a.32.32,0,0,0,.23.22.25.25,0,0,0,.17,0,.31.31,0,0,0,.22-.22.25.25,0,0,0,0-.17A.34.34,0,0,0,207.18,224.42Z"/><path class="cls-8" d="M208.43,225.57l0,0c-.56-.25-.56.75,0,.51l0,0A.27.27,0,0,0,208.43,225.57Z"/><path class="cls-8" d="M192.73,234.54c-.45.24-1,0-1.37-.26s-.94-.52-1.41-.79-.87-.55-1.34-.75a.77.77,0,0,0-.91.31,2.1,2.1,0,0,0-.49,1.08,4.19,4.19,0,0,0,.1,1.32,2.81,2.81,0,0,1-.1,1.44,8.55,8.55,0,0,1-.64,1.33c0,.09.08.21.16.11a4.27,4.27,0,0,0,1.09-2.17c.1-.94-.47-1.85.16-2.71a1.12,1.12,0,0,1,.21-.23c.14-.1.21-.05.34,0s.47.27.7.4l1.35.76c.72.41,1.57,1,2.42.6C193.3,234.83,193,234.37,192.73,234.54Z"/><path class="cls-8" d="M191.37,235.79c-.44-.29-.88-.58-1.33-.86a5.67,5.67,0,0,0-.66-.42.44.44,0,0,0-.57.07.76.76,0,0,0-.08.59,4.24,4.24,0,0,1,0,.71c0,.23-.09.46-.13.69a3.49,3.49,0,0,1-.2.7c0,.13.14.19.2.09a3,3,0,0,0,.49-1.16,5.32,5.32,0,0,0,0-1.26s0-.1,0-.11.23.12.27.14l.59.38,1.2.78C191.39,236.27,191.59,235.93,191.37,235.79Z"/><path class="cls-8" d="M190.41,236a.59.59,0,0,0-1,0,.74.74,0,0,0-.12.43,1,1,0,0,0,.13.48c0,.09.2,0,.16-.07a1,1,0,0,1-.07-.34v-.11h0a.06.06,0,0,0,0,0l0-.09h0s0,0,0,0l0,0,0,0v0h0s0,0,0-.05h0l0,0,0,0h0l.06,0h0a.08.08,0,0,1,.07,0H190l0,0v0h0s0,.06,0,0a.17.17,0,0,0,.22.11A.17.17,0,0,0,190.41,236Z"/><path class="cls-8" d="M214.14,211.5a12.55,12.55,0,0,0-1.12,1.07,8.33,8.33,0,0,1-1.29,1,7,7,0,0,1-3.57.61s0,.06,0,.08a6.23,6.23,0,0,0,2,.24,4.5,4.5,0,0,0,1.72-.47,6,6,0,0,0,1.36-1,6.85,6.85,0,0,0,1.16-1.31C214.44,211.59,214.28,211.4,214.14,211.5Z"/><path class="cls-8" d="M213.07,211.15c-.59.36-1.18.74-1.76,1.14a3.11,3.11,0,0,1-1.66.75c-.1,0-.12.15,0,.17a2.31,2.31,0,0,0,1.76-.5c.63-.41,1.25-.84,1.86-1.28C213.4,211.31,213.26,211,213.07,211.15Z"/><path class="cls-8" d="M207.5,215a.16.16,0,0,0,0-.28h0a.19.19,0,0,0-.13,0l0,0a.41.41,0,0,0-.11.07.8.8,0,0,0-.15.17.12.12,0,0,0,0,.15.05.05,0,0,0,.05,0,.11.11,0,0,0,.1,0l.1,0,.11,0h0l.08-.05,0,0,0,0Z"/><path class="cls-8" d="M208.61,215.14a.15.15,0,0,0-.06-.09l0,0-.1,0a.11.11,0,0,0-.08,0,.18.18,0,0,0-.07.05s0,0,0,.06a.15.15,0,0,0,0,.09v.05a.15.15,0,0,0,.06.09l0,0,.11,0a.11.11,0,0,0,.08,0,.15.15,0,0,0,.06,0,.13.13,0,0,0,0-.06.31.31,0,0,0,0-.08Z"/><path class="cls-8" d="M211,214.62a.29.29,0,0,0,0-.09.19.19,0,0,0-.16-.09.22.22,0,0,0-.16.09.29.29,0,0,0,0,.09.3.3,0,0,0,0,.1h0l0,.17v0s0,0,0,0a.09.09,0,0,0,.07,0l.06,0a.09.09,0,0,0,.06-.07l0-.17h0A.3.3,0,0,0,211,214.62Z"/><path class="cls-8" d="M212.44,213.71a.25.25,0,0,0,0,.5A.25.25,0,0,0,212.44,213.71Z"/><path class="cls-8" d="M213.92,212.72a.26.26,0,0,0,0,.51A.26.26,0,0,0,213.92,212.72Z"/><path class="cls-8" d="M215,212.11l0,0a.1.1,0,0,0,0,0l-.05,0h-.15l0,0,0,0h0l0,0,0,.06v.11a.08.08,0,0,0,0,0l0,0,0,0h.08l0,0,0,0h0l.05,0h0l0,0a.1.1,0,0,0,.05,0,.05.05,0,0,0,0,0,.14.14,0,0,0,0-.06Z"/><path class="cls-8" d="M217.06,212.43a.13.13,0,0,0-.05-.09l0,0a.17.17,0,0,0-.1,0h-.05a.09.09,0,0,0-.07,0h0l-.07,0h0l0,0a0,0,0,0,0,0,0s0,0,0,0v.07a.16.16,0,0,0,.08.06l.08,0,0,0a.32.32,0,0,0,.16,0l.06,0a.13.13,0,0,0,0-.07.11.11,0,0,0,0-.08Z"/><path class="cls-8" d="M218.41,211.37a.23.23,0,0,0-.07-.07.12.12,0,0,0-.08,0h-.07a.13.13,0,0,0-.09,0,.11.11,0,0,0-.08,0,.25.25,0,0,0-.08.18v0l-.07.17v0a.13.13,0,0,0,0,.06s0,0,0,0l0,0,.08,0a.16.16,0,0,0,.11-.05l.12-.11h0l.08-.05.07-.07,0-.06a.31.31,0,0,0,0-.1Z"/><path class="cls-8" d="M219,210.2a.18.18,0,0,0-.07,0,.12.12,0,0,0-.08,0,.2.2,0,0,0-.11,0,.14.14,0,0,0-.08.07.23.23,0,0,0,0,.11v.15l0,0,0,0,.06,0h.13l.06,0,.08-.07a.19.19,0,0,0,0-.09.24.24,0,0,0,0-.12A.41.41,0,0,0,219,210.2Z"/><path class="cls-8" d="M219.25,208.93l0-.06a.14.14,0,0,0-.07-.06l-.06,0H219l-.1,0a.18.18,0,0,0-.08,0l0,0h0l-.05.06,0,.06a.28.28,0,0,0,0,.09v.12l0,.05,0,.05a.14.14,0,0,0,.08,0l.06,0H219l.07,0a.12.12,0,0,0,.07,0l.05,0,0-.06h0l0-.07h0V209A.3.3,0,0,0,219.25,208.93Z"/><path class="cls-8" d="M218.93,207.93a.2.2,0,0,0,0,.39A.2.2,0,0,0,218.93,207.93Z"/></g></g></svg>