<svg xmlns="http://www.w3.org/2000/svg" viewBox="0 0 323.08 276.44"><defs><style>.cls-1{fill:#99b62c;}.cls-18,.cls-2,.cls-8{fill:#231f20;}.cls-2{opacity:0.16;}.cls-3{fill:#b3d335;}.cls-31,.cls-4{fill:none;stroke-linecap:round;}.cls-4{stroke:#65b846;stroke-miterlimit:10;stroke-width:7px;}.cls-5{fill:#f89921;}.cls-6{fill:#fbac1d;}.cls-7{fill:#ffd645;}.cls-8{opacity:0.08;}.cls-9{fill:#2b5d2d;}.cls-10{fill:#ac313d;}.cls-11{fill:#f47c58;}.cls-12{fill:#ef4857;}.cls-13{fill:#537136;}.cls-14{fill:#dc8427;}.cls-15{fill:#97999b;}.cls-16{fill:#f3f4f4;}.cls-17{fill:#6a6c6e;}.cls-19{fill:#b9babc;}.cls-20{fill:#f69322;}.cls-21{fill:#2daad5;}.cls-22{fill:#2fbeef;}.cls-23{fill:#393839;}.cls-24{fill:#2a292a;}.cls-25{fill:#cfd2d3;}.cls-26{fill:#fff;}.cls-27{fill:#eeeded;}.cls-28{fill:#5c595a;}.cls-29{fill:#5c5a5b;}.cls-30{fill:#f7f8f9;}.cls-31{stroke:#fff;stroke-linejoin:round;stroke-width:0;}</style></defs><title>HorticultureBus</title><g id="Layer_2" data-name="Layer 2"><g id="Layer_1-2" data-name="Layer 1"><path class="cls-1" d="M22.52,219.84c.73,10.22,22.09,32.51,63.34,26.08a115.64,115.64,0,0,0,14.55-3.28c1.56-.46,3.14-.95,4.75-1.49,53.89-18-13.33-60.82-35-58.17a12.89,12.89,0,0,1,1.28,4.14c.47,3.72-.84,8.77-10.75,10a42.3,42.3,0,0,1-6.81.24C29.2,196.48,21.68,208.14,22.52,219.84Z"/><path class="cls-2" d="M81.76,209c-5.36-1.57-12.89-4.9-21.11-11.94,9.91-1.21,11.22-6.26,10.75-10l20,17.58-.1.36c7.06-.64,15.66-1.41,16.6-1.41,1.62,0,9.11,25,9.76,26.67.38,1-9.13,7.2-17.22,12.32a115.64,115.64,0,0,1-14.55,3.28,17.17,17.17,0,0,1-4.79-12.38Z"/><path class="cls-1" d="M275.62,170.94q5-1,9.31-2.21c56.42-15.16,37.82-45.46,22.34-40.67a26.69,26.69,0,0,1-17.38-.56,32.9,32.9,0,0,1-11.14-6.89l-.7,11.25-.55,8.84Z"/><path class="cls-2" d="M275.62,170.94l1.88-30.24.55-8.84h0l.7-11.25a32.9,32.9,0,0,0,11.14,6.89,64.1,64.1,0,0,1-5,7.07v34.16Q280.58,169.9,275.62,170.94Z"/><path class="cls-3" d="M178.41,60.34S233.72,56,249,36.19s64.11,5,42,47.69-.77,12.21-1.53,32.05-30.52,19.74-30.52,19.74-69.68-11.09-69.94-13.5S178.41,60.34,178.41,60.34Z"/><path class="cls-3" d="M150.66,183S179.85,70.39,120.14,57.62s10.54,29.8-18.73,36.19-45.23-89.4-91-50,76.1,71,43.64,91.88-12.24,54,54.81,79.75S150.66,183,150.66,183Z"/><path class="cls-4" d="M139.13,195.3C136,193.51,74.8,82.1,29.57,60.82"/><path class="cls-4" d="M65.53,90.77s-17-9.24-32.9-5.83"/><path class="cls-4" d="M119,155.6s20.12-28.84,11.47-66.87"/><path class="cls-4" d="M103.9,172.66S69.35,166.9,58.06,155.6"/><path class="cls-4" d="M196.49,99.15S249.78,87,266,54.71"/><path class="cls-4" d="M225.79,88.73s29.24,14.93,46.83,8.09"/><path class="cls-4" d="M251.26,70.81s-6.17-14.44-1.93-20.71"/><path class="cls-2" d="M123.17,71.06c-.65-.24-12.84-8.26-15.16-11.79l8.18-2.57,17.89,14.76Z"/><path class="cls-2" d="M234.2,59l7.55,1.6s-9.43,10.16-16.69,11.17L229.27,86l9-2.18,2.18,3.48S229,90.18,221.29,90.18L204.46,78.71l4.79-15.81L228,58.4Z"/><path class="cls-5" d="M173.08,50.28S161,17.52,136.91,9.64c0,0,0,30.76,20.56,50.7Z"/><path class="cls-5" d="M191.31,78.56s24.87,24.49,22.09,49.72c0,0-28-12.69-37.69-39.66Z"/><path class="cls-5" d="M155.44,70.81s-32.76,12-40.64,36.17c0,0,30.76,0,50.7-20.56Z"/><path class="cls-5" d="M183.72,52.58s24.49-24.87,49.73-22.09c0,0-12.7,28-39.67,37.69Z"/><path class="cls-5" d="M160,56.89s-31.68-14.65-54.32-3.16c0,0,21.75,21.76,50.4,21.31Z"/><path class="cls-5" d="M192.9,64s34.9-.27,50.77,19.54c0,0-28.79,10.84-54.69-1.39Z"/><path class="cls-5" d="M162.06,83.88s-14.66,31.68-3.16,54.32c0,0,21.75-21.75,21.31-50.4Z"/><path class="cls-5" d="M169.16,51S168.89,16.09,188.7.22c0,0,10.84,28.79-1.39,54.69Z"/><path class="cls-6" d="M180.18,51.08S181,16.18,161.45,0c0,0-11.29,28.61.52,54.71Z"/><path class="cls-6" d="M186.76,84.08s14.15,31.91,2.3,54.35c0,0-21.4-22.09-20.5-50.72Z"/><path class="cls-6" d="M156.24,63.71s-34.89-.83-51.08,18.73c0,0,28.62,11.29,54.71-.52Z"/><path class="cls-6" d="M189.24,57.13S221.15,43,243.6,54.83c0,0-22.09,21.4-50.73,20.5Z"/><path class="cls-6" d="M165.6,52.44s-24.09-25.26-49.37-22.88c0,0,12.25,28.22,39.06,38.32Z"/><path class="cls-6" d="M193.58,71.12s32.57,12.55,40.07,36.81c0,0-30.76-.49-50.37-21.37Z"/><path class="cls-6" d="M157.6,78.29s-25.26,24.09-22.87,49.37c0,0,28.21-12.25,38.31-39.06Z"/><path class="cls-6" d="M176.28,50.3s12.55-32.56,36.81-40.06c0,0-.49,30.76-21.37,50.37Z"/><path class="cls-7" d="M198.28,82.2s8.86-45.7-32.73-37.41S177.58,127.75,198.28,82.2Z"/><path class="cls-8" d="M163.46,123.56s1.48-13.25-3.84-18c0,0-3,2.86-4.94,2.86,0,0-4.54-20.78-16-30.78l-5.19.78s20.52,53.5,21.16,53.37S163.46,123.56,163.46,123.56Z"/><path class="cls-2" d="M89.73,94.07l-5-.82s4.37,11.63,5.16,22.16c-3.28,3.08-10.27,2.24-15,1.58,0,0,1,39.66,23.07,48.55l1.86-25.41S99,105.23,89.73,94.07Z"/><path class="cls-9" d="M76.66,113.93s16.47-1.56,28.69,3.3L97,130.32S78.53,117.2,76.66,113.93Z"/><path class="cls-9" d="M159.87,107.93s-11.15,5.14-12.9,11.83l10.17,2Z"/><path class="cls-10" d="M135.15,75.87s-13.71-3.64-23.71,4.39c0,0,10.11,7.68,10.74,7.32S135.15,75.87,135.15,75.87Z"/><path class="cls-11" d="M129,78.72s-12.52-7.47-39.64,12.4c0,0,9.18,9.83,10.6,8.86S124,88.79,129,78.72Z"/><path class="cls-10" d="M92.57,88.85s7.53,1.86,25.56-7.29L107,109.25,93.53,97.8Z"/><path class="cls-11" d="M107.17,133.56c-.09,1.12,37.64,20.68,38.23,21h0l.73-.57a28.07,28.07,0,0,0,10-15.65c6.43-26.33-21-62.46-21-62.46-13.06,2.3-23.47,8.82-29.88,13.87a60.7,60.7,0,0,0-7.15,6.48s2,7.78,4.07,16.24C104.61,122.25,107.22,132.94,107.17,133.56Z"/><path class="cls-12" d="M145.41,154.55S121.62,93.39,85.05,86.66a76.76,76.76,0,0,1,7.68,31.66C93.07,136.28,94.93,189.53,145.41,154.55Z"/><path class="cls-12" d="M97.46,88.8s10.88-9.36,24.08-8.82C121.54,80,106.34,88.26,97.46,88.8Z"/><path class="cls-12" d="M85.05,86.66l17.13,25.8,16.87,25.39,26.35,16.7h0l.73-.57a28.07,28.07,0,0,0,10-15.65C153,125.68,142,99.1,105.26,89.74A110.73,110.73,0,0,0,85.05,86.66Z"/><path class="cls-10" d="M118.13,81.56s-8,.74-13.27,3.56,5.22-.65,5.22-.65S107.56,87.47,118.13,81.56Z"/><path class="cls-13" d="M121.09,149s-21.87-23.39-44.43-35c0,0,9.5,49.64,25.41,48.1Z"/><path class="cls-13" d="M142.67,135.67c.31-1.09,14.18-12.18,17.2-27.74,0,0,4.14,17.69-.64,27.74Z"/><path class="cls-14" d="M151.76,270.51l1.64.26,3,.47,1,3.61a10.8,10.8,0,0,1-10.9.21L90.32,242.62a8.43,8.43,0,0,1-4.22-7.3V166.68a4.15,4.15,0,0,1,2.16-3.55l.93,2.51s-.13.14-.33.33L145,198.35l6.42-3.92,10,6.91.91.64-1.7.8-8.87,4.15Z"/><path class="cls-15" d="M157.39,274.85a10.8,10.8,0,0,1-10.9.21L90.32,242.62a8.43,8.43,0,0,1-4.22-7.3V233l65.84,37.9,1.46-.14,3,.47Z"/><path class="cls-16" d="M283.07,128.76a3.69,3.69,0,0,0-2.13-3.51l-2.27,3.37s2.27,4.07,2.35,4S283.07,128.76,283.07,128.76Z"/><path class="cls-17" d="M189.58,256.26l22.62-13.07-.33-14.38-25.42,9.54s.15,17.44.62,17.52Z"/><path class="cls-17" d="M242.17,225.92l25.25-14.59L267.09,197l-25.42,9.54s.15,17.44.62,17.52S242.17,225.92,242.17,225.92Z"/><path class="cls-18" d="M206.81,238.65h0l-.14-.09-5.46-3.44a8.43,8.43,0,0,0-1.1-.69h0a9.58,9.58,0,0,0-9.43.13h0a18,18,0,0,0-9,15.6h0a9.59,9.59,0,0,0,5.06,8.5h0l5.17,3.3.12.08.21.13h0a9.58,9.58,0,0,0,9.89.13h0a18,18,0,0,0,9-15.59h0A9.6,9.6,0,0,0,206.81,238.65Z"/><path class="cls-19" d="M199.73,244.92h0a5,5,0,0,1,7.43,4.29h0a9.23,9.23,0,0,1-4.6,8h0a5,5,0,0,1-7.43-4.29h0A9.22,9.22,0,0,1,199.73,244.92Z"/><path class="cls-18" d="M261.61,207.07h0l-.14-.09L256,203.54a9.73,9.73,0,0,0-1.1-.7h0a9.58,9.58,0,0,0-9.43.14h0a18,18,0,0,0-9,15.59h0a9.58,9.58,0,0,0,5.06,8.5h0l5.16,3.31.12.07.22.14h0a9.6,9.6,0,0,0,9.89.13h0a18,18,0,0,0,9-15.59h0A9.58,9.58,0,0,0,261.61,207.07Z"/><path class="cls-19" d="M254.53,213.34h0a5,5,0,0,1,7.43,4.28h0a9.2,9.2,0,0,1-4.61,8h0a4.94,4.94,0,0,1-7.42-4.28h0A9.21,9.21,0,0,1,254.53,213.34Z"/><path class="cls-20" d="M283.07,128.76v70.41l-17.16,13a11,11,0,0,0-3.8-5.09l-.09-.06a8.18,8.18,0,0,0-9.12-.38,18,18,0,0,0-6.59,6.59,18.68,18.68,0,0,0-1.65,3.81l0,.13a17.84,17.84,0,0,0-.73,5.06,9.73,9.73,0,0,0,.3,2.45l-33,19a11,11,0,0,0-3.75-5.08l-.09-.07a8.12,8.12,0,0,0-9.12-.4,17.88,17.88,0,0,0-6.59,6.59,18.08,18.08,0,0,0-1.65,3.83s0,.09,0,.14a17.94,17.94,0,0,0-.72,5,10,10,0,0,0,.31,2.47l-32.19,18.59a3.75,3.75,0,0,1-5.63-3.24v-63.4a10.05,10.05,0,0,1,.18-1.91,10.29,10.29,0,0,1,4.95-7l124.2-71.71A1.32,1.32,0,0,1,283.07,128.76Z"/><polygon class="cls-21" points="86.1 225.94 151.94 263.95 151.76 270.83 86.1 233.01 86.1 225.94"/><path class="cls-22" d="M283.07,188.14V195l-21,12.1-.09-.06a8.18,8.18,0,0,0-9.12-.38,18,18,0,0,0-6.59,6.59,18.68,18.68,0,0,0-1.65,3.81l0,.13-37.15,21.46-.09-.07a8.12,8.12,0,0,0-9.12-.4,17.88,17.88,0,0,0-6.59,6.59,18.08,18.08,0,0,0-1.65,3.83s0,.09,0,.14l-38.23,22.07V264Z"/><path class="cls-19" d="M190,248.62a17.82,17.82,0,0,0-.76,5.17,10,10,0,0,0,.31,2.47l-32.19,18.59a3.75,3.75,0,0,1-5.63-3.24v-.89Z"/><path class="cls-19" d="M244.66,217.08a18,18,0,0,0-.76,5.19,9.73,9.73,0,0,0,.3,2.45l-33,19a11.05,11.05,0,0,0-3.84-5.15Z"/><path class="cls-19" d="M283.07,194.91v4.26l-17.16,13a11,11,0,0,0-3.89-5.15Z"/><path class="cls-23" d="M182.86,204.57v52.71l-9.19,5.31-.68.4-1.07.61L161,269.92V217.49a6,6,0,0,1,3-5.19l7.95-4.58,1.07-.62.68-.4,6.45-3.72.21-.11A1.83,1.83,0,0,1,182.86,204.57Z"/><path class="cls-23" d="M276.26,150V177.8A3.78,3.78,0,0,1,274.4,181l-24.47,14.12-.68.4-33.07,19.09-.69.39L188.6,230.56a1.43,1.43,0,0,1-2.15-1.24V201.54a3.77,3.77,0,0,1,1.89-3.28l27.15-15.68.69-.4,33.07-19.09.68-.39,24.18-14A1.44,1.44,0,0,1,276.26,150Z"/><path class="cls-23" d="M276.26,150V177.8A3.78,3.78,0,0,1,274.4,181h0l-24.46,14.12-.68.4-.69.4-32.38,18.69-.69.39-.78.46L188.6,230.56a1.43,1.43,0,0,1-2.15-1.24V201.54a3.77,3.77,0,0,1,1.89-3.28L214.71,183l.78-.45.69-.4,32.38-18.69.69-.4.68-.39,24.18-14a1.31,1.31,0,0,1,.73-.19A1.43,1.43,0,0,1,276.26,150Z"/><path class="cls-24" d="M275.55,180A3.74,3.74,0,0,1,274.4,181l-24.47,14.12-.68.4-33.07,19.09-.69.39L188.6,230.56a1.4,1.4,0,0,1-1.44,0,3.91,3.91,0,0,1,1.18-1.07l27.15-15.67.69-.4,33.07-19.09.68-.4,24.18-14A1.4,1.4,0,0,1,275.55,180Z"/><path class="cls-25" d="M161.42,201.34l-.79,1.44-8.87,4.15v11.51L86.1,180.54V166.68a4.15,4.15,0,0,1,2.16-3.55l.93,2.51s-.13.14-.33.33L145,198.35l6.42-3.92Z"/><path class="cls-26" d="M214.82,90.07,88.26,163.13a1.44,1.44,0,0,0,0,2.49L146,199a11.51,11.51,0,0,0,11.52,0L280.94,127.7a1.41,1.41,0,0,0,0-2.45L220,90.07A5.18,5.18,0,0,0,214.82,90.07Z"/><path class="cls-27" d="M283.07,128.76v12.4L151.94,217.08V206.3a10.29,10.29,0,0,1,4.95-7l124.2-71.71A1.32,1.32,0,0,1,283.07,128.76Z"/><path class="cls-23" d="M154.4,256a5.07,5.07,0,0,1-5.45.24L91.63,223.14l-5.53-3.2V169.4l6.58,3.71,57.21,32.27a7.6,7.6,0,0,1,3.74,5.66l.25,4.92,1.7,34c.06.7.15,1.42.19,2.12C155.84,253.64,155.67,255.11,154.4,256Z"/><path class="cls-28" d="M94.13,221.24l-2.5,1.9-5.53-3.2V169.4l6.58,3.71v44.47Z"/><path class="cls-24" d="M154.4,256a5.07,5.07,0,0,1-5.45.24L86.1,219.94l6.58-2.36,63.09,34.5C155.84,253.64,155.67,255.11,154.4,256Z"/><polygon class="cls-24" points="160.97 267.69 180.33 256.52 182.86 257.28 160.97 269.92 160.97 267.69"/><polygon class="cls-29" points="173.67 206.7 173.67 262.59 172.99 262.99 172.99 207.1 173.67 206.7"/><polygon class="cls-29" points="216.18 182.18 216.18 214.64 215.5 215.03 215.5 182.58 216.18 182.18"/><polygon class="cls-29" points="249.94 162.7 249.94 195.15 249.25 195.55 249.25 163.09 249.94 162.7"/><path class="cls-24" d="M182.86,204.57v52.71l-2.53-.76V202.87A1.83,1.83,0,0,1,182.86,204.57Z"/><polygon class="cls-24" points="172.99 207.1 172.99 262.99 171.92 263.6 171.92 207.72 172.99 207.1"/><path class="cls-24" d="M276.26,150V177.8A3.78,3.78,0,0,1,274.4,181h0l-.28-1.06a1.9,1.9,0,0,0,.73-1.5V148.55A1.43,1.43,0,0,1,276.26,150Z"/><polygon class="cls-24" points="215.5 182.58 215.5 215.03 214.71 215.49 214.71 183.03 215.5 182.58"/><polygon class="cls-24" points="249.25 163.09 249.25 195.55 248.56 195.95 248.56 163.49 249.25 163.09"/><polygon class="cls-24" points="150.52 264.17 150.52 269.43 147.25 267.55 147.25 262.28 147.91 262.66 150.52 264.17"/><polygon class="cls-14" points="150.52 264.17 150.52 268.81 147.91 267.34 147.91 262.66 150.52 264.17"/><polygon class="cls-24" points="146.1 261.57 146.1 266.84 140.38 263.54 140.38 258.27 140.84 258.54 146.1 261.57"/><polygon class="cls-16" points="146.1 261.57 146.1 266.27 140.84 263.27 140.84 258.54 146.1 261.57"/><polygon class="cls-24" points="90.74 229.7 90.74 234.97 87.47 233.08 87.47 227.81 88.13 228.19 90.74 229.7"/><polygon class="cls-14" points="90.74 229.7 90.74 234.35 88.13 232.87 88.13 228.19 90.74 229.7"/><polygon class="cls-24" points="97.29 233.5 97.29 238.77 91.57 235.47 91.57 230.2 92.03 230.46 97.29 233.5"/><polygon class="cls-16" points="97.29 233.5 97.29 238.2 92.03 235.2 92.03 230.46 97.29 233.5"/><path class="cls-24" d="M153.88,216,86.1,177.83V169.4l6.58,3.71,57.21,32.27a7.6,7.6,0,0,1,3.74,5.66Z"/><path class="cls-25" d="M194.85,163.08,172,176.29a8.66,8.66,0,0,1-8.66,0l-37.22-21.48a1.52,1.52,0,0,1,0-2.62l4.88-3.33.72.07,15.58-9.07a11.44,11.44,0,0,1,11.47,0l10.43,6,18.39,10.62,2.4-.34,5,4.63a2.09,2.09,0,0,1,.22.2l0,0h0A1.38,1.38,0,0,1,194.85,163.08Z"/><path class="cls-27" d="M194.85,163.08,172,176.29a8.6,8.6,0,0,1-4.33,1.16l-.47-6.91L163.33,161l3.84-15.24,2,.09,18.39,10.62,2.4-.34,5,4.63a2.09,2.09,0,0,1,.22.2l0,0h0A1.38,1.38,0,0,1,194.85,163.08Z"/><path class="cls-30" d="M159,138.27l31,17.88a1.19,1.19,0,0,1,0,2.06l-19.63,11.33a7.42,7.42,0,0,1-7.43,0L131,151.11a1.3,1.3,0,0,1,0-2.25l18.17-10.57A9.8,9.8,0,0,1,159,138.27Z"/><path class="cls-25" d="M256.6,127.8,233.72,141a8.66,8.66,0,0,1-8.66,0l-37.21-21.49a1.52,1.52,0,0,1,0-2.62l4.89-3.32.71.07L209,104.58a11.42,11.42,0,0,1,11.47,0l10.44,6,18.39,10.62,2.39-.33,5,4.62a1.42,1.42,0,0,1,.22.2l0,0h0A1.38,1.38,0,0,1,256.6,127.8Z"/><path class="cls-27" d="M256.6,127.8,233.72,141a8.68,8.68,0,0,1-4.33,1.16l-.47-6.92-3.84-9.52,3.84-15.23,2,.08,18.39,10.62,2.39-.33,5,4.62a1.42,1.42,0,0,1,.22.2l0,0h0A1.38,1.38,0,0,1,256.6,127.8Z"/><path class="cls-30" d="M220.73,103l31,17.89a1.18,1.18,0,0,1,0,2l-19.63,11.34a7.47,7.47,0,0,1-7.43,0l-31.92-18.44a1.29,1.29,0,0,1,0-2.24L210.89,103A9.83,9.83,0,0,1,220.73,103Z"/><path class="cls-18" d="M224.12,223.65c2.46-1.64.72-5.88,3.61-6.93a2.14,2.14,0,0,1,2,.26l.14.11a.65.65,0,0,1,.31.08c.1.05.31.33.37.34s.26-.31.3-.37a6.46,6.46,0,0,0,.37-.88c-.67-1.89-1-4.39.54-6s3.55-.52,4.64.92a6.65,6.65,0,0,1,.68,6.47c-.28.82-.89,1.86-.64,2.75a2.65,2.65,0,0,0,1,1,1.43,1.43,0,0,0,.65-.12,4,4,0,0,0,.57-2c-.05-1.38-.73-2.49-.44-3.94.37-1.78,1.9-2.85-.05-4.42-.55-.44-1.08-.36-1.3-1.2-.44-1.59,1.59-3.5,3.07-3.63a2.18,2.18,0,0,1,1.89.82,4.57,4.57,0,0,1,.69,1.14c.21.47.27.92.43,1.27.38.29.73.26,1-.62A9.58,9.58,0,0,1,247,204v0a2.77,2.77,0,0,1,1.54-1.29c.46-.17,1-.09,1.44-.23l.29-.34a1.23,1.23,0,0,1,.65-.62.31.31,0,0,1,.31.53,1.33,1.33,0,0,1-.19.14.63.63,0,0,0-.13.2,1.58,1.58,0,0,0,.71-.24c.25-.15.53.21.31.4a2.11,2.11,0,0,1-.51.35,10.89,10.89,0,0,0-1.19,1,.13.13,0,0,1-.23-.11h0c-.2.88-1.21,1.25-2,1.35a.45.45,0,0,1-.35-.1l0,0a8.47,8.47,0,0,0-1.16,3.94,4.53,4.53,0,0,1-.63,2.5c-1,1.32-2.67.84-3.54-.36l0,0c-.73-.63-1.37-1.6-2-2.2a3.94,3.94,0,0,0,.4,1.73c.07.24.26.44.35.69a3.82,3.82,0,0,1,.09,1.78,20.06,20.06,0,0,0-.44,3.37,24.75,24.75,0,0,1,.26,3.32,4.52,4.52,0,0,1-.24,1,3.19,3.19,0,0,1-1.18,2,2.93,2.93,0,0,1-3.63.19l-.28-.09a1,1,0,0,1-.33-.22c-1.08-.71-1.11-2-.83-3.17a9.14,9.14,0,0,1,.41-2,7.28,7.28,0,0,0,.45-2.69c-.07-.69-.39-1.26-.45-1.95,0,0,0,0,0-.05s0,0-.05,0c-.66-.53-1.91-.83-2.27.06a7.69,7.69,0,0,0,0,1.19c.08,1.45,1.12,2.69.88,4.18a2.19,2.19,0,0,1-3.79,1.31c-.57-.54-1-1.24-1.63-.1-.4.71-.11,1.8-.51,2.57-.58,1.11-2.06,1.39-3.09,1.93A.13.13,0,0,1,224.12,223.65Z"/><path class="cls-26" d="M208,226.81a.88.88,0,0,1-.32,1.09.85.85,0,0,1-1.07-.13c-.12-.13.08-.33.19-.2a.58.58,0,0,0,.79.08.6.6,0,0,0,0-1c-.57-.5-1.12.07-1.63.34,0,0-.1,0-.09,0C205.92,225.84,207.66,225.87,208,226.81Z"/><path class="cls-26" d="M205.74,230.26c1.72.27,4.25-.46,4.53-2.45a2.29,2.29,0,0,0-2.7-2.61.14.14,0,0,0-.1.05,2.88,2.88,0,0,0-3.73,1.41A2.58,2.58,0,0,0,205.74,230.26Zm-1.14-4a2.56,2.56,0,0,1,2.89-.5.2.2,0,0,0,.25-.12,1.9,1.9,0,0,1,1.48,3,4,4,0,0,1-3.63,1A2.06,2.06,0,0,1,204.6,226.22Z"/><path class="cls-26" d="M205.15,232.44c2.57.68,6.73-.13,7.7-3a4.64,4.64,0,0,0-.17-3.76c-.63-.93-1.69-1.09-2.7-1.4l0,0c-2.57-1.36-6.22-1.15-7.72,1.69A4.44,4.44,0,0,0,205.15,232.44Zm-1.51-7.15c1.74-1.62,4.06-1.2,6.06-.44a.27.27,0,0,0,.36-.17c1.66,1,3.26,1.93,2.36,4.4s-3.95,3.08-6.19,2.79a4.37,4.37,0,0,1-3.27-1.59A4.16,4.16,0,0,1,203.64,225.29Z"/><path class="cls-26" d="M183.63,252.92a37.28,37.28,0,0,1,7.55-11.64,26.69,26.69,0,0,1,5.8-4.5c1.81-1,3.8-1.65,5.61-2.66a13.52,13.52,0,0,0,3.63,1,13.26,13.26,0,0,0,6.87-.53c1.71-.7,2.4-2.39,2.8-4.09a7.44,7.44,0,0,0-.12-4.36.42.42,0,0,0,.36-.36c.57-3.49,3.8-5.69,6.19-8,1.77-1.68,3.22-3.88,2.19-6.34a.12.12,0,0,0-.23.06c.94,4-3,6-5.45,8.35a11.49,11.49,0,0,0-3.6,5.27l-.07-.09a5.3,5.3,0,0,0-1.85-1.54.23.23,0,0,0,.11-.09c1.54-2.47,3.7-4,5.85-5.82a5.68,5.68,0,0,0,2.11-5.06c0-.4-.66-.41-.63,0,.26,3.15-1.88,4.46-4,6.2a13.6,13.6,0,0,0-3.74,4.42.2.2,0,0,0,0,.18,10,10,0,0,0-2.14-.62c.75-2.16,3.18-3.57,4.83-5,1.15-1,2.2-2,2.08-3.58,0-.08-.13-.11-.15,0-.79,3.87-6,4.89-7.34,8.48v0l-.18,0a.35.35,0,0,0-.31-.38c-3.78-.59-8.91.13-9.57,4.76a15.19,15.19,0,0,0-.15,2.24c-3.55,1.26-7.16,2.53-10.19,4.85a24.77,24.77,0,0,0-6.79,8.63c-.17.32.34.6.47.28a21.64,21.64,0,0,1,7.72-9,26.6,26.6,0,0,1,5.49-2.75,10,10,0,0,0,3.31-1.64,8.21,8.21,0,0,0,.26,1.74c-3.14,2.45-7.1,3.55-10.21,6.1a27.55,27.55,0,0,0-6.87,9.17.39.39,0,1,0,.71.3,21.39,21.39,0,0,1,7.83-10c2.76-2,6.07-3,8.64-5.23a4,4,0,0,0,.59,1.13,4.17,4.17,0,0,0,1.11,1c-4.06,2-7.91,3.84-11.21,7.14A39.87,39.87,0,0,0,183,252.55C182.79,253,183.43,253.36,183.63,252.92Zm18-20.56a6.08,6.08,0,0,1-.69-6.31c1.66-2.94,5.78-2.84,8.66-2.9a.33.33,0,0,0,.17,0c1.57.34,3.4.77,4.53,1.91,1.48,1.49,1,3.8.56,5.61a4.34,4.34,0,0,1-3.51,3.52,13.62,13.62,0,0,1-5,.1C204.83,234,202.82,233.55,201.66,232.36Z"/><path class="cls-26" d="M225.83,211a.36.36,0,0,1,.26-.11.35.35,0,0,1,.26.11.33.33,0,0,1,.11.26.35.35,0,0,1-.11.27.41.41,0,0,1-.26.11.39.39,0,0,1-.26-.11.35.35,0,0,1-.11-.27A.34.34,0,0,1,225.83,211Z"/><path class="cls-26" d="M226,213.27a.49.49,0,0,1,.46-.12.37.37,0,0,1,.2.12.57.57,0,0,1,.13.21l0,.08a.45.45,0,0,1,0,.23.43.43,0,0,1-.3.3.45.45,0,0,1-.23,0l-.08,0a.46.46,0,0,1-.33-.33A.49.49,0,0,1,226,213.27Z"/><path class="cls-26" d="M225.69,216.12a.26.26,0,0,1,0,.51A.26.26,0,0,1,225.69,216.12Z"/><path class="cls-26" d="M223.37,218.23a.28.28,0,0,1,.09-.1l.11-.06h.13a.31.31,0,0,1,.19,0,.29.29,0,0,1,.16.09.37.37,0,0,1,.1.25.39.39,0,0,1-.1.25.51.51,0,0,1-.16.09h-.19l-.13,0-.08,0a.38.38,0,0,1-.16-.29A.33.33,0,0,1,223.37,218.23Z"/><path class="cls-26" d="M221.41,220a.58.58,0,0,1,.13-.23.56.56,0,0,1,.37-.15.41.41,0,0,1,.19,0,.5.5,0,0,1,.17.11.39.39,0,0,1,.1.16.49.49,0,0,1,0,.2l0,.14a.61.61,0,0,1-.13.22.55.55,0,0,1-.36.15.54.54,0,0,1-.37-.15.44.44,0,0,1-.1-.16.34.34,0,0,1,0-.2Z"/><path class="cls-26" d="M220.29,222.08a.24.24,0,0,1,0,.47A.24.24,0,0,1,220.29,222.08Z"/><path class="cls-26" d="M219.48,222.76a.63.63,0,0,1,0,1.26A.63.63,0,0,1,219.48,222.76Z"/><path class="cls-26" d="M216.85,225.63l.06-.15a.69.69,0,0,1,.23-.22l0,0a.54.54,0,0,1,.27-.07.5.5,0,0,1,.27.07l.05,0a.44.44,0,0,1,.17.16.29.29,0,0,1,.08.14.48.48,0,0,1,.06.24l0,.17-.06.14a.4.4,0,0,1-.16.18.25.25,0,0,1-.14.08.39.39,0,0,1-.24,0l-.16,0-.15-.06a.46.46,0,0,1-.18-.16.39.39,0,0,1-.08-.14.39.39,0,0,1,0-.24Z"/><path class="cls-26" d="M210.16,220.51a.45.45,0,0,1,0,.9A.45.45,0,0,1,210.16,220.51Z"/><path class="cls-26" d="M211.3,218.82l0-.14a.46.46,0,0,1,.43-.33.48.48,0,0,1,.44.33l.05.14a.67.67,0,0,1,0,.37.54.54,0,0,1-.5.38.53.53,0,0,1-.49-.38A.67.67,0,0,1,211.3,218.82Z"/><path class="cls-26" d="M214.48,216.56a.49.49,0,0,1,0,1A.49.49,0,0,1,214.48,216.56Z"/><path class="cls-26" d="M216,215.58a.26.26,0,0,1,0,.51A.26.26,0,0,1,216,215.58Z"/><path class="cls-26" d="M198.56,228.15a.24.24,0,0,1,0,.47A.24.24,0,0,1,198.56,228.15Z"/><path class="cls-26" d="M196.53,228.82a.38.38,0,0,1,0,.75A.38.38,0,0,1,196.53,228.82Z"/><path class="cls-26" d="M193.84,229.86a.15.15,0,0,1,.06-.09.34.34,0,0,1,.12-.12h0a.37.37,0,0,1,.21-.06.36.36,0,0,1,.2.06h0l.09.07a.42.42,0,0,1,.09.14.2.2,0,0,1,0,.11.33.33,0,0,1,0,.17.51.51,0,0,1-.16.25.37.37,0,0,1-.5,0,.47.47,0,0,1-.17-.25V230A.47.47,0,0,1,193.84,229.86Z"/><path class="cls-26" d="M191.67,231a.49.49,0,0,1,0,1A.49.49,0,0,1,191.67,231Z"/><path class="cls-26" d="M188.89,233l.05-.11a.34.34,0,0,1,.3-.17.36.36,0,0,1,.31.17l0,.11a.38.38,0,0,1,0,.41.41.41,0,0,1-.71,0,.37.37,0,0,1-.06-.21A.36.36,0,0,1,188.89,233Z"/><path class="cls-26" d="M186.69,235.14a.2.2,0,0,1,0-.13l.05-.07a.37.37,0,0,1,.17-.1H187a.49.49,0,0,1,.17,0,.39.39,0,0,1,.14.08.64.64,0,0,1,.08.14.49.49,0,0,1,0,.17.09.09,0,0,0,0,.05l0,.08,0,.05a.28.28,0,0,1-.1.09.33.33,0,0,1-.13,0H187a.26.26,0,0,1-.2-.08.33.33,0,0,1-.08-.19S186.68,235.18,186.69,235.14Z"/><path class="cls-26" d="M185.19,236.63a.4.4,0,0,1,0,.79A.4.4,0,0,1,185.19,236.63Z"/><path class="cls-26" d="M183.84,238.28a.63.63,0,0,1,0,1.26A.63.63,0,0,1,183.84,238.28Z"/><path class="cls-26" d="M185.38,251.47a.72.72,0,0,0,.18.44.26.26,0,0,0,.44-.18.38.38,0,0,0,.16-.32v0h0v0a.29.29,0,0,0-.2-.31.66.66,0,0,0-.28,0A.41.41,0,0,0,185.38,251.47Z"/><path class="cls-26" d="M186.15,251.35v0h0v0Z"/><path class="cls-26" d="M186.81,248.55a.35.35,0,0,1,0,.7A.35.35,0,0,1,186.81,248.55Z"/><path class="cls-26" d="M187.93,246a.3.3,0,0,1,.23-.1.32.32,0,0,1,.29.16l.1.16,0,.07a.25.25,0,0,1,0,.12.3.3,0,0,1-.08.16.46.46,0,0,1-.13.08.31.31,0,0,1-.23,0l-.16-.1a.34.34,0,0,1-.16-.29A.29.29,0,0,1,187.93,246Z"/><path class="cls-26" d="M190.05,243.49a.42.42,0,0,1,0,.83A.42.42,0,0,1,190.05,243.49Z"/><path class="cls-26" d="M191.34,241.44a.63.63,0,0,1,.26-.3.68.68,0,0,1,.52-.08l.07,0a.55.55,0,0,1,.37.33.42.42,0,0,1,.05.22.6.6,0,0,1-.08.29l0,.07a.63.63,0,0,1-.17.19.29.29,0,0,1-.14.08l-.1.05-.17,0a.48.48,0,0,1-.24-.06.25.25,0,0,1-.14-.08.42.42,0,0,1-.17-.18.4.4,0,0,1-.06-.13v0l0-.17A.54.54,0,0,1,191.34,241.44Z"/><path class="cls-26" d="M194.82,239l.06-.11a.52.52,0,0,1,.18-.18.56.56,0,0,1,.26-.07.55.55,0,0,1,.25.07.66.66,0,0,1,.19.18l.05.11a.57.57,0,0,1,.08.29.6.6,0,0,1-.08.29.58.58,0,0,1-.49.28.61.61,0,0,1-.5-.28.59.59,0,0,1-.07-.29A.57.57,0,0,1,194.82,239Z"/><path class="cls-26" d="M198.58,236.84a.48.48,0,0,1,.32-.13h.15l.12.05a.61.61,0,0,1,.16.16.46.46,0,0,1,.06.23.43.43,0,0,1-.06.22.49.49,0,0,1-.16.16.51.51,0,0,1-.24.07h0a.46.46,0,0,1-.32-.13.24.24,0,0,1-.09-.15.25.25,0,0,1,0-.17A.42.42,0,0,1,198.58,236.84Z"/><path class="cls-26" d="M202.6,235.36a.32.32,0,0,1,0,.63A.32.32,0,0,1,202.6,235.36Z"/><path class="cls-26" d="M219.72,238.21a24.34,24.34,0,0,0,2.61-3.13,20.31,20.31,0,0,0,1.46-3.92,8.06,8.06,0,0,1,2.37-3.89,5.25,5.25,0,0,1,4.46-.72,30.78,30.78,0,0,0,4.14.77c1.31.08,2.58-.15,3.89-.19.42,0,.64.66.22.84a8.1,8.1,0,0,1-4.62.48c-2.67-.42-5.84-2.62-8.28-.43-1.73,1.55-2,4.22-2.74,6.3a11.58,11.58,0,0,1-2.95,4.45C219.91,239.12,219.4,238.59,219.72,238.21Z"/><path class="cls-26" d="M224,236.21c.06-.06.1-.14.16-.19a2,2,0,0,0,.24-.16,1.6,1.6,0,0,0,.4-.42.18.18,0,0,1,.32.14,1,1,0,0,1-.45.63,1,1,0,0,1-.33.15.4.4,0,0,1-.33-.09S224,236.23,224,236.21Z"/><path class="cls-26" d="M225.82,234.3a0,0,0,1,1,0,0A0,0,0,1,1,225.82,234.3Z"/><path class="cls-26" d="M227.4,229.44c.73-.38,1.25-.1,2.06,0a9.19,9.19,0,0,0,5.74-.49.43.43,0,1,1,.33.79c-1.67.69-3.18.42-4.92.22s-3.18-.14-3.91,1.78c-.28.76-.45,1.55-.79,2.31,0,0-.07,0-.07,0C225.76,232.63,225.93,230.22,227.4,229.44Z"/><path class="cls-26" d="M226.88,234.74a7.39,7.39,0,0,0,1.17-1.6.2.2,0,0,1,.26-.07c.21-.52.22-1.22.86-1.41a4.59,4.59,0,0,1,1.17,0,4.82,4.82,0,0,1,1.37.07l0,0a.08.08,0,0,1,0,.16h0a9.75,9.75,0,0,1-1.88.19c-.45.06-.81.23-.9.68a1.53,1.53,0,0,1-.23.66.27.27,0,0,1-.34.09,1.79,1.79,0,0,1-1.44,1.42A.08.08,0,0,1,226.88,234.74Z"/><path class="cls-26" d="M280.86,197.05c.29-.58,1.06-1.47,1.78-1.43.05,0,.1.07.06.12a2,2,0,0,1-.48.44,3.36,3.36,0,0,0-.79,1,3.22,3.22,0,0,0-.46,2.3c0,.25-.31.35-.37.11A3.54,3.54,0,0,1,280.86,197.05Z"/><path class="cls-26" d="M282.62,197.56a.16.16,0,0,1,.09.3c-.29.11-.29.45-.24.7a.2.2,0,0,1-.33.19C281.71,198.36,282.11,197.63,282.62,197.56Z"/><path class="cls-26" d="M282.43,194.09c.25-.08.43.32.18.43a5,5,0,0,0-2.9,6.16c.11.34-.41.48-.53.14A5.06,5.06,0,0,1,282.43,194.09Z"/><path class="cls-26" d="M270.64,192.06c-1.78-1.79-1.85-4.51-1.78-6.86a.47.47,0,0,1,.94,0c-.1,3.58.28,6.88,4.37,7.73,1.67.34,3.26.59,4.19,2.13a9.84,9.84,0,0,1,1.2-1.3c-1.73-2.24-4.62-1.78-6.65-3.46a5.48,5.48,0,0,1-1.47-5.55.16.16,0,0,1,.31,0c.39,1.31.08,2.69.76,3.95.77,1.46,2.36,1.82,3.82,2.25s3,1.08,3.43,2.64a3.53,3.53,0,0,1,2.93-.87.08.08,0,0,1,0,.15c-3.54.29-7.3,5.6-4.59,8.75a.47.47,0,1,1-.74.57c-1.32-2-.86-4.38.42-6.29.12-.19.26-.39.4-.58,0,0,0,0,0,0C276.44,192.72,272.72,194.16,270.64,192.06Z"/><path class="cls-26" d="M273.15,183.39c.05-.24.37-.16.39.05a8,8,0,0,0,.84,3.8c.86,1.33,2.44,1.57,3.77,2.19a5.44,5.44,0,0,1,2.94,3.34c0,.07-.09.1-.12,0-.88-2.15-2.42-2.8-4.44-3.46a5.52,5.52,0,0,1-2.19-1.13A5.39,5.39,0,0,1,273.15,183.39Z"/><path class="cls-26" d="M273.47,183s0,0,0,0A0,0,0,1,1,273.47,183Z"/><path class="cls-26" d="M281.77,191.11a.52.52,0,0,1,.33-.14.35.35,0,0,1,.18.05.37.37,0,0,1,.16.09.38.38,0,0,1,.09.15.3.3,0,0,1,0,.18.47.47,0,0,1-.13.34.53.53,0,0,1-.34.13.3.3,0,0,1-.18,0,.38.38,0,0,1-.15-.09.37.37,0,0,1-.09-.16.35.35,0,0,1-.05-.18A.52.52,0,0,1,281.77,191.11Z"/><path class="cls-26" d="M280.53,189.72l0-.06s0,0,.06-.06a.19.19,0,0,1,.14,0,.21.21,0,0,1,.12,0,.22.22,0,0,1,.11.14l0,.13a.33.33,0,0,1,0,.14.19.19,0,0,1-.07.11.29.29,0,0,1-.18.07.31.31,0,0,1-.18-.07.24.24,0,0,1-.06-.11.33.33,0,0,1,0-.14Z"/><path class="cls-26" d="M279,188.67a.41.41,0,0,1,.6,0,.22.22,0,0,1,.09.14.29.29,0,0,1,0,.16.42.42,0,0,1-.13.31.45.45,0,0,1-.3.12.41.41,0,0,1-.3-.12.24.24,0,0,1-.09-.14.33.33,0,0,1,0-.17A.39.39,0,0,1,279,188.67Z"/><path class="cls-26" d="M276.85,188a.48.48,0,0,1,.14-.24.57.57,0,0,1,.39-.16.54.54,0,0,1,.39.16.39.39,0,0,1,.11.17.41.41,0,0,1,.05.21l0,.15a.58.58,0,0,1-.14.24.57.57,0,0,1-.39.16.36.36,0,0,1-.21-.05.45.45,0,0,1-.29-.29.36.36,0,0,1-.05-.21Z"/><path class="cls-26" d="M274.69,186.51a.58.58,0,0,1,.22-.22l.11,0a.64.64,0,0,1,.34-.09.63.63,0,0,1,.33.09.67.67,0,0,1,0,1.15.63.63,0,0,1-.33.09.64.64,0,0,1-.34-.09l-.11,0a.77.77,0,0,1-.22-.22.65.65,0,0,1-.08-.31A.61.61,0,0,1,274.69,186.51Z"/><path class="cls-26" d="M274.19,184.25a.34.34,0,0,1,.11-.25.33.33,0,0,1,.25-.1.35.35,0,0,1,.25.1.37.37,0,0,1,.1.25v.09a.24.24,0,0,1-.07.12.23.23,0,0,1-.07.07l0,0a.27.27,0,0,1-.18.08.24.24,0,0,1-.19-.08l0,0A.36.36,0,0,1,274.19,184.25Z"/><path class="cls-26" d="M274.55,181.77a.32.32,0,0,1,0,.63A.32.32,0,0,1,274.55,181.77Z"/><path class="cls-26" d="M276.17,202.63a.52.52,0,0,1,0,1A.52.52,0,0,1,276.17,202.63Z"/><path class="cls-26" d="M275.49,201.37a.29.29,0,0,1,0,.58A.29.29,0,0,1,275.49,201.37Z"/><path class="cls-26" d="M275.15,199.71l0-.05.05-.06a.24.24,0,0,1,.14,0l.1,0a.2.2,0,0,1,.1.13l0,.13a.29.29,0,0,1,0,.13.21.21,0,0,1-.06.1.24.24,0,0,1-.16.07.24.24,0,0,1-.17-.07.21.21,0,0,1-.06-.1.29.29,0,0,1,0-.13Z"/><path class="cls-26" d="M275.44,198.06a.45.45,0,0,1,.05-.19.32.32,0,0,1,.54,0,.45.45,0,0,1,.05.19.36.36,0,0,1-.08.33.36.36,0,0,1-.24.09.34.34,0,0,1-.24-.09.36.36,0,0,1-.08-.33Z"/><path class="cls-26" d="M276.06,196l.17-.08.1,0a.29.29,0,0,1,.16,0l.1,0a.34.34,0,0,1,.14.09.52.52,0,0,1,.1.18.39.39,0,0,1,0,.32l-.08.16a.48.48,0,0,1-.41.24.5.5,0,0,1-.33-.14.31.31,0,0,1-.1-.15.39.39,0,0,1,0-.18A.47.47,0,0,1,276.06,196Z"/><path class="cls-26" d="M276.84,194.73a.18.18,0,0,1,0,.36A.18.18,0,0,1,276.84,194.73Z"/><path class="cls-26" d="M274.67,194.39l0-.1.07-.09.09-.07.1,0a.33.33,0,0,1,.17,0,.2.2,0,0,1,.11,0,.34.34,0,0,1,.14.09l.07.07a.34.34,0,0,1,.09.24.32.32,0,0,1-.09.23l-.07.07-.09.07-.1,0a.33.33,0,0,1-.17,0,.2.2,0,0,1-.11,0l-.1-.05a.27.27,0,0,1-.07-.08.21.21,0,0,1-.06-.1.29.29,0,0,1,0-.16Z"/><path class="cls-26" d="M272.79,193.75a.22.22,0,0,1,0,.43A.22.22,0,0,1,272.79,193.75Z"/><path class="cls-26" d="M271,192.7a.59.59,0,0,1,0,1.18A.59.59,0,0,1,271,192.7Z"/><path class="cls-26" d="M269,191.49a.32.32,0,0,1,0,.63A.32.32,0,0,1,269,191.49Z"/><path class="cls-26" d="M267.8,189.45a.47.47,0,0,1,0,.94A.47.47,0,0,1,267.8,189.45Z"/><path class="cls-26" d="M267.66,188a.34.34,0,0,1,0,.67A.34.34,0,0,1,267.66,188Z"/><path class="cls-26" d="M267.53,185.67a.34.34,0,0,1,0,.67A.34.34,0,0,1,267.53,185.67Z"/><path class="cls-26" d="M224,223.69a.18.18,0,0,0,.15.22,3.63,3.63,0,0,0,2.85-1.49,4.28,4.28,0,0,0,.77-1.66c.16-.65.35-1.44,1-1.67a3.11,3.11,0,0,0,2.53,1.37c1.28.09,1.91-1.2,2-2.32.14-1.45-.74-2.73-.79-4.15,0-.79.35-1.7,1.29-1.27a1.81,1.81,0,0,1,.9.93.19.19,0,0,0,0,.08,2.7,2.7,0,0,0,.23,1,2.56,2.56,0,0,1,.12,1.37c-.15.88-.39,1.74-.58,2.61-.28,1.24-.58,2.7.31,3.78a3.82,3.82,0,0,0,3.56,1.24,3.52,3.52,0,0,0,2.3-2.31c.56-.61.47-1.93.41-2.65a11,11,0,0,1,0-3.62,8.73,8.73,0,0,0,.56-3,9.38,9.38,0,0,0-.78-2.07l0,0a2.71,2.71,0,0,1,.35.24c.22.19.42.4.62.61A6.16,6.16,0,0,0,243,212a2,2,0,0,0,2.58-.34,5.18,5.18,0,0,0,1-3.08,11.51,11.51,0,0,1,.36-1.84c.1-.39.26-1.21.69-1.45a1.21,1.21,0,0,0,.68,0,2.84,2.84,0,0,0,.86-.3,2.62,2.62,0,0,0,.71-.57,2,2,0,0,0,.32-.43l.36-.3.51-.45a13,13,0,0,1,1.09-.87c.1-.08.11-.26,0-.29a1.67,1.67,0,0,0-.77,0,5.5,5.5,0,0,1,.34-.5c.1-.12-.06-.25-.18-.23a3.32,3.32,0,0,0-1.18.37,3,3,0,0,0-.72.6,2.12,2.12,0,0,0-1.41.3,3.26,3.26,0,0,0-.7.52.87.87,0,0,0-.19.23.11.11,0,0,0-.11.06,3.25,3.25,0,0,1-.36.47,1.71,1.71,0,0,1-.44.32,4.33,4.33,0,0,0-.72.7,9.48,9.48,0,0,0-1.15,1.71c-.33.62-.59,1.28-.86,1.93a1,1,0,0,1-.22.38c-.17.15-.29.06-.42-.07a1.06,1.06,0,0,1-.17-.2,5.78,5.78,0,0,0-.7-1.65,2.38,2.38,0,0,0-2-.85c-1.42,0-3.21.86-3.56,2.34a2.54,2.54,0,0,0,.2,2c.42.61,1.24.57,1.71,1.1.62.7.11,1.78-.23,2.48a4.09,4.09,0,0,0-.5,2.35c.17,1.41,1.33,4.07-.62,4.72-1,0-.39-2.56-.25-3.11a23,23,0,0,0,.69-3.17,5.52,5.52,0,0,0-1-4,4.15,4.15,0,0,0-3.87-1.39c-3.56.58-1.82,5.21-2.35,7.64a3.51,3.51,0,0,0-2.33-.88,2.9,2.9,0,0,0-2,1.42c-1.12,1.82-.39,4.49-2.22,5.91A.12.12,0,0,0,224,223.69Zm.38-.17a3.72,3.72,0,0,0,.86-1.26.18.18,0,1,0,.18-.14.16.16,0,0,0-.14.06,23.79,23.79,0,0,0,.84-3.11,3.13,3.13,0,0,1,1.85-2.35c1-.31,1.78.5,2.59,1a.27.27,0,0,0,.39-.16,6.32,6.32,0,0,0,.16-2.87,7.24,7.24,0,0,1-.17-2.7A2.77,2.77,0,0,1,232.2,210a3,3,0,0,1,2.4,0,3.92,3.92,0,0,1,2.5,3.72c.12,1.82-.51,3.6-.77,5.38a2.33,2.33,0,0,0,.22,1.85.87.87,0,0,0,.35.26.23.23,0,0,0,.17.34,1.71,1.71,0,0,0,1.54-1,3.56,3.56,0,0,0,.1-2.45,6.11,6.11,0,0,1-.33-2.87c.2-.76.71-1.39.91-2.15a2.13,2.13,0,0,0-.18-1.76c-.38-.58-1.05-.57-1.59-.91-.76-.48-.54-1.88-.11-2.51a3.87,3.87,0,0,1,2.44-1.3,2.13,2.13,0,0,1,2.33,1c.22.41.33.89.56,1.3a.67.67,0,0,0,0,.24.61.61,0,0,0,.75.39,1.13,1.13,0,0,0,.74-.75c.16-.39.3-.78.47-1.16a9.59,9.59,0,0,1,1.29-2.24c.25-.31.59-.56.81-.88a6.83,6.83,0,0,0,.62-.87l.33-.26a2.68,2.68,0,0,1,.64-.41,3.64,3.64,0,0,1,.72-.26l.3-.07a.25.25,0,0,0,.1.2.21.21,0,0,0,.28-.08,2.81,2.81,0,0,1,.82-.71,3.36,3.36,0,0,1,.6-.3c-.12.18-.23.36-.34.55a.16.16,0,0,0,.22.22,1.31,1.31,0,0,1,.61-.18c-.27.21-.54.41-.8.63l-.55.48,0,0c-.05-.2-.29-.2-.42-.1a1,1,0,0,0-.24.37,1.92,1.92,0,0,1-.18.28,2.32,2.32,0,0,1-.57.51,2.39,2.39,0,0,1-.69.31,1.64,1.64,0,0,1-.37,0h0c-1-.07-1.3,1.71-1.48,2.36a14.07,14.07,0,0,0-.35,1.83,4.35,4.35,0,0,1-.59,1.92,1.55,1.55,0,0,1-1.59.75,3.26,3.26,0,0,1-1.52-1,5.86,5.86,0,0,0-1.33-1.15l-.2-.3a1.18,1.18,0,0,0-.13-.18,1.06,1.06,0,0,0-.15-.15h0l-.05,0h0a.17.17,0,0,0-.18.1,1.29,1.29,0,0,0-.1.74v0s0,0,0,0a10.7,10.7,0,0,0,.78,1.77,5.31,5.31,0,0,1-.28,3.33,7.13,7.13,0,0,0-.07,3.28,9.39,9.39,0,0,1,.19,1.76,3.82,3.82,0,0,1-.12.89l-.09.26c-.67,1-1.42,2.14-2.75,2.2a3,3,0,0,1-3-2.1,11.39,11.39,0,0,1,.52-4,6.49,6.49,0,0,0,.22-1.86,3.6,3.6,0,0,0-.32-1,2,2,0,0,0-1.79-2.29h-.11v0a.2.2,0,0,0,0-.07.1.1,0,0,0,0-.05l0,0h0a.14.14,0,0,0-.08-.05H233l-.05,0a.2.2,0,0,0,0,.18l0,.05a1.43,1.43,0,0,0-.37.19l0,0a.07.07,0,0,0,0-.05.1.1,0,0,0,0-.07l0,0a.09.09,0,0,0-.06,0h-.2s0,0,0,0a.07.07,0,0,0,0,.1s0,0,0,0h0l0,0h.18a2.41,2.41,0,0,0-.57,2c.19,1.51,1.15,3,.55,4.49-.14.36-.39.85-.79,1a2.49,2.49,0,0,1-1.05,0,2.07,2.07,0,0,1-1.6-1.12.26.26,0,0,0-.29-.11c-1.34.22-1.39,1.73-1.73,2.75A3.51,3.51,0,0,1,224.33,223.52Z"/><path class="cls-26" d="M248.47,203.29l0,0a.16.16,0,0,1,.09,0l.07,0a.09.09,0,0,1,.06,0,.16.16,0,0,1,.05.09.14.14,0,0,1,0,.09l0,.05,0,0a.1.1,0,0,1,0,.05l0,0h-.11l0,0,0,0a.09.09,0,0,1,0-.06l0-.05a.14.14,0,0,1,0-.09A.25.25,0,0,1,248.47,203.29Z"/><path class="cls-26" d="M249.21,203.19a.07.07,0,0,1,0,.13A.07.07,0,0,1,249.21,203.19Z"/><path class="cls-26" d="M250.26,202.71l0,0,.08,0h.06a.1.1,0,0,1,0,0,.16.16,0,0,1,0,.07.11.11,0,0,1,0,.08v0l0,0a.08.08,0,0,1,0,0l0,0h-.1l0,0s0,0,0,0l0,0v0a.11.11,0,0,1,0-.08A.16.16,0,0,1,250.26,202.71Z"/><path class="cls-26" d="M248.93,203.81l0,0,.08,0,.07,0a.15.15,0,0,1,0,.26l-.07,0-.08,0,0,0a.13.13,0,0,1,0-.22Z"/><path class="cls-26" d="M248.33,204.12a.08.08,0,0,1,0,.16A.08.08,0,0,1,248.33,204.12Z"/><path class="cls-26" d="M247.67,204.07a.07.07,0,0,1,0,.14A.07.07,0,1,1,247.67,204.07Z"/><path class="cls-26" d="M247.83,204.37a.11.11,0,0,1,0,.21A.11.11,0,0,1,247.83,204.37Z"/><path class="cls-26" d="M246.67,205a.16.16,0,0,1,0,.31A.16.16,0,0,1,246.67,205Z"/><path class="cls-26" d="M246.17,206.39a.07.07,0,0,1,0,.14C246.09,206.53,246.09,206.39,246.17,206.39Z"/><path class="cls-26" d="M246.12,205.7a.1.1,0,0,1,0,.2A.1.1,0,0,1,246.12,205.7Z"/><path class="cls-26" d="M245.29,206.75a.1.1,0,1,1,0,.19A.1.1,0,0,1,245.29,206.75Z"/><path class="cls-26" d="M245.32,207.76l0,0,.06,0h0l0,0,0,.05v.06l0,0v0l0,0h-.11s0,0,0,0,0,0,0,0l0,0a.06.06,0,0,1,0-.06A.05.05,0,0,1,245.32,207.76Z"/><path class="cls-26" d="M245.73,207a.14.14,0,0,1,0,.28A.14.14,0,0,1,245.73,207Z"/><path class="cls-26" d="M244.68,208.26a.13.13,0,0,1,0,.26A.13.13,0,0,1,244.68,208.26Z"/><path class="cls-26" d="M245.08,209.45l0,0,0,0h.07a.05.05,0,0,1,0,0l0,0a.13.13,0,0,1,0,.06v.05s0,0,0,0,0,0,0,0l0,0h-.07l0,0,0,0a.07.07,0,0,1,0,0v-.05A.09.09,0,0,1,245.08,209.45Z"/><path class="cls-26" d="M244.41,210.5a.16.16,0,0,1,0,.31A.16.16,0,0,1,244.41,210.5Z"/><path class="cls-26" d="M243.05,210.12l0,0,0-.05,0,0,0,0h.09l.08,0,0,0a.29.29,0,0,1,0,.09.07.07,0,0,1,0,.06.09.09,0,0,1,0,.06.17.17,0,0,1-.17,0h0l0,0a.08.08,0,0,1,0,0l0,0a.07.07,0,0,1,0-.06Z"/><path class="cls-26" d="M243.64,211c.11,0,.11.19,0,.19A.1.1,0,0,1,243.64,211Z"/><path class="cls-26" d="M244.24,209.6a.18.18,0,0,1,0,.35A.18.18,0,0,1,244.24,209.6Z"/><path class="cls-26" d="M245,210.26l0-.09a.09.09,0,0,1,.07,0,.08.08,0,0,1,.07,0l0,.09a.07.07,0,0,1,0,.06.08.08,0,0,1,0,.07.13.13,0,0,1-.22,0,.14.14,0,0,1,0-.07A.14.14,0,0,1,245,210.26Z"/><path class="cls-26" d="M245.29,208.69l0-.05,0,0h.12s0,0,0,0l0,0,0,0v.07a.09.09,0,0,1,0,.06h0a.07.07,0,0,1-.06,0h-.1a.05.05,0,0,1,0,0l0,0a.09.09,0,0,1,0-.05Z"/><path class="cls-26" d="M245.13,207.28a.12.12,0,0,1,0,.24A.12.12,0,0,1,245.13,207.28Z"/><path class="cls-26" d="M242.75,210.64a.07.07,0,0,1,0,.14C242.67,210.78,242.67,210.64,242.75,210.64Z"/><path class="cls-26" d="M243.64,210.38a.11.11,0,0,1,0,.22A.11.11,0,1,1,243.64,210.38Z"/><path class="cls-26" d="M244.13,211a.13.13,0,0,1,0,.26A.13.13,0,0,1,244.13,211Z"/><path class="cls-26" d="M244.74,210.81a.18.18,0,0,1,0,.35A.18.18,0,0,1,244.74,210.81Z"/><path class="cls-26" d="M242.11,210.08v0l0,0,0,0h.11l0,0,0,0a.08.08,0,0,1,0,0s0,0,0,.05l0,0a.05.05,0,0,1,0,0h-.06l0,0h0s0,0,0,0,0,0,0,0,0,0,0,0Z"/><path class="cls-26" d="M240.82,208.52a.09.09,0,1,1,0,.18A.09.09,0,0,1,240.82,208.52Z"/><path class="cls-26" d="M240.66,207.35a.11.11,0,0,1,0,.21A.11.11,0,0,1,240.66,207.35Z"/><path class="cls-26" d="M241.4,208.13l0-.07s0,0,0,0l0,0h0l0,0a.05.05,0,0,1,0,0s0,0,0,0a.11.11,0,0,1,0,0l0,0-.06,0h-.11l0,0v-.09Z"/><path class="cls-26" d="M239.94,207.94a.13.13,0,0,1,0,.25A.13.13,0,0,1,239.94,207.94Z"/><path class="cls-26" d="M241.43,207.33a.07.07,0,0,1,0,.13A.07.07,0,1,1,241.43,207.33Z"/><path class="cls-26" d="M239.77,207.16a.13.13,0,0,1,0,.26A.13.13,0,0,1,239.77,207.16Z"/><path class="cls-26" d="M240.49,208a.09.09,0,0,1,0,.18A.09.09,0,0,1,240.49,208Z"/><path class="cls-26" d="M241.22,209.07a.43.43,0,0,1,0-.07l0,0,.08,0,.06,0s0,0,.05,0l0,.05a.13.13,0,0,1,0,.06v0a.16.16,0,0,1,0,.07l0,0-.08,0a.08.08,0,0,1-.06,0l-.06,0,0-.05a.13.13,0,0,1,0-.06Z"/><path class="cls-26" d="M242,208.43a.13.13,0,0,1,0,.25A.13.13,0,0,1,242,208.43Z"/><path class="cls-26" d="M242,209.15a.07.07,0,0,1,0,.14A.07.07,0,1,1,242,209.15Z"/><path class="cls-26" d="M241.5,209.51l0,0s0,0,0,0h.12s0,0,0,0,0,0,0,0a0,0,0,0,1,0,0v0l0,0s0,0,0,0h-.1l0,0,0,0a.07.07,0,0,1,0,0A.06.06,0,0,1,241.5,209.51Z"/><path class="cls-26" d="M242.37,209.6a.12.12,0,0,1,0,.23A.12.12,0,1,1,242.37,209.6Z"/><path class="cls-26" d="M239,210.41a.1.1,0,0,1,.1,0,.11.11,0,0,1,.08.08l0,.07a.07.07,0,0,1,0,.07.08.08,0,0,1-.07,0H239a.11.11,0,0,1-.07-.08A.11.11,0,0,1,239,210.41Z"/><path class="cls-26" d="M239.4,209.7l0,0,.06,0,.05,0a.1.1,0,0,1,.06.09.11.11,0,0,1-.06.1h-.11l0,0a.09.09,0,0,1,0-.08A.07.07,0,0,1,239.4,209.7Z"/><path class="cls-26" d="M239.16,208.4a.1.1,0,0,1,0,.21A.1.1,0,0,1,239.16,208.4Z"/><path class="cls-26" d="M237.73,208.85a.1.1,0,1,1,0,.19A.1.1,0,1,1,237.73,208.85Z"/><path class="cls-26" d="M237.78,209.72a.11.11,0,1,1,0,.22A.11.11,0,0,1,237.78,209.72Z"/><path class="cls-26" d="M238.06,208a.07.07,0,0,1,0,.14A.07.07,0,0,1,238.06,208Z"/><path class="cls-26" d="M238.94,207.43a.08.08,0,1,1,0,.16A.08.08,0,0,1,238.94,207.43Z"/><path class="cls-26" d="M238.5,208.62a.11.11,0,0,1,0,.21A.11.11,0,0,1,238.5,208.62Z"/><path class="cls-26" d="M239.28,207.64c.1,0,.1.17,0,.17A.09.09,0,0,1,239.28,207.64Z"/><path class="cls-26" d="M238.61,208.09s0,0,0,0A0,0,0,0,1,238.61,208.09Z"/><path class="cls-26" d="M239.11,209a.14.14,0,0,1,0,.27A.14.14,0,0,1,239.11,209Z"/><path class="cls-26" d="M238.45,209.52a.14.14,0,0,1,0,.28A.14.14,0,0,1,238.45,209.52Z"/><path class="cls-26" d="M240.05,212.5a.15.15,0,0,1,0,.29A.15.15,0,0,1,240.05,212.5Z"/><path class="cls-26" d="M239.55,213.79a.12.12,0,0,1,0,.24A.12.12,0,0,1,239.55,213.79Z"/><path class="cls-26" d="M240.38,213.36s0,0,0,0a.05.05,0,0,1,0,0l0,0h.07l0,0,0,0a.13.13,0,0,1,0,.06v.11s0,0,0,.05l0,0,0,0h-.07a.05.05,0,0,1-.05,0l0,0a.14.14,0,0,1,0-.06Z"/><path class="cls-26" d="M240.21,211.34a.09.09,0,0,1,0,.17A.09.09,0,0,1,240.21,211.34Z"/><path class="cls-26" d="M239.55,211a.12.12,0,0,1,0,.23A.12.12,0,0,1,239.55,211Z"/><path class="cls-26" d="M239.77,210.6a.06.06,0,0,1,0,.11A.06.06,0,0,1,239.77,210.6Z"/><path class="cls-26" d="M240.45,212s0,0,0,0l0,0h.06l.07,0v0s0,0,0,0v.11a.06.06,0,0,1,0,0l0,0,0,0h-.07a.05.05,0,0,1-.05,0l0,0a.07.07,0,0,1,0,0Z"/><path class="cls-26" d="M239.88,211.59a.12.12,0,0,1,0,.23A.12.12,0,0,1,239.88,211.59Z"/><path class="cls-26" d="M240.43,212.41a.13.13,0,0,1,0,.25A.13.13,0,0,1,240.43,212.41Z"/><path class="cls-26" d="M239.88,213.49a.09.09,0,0,1,0,.18A.09.09,0,0,1,239.88,213.49Z"/><path class="cls-26" d="M238.56,222a.1.1,0,0,1,0,.19A.1.1,0,0,1,238.56,222Z"/><path class="cls-26" d="M239.05,220.82a.16.16,0,1,1,0,.31A.16.16,0,0,1,239.05,220.82Z"/><path class="cls-26" d="M239.7,220.65a.18.18,0,0,1,.08-.07l.05,0,0,0a.11.11,0,0,1,.08,0H240l.07,0,0,0,0,0a.22.22,0,0,1,0,.08.19.19,0,0,1,0,.07l0,.05a.27.27,0,0,1-.07.08.2.2,0,0,1-.11,0h0a.21.21,0,0,1-.1-.06s0,0,0-.06a.31.31,0,0,1,0-.08A.2.2,0,0,1,239.7,220.65Z"/><path class="cls-26" d="M239.53,218.77a.07.07,0,0,1,0-.05l0,0s0,0,0,0h.09a.1.1,0,0,1,.05,0l0,0a.1.1,0,0,1,0,.07v0a.13.13,0,0,1,0,.06l0,0,0,0h-.08l-.07,0,0,0a.14.14,0,0,1,0-.07Z"/><path class="cls-26" d="M239.06,217s0,0,0,0,0,0,0,0h.08s0,0,.05,0l0,0a.13.13,0,0,1,0,.06s0,.05,0,.08v.07s0,0,0,0h-.1s0,0,0,0a.05.05,0,0,1,0,0v0s0-.06,0-.08A.09.09,0,0,1,239.06,217Z"/><path class="cls-26" d="M239.77,215.92a.15.15,0,0,1,0,.29A.15.15,0,0,1,239.77,215.92Z"/><path class="cls-26" d="M239.22,215.12a.07.07,0,0,1,0,.13A.07.07,0,0,1,239.22,215.12Z"/><path class="cls-26" d="M240,214.28a.13.13,0,0,1,0,.26A.13.13,0,0,1,240,214.28Z"/><path class="cls-26" d="M239.29,214.38s0,0,0,0l0,0h.14s0,0,0,0,0,0,0,0,0,0,0,0v0a.05.05,0,0,1,0,0l0,0h-.14l0,0s0,0,0,0a.08.08,0,0,1,0,0Z"/><path class="cls-26" d="M239.73,215.15l0,0,0,0h.07l0,0a.11.11,0,0,1,0,.08v.1s0,0,0,0l0,0,0,0h-.07l-.05,0a.11.11,0,0,1,0-.08v-.1S239.72,215.16,239.73,215.15Z"/><path class="cls-26" d="M239,215.77a.13.13,0,0,1,0,.25A.13.13,0,0,1,239,215.77Z"/><path class="cls-26" d="M239.68,217.61a.13.13,0,0,0,0,.06s0,0,0,0a.08.08,0,0,0,0,0h0l0,0a0,0,0,0,0,0,0l0,0,0,0H240l0,0a.08.08,0,0,0,0,0v0s0,0,0-.06v0a.17.17,0,0,1,0-.07l0-.05,0-.05-.08,0h-.07s0,0,0,0h-.06l0,0a.1.1,0,0,0,0,0l0,0Z"/><path class="cls-26" d="M239.33,218a.18.18,0,0,1,0,.35A.18.18,0,0,1,239.33,218Z"/><path class="cls-26" d="M239.39,216.74l0,0h0l0,0h0a0,0,0,0,1,0,0v0l0,0,0,0h0l0,0a.07.07,0,0,1,0-.05A.06.06,0,0,1,239.39,216.74Z"/><path class="cls-26" d="M238.73,216.08a.23.23,0,0,1,.19-.06.2.2,0,0,1,.09.06h0a.21.21,0,0,1,0,.06.17.17,0,0,1,0,.16.21.21,0,0,1,0,.06l0,0a.19.19,0,0,1-.1,0h0a.19.19,0,0,1-.09,0h0a.16.16,0,0,1-.06-.08A.21.21,0,0,1,238.73,216.08Z"/><path class="cls-26" d="M239.72,216.75a.09.09,0,0,1,0,.18A.09.09,0,0,1,239.72,216.75Z"/><path class="cls-26" d="M240.6,219.66a0,0,0,1,1,0,.09A0,0,0,0,1,240.6,219.66Z"/><path class="cls-26" d="M239.88,219.58a.13.13,0,0,1,0,.26A.13.13,0,0,1,239.88,219.58Z"/><path class="cls-26" d="M240.21,218.88h.12l0,0a.09.09,0,0,1,0,.16l0,0h-.12a.12.12,0,0,1,0-.22Z"/><path class="cls-26" d="M239.5,219.89a.15.15,0,0,1,0,.29A.15.15,0,0,1,239.5,219.89Z"/><path class="cls-26" d="M239.5,219.11c.05,0,.06.09,0,.09A0,0,0,0,1,239.5,219.11Z"/><path class="cls-26" d="M239.2,221.39l0,0h.08l0,0v0s0,0,0,0v.05a0,0,0,0,1,0,0v0l0,0h0l-.06,0h0s0,0,0,0v-.08Z"/><path class="cls-26" d="M237.75,222.15v0l0-.05.06,0H238l.07,0,0,0a.19.19,0,0,1,0,.08.17.17,0,0,1,0,.07.1.1,0,0,1,0,.05l-.07.05h-.14l0,0a.08.08,0,0,1,0,0s0,0,0,0a.13.13,0,0,1,0-.06Z"/><path class="cls-26" d="M238.06,222.53a.11.11,0,1,1,0,.21A.11.11,0,0,1,238.06,222.53Z"/><path class="cls-26" d="M239.39,221.86a.17.17,0,0,1,0,.34A.17.17,0,0,1,239.39,221.86Z"/><path class="cls-26" d="M238.61,221.26a0,0,0,1,1,0,.09A0,0,0,1,1,238.61,221.26Z"/><path class="cls-26" d="M236.35,222.7a.05.05,0,0,1,0,0l0,0a.07.07,0,0,1,.06,0h.1l0,0a.07.07,0,0,1,.05,0s0,0,0,0,0,0,0,0v0s0,0,0,.05a.1.1,0,0,1,0,0l0,0,0,0h-.09l0,0-.05,0,0,0a.17.17,0,0,1,0-.07v-.06A.06.06,0,0,1,236.35,222.7Z"/><path class="cls-26" d="M236,221.33a0,0,0,0,1,0,0l0,0h.09l0,0,.08.08,0,.06a.09.09,0,0,1,0,.07v0a.12.12,0,0,1-.05.05h-.05a0,0,0,0,1,0,0,.11.11,0,0,1-.09-.09l0-.12v0S236,221.34,236,221.33Z"/><path class="cls-26" d="M235.19,221.52a.12.12,0,0,1,0,.24A.12.12,0,0,1,235.19,221.52Z"/><path class="cls-26" d="M235.74,222.27v0l0,0,0,0h.1l0,0s0,0,0,0v0a.08.08,0,0,1,0,.07l0,.06,0,0-.07,0h0l0,0a.09.09,0,0,1,0-.06.08.08,0,0,1,0-.07Z"/><path class="cls-26" d="M236.85,221.84a.19.19,0,0,1,0,.37A.19.19,0,0,1,236.85,221.84Z"/><path class="cls-26" d="M237.33,223a0,0,0,0,1,0,0v0l0,0h0s0,0,0,0h0V223a0,0,0,0,1,0,0v0l0,0h0l-.05,0h0a.08.08,0,0,1,0,0Z"/><path class="cls-26" d="M235.39,220.84l0,0s0,0,.05-.05h.13l0,.05,0,0a.24.24,0,0,1,0,.08.19.19,0,0,1,0,.08.16.16,0,0,1-.14.08.14.14,0,0,1-.13-.08.11.11,0,0,1,0-.08A.13.13,0,0,1,235.39,220.84Z"/><path class="cls-26" d="M235.69,218.91a.14.14,0,0,1,0,.27A.14.14,0,1,1,235.69,218.91Z"/><path class="cls-26" d="M235.61,221.48a.19.19,0,0,1,0-.08l0-.06.06,0a.11.11,0,0,1,.08,0h0l.08.05,0,0a.17.17,0,0,1,0,.1v.05a.08.08,0,0,1,0,.07.16.16,0,0,1,0,.07l-.07,0-.07,0h-.05a.19.19,0,0,1-.09-.05l0,0a.19.19,0,0,1,0-.1Z"/><path class="cls-26" d="M236.29,222.27a.09.09,0,0,1,0,.18A.09.09,0,0,1,236.29,222.27Z"/><path class="cls-26" d="M237.18,222.19a.17.17,0,0,1,0,.33A.17.17,0,0,1,237.18,222.19Z"/><path class="cls-26" d="M235.36,219.76c.07,0,.07.12,0,.12A.06.06,0,0,1,235.36,219.76Z"/><path class="cls-26" d="M235.85,219.84v0l0,0,0,0h.12a.07.07,0,0,1,.06,0l0,0a.14.14,0,0,1,0,.06.07.07,0,0,1,0,0l0,.05-.06,0h-.12l0,0s0,0,0,0,0,0,0,0,0,0,0,0Z"/><path class="cls-26" d="M234.94,220.34v0l0,0,0,0h.1l0,0,0,0,0,.05v0a.14.14,0,0,1,0,.09.25.25,0,0,1,0,.07l0,0-.08,0H235l-.05,0a.25.25,0,0,1,0-.07.14.14,0,0,1,0-.09Z"/><path class="cls-26" d="M235.12,219.05l0-.05,0,0,0,0h.06l0,0,0,0,0,0,0,0v.06a0,0,0,0,1,0,0l0,0,0,0,0,0h-.12l0,0,0,0,0,0v-.06A0,0,0,0,1,235.12,219.05Z"/><path class="cls-26" d="M236.18,218.11a.17.17,0,0,1,0,.33A.17.17,0,0,1,236.18,218.11Z"/><path class="cls-26" d="M235.41,218.14a.13.13,0,0,1,0,.26A.13.13,0,0,1,235.41,218.14Z"/><path class="cls-26" d="M235.91,216.67a.11.11,0,0,1,0,.22A.11.11,0,1,1,235.91,216.67Z"/><path class="cls-26" d="M236.4,216a0,0,0,0,1,0,0,.08.08,0,0,0,0,0l0,0,0,0h.09l.05,0,.06.05s0,0,0,0a.13.13,0,0,1,0,.1s0,0,0,0l0,0h-.1l-.05,0,0-.06h0a.08.08,0,0,1-.08.06C236.3,216.2,236.3,216,236.4,216Z"/><path class="cls-26" d="M236.18,213.72a.08.08,0,1,1,0,.16A.08.08,0,0,1,236.18,213.72Z"/><path class="cls-26" d="M235.47,213.82a.09.09,0,0,1,0,.18A.09.09,0,0,1,235.47,213.82Z"/><path class="cls-26" d="M235.36,211.75a.14.14,0,0,0,0,.06l0,0,0,0h.1a.09.09,0,0,0,.06,0v0a.14.14,0,0,0,0-.06.14.14,0,0,0,0-.07l-.05-.05h-.1s-.05,0-.06,0a0,0,0,0,0,0,0A.07.07,0,0,0,235.36,211.75Z"/><path class="cls-26" d="M233.26,211a.17.17,0,0,1,0,.33A.17.17,0,0,1,233.26,211Z"/><path class="cls-26" d="M231.49,211.8a.18.18,0,1,1,0,.36A.18.18,0,0,1,231.49,211.8Z"/><path class="cls-26" d="M231.77,215.58a.1.1,0,0,1,0,.2A.1.1,0,0,1,231.77,215.58Z"/><path class="cls-26" d="M232.1,218.39a0,0,0,0,1,0,.09A0,0,0,0,1,232.1,218.39Z"/><path class="cls-26" d="M230.53,218.68s0,0,0,0l0,0h0a.07.07,0,0,1,.06,0,.09.09,0,0,1,0,.06v.15l0,0,0,0h0a.07.07,0,0,1-.06,0h0s0,0,0-.05v-.11A0,0,0,0,1,230.53,218.68Z"/><path class="cls-26" d="M229.34,217a.09.09,0,0,1,0,.17A.09.09,0,0,1,229.34,217Z"/><path class="cls-26" d="M227.19,217.68a.1.1,0,0,1,0,.19A.1.1,0,1,1,227.19,217.68Z"/><path class="cls-26" d="M227,219.52a.08.08,0,0,1,0,.15A.08.08,0,0,1,227,219.52Z"/><path class="cls-26" d="M225.78,221.59a.1.1,0,0,1,.08-.05.11.11,0,0,1,.09.05.13.13,0,0,1,0,.1l0,0a.07.07,0,0,1-.06,0,.08.08,0,0,1-.06,0l0,0s0,0,0-.05S225.77,221.61,225.78,221.59Z"/><path class="cls-26" d="M225.09,222.88a.09.09,0,0,1,0,.17A.09.09,0,0,1,225.09,222.88Z"/><path class="cls-26" d="M226.69,221.79s0,0,0,0S226.66,221.79,226.69,221.79Z"/><path class="cls-26" d="M225.76,222.44v0l0,0,0,0,0,0H226a.05.05,0,0,1,.05,0l0,0a.14.14,0,0,1,0,.07.11.11,0,0,1,0,.05l0,0-.05,0h-.07l0,0h0l0,0s0,0,0,0a.06.06,0,0,1,0,0Z"/><path class="cls-26" d="M226.48,221.28v0s0,0,0,0l0,0h.09l0,0,0,0,0,.05a.08.08,0,0,1,0,.07l0,0,0,0-.06,0h-.05l0,0,0,0a.08.08,0,0,1,0-.07Z"/><path class="cls-26" d="M226,219.9h0v0a.13.13,0,0,1,0-.07l.07,0h.07a.17.17,0,0,1,.1,0,.16.16,0,0,1,.07.07.17.17,0,0,1,0,.1h0a.14.14,0,0,1,0,.07.05.05,0,0,1,0,0l0,0a.11.11,0,0,1-.08,0h0a.2.2,0,0,1-.11,0l0,0,0,0a.24.24,0,0,1,0-.08A.11.11,0,0,1,226,219.9Z"/><path class="cls-26" d="M226.9,220.47v0a.13.13,0,0,0,0,.06.12.12,0,0,0,.12,0h0s0,0,.06,0h.08l0,0,0,0s0,0,0,0a.13.13,0,0,0,0-.06v-.05l0,0,0,0h0l0,0h0l0,0h-.1a.12.12,0,0,0-.09.05l0,0h0s0,0,0,.05h0v.06Z"/><polygon class="cls-26" points="227.16 220.59 227.16 220.59 227.17 220.59 227.16 220.59"/><path class="cls-26" d="M227.16,220.6h0Z"/><path class="cls-26" d="M226.25,220.82a.11.11,0,0,1,0,.21A.11.11,0,0,1,226.25,220.82Z"/><path class="cls-26" d="M226.58,218.8a.14.14,0,0,1,0,.27A.14.14,0,0,1,226.58,218.8Z"/><path class="cls-26" d="M227.53,218.69v0l0,0,0,0h.05a.06.06,0,0,1,.06,0,.05.05,0,0,1,0,0l0,0s0,0,0,.05,0,0,0,0l0,0a.05.05,0,0,1,0,0,.06.06,0,0,1-.06,0h-.07l0,0v0s0,0,0,0Z"/><path class="cls-26" d="M227,218a.16.16,0,0,1,0,.31A.16.16,0,1,1,227,218Z"/><path class="cls-26" d="M227.07,219.05a.14.14,0,0,1,0-.07s0,0,0-.06l.06,0,.06,0h0l.07,0,0,0a.24.24,0,0,1,0,.09l0,.11a.25.25,0,0,1,0,.07l0,.06a.09.09,0,0,1-.06,0l-.07,0h-.05l-.08,0,0,0a.29.29,0,0,1,0-.09Z"/><path class="cls-26" d="M228.07,217.77a.17.17,0,0,1,0,.34A.17.17,0,0,1,228.07,217.77Z"/><path class="cls-26" d="M228,217a.1.1,0,0,1,0,.21A.1.1,0,0,1,228,217Z"/><path class="cls-26" d="M229.39,218.13a.14.14,0,0,1,0,.28A.14.14,0,0,1,229.39,218.13Z"/><path class="cls-26" d="M228.79,217.13a.1.1,0,0,1,0,.19A.1.1,0,0,1,228.79,217.13Z"/><path class="cls-26" d="M228.61,217.93a.1.1,0,0,1,.15,0l0,0a.14.14,0,1,1-.19.19l0,0A.09.09,0,0,1,228.61,217.93Z"/><path class="cls-26" d="M229.62,217.65a.13.13,0,0,1,0,.25A.13.13,0,0,1,229.62,217.65Z"/><path class="cls-26" d="M229.77,219.08a.21.21,0,0,1,0-.06l0,0,0,0h.1l.06,0,0,0,0,0,0,0a.11.11,0,0,1,0,.08.09.09,0,0,1,0,0,.08.08,0,0,1,0,0s0,0,0,0,0,0,0,0l-.07,0h0l-.05,0,0,0,0,0,0,0a.22.22,0,0,1,0-.08A.09.09,0,0,1,229.77,219.08Z"/><path class="cls-26" d="M231.16,218a.13.13,0,0,1,0,.26A.13.13,0,0,1,231.16,218Z"/><path class="cls-26" d="M231.46,219.36s0,0,0,0a0,0,0,0,1,0,0,.07.07,0,0,1,.06,0s0,0,.06,0l.06.1s0,0,0,0v0s0,0,0,0l0,0a.08.08,0,0,1-.07,0h0l0,0-.05-.12a0,0,0,0,1,0,0Z"/><path class="cls-26" d="M232.1,217.52v0l0,0h.13l0,0a.08.08,0,0,1,0,0l0,.06v.06a.09.09,0,0,1,0,.06l0,0-.07,0h-.05s0,0,0,0a.09.09,0,0,1,0-.06v-.06Z"/><path class="cls-26" d="M231.6,216.75a.14.14,0,0,1,0,.28A.14.14,0,0,1,231.6,216.75Z"/><path class="cls-26" d="M231.77,218.21c.07,0,.07.12,0,.12A.06.06,0,0,1,231.77,218.21Z"/><path class="cls-26" d="M231,218.93l0-.05.07,0h.08l.05,0h0l0,0,0,0a.07.07,0,0,1,0,.05v.07s0,0,0,0l-.05,0-.05,0h-.08l-.07,0,0,0a.24.24,0,0,1,0-.08A.13.13,0,0,1,231,218.93Z"/><path class="cls-26" d="M230.61,219.49a.11.11,0,0,1,0,.21A.11.11,0,1,1,230.61,219.49Z"/><path class="cls-26" d="M229.73,218.48a.13.13,0,0,1,0,.25A.13.13,0,0,1,229.73,218.48Z"/><path class="cls-26" d="M230.18,217.93a.08.08,0,0,1,0,0l0,0a.05.05,0,0,1,0,0h.11l0,0,0,0,0,0,0,0s0,.05,0,.07a.06.06,0,0,1,0,0l0,.06,0,0,0,0h-.09a.06.06,0,0,1-.06,0l0,0,0,0,0,0a.08.08,0,0,1,0-.07A.06.06,0,0,1,230.18,217.93Z"/><path class="cls-26" d="M229.06,217.27a.17.17,0,0,1,0,.34A.17.17,0,0,1,229.06,217.27Z"/><path class="cls-26" d="M227.52,217.52a.15.15,0,0,1,0,.29A.15.15,0,0,1,227.52,217.52Z"/><path class="cls-26" d="M231.38,217.38a.18.18,0,0,1,0,.35A.18.18,0,0,1,231.38,217.38Z"/><path class="cls-26" d="M232,216.69l0,0,.06-.05a.1.1,0,0,1,.07,0,.11.11,0,0,1,.08,0,.12.12,0,0,1,.05.05l0,0a.16.16,0,0,1,0,.09.12.12,0,0,1,0,.09.18.18,0,0,1-.16.1.18.18,0,0,1-.15-.1.12.12,0,0,1,0-.09A.16.16,0,0,1,232,216.69Z"/><path class="cls-26" d="M231.44,215.79a.17.17,0,0,1,0,.33A.17.17,0,0,1,231.44,215.79Z"/><path class="cls-26" d="M231.49,214.31a.1.1,0,0,1,0,.2A.1.1,0,0,1,231.49,214.31Z"/><path class="cls-26" d="M231.53,214.74a.09.09,0,0,1,0-.05.14.14,0,0,1,.15,0h0l0,0s0,0,0,0,0,0,0,0a.11.11,0,0,1,0,0v0l0,0,0,0-.05,0h-.12l-.07,0,0,0a.11.11,0,0,1,0-.08A.07.07,0,0,1,231.53,214.74Z"/><path class="cls-26" d="M231.38,215a.17.17,0,0,1,0,.33A.17.17,0,0,1,231.38,215Z"/><path class="cls-26" d="M231.27,213.62a.13.13,0,0,1,0,.26A.13.13,0,0,1,231.27,213.62Z"/><path class="cls-26" d="M231.71,213.21a.1.1,0,0,1,0,.19C231.6,213.4,231.6,213.21,231.71,213.21Z"/><path class="cls-26" d="M231.38,212.44a.15.15,0,0,1,0,.29A.15.15,0,0,1,231.38,212.44Z"/><path class="cls-26" d="M231.82,212.57a.13.13,0,0,1,0,.25A.13.13,0,0,1,231.82,212.57Z"/><path class="cls-26" d="M231,213.37l0-.07,0,0,.08,0h0l.06,0s0,0,.05,0l0,.05a.07.07,0,0,1,0,0v0a.16.16,0,0,1,0,.07l0,0-.08,0h-.11l-.06,0,0-.05a.15.15,0,0,1,0-.07Z"/><path class="cls-26" d="M231.8,211.34l0,0s0,0,0,0h0s0,0,.05,0H232a.08.08,0,0,1,0,0l0,.05v0a.11.11,0,0,1,0,.08s0,.05,0,.06l0,0-.08,0h-.05a.1.1,0,0,1,0,0s0,0,0-.06a.11.11,0,0,1,0-.08Z"/><path class="cls-26" d="M232.43,210.44a.1.1,0,1,1,0,.21A.1.1,0,0,1,232.43,210.44Z"/><path class="cls-26" d="M234.09,210.87a.17.17,0,0,1,0,.34A.17.17,0,0,1,234.09,210.87Z"/><path class="cls-26" d="M234.2,211.89a.15.15,0,0,1,0,.29A.15.15,0,0,1,234.2,211.89Z"/><path class="cls-26" d="M235.39,211a.14.14,0,0,1,0-.07l0-.06a.09.09,0,0,1,.06,0h.13a.09.09,0,0,1,.06,0l0,0a.16.16,0,0,1,0,.09v0a.35.35,0,0,1-.05.08l0,0s0,0-.07,0h-.11a.1.1,0,0,1-.05,0,.05.05,0,0,1,0-.05v0h0Z"/><path class="cls-26" d="M235,212.06l0-.08a.12.12,0,0,1,.05,0h.11a.12.12,0,0,1,.05,0l0,.08a.29.29,0,0,1,0,.09.31.31,0,0,1,0,.08.17.17,0,0,1-.14.08.18.18,0,0,1-.15-.08.31.31,0,0,1,0-.08A.29.29,0,0,1,235,212.06Z"/><path class="cls-26" d="M234.91,211.14a.12.12,0,0,1,0,.24A.12.12,0,0,1,234.91,211.14Z"/><path class="cls-26" d="M234.86,210.56l0-.06a.1.1,0,0,1,.08-.05h0l0,0,0,0a0,0,0,0,1,0,0,.09.09,0,0,1,0,.08l-.07,0h-.08v0h0v0A0,0,0,0,1,234.86,210.56Z"/><path class="cls-26" d="M234.2,211.46a.13.13,0,0,1,0,.26A.13.13,0,0,1,234.2,211.46Z"/><path class="cls-26" d="M233.87,210.3a.14.14,0,0,1,0,.27A.14.14,0,0,1,233.87,210.3Z"/><path class="cls-26" d="M233,210.34a.1.1,0,0,1,0,.19A.1.1,0,1,1,233,210.34Z"/><path class="cls-26" d="M232.48,211l0,0,0,0h.08l.05,0,0,0a.07.07,0,0,1,0,.06v.06a.06.06,0,0,1,0,0s0,0,0,0,0,0,0,0h-.08a.1.1,0,0,1-.05,0l0,0a.14.14,0,0,1,0-.06V211A.09.09,0,0,1,232.48,211Z"/><path class="cls-26" d="M232.6,211.32a.17.17,0,0,1,0,.33A.17.17,0,0,1,232.6,211.32Z"/><path class="cls-26" d="M235.18,212.83a.41.41,0,0,1,0-.09l.07,0,.08,0a.19.19,0,0,1,.1,0,.23.23,0,0,1,.07.07h0l0,.05a.25.25,0,0,1,0,.08.08.08,0,0,1,0,.05.16.16,0,0,1,0,.07l0,0,0,0h-.08l-.07,0h0a.27.27,0,0,1-.08-.07.43.43,0,0,1,0-.11Z"/><path class="cls-26" d="M236,211.88a.12.12,0,0,1,0-.08h0a.12.12,0,0,1,.08,0h.07l.06,0a.23.23,0,0,1,.07.07h0a.06.06,0,0,1,0,0,0,0,0,0,1,0,0,.07.07,0,0,1,0,.05v0a.23.23,0,0,1-.07.07l-.06,0h-.07a.12.12,0,0,1-.08,0h0l0-.06a.15.15,0,0,1,0-.07Z"/><path class="cls-26" d="M236.14,212.49a.08.08,0,0,1,0,0h0l.06,0h0l0,0,.05.06,0,0s0,0,0,.05v0l0,0h0l-.06,0h0l0,0-.06-.06a.05.05,0,0,1,0,0s0,0,0,0A.06.06,0,0,1,236.14,212.49Z"/><path class="cls-26" d="M235.76,213.32l0,0,0,0,0,0h0s0,0,.05,0l.06.05,0,0a.08.08,0,0,1,0,0,.09.09,0,0,1,0,.05l0,0,0,0-.05,0h0a.05.05,0,0,1,0,0l-.05-.06,0,0a.09.09,0,0,1,0-.08Z"/><path class="cls-26" d="M236.46,212.79a.13.13,0,0,1,0,.25A.13.13,0,0,1,236.46,212.79Z"/><path class="cls-26" d="M236.46,213.69a.11.11,0,0,1,0,.22A.11.11,0,0,1,236.46,213.69Z"/><path class="cls-26" d="M235.91,214.6a.14.14,0,0,1,0,.28A.14.14,0,1,1,235.91,214.6Z"/><path class="cls-26" d="M235.85,215.75a.1.1,0,0,1,0,.19C235.74,215.94,235.73,215.75,235.85,215.75Z"/><path class="cls-26" d="M236.57,214.61a.13.13,0,0,1,0,.26A.13.13,0,0,1,236.57,214.61Z"/><path class="cls-26" d="M235.85,214.93a.13.13,0,0,1,.14.11h.08l.22.11s0,0,0,.06a.09.09,0,0,1,0,.07.07.07,0,0,1,0,0,.11.11,0,0,1-.08,0l-.22-.11s0,0,0,0a.11.11,0,0,1-.1,0A.14.14,0,0,1,235.85,214.93Z"/><path class="cls-26" d="M236,217.36a.14.14,0,1,1,0,.28A.14.14,0,0,1,236,217.36Z"/><path class="cls-26" d="M236.46,217a.05.05,0,1,1,0,.1A.05.05,0,1,1,236.46,217Z"/><path class="cls-26" d="M236.63,215.24a.11.11,0,0,1,0,.21A.11.11,0,0,1,236.63,215.24Z"/><path class="cls-26" d="M235.48,217.2v0l0,0s0,0,0,0h.09l0,0a.05.05,0,0,1,0,0l0,.05a.06.06,0,0,1,0,.06.09.09,0,0,1,0,.05l0,0-.06,0h-.05l0,0,0-.05v-.06Z"/><path class="cls-26" d="M238.29,222.76l0,0,.06-.06.08,0,.08,0,.05.06,0,0a.29.29,0,0,1,0,.09.3.3,0,0,1,0,.1.22.22,0,0,1-.16.09.19.19,0,0,1-.16-.09.17.17,0,0,1,0-.1A.16.16,0,0,1,238.29,222.76Z"/><path class="cls-26" d="M267.73,207.92a2.53,2.53,0,0,1-.32-1.17,1.27,1.27,0,0,1,.49-.93,2,2,0,0,1,2.18,0c.46.23.86.57,1.34.76a1.85,1.85,0,0,0,1.37.06c.09,0,.18.11.1.18-.74.59-1.54,0-2.2-.4s-1.7-.83-2.48-.28,0,1.57.13,2.29a3.07,3.07,0,0,1-.41,2.38c-.14.21-.46,0-.33-.19A2.76,2.76,0,0,0,267.73,207.92Z"/><path class="cls-26" d="M269.43,209.22c.2-.29.05-.57,0-.88a.77.77,0,0,1,.28-.82.48.48,0,0,1,.45,0,3.49,3.49,0,0,0,.44.2,1.38,1.38,0,0,0,.49.06,1,1,0,0,0,.25,0l.13,0h0a.11.11,0,0,1,0,0c.06-.07.17,0,.2.06s-.11.22-.22.26a1.62,1.62,0,0,1-.9.06,1.42,1.42,0,0,1-.4-.17c-.1-.06-.23-.17-.35-.11-.29.16-.1.55,0,.77a1.14,1.14,0,0,1,.09.48.69.69,0,0,1-.05.24.4.4,0,0,1-.18.21C269.53,209.55,269.34,209.35,269.43,209.22Z"/><path class="cls-26" d="M266.18,211.72a2.16,2.16,0,0,0,.57-2.21,11.29,11.29,0,0,1-.22-1.92,3.92,3.92,0,0,1,1.19-3.15,2.45,2.45,0,0,1,2.78-.39c.59.31,1.1.73,1.7,1a4.18,4.18,0,0,0,1,.36c.36.08.72,0,1.07.09a.16.16,0,0,1,0,.29,2.22,2.22,0,0,1-1.62-.08,7.05,7.05,0,0,1-1.69-.85,2.66,2.66,0,0,0-1.75-.65,2.41,2.41,0,0,0-1.5.87c-.9,1.08-.79,2.6-.62,3.9.13,1,.25,2.41-.92,2.77C266.16,211.79,266.15,211.74,266.18,211.72Z"/><path class="cls-26" d="M258.86,198.53Z"/><path class="cls-26" d="M258.52,198.58a.52.52,0,0,0,.29.49.75.75,0,0,0,.3.09.29.29,0,0,0,.36-.4.66.66,0,0,0-.06-.2.5.5,0,0,0-.13-.21.22.22,0,0,0-.13-.06.31.31,0,0,0-.24-.08.35.35,0,0,0-.26.1A.39.39,0,0,0,258.52,198.58Zm.34.12,0,0s0,0,0-.05v0h0v0h0v0s0,0,0,0h.09s0,0,0,0h0l.06,0h.1s0,0,0,.05h0v0a.36.36,0,0,1,0,.11.13.13,0,0,0,0,.06h0v.06h-.09l-.07,0h0l-.06,0s0,0,0,0h0s0,0,0,0h0Z"/><path class="cls-26" d="M257.63,198.07a1.52,1.52,0,0,1,1-.87,1.26,1.26,0,0,1,1.2.3.14.14,0,0,1,0,.23,1.6,1.6,0,0,1,.63.79,1.34,1.34,0,0,1-.32,1.37,1.14,1.14,0,0,1-1.47,0,1.57,1.57,0,0,1-.63-1.48.85.85,0,0,1,1.22-.62.12.12,0,0,1-.12.2c-.34-.2-.72.11-.78.45a1.31,1.31,0,0,0,.5,1.12.77.77,0,0,0,1,.06.91.91,0,0,0,.27-.91,1.84,1.84,0,0,0-.88-1,.11.11,0,0,1,0-.18,1.16,1.16,0,0,0-1.17.64,1.57,1.57,0,0,0,.31,1.8,2.07,2.07,0,0,0,1.86.47,1.07,1.07,0,0,0,.77-.56,1.52,1.52,0,0,0,0-1.07,2.42,2.42,0,0,0-1.42-1.53.07.07,0,0,1,0-.13,2.39,2.39,0,0,1,1.64,1.48,1.92,1.92,0,0,1,.06,1.25,1.26,1.26,0,0,1-.76.77,2.41,2.41,0,0,1-2.36-.35A1.9,1.9,0,0,1,257.63,198.07Z"/><path class="cls-26" d="M256,205.61a5.13,5.13,0,0,1,.34-.66,3.92,3.92,0,0,1,.51-.57c.36-.35.75-.65,1.12-1a3.91,3.91,0,0,0,1-1.16,1.33,1.33,0,0,0,.12-.53,3.11,3.11,0,0,0,1.18.12,3,3,0,0,0,.73-.19c0,.11,0,.21,0,.32a1.68,1.68,0,0,1-.22.6,3.39,3.39,0,0,1-.89.92c-.33.26-.68.49-1,.78a2.28,2.28,0,0,0-.74,1c-.08.24.26.36.39.16a4.6,4.6,0,0,1,.4-.58,4.89,4.89,0,0,1,.46-.45c.35-.3.72-.56,1.05-.87a3,3,0,0,0,.73-1,1.31,1.31,0,0,0,.07-.91,2.3,2.3,0,0,0,1.31-1.78,2.66,2.66,0,0,0-1-2.27.25.25,0,0,0,.16-.16c.31-1-.1-2,.23-3a8.34,8.34,0,0,1,1.33-2.16c1-1.35,1.94-3.16.95-4.79a.08.08,0,0,0-.14.06,4.31,4.31,0,0,1-.06,3.16,9.83,9.83,0,0,1-1.41,2,6.67,6.67,0,0,0-1.13,1.85c-.3.84,0,1.72-.25,2.55a2.81,2.81,0,0,0-.63-.3.2.2,0,0,0,0-.07,2.93,2.93,0,0,1,.14-2.55,15.81,15.81,0,0,1,1.47-2.16,5,5,0,0,0,1-2.22,2,2,0,0,0-.52-1.8.07.07,0,0,0-.12.07,3.21,3.21,0,0,1,0,2.47,10.59,10.59,0,0,1-1.55,2.21c-.8,1-1.66,2.62-.94,3.88a3.32,3.32,0,0,0-.83-.11l-.37,0c0-.32-.07-.63-.06-1a4.68,4.68,0,0,1,.22-1.22,7.09,7.09,0,0,1,1.08-2c.79-1.07,1.8-2.37,1.4-3.79a.17.17,0,0,0-.33.09c.46,1.7-1,2.88-1.89,4.08a4.81,4.81,0,0,0-.89,2,4,4,0,0,0,0,1.92,2.75,2.75,0,0,0-.79.51,3,3,0,0,0-.87,1.45,1.76,1.76,0,0,0,.41,1.72,4.45,4.45,0,0,0,1.69,1.25.71.71,0,0,1-.08.45,2.84,2.84,0,0,1-.41.57,9,9,0,0,1-1,.9,4.11,4.11,0,0,0-1.6,2C255.7,205.65,255.93,205.76,256,205.61Zm2.63-4.53s0,0,0,0h0a4,4,0,0,1-1.35-1.21c-.59-.86.13-2.1.89-2.61a2.09,2.09,0,0,1,1.44-.32,4.1,4.1,0,0,1,.83.23,4,4,0,0,0,.81.31h.05l.07,0A2.5,2.5,0,0,1,262,200a2.15,2.15,0,0,1-2.21,1.39A2.91,2.91,0,0,1,258.63,201.08Z"/><path class="cls-26" d="M257,205.24a3.34,3.34,0,0,1,1.16-1.72c.29-.24.6-.47.9-.69l.43-.34a1.07,1.07,0,0,0,.38-.41c0-.05.08,0,.07,0a1.31,1.31,0,0,1-.49.79l-.88.74a3.59,3.59,0,0,0-1.2,1.7A.19.19,0,0,1,257,205.24Z"/><path class="cls-26" d="M255.28,205a.16.16,0,0,1,0,.31A.16.16,0,0,1,255.28,205Z"/><path class="cls-26" d="M256.41,203.42a.18.18,0,0,1,0,.35A.18.18,0,0,1,256.41,203.42Z"/><path class="cls-26" d="M257.2,202.11l0,0,0,0,0,0,.06,0h.07l.05,0s0,0,0,.05l0,.06a.14.14,0,0,1,0,.09.2.2,0,0,1,0,.08l0,0a.11.11,0,0,1-.08,0l-.07,0a.09.09,0,0,1,0,0,.22.22,0,0,1-.05-.08v-.09Z"/><path class="cls-26" d="M255.85,204.12l0-.05,0,0,0,0h.12l.05,0a.12.12,0,0,1,.05.05.09.09,0,0,1,0,.07.15.15,0,0,1,0,.07v.16a.08.08,0,0,1,0,.07.18.18,0,0,1-.1.1.08.08,0,0,1-.07,0h0a.14.14,0,0,1-.08-.05.16.16,0,0,1-.06-.13v-.16A.15.15,0,0,1,255.85,204.12Z"/><path class="cls-26" d="M257,202.7a.09.09,0,0,1,0,.17C256.93,202.87,256.92,202.7,257,202.7Z"/><path class="cls-26" d="M257.16,201.11a.17.17,0,0,1,0,.33A.17.17,0,0,1,257.16,201.11Z"/><path class="cls-26" d="M256.36,199.83a.06.06,0,0,1,0,0l0,0,0,0h0a.11.11,0,0,1,.08,0l0,0a.07.07,0,0,1,0,.05V200l0,0,0,0h-.08a.05.05,0,0,1-.05,0,.12.12,0,0,1,0-.08Z"/><path class="cls-26" d="M256.26,198.53l0,0,.07-.05h.08l0,0h0v.06a0,0,0,0,1,0,0l-.05.07,0,0-.05,0h0l-.05,0s0,0,0,0v0A.07.07,0,0,1,256.26,198.53Z"/><path class="cls-26" d="M256.91,197.24a.15.15,0,0,1,0,.3A.15.15,0,0,1,256.91,197.24Z"/><path class="cls-26" d="M257.44,196.41l0,0,.06-.06.08,0,.08,0a.17.17,0,0,1,.06.06l0,0a.17.17,0,0,1,0,.1.16.16,0,0,1,0,.09.18.18,0,0,1-.32,0,.16.16,0,0,1,0-.09A.17.17,0,0,1,257.44,196.41Z"/><path class="cls-26" d="M257.79,194.88l0,0a.16.16,0,0,1,.09,0l.07,0,.06,0a.1.1,0,0,1,0,.07.17.17,0,0,1,0,.1v.06l0,0,0,0,0,0-.07,0h-.08l-.05-.05a.08.08,0,0,1,0,0l0-.06a.17.17,0,0,1,0-.1A.18.18,0,0,1,257.79,194.88Z"/><path class="cls-26" d="M258,193.69a.15.15,0,0,1,0-.07.09.09,0,0,1,0-.06s0,0,.06,0a.12.12,0,0,1,.08,0h0a.14.14,0,0,1,.08.05l0,0a.19.19,0,0,1,0,.1v.06a.17.17,0,0,1,0,.07.43.43,0,0,1,0,.07l-.07,0h-.13l-.08-.05,0,0a.19.19,0,0,1,0-.1Z"/><path class="cls-26" d="M258.67,192.54a.14.14,0,0,1,0,.28A.14.14,0,0,1,258.67,192.54Z"/><path class="cls-26" d="M259.67,191.39a.16.16,0,0,1,0,.32A.16.16,0,0,1,259.67,191.39Z"/><path class="cls-26" d="M260.16,190.65l0-.06h0l0,0h.06l0,0,0,.06a.08.08,0,0,1,0,.08l-.06,0h-.05A.08.08,0,0,1,260.16,190.65Z"/><path class="cls-26" d="M260.59,189.38a.16.16,0,0,1,0-.07h0l.06,0h.11a.18.18,0,0,1,.07.05l0,0s0,0,0,.05a.08.08,0,0,1,0,0v0l0,.06,0,0a.09.09,0,0,1-.05,0l-.07,0h0l-.08,0v0l0,0a.13.13,0,0,1,0-.06Z"/><path class="cls-26" d="M264.73,187.24a.1.1,0,0,1,0-.07h0a.1.1,0,0,1,.05,0h.11a.1.1,0,0,1,.07,0l0,0a.05.05,0,0,1,0,0s0,0,0,0v0l0,.05,0,0a.05.05,0,0,1-.05,0l-.07,0h0l-.07,0h0l0-.05a.15.15,0,0,1,0-.07Z"/><path class="cls-26" d="M265.19,188.33a.15.15,0,0,1,0,.29A.15.15,0,0,1,265.19,188.33Z"/><path class="cls-26" d="M265,189.85a.33.33,0,0,1,.07-.13l.06,0a.28.28,0,0,1,.13,0,.2.2,0,0,1,.11,0l.09.05a.47.47,0,0,1,.06.09.43.43,0,0,1,0,.11V190a.24.24,0,0,1-.07.12l-.06,0a.32.32,0,0,1-.14,0,.12.12,0,0,1-.1,0A.28.28,0,0,1,265,190a.3.3,0,0,1,0-.1Z"/><path class="cls-26" d="M264.69,191.27a.22.22,0,0,1,0,.44A.22.22,0,0,1,264.69,191.27Z"/><path class="cls-26" d="M263.94,193.15a.22.22,0,0,1,0,.44A.22.22,0,0,1,263.94,193.15Z"/><path class="cls-26" d="M262.58,194.38a.24.24,0,0,1,.06-.11l.05,0a.25.25,0,0,1,.12,0l.09,0a.1.1,0,0,1,.07,0,.18.18,0,0,1,0,.08.15.15,0,0,1,0,.09v.06a.24.24,0,0,1-.06.11l0,0a.28.28,0,0,1-.12,0l-.09,0-.08,0a.22.22,0,0,1-.05-.08.29.29,0,0,1,0-.09Z"/><path class="cls-26" d="M262.51,195.82a.2.2,0,0,1,.06-.11l.05,0,.12,0a.16.16,0,0,1,.1,0l.08.05a.22.22,0,0,1,.05.08.29.29,0,0,1,0,.09v.06a.2.2,0,0,1-.06.11l-.05,0a.28.28,0,0,1-.13,0,.15.15,0,0,1-.09,0l-.08,0a.22.22,0,0,1-.05-.08.29.29,0,0,1,0-.09Z"/><path class="cls-26" d="M262.49,197.06a.2.2,0,0,1,0,.4A.2.2,0,0,1,262.49,197.06Z"/><path class="cls-31" d="M263,198.65s0,0,0,0"/><path class="cls-26" d="M263,198.51a.07.07,0,0,1,0,.14A.07.07,0,1,1,263,198.51Z"/><path class="cls-26" d="M263.07,199.64a.24.24,0,0,1,.06-.11l.08-.05a.16.16,0,0,1,.1,0,.24.24,0,0,1,.12,0,.2.2,0,0,1,.09.09l0,.08,0,.05a.14.14,0,0,1,0,.09.07.07,0,0,1,0,0,.12.12,0,0,1-.05.07l0,0-.05,0a.14.14,0,0,1-.09,0l-.08,0-.08,0a.38.38,0,0,1-.09-.09.27.27,0,0,1,0-.12Z"/><path class="cls-26" d="M262.84,201.06a.13.13,0,0,1,.07-.06l0,0a.17.17,0,0,1,.1,0,.21.21,0,0,1,.2.2.22.22,0,0,1-.1.18l-.1,0-.1,0,0,0a.13.13,0,0,1-.07-.06.21.21,0,0,1,0-.18Z"/><path class="cls-26" d="M262,202l0,0s0,0,0-.05h0l0,0,.06-.07.06,0h.12l.07,0,0,0a.16.16,0,0,1,0,.07v.05a.29.29,0,0,1,0,.09l0,.08c0,.05-.05.11-.11.14a.18.18,0,0,1-.2,0,.16.16,0,0,1-.07-.07.19.19,0,0,1,0-.1Z"/><path class="cls-26" d="M261.57,203.58v0a.11.11,0,0,1,.18,0v0h0a.09.09,0,0,1,0,.05h0v0h0v0l0,0,0,0h-.13l0,0a.08.08,0,0,1,0,0v-.07h0A.06.06,0,0,1,261.57,203.58Z"/><path class="cls-26" d="M260.46,204.5l0,0,0-.05.06,0,.05,0a.14.14,0,0,1,.09,0l.08,0,0,0a.14.14,0,0,1,0,.09.19.19,0,0,1,0,.07.21.21,0,0,1,0,.06l-.08.05h-.09l-.05,0,0,0-.05,0,0,0a.13.13,0,0,1,0-.06Z"/><path class="cls-26" d="M259.41,205.36a.24.24,0,0,1,.06-.09l0,0a.17.17,0,0,1,.1,0l.08,0,.06,0a.1.1,0,0,1,0,.07.11.11,0,0,1,0,.08v.05a.2.2,0,0,1-.05.09l0,0a.19.19,0,0,1-.1,0l-.08,0s0,0-.06,0a.18.18,0,0,1-.05-.07.17.17,0,0,1,0-.07Z"/><path class="cls-26" d="M207.81,220.9a.33.33,0,0,1,.07-.13l.06-.05a.42.42,0,0,1,.15,0l.12,0a.28.28,0,0,1,.15.15.27.27,0,0,1,0,.12v.08a.35.35,0,0,1-.08.13l-.06,0a.24.24,0,0,1-.15,0,.2.2,0,0,1-.11,0,.21.21,0,0,1-.1-.06l-.06-.1a.36.36,0,0,1,0-.11Z"/><path class="cls-26" d="M206.3,221.1l0,0,0-.05,0,0,.05,0h.16l.07.05,0,0a.16.16,0,0,1,0,.07.19.19,0,0,1,0,.08v.05a.41.41,0,0,1-.05.09l0,0-.05,0,0,0h-.1l-.06,0s0,0-.05,0a.08.08,0,0,1,0,0s0,0,0-.05a.15.15,0,0,1,0-.09Z"/><path class="cls-26" d="M199,227.21v0h0a.29.29,0,0,1,0-.16l0-.06,0,0,.05,0,.07,0h.08a.23.23,0,0,1,.11,0l.06,0a.12.12,0,0,1,.05,0,.09.09,0,0,1,0,.06.23.23,0,0,1,0,.11v0s0,.06,0,.09l0,.07h0v0l-.06.08,0,.06a.19.19,0,0,1-.09.05l-.06,0a.21.21,0,0,1-.11,0l-.06,0,0,0a.47.47,0,0,1-.06-.09.3.3,0,0,1,0-.1Z"/><path class="cls-26" d="M199.75,225.15a.22.22,0,0,1,0,.44A.22.22,0,0,1,199.75,225.15Z"/><path class="cls-26" d="M217.17,228.18a.24.24,0,0,1,.07-.12l.06-.05a.32.32,0,0,1,.14,0,.14.14,0,0,1,.11,0,.28.28,0,0,1,.15.15.2.2,0,0,1,0,.11v.07a.24.24,0,0,1-.07.13l-.06,0a.24.24,0,0,1-.25,0l-.09,0-.06-.09a.43.43,0,0,1,0-.11Z"/><path class="cls-26" d="M217.18,230.08l0-.12a.37.37,0,0,1,.12-.13.35.35,0,0,1,.16-.08l.13,0a.34.34,0,0,1,.18,0,.31.31,0,0,1,.15.1l.08.09a.41.41,0,0,1,.05.18.31.31,0,0,1,0,.19l0,.11a.46.46,0,0,1-.17.17h0l-.11,0a.32.32,0,0,1-.17,0,.27.27,0,0,1-.15,0h0a.24.24,0,0,1-.09-.07l-.08-.1a.35.35,0,0,1-.05-.18A.28.28,0,0,1,217.18,230.08Z"/><path class="cls-26" d="M215.57,233a.68.68,0,0,1,.15-.26l.11-.09a.74.74,0,0,1,.29-.08.59.59,0,0,1,.23.05.57.57,0,0,1,.18.12.44.44,0,0,1,.12.19.42.42,0,0,1,0,.22l0,.15a.61.61,0,0,1-.15.26l-.11.09a.61.61,0,0,1-.3.08.59.59,0,0,1-.22,0,.57.57,0,0,1-.18-.12.39.39,0,0,1-.12-.19.42.42,0,0,1,0-.22Z"/><path class="cls-26" d="M214.45,235.09a.61.61,0,0,1,.13-.22l.1-.07a.45.45,0,0,1,.25-.07.31.31,0,0,1,.19,0,.29.29,0,0,1,.16.1.42.42,0,0,1,.11.16.43.43,0,0,1,0,.19l0,.14a.46.46,0,0,1-.13.22l-.1.07a.43.43,0,0,1-.25.07.41.41,0,0,1-.19,0,.54.54,0,0,1-.16-.1.39.39,0,0,1-.1-.16.34.34,0,0,1,0-.2Z"/><path class="cls-26" d="M211.77,236.41a.57.57,0,0,1,.13-.21.45.45,0,0,1,.21-.12.53.53,0,0,1,.25,0h0a.5.5,0,0,1,.35.62.57.57,0,0,1-.13.21.42.42,0,0,1-.22.13.49.49,0,0,1-.48-.13.39.39,0,0,1-.13-.21v0A.57.57,0,0,1,211.77,236.41Z"/><path class="cls-26" d="M209.37,236.62l0-.14a.32.32,0,0,1,.1-.19.17.17,0,0,1,.1-.1.32.32,0,0,1,.19-.1l.14,0a.53.53,0,0,1,.28.07h0l.06,0,.06.05h0l.09.11h0a.53.53,0,0,1,.07.28l0,.15a.55.55,0,0,1-.14.26.45.45,0,0,1-.19.11.33.33,0,0,1-.22.05.31.31,0,0,1-.21-.05.45.45,0,0,1-.19-.11l-.1-.14s0-.07-.05-.1A.41.41,0,0,1,209.37,236.62Z"/><path class="cls-26" d="M207,236.22a.24.24,0,0,1,.07-.12.4.4,0,0,1,.15-.14l.07,0a.23.23,0,0,1,.14,0,.42.42,0,0,1,.22,0h0l0,0a.48.48,0,0,1,.25.14l.09.12a.54.54,0,0,1,.08.28.54.54,0,0,1,0,.22.36.36,0,0,1-.12.18.57.57,0,0,1-.18.12.41.41,0,0,1-.22,0,.55.55,0,0,1-.28-.07l0,0,0,0h0l-.12-.08-.08-.11a.35.35,0,0,1-.06-.14l0-.14A.46.46,0,0,1,207,236.22Z"/><path class="cls-26" d="M204.82,236.31l.05-.11a.29.29,0,0,1,.13-.14.26.26,0,0,1,.11-.07.27.27,0,0,1,.12,0,.33.33,0,0,1,.14,0,.32.32,0,0,1,.18.06l.1.07a.76.76,0,0,1,.08.11l.05.11,0,.14,0,.13a.56.56,0,0,1-.09.17.2.2,0,0,1-.09.09.24.24,0,0,1-.11.06.28.28,0,0,1-.12,0,.44.44,0,0,1-.2,0c-.12-.05-.1,0-.17-.09a.2.2,0,0,1-.09-.09.32.32,0,0,1-.09-.17h0l0-.13Z"/><path class="cls-26" d="M278.88,162.45a26.8,26.8,0,0,1,2.26-2.95,6.58,6.58,0,0,0,1.61-3.85c0-.11.2-.16.22,0,.38,2.5-2.17,4.45-3.33,6.35a17.29,17.29,0,0,0-2,7.57c0,.44-.73.44-.69,0A16.85,16.85,0,0,1,278.88,162.45Z"/><path class="cls-26" d="M278.53,159.69c.74-.95,1.68-1.73,2.49-2.62a6,6,0,0,0,1.68-3.58c0-.07.13-.1.15,0,.43,2.34-1.81,4.16-3.21,5.68a8.33,8.33,0,0,0-1.89,3.3,21.51,21.51,0,0,0-.64,3.74c-.05.4-.68.4-.63,0C276.73,163.91,277.07,161.55,278.53,159.69Z"/><path class="cls-26" d="M276.44,160.67a10,10,0,0,1,3-4.38,16.39,16.39,0,0,0,1.88-2.12,8.22,8.22,0,0,0,.73-1.29,11.25,11.25,0,0,1,.8-1.68c.05-.07.14,0,.13.06a9.49,9.49,0,0,1-2.81,5.1c-1.25,1.33-2.69,2.63-3.14,4.47C276.93,161.21,276.35,161.05,276.44,160.67Z"/><path class="cls-26" d="M277.53,171.77a.21.21,0,0,1,.06-.1l0,0a.15.15,0,0,1,.09-.06.17.17,0,0,1,.1,0h.07a.35.35,0,0,1,.13.08l0,0,.05.07,0,.07a.19.19,0,0,1,0,.13.19.19,0,0,1,0,.07.16.16,0,0,1,0,.07s0,0-.06.06l-.07,0a.21.21,0,0,1-.12,0h-.08l-.08,0-.06,0,0-.07,0-.07a.29.29,0,0,1,0-.13A.13.13,0,0,1,277.53,171.77Z"/><path class="cls-26" d="M278.72,169a.39.39,0,0,1,0,.77A.39.39,0,0,1,278.72,169Z"/><path class="cls-26" d="M279,167.14v0l0,0a.24.24,0,0,1,.09-.11.31.31,0,0,1,.13-.06l.1,0a.32.32,0,0,1,.14,0,.26.26,0,0,1,.09,0,.24.24,0,0,1,.09.11l0,.09a.34.34,0,0,1,0,.2.53.53,0,0,1-.05.15l-.1.12-.07,0-.09,0h-.09a.35.35,0,0,1-.14,0,.12.12,0,0,1-.07-.05.13.13,0,0,1-.07-.06.12.12,0,0,1,0-.08.15.15,0,0,1,0-.13.17.17,0,0,1,0-.07A.33.33,0,0,1,279,167.14Z"/><path class="cls-26" d="M280,164.66a.36.36,0,0,1,0,.72A.36.36,0,0,1,280,164.66Z"/><path class="cls-26" d="M280.62,162.87v-.07h0s0-.07,0-.1l0-.08.05-.07h0l.07-.06.08,0,.09,0h.09l.12.06,0,.06a.27.27,0,0,1,.06.12.06.06,0,0,1,0,0,.33.33,0,0,1,0,.14h0v0h0a.23.23,0,0,1-.06.12.22.22,0,0,1-.1.09h0l0,0-.09,0a.43.43,0,0,1-.16,0l-.08,0a.27.27,0,0,1-.1-.11.05.05,0,0,1,0,0,.2.2,0,0,1,0-.11Z"/><path class="cls-26" d="M281.73,160.81v-.11a.31.31,0,0,1,.05-.1l0,0a.18.18,0,0,1,.09,0h.16l.08.05.05,0a.22.22,0,0,1,0,.08.28.28,0,0,1,0,.09v.07a.19.19,0,0,1,0,.1l-.05.05a.19.19,0,0,1-.09,0H282s-.06,0-.09,0h0a.09.09,0,0,1-.1,0,.13.13,0,0,1,0-.1v0h0l0-.09v0Z"/><path class="cls-26" d="M282.33,150a.1.1,0,0,1,0,.2A.1.1,0,0,1,282.33,150Z"/><path class="cls-26" d="M281.59,151.14a.31.31,0,0,1,0,.62A.31.31,0,0,1,281.59,151.14Z"/><path class="cls-26" d="M280.33,153a.32.32,0,0,1,.08-.12.26.26,0,0,1,.13-.08.28.28,0,0,1,.15,0l.1,0a.4.4,0,0,1,.18.1l.06.08a.42.42,0,0,1,.05.2v0a.4.4,0,0,1,0,.15.25.25,0,0,1-.08.12.38.38,0,0,1-.13.09.4.4,0,0,1-.15,0h-.1a.42.42,0,0,1-.18-.11l-.06-.08a.32.32,0,0,1-.05-.19v0A.29.29,0,0,1,280.33,153Z"/><path class="cls-26" d="M279,155.15a.41.41,0,0,1,0,.82A.41.41,0,0,1,279,155.15Z"/><path class="cls-26" d="M277.19,157.19a.16.16,0,0,1,0-.07.2.2,0,0,1,.09-.09h0a.27.27,0,0,1,.3,0h0l.07.05a.41.41,0,0,1,.07.11.19.19,0,0,1,0,.08.17.17,0,0,1,0,.12l0,.06,0,.07a.31.31,0,0,1-.07.09l-.07,0a.27.27,0,0,1-.12,0h-.08l-.07,0a.3.3,0,0,1-.08-.08.21.21,0,0,1-.06-.1l0-.06v-.08A.24.24,0,0,1,277.19,157.19Z"/><path class="cls-26" d="M282.61,173.53a.2.2,0,0,1,.25.14.21.21,0,0,1-.14.26,1,1,0,0,0-.41,1.45,1,1,0,0,0,.2.21l.25.21a.17.17,0,0,1-.12.28.7.7,0,0,1-.41-.14,1.77,1.77,0,0,1-.3-.31,1.42,1.42,0,0,1-.27-.8A1.41,1.41,0,0,1,282.61,173.53Z"/><path class="cls-26" d="M281.08,173.31a2.73,2.73,0,0,1,1.33-1.16c.27-.09.39.28.19.43a3.52,3.52,0,0,0-1,.92,2.63,2.63,0,0,0,0,2.79,1,1,0,0,0,1.21.34c.19-.07.26.2.13.3a1.24,1.24,0,0,1-1.61-.08,2.52,2.52,0,0,1-.73-1.73A3.2,3.2,0,0,1,281.08,173.31Z"/><path class="cls-26" d="M282.32,170.87c.35-.22.67.34.32.56a5.29,5.29,0,0,0-2.53,3.8,2.68,2.68,0,0,0,.64,2.05,2.21,2.21,0,0,0,1.93.73.18.18,0,0,1,.09.34,2.44,2.44,0,0,1-2.19-.47,3.11,3.11,0,0,1-1.09-2.32A5.76,5.76,0,0,1,282.32,170.87Z"/><path class="cls-26" d="M282.42,178.56a0,0,0,0,1,0,.05S282.38,178.56,282.42,178.56Z"/><path class="cls-26" d="M278.21,175.06a7.49,7.49,0,0,1,4.31-5.63.23.23,0,1,1,.18.43,6.69,6.69,0,0,0-4,4.9,4.24,4.24,0,0,0,.46,3.36c.8,1,2.45.81,3.56,1.15a.08.08,0,0,1,0,.16,10,10,0,0,1-2.25-.18,2.83,2.83,0,0,1-1.52-.74A4.13,4.13,0,0,1,278.21,175.06Z"/><path class="cls-26" d="M241.82,200.43a.19.19,0,0,1,.16,0,.18.18,0,0,1,.08.09l0,0h0l0,0,0,0,.05,0,0,0,.1.06h0l.07,0h.23l0,0h0l0,0h0s0,0,0,0,0,0,0,0v0l0,0h0v0s0,0,0,0v0h0v-.1h0a.09.09,0,0,1,0-.05h0v0l0,0h0l0-.06v0h0l0,0s0-.11,0-.11a.24.24,0,0,1,.23,0,.49.49,0,0,1,.11.14.68.68,0,0,1,0,.42.61.61,0,0,1-.26.35.63.63,0,0,1-.52,0,1,1,0,0,1-.45-.29.34.34,0,0,1-.09-.19A.17.17,0,0,1,241.82,200.43Z"/><path class="cls-26" d="M242.8,200.45h0Z"/><polygon class="cls-26" points="242.77 200.65 242.78 200.64 242.78 200.64 242.77 200.65"/><path class="cls-26" d="M242.69,200.76h0S242.68,200.76,242.69,200.76Z"/><path class="cls-26" d="M241.39,200.77a1.82,1.82,0,0,0,.56.61,1.48,1.48,0,0,0,.82.19,1.28,1.28,0,0,0,1.1-1.14,1.34,1.34,0,0,0-.22-1c-.05-.08.08-.18.14-.1a1.64,1.64,0,0,1,0,1.95,1.6,1.6,0,0,1-2,.49,1.39,1.39,0,0,1-.84-.88A.2.2,0,0,1,241.39,200.77Z"/><path class="cls-26" d="M240.05,201.88a3.22,3.22,0,0,0,3.92.56,2.3,2.3,0,0,0,1.25-1.76,4.45,4.45,0,0,0-.19-1.3c-.08-.3-.3-.79-.14-1.08a.05.05,0,0,1,.08,0,.78.78,0,0,1,.29.5c.08.23.16.46.23.69a3.26,3.26,0,0,1,.18,1.45,2.81,2.81,0,0,1-1.44,2,3.74,3.74,0,0,1-4.59-.59C239.41,202,239.82,201.59,240.05,201.88Z"/><path class="cls-26" d="M183.63,215.25a.19.19,0,0,1,0-.13l0-.06.07-.14a.16.16,0,0,0,0-.07h0a0,0,0,0,0,0,0s0,0,0-.06h0v-.07a.17.17,0,0,1,0-.07v-.05l0,0,0,0h-.07c-.07,0-.11-.09-.12-.16s0,0,0,0a.16.16,0,0,1,.16-.12.5.5,0,0,1,.34.16l.05.06v0h0l.05.06a.38.38,0,0,1,.06.23.77.77,0,0,1-.1.42,1.24,1.24,0,0,1-.14.18l-.08.06a.22.22,0,0,1-.14.06l-.11,0a.09.09,0,0,1-.11-.11Z"/><polygon class="cls-26" points="183.84 214.76 183.84 214.75 183.84 214.75 183.84 214.76"/><path class="cls-26" d="M183.61,216.43a8.07,8.07,0,0,1,.6-.92,2.7,2.7,0,0,0,.49-.81.81.81,0,0,0-.09-.77.49.49,0,0,0-.3-.18c-.14,0-.25.07-.38,0a.2.2,0,0,1-.09-.22c0-.2.3-.25.47-.24a1,1,0,0,1,.5.17,1.08,1.08,0,0,1,.43,1,2.17,2.17,0,0,1-.5,1.1,6.26,6.26,0,0,1-.41.49,6.39,6.39,0,0,1-.54.5A.12.12,0,0,1,183.61,216.43Z"/><path class="cls-26" d="M184.11,217.14a13.12,13.12,0,0,0,1.48-2.73,1.72,1.72,0,0,0,0-1.44.85.85,0,0,0-1-.39.27.27,0,0,1-.21-.49,1.26,1.26,0,0,1,1.44.27,1.86,1.86,0,0,1,.5,1.65,5.32,5.32,0,0,1-.72,1.84,4.45,4.45,0,0,1-1.27,1.49C184.19,217.42,184.05,217.26,184.11,217.14Z"/><path class="cls-26" d="M155.06,234.91a10,10,0,0,0,2.38-2.39,7.8,7.8,0,0,0,1.18-3.12,21.32,21.32,0,0,1,.43-3.74c.2-.62.73-1.8,1.49-1.87,0,0,0,0,0,0a3.18,3.18,0,0,1-.41.41,2.77,2.77,0,0,0-.49.7,4.63,4.63,0,0,0-.45,1.86,20.15,20.15,0,0,1-.27,3.64,8,8,0,0,1-3.49,5C155.15,235.58,154.77,235.14,155.06,234.91Z"/><path class="cls-26" d="M155.08,233.44a6.88,6.88,0,0,0,2-2.62,11.67,11.67,0,0,0,.72-3.46c.18-2,.84-4.22,3-4.89a.07.07,0,0,1,.06.13,4.84,4.84,0,0,0-2.22,2.54,18,18,0,0,0-.46,3.67c-.22,1.87-1,4.06-2.67,5.13C155.17,234.13,154.81,233.68,155.08,233.44Z"/><path class="cls-26" d="M155.09,237.2c.57-1,1.93-1.5,2.82-2.21a6,6,0,0,0,2-3.1,9.26,9.26,0,0,0,.18-3.63c-.14-1.06-.29-2.2.57-3,0,0,.11,0,.07.05-.73,1-.27,2.46-.14,3.62a8.5,8.5,0,0,1-.33,3.51,6.63,6.63,0,0,1-1.69,2.85,9,9,0,0,1-1.4,1.06,12.17,12.17,0,0,0-1.52,1.25A.35.35,0,0,1,155.09,237.2Z"/><path class="cls-26" d="M156,238.63a.37.37,0,0,1,.07-.12.51.51,0,0,1,.16-.09.31.31,0,0,1,.19,0l.08,0,.08,0,.1.09a.2.2,0,0,1,0,.08.28.28,0,0,1,0,.13v.09l0,.08a.39.39,0,0,1-.08.1.27.27,0,0,1-.12.06l-.08,0h-.19a.39.39,0,0,1-.16-.1L156,239a.31.31,0,0,1,0-.18A.32.32,0,0,1,156,238.63Z"/><path class="cls-26" d="M157.46,237.24a.28.28,0,0,1,.09-.1.31.31,0,0,1,.13-.06.26.26,0,0,1,.15,0H158l.09,0,.05,0a.25.25,0,0,1,.08.12h0s0,.06,0,.08v0h0s0,.07,0,.09h0s0,0,0,0a.28.28,0,0,1-.08.11l-.07.06h0l-.1,0h-.16a.31.31,0,0,1-.18-.05l-.07,0a.39.39,0,0,1-.1-.16.33.33,0,0,1,0-.14A.23.23,0,0,1,157.46,237.24Z"/><polygon class="cls-26" points="157.94 237.09 157.95 237.09 157.94 237.09 157.94 237.09"/><path class="cls-26" d="M159.17,235.54a.35.35,0,0,1,0,.7A.35.35,0,0,1,159.17,235.54Z"/><path class="cls-26" d="M159.93,234.54l0-.07h0l0,0a.47.47,0,0,1,.1-.1.28.28,0,0,1,.29,0,.47.47,0,0,1,.1.1l0,0h0a.05.05,0,0,1,0,0,.21.21,0,0,1,0,.12s0,.05,0,.08a.32.32,0,0,1-.08.14h0v0l-.09.06-.12,0h-.07a.27.27,0,0,1-.13-.07v0h0a.32.32,0,0,1-.08-.14s0-.05,0-.08Z"/><path class="cls-26" d="M155.15,231.5l0,0a.87.87,0,0,1,.11-.09l.1,0a.16.16,0,0,1,.12,0,.17.17,0,0,1,.12,0l.08,0a.24.24,0,0,1,.09.08.16.16,0,0,1,0,.07.28.28,0,0,1,0,.13v.08a.42.42,0,0,1-.09.14l0,0,0,0-.05,0a.34.34,0,0,1-.12.06h0l0,0a.25.25,0,0,1-.17,0l-.08,0h-.06s0,0,0,0a.05.05,0,0,1,0,0,.12.12,0,0,1,0-.08v0a.48.48,0,0,1,0-.17A.38.38,0,0,1,155.15,231.5Z"/><path class="cls-26" d="M156.15,230.1a.28.28,0,0,0,0,.13.24.24,0,0,0,.07.12.51.51,0,0,0,.16.09h.09a.27.27,0,0,0,.18,0,.37.37,0,0,0,.13-.12h0l0-.09v0h0s0-.06,0-.09h0a.35.35,0,0,0-.05-.18l-.06-.08-.07-.05h0a.28.28,0,0,0-.15,0l-.12,0-.09.07,0,0,0,0h0l0,0,0,0A.37.37,0,0,0,156.15,230.1Z"/><path class="cls-26" d="M156.27,229.85v0h0v0h0Z"/><path class="cls-26" d="M157,226.11v0a.34.34,0,0,1,0-.1.33.33,0,0,1,.07-.13l.1-.08a.21.21,0,0,1,.24,0,.24.24,0,0,1,.15.16V226a.36.36,0,0,1,0,.11.32.32,0,0,1-.06.18l0,0,0,.08-.09.18a.25.25,0,0,1-.14.11.26.26,0,0,1-.15,0,.23.23,0,0,1-.12-.1l0-.05a.28.28,0,0,1,0-.13Z"/><path class="cls-26" d="M158,223.18a.3.3,0,0,1,0,.59A.3.3,0,0,1,158,223.18Z"/><path class="cls-26" d="M159.6,221.19a.21.21,0,0,1,.06-.1.18.18,0,0,1,.07-.05l.09,0a.21.21,0,0,1,.12,0,.2.2,0,0,1,.09.09l.06.09,0,.05a.14.14,0,0,1,0,.09.11.11,0,0,1,0,0l0,.07,0,0,0,0a.11.11,0,0,1-.08,0l-.08,0-.1-.06a.24.24,0,0,1-.08-.09.2.2,0,0,1,0-.11Z"/><path class="cls-26" d="M159.81,250.1a.56.56,0,0,1,.56-.2.19.19,0,0,1,0,.36h0l-.08,0h0l0,0h0l0,0h0l0,0s0,0,0,0h0l0,0s0,.07,0,0,0,0,0,0a.09.09,0,0,0,0,0v.13s0,0,0,.05l0,.1,0,0,0,.05.07.11.06.07.1.13a2.43,2.43,0,0,0,.14.2.14.14,0,0,1-.17.21l-.26-.17a1.07,1.07,0,0,1-.26-.26,1.13,1.13,0,0,1-.24-.59A.9.9,0,0,1,159.81,250.1Z"/><path class="cls-26" d="M160.42,248.58a.28.28,0,0,1,.31.15.25.25,0,0,1-.1.33,2.21,2.21,0,0,0-1,.67,1.71,1.71,0,0,0-.31,1.22,1.36,1.36,0,0,0,.59,1c.34.16.77,0,1.05.33a.16.16,0,0,1-.22.22c-.17-.15-.45-.06-.66-.07a1.06,1.06,0,0,1-.62-.22,1.9,1.9,0,0,1-.68-1.38A2.15,2.15,0,0,1,160.42,248.58Z"/><path class="cls-26" d="M158.22,248.88a6.64,6.64,0,0,1,1.91-1.71.32.32,0,0,1,.32.55,5.71,5.71,0,0,0-1.58,1.36,3.63,3.63,0,0,0-.92,2c0,1.41,1.53,2.28,2.78,2.28a.13.13,0,0,1,0,.26,2.78,2.78,0,0,1-3.43-2.27A3.52,3.52,0,0,1,158.22,248.88Z"/><path class="cls-26" d="M129.05,244.78c-.05,1.74,1,3.17,2,4.47a9.09,9.09,0,0,1,2,3.82c.3,1.53.16,3.11.51,4.63a4.36,4.36,0,0,0,1,2c.44.49,1,.84,1.27,1.48,0,.07-.08.1-.12.05-.48-.64-1.25-1-1.75-1.59a5,5,0,0,1-.86-1.65c-.51-1.57-.36-3.24-.65-4.85-.57-3.13-4-5.07-3.94-8.37C128.58,244.48,129.06,244.48,129.05,244.78Z"/><path class="cls-26" d="M127.52,244.8c0-.15.26-.08.24.07-.21,1.38.67,2.65,1.3,3.8a28.75,28.75,0,0,1,1.75,3.29,16.3,16.3,0,0,1,.61,3.54,11.82,11.82,0,0,0,.47,1.77c.22.63.54,1.19.79,1.79a.21.21,0,0,1-.36.21A8.79,8.79,0,0,1,131,255.8c-.24-1.37-.11-2.75-.71-4s-1.3-2.44-1.95-3.64A4.73,4.73,0,0,1,127.52,244.8Z"/><path class="cls-26" d="M126.09,243.7c.08-.28.53-.16.44.12-.84,2.69,1,5.11,2.17,7.39a23.23,23.23,0,0,1,1.33,3.32q.28.9.51,1.83a7.11,7.11,0,0,1,.27,1.83c0,.12-.16.13-.21,0a17.61,17.61,0,0,1-.5-1.93c-.17-.64-.36-1.28-.58-1.91a26.3,26.3,0,0,0-1.62-3.69C126.75,248.55,125.3,246.22,126.09,243.7Z"/><path class="cls-26" d="M130.19,246.89h0v0l0-.05.05-.06,0,0,.08,0h.05l.05,0,0,0a.16.16,0,0,1,0,.07v0h0a.24.24,0,0,1,0,.12s0,0,0,.05a.22.22,0,0,1-.18.1.21.21,0,0,1-.18-.1A.21.21,0,0,1,130.19,246.89Z"/><path class="cls-26" d="M131.62,248.82a.19.19,0,0,0,0,.07l0,.06.06.08h0l.07.06h0l.08,0a.29.29,0,0,0,.13,0,.11.11,0,0,0,.08,0l.07,0a.09.09,0,0,0,.06-.06.24.24,0,0,0,.06-.11h0l0-.06v0a.25.25,0,0,0,0-.09.34.34,0,0,0,0-.1l0-.09,0-.06h0l-.06-.05h0l-.07,0h-.21l-.07,0h0l0,0a.22.22,0,0,0-.1.09.34.34,0,0,0-.06.12A.31.31,0,0,0,131.62,248.82Z"/><path class="cls-26" d="M133.19,251.17a.46.46,0,0,1,.15-.16l0,0,.1,0a.29.29,0,0,1,.16,0,.2.2,0,0,1,.11,0,.3.3,0,0,1,.13.09l.07.08,0,.1a.33.33,0,0,1,0,.17.3.3,0,0,1-.05.16l0,0a.46.46,0,0,1-.15.16.55.55,0,0,1-.22.06l-.12,0a.52.52,0,0,1-.19-.11.29.29,0,0,1-.08-.14.33.33,0,0,1,0-.17A.39.39,0,0,1,133.19,251.17Z"/><path class="cls-26" d="M134.32,254a.51.51,0,0,1,.09-.16l.08-.05a.26.26,0,0,1,.17,0,.32.32,0,0,1,.14,0,.26.26,0,0,1,.11.07.29.29,0,0,1,.09.16.31.31,0,0,1,0,.19l0,.15,0,.08a.2.2,0,0,1-.09.09.18.18,0,0,1-.07.05.19.19,0,0,1-.13,0h-.08l-.08,0a.44.44,0,0,1-.15-.2l0-.15A.6.6,0,0,1,134.32,254Z"/><path class="cls-26" d="M134.37,256.45a.29.29,0,0,1,.08-.13l.1-.07a.2.2,0,0,1,.11,0,.23.23,0,0,1,.12,0l.1.07a.27.27,0,0,1,.07.13l.06.17a.41.41,0,0,1,0,.11.3.3,0,0,1,0,.1l0,.06a.19.19,0,0,1-.09.05.08.08,0,0,1-.07,0,.2.2,0,0,1-.11,0l-.06,0a.24.24,0,0,1-.1-.1l-.11-.15a.42.42,0,0,1,0-.15Z"/><path class="cls-26" d="M135.84,259.67a.26.26,0,0,1,.07-.11l.07-.06.08,0a.23.23,0,0,1,.14,0l.13,0,0,0,0,0,0,0,.06.08v0l.06.08,0,.07a.33.33,0,0,1,0,.14.11.11,0,0,1,0,.08.19.19,0,0,1-.07.11l-.06.05-.08,0h-.14a.19.19,0,0,1-.12,0l-.08-.05h0a.47.47,0,0,1-.14-.14l0,0,0-.08a.33.33,0,0,1,0-.14A.15.15,0,0,1,135.84,259.67Z"/><path class="cls-26" d="M137.46,261.79a.17.17,0,0,1,0,.33A.17.17,0,0,1,137.46,261.79Z"/><path class="cls-26" d="M129.33,257.12l0-.06a.12.12,0,0,1,.06-.06s0,0,0,0a.12.12,0,0,1,.06-.06l0,0a.32.32,0,0,1,.19-.05.29.29,0,0,1,.18.05.36.36,0,0,1,.19.32.34.34,0,0,1-.19.31.29.29,0,0,1-.18.05.32.32,0,0,1-.19-.05.22.22,0,0,1-.1-.09s0,0,0-.05,0,0,0,0a.1.1,0,0,1,0-.05.29.29,0,0,1,0-.09Z"/><path class="cls-26" d="M129,255.61l0-.08a.2.2,0,0,1,.09-.09.18.18,0,0,1,.07-.05.19.19,0,0,1,.13,0h.09l.08,0a.2.2,0,0,1,.09.09.24.24,0,0,1,.06.11.39.39,0,0,1,0,.26l-.06.07v0l0,0a.16.16,0,0,1-.08.06.22.22,0,0,1-.11,0h-.07a.24.24,0,0,1-.13-.07l0,0v0l-.06-.07A.34.34,0,0,1,129,255.61Z"/><path class="cls-26" d="M127.25,253.56l0-.08,0-.08a.24.24,0,0,1,.08-.09.2.2,0,0,1,.08,0,.27.27,0,0,1,.12,0h.09l.08,0a.18.18,0,0,1,.09.08.24.24,0,0,1,.06.11l0,.08a.28.28,0,0,1,0,.18.26.26,0,0,1-.09.16l-.07.06a.34.34,0,0,1-.18,0,.15.15,0,0,1-.13,0,.24.24,0,0,1-.12-.07.42.42,0,0,1-.09-.16A.28.28,0,0,1,127.25,253.56Z"/><path class="cls-26" d="M125.74,250.81v0h0a.32.32,0,0,1,0-.14.25.25,0,0,1,.08-.12h0l0,0,.1-.07a.17.17,0,0,1,.12,0h.09a.22.22,0,0,1,.13.08l0,0h0a.24.24,0,0,1,.07.12.23.23,0,0,1,0,.14h0v.06a.33.33,0,0,1,0,.15.25.25,0,0,1-.08.12.38.38,0,0,1-.27.11H126a.42.42,0,0,1-.17-.1l-.06-.07a.46.46,0,0,1,0-.2Z"/><path class="cls-26" d="M124.8,247a.43.43,0,0,1,0,.86A.43.43,0,0,1,124.8,247Z"/><path class="cls-26" d="M124.45,244.73a.39.39,0,0,1,.08-.14.41.41,0,0,1,.11-.07.17.17,0,0,1,.12,0,.29.29,0,0,1,.16,0,.43.43,0,0,1,.12.11l0,0,0,.07a.2.2,0,0,1,0,.13.24.24,0,0,1,0,.08.36.36,0,0,1-.07.1l-.06.05-.08,0h-.12l-.12,0,0,0a.28.28,0,0,1-.16-.27Z"/><path class="cls-26" d="M124.66,243.46a.19.19,0,0,1,0-.1h0a.27.27,0,0,1,.07-.08h0l.06,0h.08a.35.35,0,0,1,.14,0,.27.27,0,0,1,.07.08.13.13,0,0,1,0,.09.38.38,0,0,1,0,.15h0a.18.18,0,0,1-.06.1.24.24,0,0,1-.1.06h-.17l-.09-.05a.27.27,0,0,1-.07-.08.23.23,0,0,1,0-.14Z"/><path class="cls-26" d="M155.38,266.38a1.08,1.08,0,0,1,.67-.38.77.77,0,0,1,.75.29.42.42,0,0,1,0,.5.33.33,0,0,1-.41,0c-.06,0-.07-.17,0-.19s0,0,0,0,0,0,0-.06,0,0,0,0a.31.31,0,0,0-.21-.11.57.57,0,0,0-.25,0,1.2,1.2,0,0,0-.24.15,1.69,1.69,0,0,0-.38,1.44c0,.13-.21.16-.23,0A2.08,2.08,0,0,1,155.38,266.38Z"/><path class="cls-26" d="M154.27,267.4c0-.41,0-.82,0-1.22a3.94,3.94,0,0,1,.5-2.19,1.2,1.2,0,0,1,1.64-.47c.47.32.56.93.83,1.39s1.06.82,1,1.52c0,.14-.21.11-.25,0-.19-.6-.88-.87-1.17-1.42s-.44-1.45-1.18-1.15-.85,1.53-.86,2.23c0,.42,0,.84,0,1.26a4.49,4.49,0,0,1-.05,1.32.2.2,0,0,1-.39-.06C154.25,268.21,154.28,267.8,154.27,267.4Z"/><path class="cls-26" d="M153.25,269.07c.74-1.2.1-2.68.21-4A4.87,4.87,0,0,1,155,262.2a10.9,10.9,0,0,1,1.29-1.16c.44-.32.78-.19,1,.29a12.18,12.18,0,0,0,2.24,3.3c.23.25-.14.62-.37.37a11.79,11.79,0,0,1-2-2.79l-.21-.43c0-.08-.09-.31-.16-.35s-.49.27-.63.39A11.57,11.57,0,0,0,155,263a4.64,4.64,0,0,0-.85,1.39,4.27,4.27,0,0,0-.16,1.81,4,4,0,0,1-.49,3.07C153.37,269.35,153.17,269.2,153.25,269.07Z"/><path class="cls-26" d="M105.64,237.46a.79.79,0,0,0,.82.26.89.89,0,0,0,.39-.12.63.63,0,0,0,.25-.33.52.52,0,0,0-.08-.42.14.14,0,0,0,0-.07.2.2,0,0,0-.14-.22l-.13-.05-.17,0-.25,0a.9.9,0,0,0-.55.2A.65.65,0,0,0,105.64,237.46Zm.35-.25s0,0,0-.05v0l0-.06h0l0,0,0-.05,0,0h0l.05,0h.07l.07,0h.53l.07,0a.44.44,0,0,1,0,.1.29.29,0,0,1-.11.21l-.06,0h0l-.06,0s0,0,0,0l-.07,0h-.42l-.06,0h0l0,0,0,0v0h0v-.06S106,237.19,106,237.21Z"/><path class="cls-26" d="M106.13,237Z"/><path class="cls-26" d="M105,236.18a3.09,3.09,0,0,1,1-.65c.18-.08.34.18.16.27a2.32,2.32,0,0,0-1.24,1,.79.79,0,0,0,.55,1.07,2.19,2.19,0,0,0,1.45-.08,1,1,0,0,0,.67-1.27,1.42,1.42,0,0,0-.54-.6c-.13-.08-.54-.39-.66-.18s-.12,0-.11,0c0-.25.35-.28.56-.25a1.65,1.65,0,0,1,.79.49,1.18,1.18,0,0,1-.09,1.72,2.3,2.3,0,0,1-1.83.54,1.21,1.21,0,0,1-1.16-1A1.46,1.46,0,0,1,105,236.18Z"/><path class="cls-26" d="M103.73,236.73a2.55,2.55,0,0,1,.62-1.3c.1-.09.25,0,.15.15a2.08,2.08,0,0,0-.5,1,2.12,2.12,0,0,0,0,1.17,2.43,2.43,0,0,0,.82.87,2.18,2.18,0,0,0,1.08.52,2.12,2.12,0,0,0,1.22-.33,4.18,4.18,0,0,0,.94-.63,1.91,1.91,0,0,0,.55-2.1,2.7,2.7,0,0,0-1.56-1.56,2.61,2.61,0,0,0-.56,0,2,2,0,0,0-.92.37c-.09.07-.17-.08-.08-.14a2.21,2.21,0,0,1,1.17-.44.1.1,0,0,1,.11-.08l.44.13a1.75,1.75,0,0,1,.32.12l0,0a2.72,2.72,0,0,1,1.32,1.23,2.29,2.29,0,0,1-.33,2.5,3.92,3.92,0,0,1-1.1.84,3.07,3.07,0,0,1-1.33.46,2.1,2.1,0,0,1-1.29-.44,3.46,3.46,0,0,1-1-.94A2,2,0,0,1,103.73,236.73Z"/><path class="cls-26" d="M98.42,238a7.09,7.09,0,0,1,1.16-.88,2.14,2.14,0,0,1,1.31-.28c.47.06.92.33,1.4.36a3.8,3.8,0,0,1,.3-1.27,8.09,8.09,0,0,0-2.24-.65,3.39,3.39,0,0,0-1.1.07,4,4,0,0,0-1,.47.19.19,0,0,1-.23-.3,2.72,2.72,0,0,1,2.23-.63,6.81,6.81,0,0,1,2.39.83,6.79,6.79,0,0,1,.75-1.22c1.36-1.76,3.56-1.22,5.27-.31.22.11.07.5-.17.4-1.31-.51-3-1.33-4.28-.24a5.26,5.26,0,0,0-1.19,1.72,2.74,2.74,0,0,0-.19,1.93,3.34,3.34,0,0,0,2.56,2.38,4.33,4.33,0,0,0,3.67-1.16l.18-.19a.21.21,0,0,1,.08-.4l.26,0c.78-1.16,1-2.78-.22-3.74-.1-.07,0-.24.1-.17a2.87,2.87,0,0,1,.63,3.84c.86-.12,1.73-.24,2.59-.34a4.42,4.42,0,0,1,2.77.43,16.67,16.67,0,0,0,2.58,1.58,5.84,5.84,0,0,0,3.21.1s.07,0,0,.07a5.17,5.17,0,0,1-5.15-.87,6.12,6.12,0,0,0-1.35-.79,4,4,0,0,0-1.72-.18c-1.1.1-2.19.29-3.27.46a5,5,0,0,1-1,1c.81.85,2.1.45,3.08.09a5.06,5.06,0,0,1,1.58-.37,4.55,4.55,0,0,1,1.77.39,18.52,18.52,0,0,0,3.56,1.16,5.7,5.7,0,0,0,1.7.06,3.46,3.46,0,0,0,.83-.2c.26-.11.48-.29.73-.41a.12.12,0,0,1,.17.16c-.53.95-2,1-3,1a14.13,14.13,0,0,1-4-1.15,4,4,0,0,0-2.46-.44c-.68.14-1.3.45-2,.57a2,2,0,0,1-2.12-.77,4.7,4.7,0,0,1-.78.46,1.89,1.89,0,0,0,1.29.68,5.19,5.19,0,0,0,2-.28,4.91,4.91,0,0,1,3.5.17c1.25.55,2.38,1.37,3.79,1.45a9.64,9.64,0,0,0,2.33-.22,2.21,2.21,0,0,0,1.73-.93c0-.05.12,0,.1,0-.47,1.13-2.14,1.24-3.18,1.35a5.52,5.52,0,0,1-2.42-.22,16.73,16.73,0,0,1-1.88-.86,5.2,5.2,0,0,0-2.24-.63,14.6,14.6,0,0,0-2.6.59c-1,.19-2.4.09-2.86-.95a4.4,4.4,0,0,1-1.3.24,3.82,3.82,0,0,1-3.56-2.22.25.25,0,0,1,0-.07s0,0,0,0a1.11,1.11,0,0,1-.07.16.08.08,0,0,1,0,0l-.08.1,0,0-.1.07-.08,0-.08,0a.29.29,0,0,1-.13,0l-.12,0a.3.3,0,0,1-.08-.08.24.24,0,0,1-.06-.11v-.08a.29.29,0,0,1,0-.16l0-.06a.19.19,0,0,1,.12-.07h0l0,0h0v0a.24.24,0,0,1,.06-.11.3.3,0,0,1,.08-.08l.12,0a.3.3,0,0,1,.13,0l.07,0,0,0a3.27,3.27,0,0,1-.16-1,2.5,2.5,0,0,1-1.05-.09,1.83,1.83,0,0,0-1.35.21,5.79,5.79,0,0,0-1.06.78c-.15.14-.3.28-.44.43a2.66,2.66,0,0,0-.32.6c-.08.18-.39.09-.38-.11A1.82,1.82,0,0,1,98.42,238Z"/><path class="cls-26" d="M98.19,236.9c.26-.61,1.07-.79,1.67-.83.86-.06,1.72.21,2.57.08,0,0,.07.06,0,.07a4.16,4.16,0,0,1-1.16.21c-.38,0-.77,0-1.16,0a2.37,2.37,0,0,0-1.69.68A.16.16,0,0,1,98.19,236.9Z"/><path class="cls-26" d="M89.91,222.47a.18.18,0,0,1,.22-.12.17.17,0,0,1,.12.21,1.1,1.1,0,0,0,0,.18.77.77,0,0,1,0-.15c0-.12.21-.11.24,0l0,.14a.86.86,0,0,1,0,.16,1.29,1.29,0,0,0,.06.25.67.67,0,0,0,.1.23l.08.09.07,0a.43.43,0,0,0,.17.06h.24s0,0,0,0l.08,0,.06-.06,0-.06a.09.09,0,0,1,.18.05.54.54,0,0,1-.62.4.79.79,0,0,1-.41-.17,1.14,1.14,0,0,1-.28-.46l-.06-.27a1,1,0,0,1,0-.17,1.63,1.63,0,0,0,0,.85,1,1,0,0,0,.55.55,1.11,1.11,0,0,0,1.41-.63.06.06,0,0,1,.11,0,1.25,1.25,0,0,1-1.14,1,1.38,1.38,0,0,1-1.3-.88A2.29,2.29,0,0,1,89.91,222.47Z"/><path class="cls-26" d="M88.76,222c.12-.2.39,0,.3.18a2.26,2.26,0,0,0,.1,1.73,2.67,2.67,0,0,0,.89,1.45c1.07.64,2.24-.24,3.13-.79a.11.11,0,0,1,.13.17c-.87.89-2.35,1.79-3.56.95a3.34,3.34,0,0,1-1-1.7A2.24,2.24,0,0,1,88.76,222Z"/><path class="cls-26" d="M98.82,233.79a.3.3,0,0,1,0,.59A.3.3,0,0,1,98.82,233.79Z"/><path class="cls-26" d="M99.65,233.9a.22.22,0,0,1,0-.08l.06,0h0l.06,0,.07,0h0a.12.12,0,0,1,.1,0,.17.17,0,0,1,.1,0l0,0a.47.47,0,0,1,.06.09.13.13,0,0,1,0,.06.21.21,0,0,1,0,.11l0,.06a.2.2,0,0,1-.09.09l0,0a.29.29,0,0,1-.1,0l-.06,0h-.07l-.1,0,0,0a.13.13,0,0,1-.06-.07l0-.06V234A.29.29,0,0,1,99.65,233.9Z"/><path class="cls-26" d="M101.28,234h0s0,0,0,0a.15.15,0,0,1,.06-.09l.06-.05.09,0h.14a.17.17,0,0,1,.1,0l.06.05a.26.26,0,0,1,.07.27l0,.07a.34.34,0,0,1-.09.08h0s0,0-.06.05h0s0,0,0,0a.21.21,0,0,1-.1.06.23.23,0,0,1-.22-.06l-.05-.06,0-.08v0s0-.07,0-.09S101.28,234,101.28,234Z"/><path class="cls-26" d="M102.84,234.28a.21.21,0,0,1,0,.42A.21.21,0,0,1,102.84,234.28Z"/><path class="cls-26" d="M104.11,233.6h0Z"/><path class="cls-26" d="M104.08,233.61h0S104.08,233.6,104.08,233.61Z"/><path class="cls-26" d="M103.72,233.21l0-.08a.18.18,0,0,1,.08-.09l.07,0a.11.11,0,0,1,.08,0h.09a.13.13,0,0,1,.08,0,.21.21,0,0,1,.1.06l0,.07,0,.08v.17l0,.07a.24.24,0,0,1-.08.09.13.13,0,0,1-.07,0l0,0H104a.21.21,0,0,1-.11,0l-.06,0-.1-.1h0l0-.07h0s0-.07,0-.11Z"/><path class="cls-26" d="M105.41,232.47a.28.28,0,0,1,.1-.09l0,0h0l.07,0,.08,0h.1a.2.2,0,0,1,.11,0l.09.06a.2.2,0,0,1,.06.09.3.3,0,0,1,0,.1v.07a.33.33,0,0,1-.07.13l-.06,0a.33.33,0,0,1-.14,0h-.1a.24.24,0,0,1-.16,0h0a.47.47,0,0,1-.1-.1.3.3,0,0,1,0-.26Z"/><path class="cls-26" d="M107.52,232.82a.24.24,0,0,1,.06-.09.15.15,0,0,1,.09-.06l.11,0h.07a.33.33,0,0,1,.13.07l0,.06a.23.23,0,0,1,0,.14v.15a.17.17,0,0,1,0,.1.26.26,0,0,1,0,.09l-.09,0a.19.19,0,0,1-.1,0h-.07a.35.35,0,0,1-.12-.07l0-.06a.2.2,0,0,1,0-.13v-.15A.15.15,0,0,1,107.52,232.82Z"/><path class="cls-26" d="M109.11,233.91h0s0,0,0,0l0,0,.07,0h.16a.18.18,0,0,1,.07.05h0l0,0,.07.07,0,0a.14.14,0,0,1,0,.06,0,0,0,0,1,0,.05.14.14,0,0,1,0,.06s0,.05-.06.07l-.07,0h-.07l-.09,0h0l-.06,0a.12.12,0,0,1,0-.05l0,0v0s0,0,0-.05v0A.19.19,0,0,1,109.11,233.91Z"/><path class="cls-26" d="M111.07,234.87a.12.12,0,0,1,0,.23A.12.12,0,1,1,111.07,234.87Z"/><path class="cls-26" d="M111.15,236.46a.25.25,0,0,1,0,.5A.25.25,0,0,1,111.15,236.46Z"/><path class="cls-26" d="M110.86,237.74a.21.21,0,0,1,.06-.1l.07,0,.07,0h.17l.08,0a.18.18,0,0,1,.09.08.16.16,0,0,1,0,.07.27.27,0,0,1,0,.12V238a.19.19,0,0,1,0,.08.22.22,0,0,1,0,.08l0,0a.28.28,0,0,1-.12,0h-.17l-.07,0a.24.24,0,0,1-.09-.08.13.13,0,0,1,0-.07.13.13,0,0,1,0-.08v-.09A.13.13,0,0,1,110.86,237.74Z"/><polygon class="cls-26" points="113.48 237.54 113.48 237.54 113.48 237.54 113.48 237.54"/><polygon class="cls-26" points="113.32 237.37 113.32 237.37 113.33 237.38 113.32 237.38 113.32 237.37"/><path class="cls-26" d="M113.46,237.5v0a.1.1,0,0,0,0-.05Z"/><path class="cls-26" d="M112.9,237.43a.27.27,0,0,1,.07-.08l.09,0a.2.2,0,0,1,.11,0,.23.23,0,0,1,.11,0l0,0h0a.12.12,0,0,1,.05.05l0,0,0,0h0l.07,0,0,0h0a.35.35,0,0,1,0,.08.17.17,0,0,1,0,.07h0s0,0,0,.06h0l0,.06h0a.2.2,0,0,1-.09.09.23.23,0,0,1-.14,0,.37.37,0,0,1-.18,0,.1.1,0,0,1-.05,0l0,0a.35.35,0,0,1-.07-.12v-.07A.23.23,0,0,1,112.9,237.43Z"/><polygon class="cls-26" points="113.46 237.5 113.46 237.5 113.46 237.49 113.46 237.5"/><polygon class="cls-26" points="113.48 237.55 113.48 237.54 113.48 237.55 113.48 237.55"/><path class="cls-26" d="M113.47,237.53h0v0Z"/><path class="cls-26" d="M114.47,237.66a.24.24,0,0,1,.06-.11.31.31,0,0,1,.15-.08.25.25,0,0,1,.17,0h0a.32.32,0,0,1,.14.08.31.31,0,0,1,.09.22.29.29,0,0,1-.09.22.26.26,0,0,1-.14.09h0a.48.48,0,0,1-.17,0,.46.46,0,0,1-.15-.09l0-.06a.33.33,0,0,1,0-.17A.24.24,0,0,1,114.47,237.66Z"/><path class="cls-26" d="M116.19,238.22a.3.3,0,0,1,.18-.18.28.28,0,0,1,.13,0,.33.33,0,0,1,.17,0l.06,0,.07.05a.41.41,0,0,1,.07.11.19.19,0,0,1,0,.08v.13h0a.07.07,0,0,1,0,.05.05.05,0,0,1,0,0l0,0v0h0l-.08.05a.11.11,0,0,1-.08,0h-.13l-.07,0a.38.38,0,0,1-.15-.09l-.06-.07a.33.33,0,0,1,0-.17A.19.19,0,0,1,116.19,238.22Z"/><path class="cls-26" d="M117.77,239.08l.07-.07a.23.23,0,0,1,.11,0h.11a.37.37,0,0,1,.12.07l.11.1,0,0a.27.27,0,0,1,.07.14l0,.05a.21.21,0,0,1,0,.11l0,.06-.06.05-.09,0h-.08a.23.23,0,0,1-.14,0h0l-.14-.08a.2.2,0,0,1-.09-.09l0-.07a.38.38,0,0,1,0-.15A.2.2,0,0,1,117.77,239.08Z"/><path class="cls-26" d="M119.27,239.84l0-.07a.22.22,0,0,1,.07-.09l.11-.05h0a.25.25,0,0,1,.17,0,.29.29,0,0,1,.14.08l0,.06a.29.29,0,0,1,0,.16.27.27,0,0,1,0,.12.21.21,0,0,1-.06.1.29.29,0,0,1-.14.08.25.25,0,0,1-.17,0h0l-.08,0-.08-.08a.21.21,0,0,1,0-.06.17.17,0,0,1,0-.12Z"/><path class="cls-26" d="M122.12,242.76l.1-.16.06-.06.08,0h.06l.09,0,0,0,.06.06,0,.06a.24.24,0,0,1,0,.12l-.06.17a.19.19,0,0,1-.07.11l-.05,0a.24.24,0,0,1-.12,0,.16.16,0,0,1-.1,0l-.08-.05a.22.22,0,0,1,0-.08.3.3,0,0,1,0-.1A.27.27,0,0,1,122.12,242.76Z"/><path class="cls-26" d="M121.34,243.15a.31.31,0,0,1,0,.61A.31.31,0,0,1,121.34,243.15Z"/><path class="cls-26" d="M118.91,243.55a.28.28,0,0,1,.13,0,.32.32,0,0,1,.14,0l.06,0a.3.3,0,0,1,.08.08.23.23,0,0,1,0,.11.27.27,0,0,1,0,.12.3.3,0,0,1-.08.08l-.06,0a.32.32,0,0,1-.14,0,.28.28,0,0,1-.13,0,.27.27,0,0,1-.14-.24A.27.27,0,0,1,118.91,243.55Z"/><path class="cls-26" d="M117.31,243.05a.32.32,0,0,1,0,.64A.32.32,0,0,1,117.31,243.05Z"/><path class="cls-26" d="M115.28,242.68h0a.2.2,0,0,1,0-.08l0,0,0,0h0l.09,0h.07l0,0h0l.07,0,.05.05a.15.15,0,0,1,.06.09.12.12,0,0,1,0,.08l.06.1,0,0V243a.09.09,0,0,1,0,0,.1.1,0,0,1,0,.05l-.08,0a.08.08,0,0,1-.07,0l-.06,0-.1-.05a.15.15,0,0,1-.09,0,.19.19,0,0,1-.09-.05h0l0-.05v0l0,0a.14.14,0,0,1,0-.07v-.12Z"/><path class="cls-26" d="M113.78,241.78a.28.28,0,0,1,0,.56A.28.28,0,0,1,113.78,241.78Z"/><path class="cls-26" d="M111.74,242.34l.1-.1,0,0a.26.26,0,0,1,.15,0,.23.23,0,0,1,.11,0l.09,0a.53.53,0,0,1,.06.1h0v0h0s0,0,0,.06a.43.43,0,0,1,0,.05h0v0h0a.47.47,0,0,1-.06.09.24.24,0,0,1-.09.06.23.23,0,0,1-.11,0,.37.37,0,0,1-.15,0l0,0a.28.28,0,0,1-.1-.09.3.3,0,0,1,0-.26Z"/><polygon class="cls-26" points="109.72 242.77 109.72 242.77 109.72 242.77 109.72 242.77"/><path class="cls-26" d="M109.73,242.76h0Z"/><path class="cls-26" d="M109.5,242.93a.21.21,0,0,1,0-.06.12.12,0,0,1,0-.05.06.06,0,0,1,.06,0,.08.08,0,0,1,.07,0l-.06,0,.11,0h0a.33.33,0,0,1,.15,0,.29.29,0,0,1,.11.11.2.2,0,0,1,0,.11.24.24,0,0,1,0,.12.35.35,0,0,1-.08.13.33.33,0,0,1-.13.07.22.22,0,0,1-.16,0h0a.2.2,0,0,1-.08,0h0a.18.18,0,0,1-.07-.05l0,0,0-.07V243A.36.36,0,0,1,109.5,242.93Z"/><path class="cls-26" d="M108,242.38l0-.08,0-.07a.27.27,0,0,1,.1-.06.28.28,0,0,1,.13,0h.14a.52.52,0,0,1,.13.06l.11.07,0,.05a.24.24,0,0,1,.06.09.11.11,0,0,1,0,.08.2.2,0,0,1,0,.11l0,.07,0,.06a.15.15,0,0,1-.09.06l-.11,0h-.12l-.14,0a.52.52,0,0,1-.13-.06l-.07-.05a.24.24,0,0,1-.06-.11.11.11,0,0,1,0-.08A.25.25,0,0,1,108,242.38Z"/><path class="cls-26" d="M107.37,241.27a.3.3,0,0,1,0,.59A.3.3,0,0,1,107.37,241.27Z"/><path class="cls-26" d="M105.53,241.79l0,0,.05,0,.06,0a.19.19,0,0,1,.13,0h.07a.22.22,0,0,1,.13.08.29.29,0,0,1,.08.13.38.38,0,0,1,0,.15.29.29,0,0,1-.08.13.22.22,0,0,1-.13.08.38.38,0,0,1-.15,0,.33.33,0,0,1-.21-.21V242h0a.17.17,0,0,1,0-.1A.16.16,0,0,1,105.53,241.79Z"/><path class="cls-26" d="M103.79,241.42v.08a.24.24,0,0,0,0,.1l.05.05.1,0h.25l.08,0a.12.12,0,0,0,.08,0l0,0h0l0,0,0-.06h0l.07-.06a.19.19,0,0,0,0-.08.24.24,0,0,0,0-.12.21.21,0,0,0,0-.07l0,0-.08,0h-.1l0,0h-.21l-.08,0h0l-.1,0-.08.08a.19.19,0,0,0,0,.1Z"/><path class="cls-26" d="M102.7,240.35v0a.38.38,0,0,0,0,.1l0,0v0h0a.29.29,0,0,0,.11.11h0l0,0H103a.2.2,0,0,0,.11,0l.08-.08s0,0,0,0h0a.57.57,0,0,0,.08-.13.33.33,0,0,0-.08-.29.3.3,0,0,0-.3-.08.26.26,0,0,0-.13.08.29.29,0,0,0-.08.13h0S102.7,240.33,102.7,240.35Z"/><path class="cls-26" d="M101.17,238l0-.07a.29.29,0,0,1,.11-.11l.07,0s0,0,.06,0h0s0,0,.05,0h0l0,0h.09l.06,0a.18.18,0,0,1,.08.09.43.43,0,0,1,0,.16s0,.06,0,.09l0,.09a.27.27,0,0,1-.07.08l0,0h0l-.08,0h0a.16.16,0,0,1-.1,0h-.11a.21.21,0,0,1-.1-.06.3.3,0,0,1-.08-.08.23.23,0,0,1,0-.11A.24.24,0,0,1,101.17,238Z"/><polygon class="cls-26" points="101.51 237.74 101.51 237.74 101.51 237.74 101.52 237.74 101.51 237.74"/><polygon class="cls-26" points="101.53 237.73 101.55 237.73 101.54 237.73 101.53 237.73"/><path class="cls-26" d="M99.88,238.38l.1,0h.14a.26.26,0,0,1,.11.07.19.19,0,0,1,.07.11.33.33,0,0,1,0,.14l0,.1a.33.33,0,0,1-.23.23h-.17a.42.42,0,0,1-.14-.09.32.32,0,0,1-.08-.31A.29.29,0,0,1,99.88,238.38Z"/><path class="cls-26" d="M98.63,239.52l0,0c.55-.24.55.75,0,.51l0,0A.27.27,0,0,1,98.63,239.52Z"/><path class="cls-26" d="M114.32,248.49c.46.25,1,0,1.38-.25l1.41-.79a11.61,11.61,0,0,1,1.33-.75.76.76,0,0,1,.92.31,2.15,2.15,0,0,1,.49,1.07,4.25,4.25,0,0,1-.1,1.33,2.82,2.82,0,0,0,.1,1.44,8.45,8.45,0,0,0,.64,1.32c.05.09-.09.21-.16.12a4.27,4.27,0,0,1-1.09-2.18c-.1-.94.47-1.85-.16-2.7a1.26,1.26,0,0,0-.22-.24c-.13-.1-.2,0-.33,0s-.47.27-.7.4l-1.35.76c-.72.42-1.57,1-2.42.6C113.76,248.79,114,248.33,114.32,248.49Z"/><path class="cls-26" d="M115.68,249.74l1.33-.86a6.65,6.65,0,0,1,.66-.42.47.47,0,0,1,.58.07.8.8,0,0,1,.08.59,3.35,3.35,0,0,0,0,.71,5.25,5.25,0,0,0,.13.69,3.58,3.58,0,0,0,.2.71c0,.12-.14.18-.21.08a3.11,3.11,0,0,1-.48-1.16,5.81,5.81,0,0,1,0-1.25s0-.11,0-.12-.24.12-.27.14l-.6.39-1.19.77C115.67,250.22,115.47,249.88,115.68,249.74Z"/><path class="cls-26" d="M116.73,250.23a.17.17,0,0,0,.22-.11s0,0,0,0v0h0l0,0h.19l.06,0h0l0,0h0l0,0s0,0,0,0v0l0,0,0,.05h0v0a.19.19,0,0,1,0,.08.07.07,0,0,1,0,0h0v.11a.88.88,0,0,1-.08.34c0,.09.13.16.17.07a1.19,1.19,0,0,0,.13-.49.69.69,0,0,0-.12-.42.57.57,0,0,0-.3-.23.54.54,0,0,0-.66.23A.15.15,0,0,0,116.73,250.23Z"/><path class="cls-26" d="M92.92,225.45c.41.31.74.72,1.12,1.07a7.56,7.56,0,0,0,1.28,1,7,7,0,0,0,3.57.61s.06.07,0,.08a6,6,0,0,1-2,.24,4.5,4.5,0,0,1-1.72-.47,6,6,0,0,1-1.36-1,6.56,6.56,0,0,1-1.17-1.3C92.61,225.54,92.78,225.35,92.92,225.45Z"/><path class="cls-26" d="M94,225.1c.6.37,1.19.74,1.76,1.14a3.27,3.27,0,0,0,1.67.76.09.09,0,0,1,0,.17,2.38,2.38,0,0,1-1.75-.5q-.95-.61-1.86-1.29C93.65,225.26,93.8,225,94,225.1Z"/><path class="cls-26" d="M99.55,229a.19.19,0,0,1-.07-.16.18.18,0,0,1,.12-.13h0a.2.2,0,0,1,.13,0l0,0,.11.08a.5.5,0,0,1,.15.17.12.12,0,0,1,0,.15l-.06,0a.14.14,0,0,1-.09,0,.33.33,0,0,0-.1-.06.45.45,0,0,0-.11,0h0l-.08,0h0l0,0Z"/><path class="cls-26" d="M98.45,229.09a.41.41,0,0,1,0-.09l0,0a.23.23,0,0,1,.11,0,.11.11,0,0,1,.08,0l.07,0a.16.16,0,0,1,0,.07.11.11,0,0,1,0,.08v0a.31.31,0,0,1,0,.1l0,0a.23.23,0,0,1-.11,0l-.08,0-.07,0a.16.16,0,0,1,0-.07.24.24,0,0,1,0-.08Z"/><path class="cls-26" d="M96.08,228.58a.12.12,0,0,1,0-.09.17.17,0,0,1,.16-.09.16.16,0,0,1,.15.09.12.12,0,0,1,0,.09.16.16,0,0,1,0,.09h0l0,.17,0,0s0,0,0,0,0,0-.07,0H96.2s0-.05,0-.08l0-.17h0A.16.16,0,0,1,96.08,228.58Z"/><path class="cls-26" d="M94.62,227.67a.25.25,0,0,1,0,.49A.25.25,0,0,1,94.62,227.67Z"/><path class="cls-26" d="M93.14,226.67a.26.26,0,0,1,0,.51A.26.26,0,0,1,93.14,226.67Z"/><path class="cls-26" d="M92,226.1a.14.14,0,0,0,0,.07s0,0,0,0l0,0,0,0h0a.06.06,0,0,0,0,0h0v0l0,0h.08l0,0,0,0a.13.13,0,0,0,0-.05v0s0,0,0-.06v0a.14.14,0,0,0,0-.06l0-.05h0l0,0,0,0h-.15l-.05,0,0,.05v.08Z"/><path class="cls-26" d="M90,226.38a.24.24,0,0,1,.06-.09l0,0a.17.17,0,0,1,.1,0h0l.07,0h0l.07,0,0,0,0,0,0,0a.13.13,0,0,1,0,.06v0l0,0a.1.1,0,0,1-.08.07l-.07,0,0,0-.08,0-.08,0s0,0-.06,0a.18.18,0,0,1,0-.07.09.09,0,0,1,0-.07Z"/><path class="cls-26" d="M88.65,225.32a.23.23,0,0,1,.07-.07.2.2,0,0,1,.08,0h.07l.09,0,.08.05a.25.25,0,0,1,.08.18v0l.07.17v0a.14.14,0,0,1,0,.06s0,0,0,0l0,0-.08,0a.21.21,0,0,1-.11,0l-.12-.12h0a.14.14,0,0,1-.08-.05.16.16,0,0,1-.07-.07l0-.06a.14.14,0,0,1,0-.09A.17.17,0,0,1,88.65,225.32Z"/><path class="cls-26" d="M88.07,224.15l.07,0a.11.11,0,0,1,.08,0,.2.2,0,0,1,.11,0,.2.2,0,0,1,.08.08.19.19,0,0,1,0,.1v.19l0,0-.06,0,0,0h0l0,0a.05.05,0,0,1,0,0l-.08-.07a.21.21,0,0,1-.06-.1.21.21,0,0,1,0-.11A.21.21,0,0,1,88.07,224.15Z"/><path class="cls-26" d="M87.81,222.88l0,0a.27.27,0,0,1,.08-.07l.06,0H88a.16.16,0,0,1,.1,0l.08.05,0,0h0l0,0,0,.07a.19.19,0,0,1,0,.08v.12l0,.06,0,0-.08.05h-.06a.09.09,0,0,1-.07,0H88l-.08-.05,0,0,0-.06h0l0-.06h0V223A.18.18,0,0,1,87.81,222.88Z"/><path class="cls-26" d="M88.13,221.88a.2.2,0,0,1,0,.39A.2.2,0,0,1,88.13,221.88Z"/></g></g></svg>