<svg xmlns="http://www.w3.org/2000/svg" viewBox="0 0 384.18 599.79"><defs><style>.cls-1{fill:#f7941d;}.cls-2{fill:#f15a29;}.cls-3{fill:#e77d24;}.cls-4{fill:#fff;}</style></defs><title>Asset 1</title><g id="Layer_2" data-name="Layer 2"><g id="Vector"><path class="cls-1" d="M16.7,295.69,18.55,362s31,9.82,43.85,8.85,19.45-5.8,19.45-5.8L81.31,286s-20.8.4-34.05,2.7S16.7,295.69,16.7,295.69Zm49.77,35.46H57.13V302.27h9.34C68.8,306.25,66.47,331.15,66.47,331.15Z"/><path class="cls-1" d="M90.58,287.26v82.83a68.78,68.78,0,0,0,14.44-.88c7.52-1.33,8.13-3.9,8.13-3.9s-8.56-56-5.45-56.35,11.67-1.08,11.67-1.08l-.58-23s-3.28-.18-5.81-.18A107.45,107.45,0,0,0,90.58,287.26Z"/><path class="cls-1" d="M180.05,287.25c-9.14-.3-14.83-.28-14.83-.28-10.84,6.64-34.41,20.93-34.41,20.93L168.39,309s6.22,12.53,0,13.85-49-7.55-49,0,7.21,42.31,7.21,42.31a257.24,257.24,0,0,0,27.53,5c16.8,2.21,35.28,2.66,35.28,2.66S186.87,287.48,180.05,287.25Zm-31.89,59.49c-.78,3.14-10.12,3.86-10.12,3.86s-5.44-17.89-5.44-19.45,10.89,0,10.89,0S148.93,343.6,148.16,346.74Z"/><path class="cls-1" d="M197.4,372.3s-4.67-84.59,0-85,49.79-7.33,52.9,0,3.09,82,3.09,82a85.94,85.94,0,0,1-11.15,2.08c-5.18.51-18.67.51-18.67.51s9.1-69.69.8-69.6-14,56.05-12.47,70.12Z"/><path class="cls-1" d="M310.22,285.63s-4.73-.17-11.28-.25l-2,9.09-3.21-9.13c-14.39,0-33.13.57-33.94,3.82-1.33,5.31-2.27,78.2,2.15,79.08s35.44-.8,41.19-7.43c0,0,1.33,13.26-.88,15s-117.64,12.82-174.24,0c0,0,2.21,11.05,4.86,16.8,0,0,123.82,15.48,186.18-7.52C319.06,385.12,323.93,310.39,310.22,285.63Zm-20.79,60.14c-3.1,0-9.29-37.15-8.4-41.13s8.84-1.32,8.84-1.32C298.28,352.41,292.53,345.77,289.43,345.77Z"/><path class="cls-1" d="M368.48,326.86c-4.37-1.25-16.24,1.87-16.24,1.87s3.75,34.36-.62,34.36-11.25,1.87-11.25-10.62-3.75-32.48-.62-33.11,28.73,0,29.36-2.5,1.87-30-.63-31.23-23.73-6.87-44.35.63c0,0-2.5,91.2,3.75,98.07,0,0,33.73,3.75,43.72-.62C371.6,383.71,372.85,328.11,368.48,326.86Zm-20.64-33.41c13.12,0,12.5,5.62,12.5,7.49s-23.12,0-23.12,0S334.72,293.45,347.84,293.45Z"/><path class="cls-2" d="M319.72,428.09c-3.61-.83-13.4,1.26-13.4,1.26s3.09,23-.52,23-9.28,1.25-9.28-7.11-3.1-21.75-.52-22.17,23.72,0,24.24-1.67,1.55-20.07-.52-20.91-19.59-4.6-36.61.42c0,0-2.06,61.06,3.09,65.66a50.37,50.37,0,0,0,22.62,4c12.4-.84,15-7.93,18.6-9.21C327.42,461.38,323.33,428.93,319.72,428.09Zm-17-22.37c10.84,0,10.32,3.76,10.32,5s-19.08,0-19.08,0S291.85,405.72,302.68,405.72Z"/><path class="cls-2" d="M19.46,374.86c1.59.4,35,4,36.61,5.24s-.56,58.64,4.43,58.64,6.5-57.95,10.74-57.95,10.75.39,10.75.39,16.12,55.26,20.34,55.26-12-58.2-9.84-58.2,21.67-2,21.67,0,19.89,92.69,16.19,93.89-31,1.79-32.63-3.45-9.59-27.63-15.35-27.63S77,470.22,70.09,470.22s-48.27,8.37-48.8,3.53S19.46,374.86,19.46,374.86Z"/><path class="cls-2" d="M184.33,408.22a128.78,128.78,0,0,0-24.93-4c-7.11-.41-20,.44-23.71,4,0,0,6.13,60.4,9,60.85s12.88,6.57,26.16,6.17,18.8-6.17,19.21-11S186.78,408.67,184.33,408.22Zm-5.73,37.92c-.4,3.09-4.9,4.41-7.76,3.53s-4.09-28.66-3.68-30.86,9-.45,9-.45S179,443.05,178.6,446.14Z"/><path class="cls-2" d="M192.36,407.62s6.73,67.2,8.19,67.62,76.31-8.76,76.8-10,3.89-15.44,2.43-15.86-62.17,6.68-64.11,2.51-2.91-46.76-2.91-46.76S197.7,402.61,192.36,407.62Z"/><path class="cls-2" d="M218.74,405.27s16.83,38.6,19.56,39.41,16.37.41,17.73-.41,22.74-41.43,20.93-41.84-20.93.81-20.93.81L247.39,428s-7.28-21.53-10.91-22.34S218.74,405.27,218.74,405.27Z"/><path class="cls-2" d="M359.28,421.54s15.46,2.73,14.55-2.27-.45-25-5.46-25.47-40,.45-40.93,6.37-1.82,36.38,4.55,36.38,25.92-.45,26.83,2.28,4.55,11.82-.91,12.28-4.09-9.55-6.36-9.55-18.2-.91-18.65.9,0,23.2,5,25.47,35.48,1.37,37.3-7.73,4.09-30-7.74-33.2-20.46,3.18-21.83-5.46-1.82-16.37,3.19-15.92S362,414.72,359.28,421.54Z"/><path class="cls-2" d="M384.18,196.41a105.83,105.83,0,0,1-6.48,18,36.4,36.4,0,0,1-5.54,8.6c-7.35,7.92-29.06,15.47-29.06,15.47s-22.21-5.45-41.07-5c-18.57.4-35.09-11.68-35.59-12.05h0s-23.1,34.18-52.24,46.94c-4.92-10.24-18-26.13-18-26.13s.47,26.07-22.62,32-47.88,27.64-47.88,27.64-3.16-44.09,6.34-56.4c-24.81,10.2-51.87,5.77-81,23C56.52,228.24,89.58,197,89.58,197s-22.93-11.08-37.9-19.3S0,158.32,0,158.32H0c.59-.24,19.54-8.4,40.49-15.86a345.51,345.51,0,0,1,44.77-12.06S69.88,112.23,59.47,96.7,27.05,64.36,27.05,64.36s34.86-3.49,52.33,4.12,38.33,11,38.33,11S136.77,91.18,139.87,102l-4.93-24.66-17.23,2.12s11-3.78,5-27.5c-5.11-20.34-6.55-44-6.86-50.33,0,0,0,0,0,0,0-1-.07-1.58-.07-1.58s30.33,9.85,45.31,25.87,21.13,15.25,28.77,24.78c11.09-12.34,7.9-29.94,7.9-29.94s44.13,33.19,57.4,45c13.06,11.62,36.18,39.77,36.89,40.66h0s16.72,39.73,22.05,48.81c6.75,10.7,22.52,20.42,37.4,27.73A289.4,289.4,0,0,0,384.18,196.41Z"/><path class="cls-1" d="M384.18,196.41a105.83,105.83,0,0,1-6.48,18c-8.44-2.75-10.54-9.92-15-13.64s-11.18-17.85-11.18-17.85A289.4,289.4,0,0,0,384.18,196.41Z"/><path class="cls-3" d="M343.1,238.47s-22.21-5.45-41.07-5c-18.57.4-35.09-11.68-35.59-12.05h0s23.08-8.66,30.73-7,21.29,8.32,26.48,12.92S343.1,238.47,343.1,238.47Z"/><path class="cls-1" d="M292.05,106.36c-.87-.3-17.08-6.14-44.9-29s-41.52,1.19-57.29-26.69c11.09-12.34,7.9-29.94,7.9-29.94s44.13,33.19,57.4,45C268.22,77.32,291.34,105.47,292.05,106.36Z"/><path class="cls-3" d="M139.87,102c-3.1-10.82-22.16-22.54-22.16-22.54s11-3.78,5-27.5c-5.11-20.34-6.55-44-6.86-50.33,1,8.12,11.28,26.82,22.08,51.66C149.52,80,139.87,102,139.87,102Z"/><path class="cls-1" d="M139.87,102s-29.64,3.15-47-8.59-53-30.16-65.78-29c0,0,34.86-3.49,52.33,4.12s38.33,11,38.33,11S136.77,91.18,139.87,102Z"/><path class="cls-1" d="M54.08,158.32c-24.21-7.39-54.08,0-54.08,0H0c.59-.24,19.54-8.4,40.49-15.86a345.51,345.51,0,0,1,44.77-12.06S90.61,166.63,54.08,158.32Z"/><path class="cls-1" d="M115.85,201.41s-3.1,6.58-14.18,17.76-46.82,29.06-50.62,49.31C56.52,228.24,89.58,197,89.58,197S110.42,193.88,115.85,201.41Z"/><path class="cls-3" d="M125.67,301.85s-3.16-44.09,6.34-56.4c0,0,5.32-8.36,13-10a44.59,44.59,0,0,1,0,17.35C143.05,261.71,127.07,283.71,125.67,301.85Z"/><path class="cls-4" d="M293.06,153.24c1.35-4.34-31.89-29.82-35.19-28.87s4.3,17.2,6.87,19.76S291.71,157.57,293.06,153.24Z"/><circle class="cls-1" cx="25.65" cy="131.79" r="4.22"/><circle class="cls-1" cx="101.66" cy="171.28" r="4.22"/><circle class="cls-1" cx="16.7" cy="186.02" r="6.63"/><circle class="cls-1" cx="169.51" cy="9.39" r="6.63"/><circle class="cls-1" cx="162.89" cy="50.28" r="6.63"/><path class="cls-1" d="M80.85,125.06A9,9,0,1,1,70.7,112.23C74.54,117.24,78.19,121.77,80.85,125.06Z"/><circle class="cls-1" cx="25.65" cy="95.88" r="11.43"/><circle class="cls-1" cx="25.65" cy="226.33" r="13.84"/><path class="cls-1" d="M66.38,214.64a16.24,16.24,0,0,1-5.36-32c6.27,3.27,12.81,6.56,18,9.16h0a15.88,15.88,0,0,1,1.33,4.66A16.23,16.23,0,0,1,66.38,214.64Z"/><circle class="cls-1" cx="128.6" cy="128.03" r="18.65"/><circle class="cls-1" cx="101.66" cy="36.78" r="21.05"/><path class="cls-1" d="M20.53,484.42c4.4.51,8.53.83,12.42.94a2.41,2.41,0,0,1,.34,1.53c-.09,1.25-.26,1.87-.51,1.87h-1q-1.22,0-9.1-.59c.05,5.69.11,9.41.17,11.14l9.44.17.17.25v.85c-.12,1.59-.51,2.38-1.19,2.38h-.09c-.91,0-3.63,0-8.16-.08q.16,3.87.17,11.91c0,1.13,0,2.38.17,3.74a2.42,2.42,0,0,1-1.7.59H21c-.85,0-1.27-.34-1.27-1q-.29,0-.6-31.55v-1C19.17,484.79,19.62,484.42,20.53,484.42Z"/><path class="cls-1" d="M40.11,490.19c.91,0,3.07,0,6.47.08,1.3,0,2,.4,2,1.19v1.11q0,1.44-.93,1.44H46c-1,0-2.35.09-4.08.26v.59q0,2-.09,5.7l5.62-.42q.93,0,.93,2v.51c0,.73-.42,1.1-1.27,1.1-.43.06-2.24.2-5.45.43l.17,10.8q1.81,0,6.89-.34c.54,0,.83.45.85,1.36v.34q0,2-1.44,2l-8,.6h-.17c-1.24,0-1.87-.32-1.87-.94q-.33-6.18-.34-13.27v-1.44q.26-12.76,1.11-12.76A2,2,0,0,1,40.11,490.19Z"/><path class="cls-1" d="M63.12,489.7h1.19q3.22,0,3.23,3.4a62.64,62.64,0,0,1,.51,8.93q-.36,15.56-.59,15.56a2.16,2.16,0,0,1-1.7.68H64.65c-.62,0-.94-.25-.94-.76q.18-2.44.51-10.38l-7-.42q0,1.74.09,11.05c0,.5.08.81.08.94,0,.56-.93.85-2.81.85-.48,0-.79-.4-.93-1.19l-.17-23.82c0-1.1.71-2.15,2.13-3.14A17.54,17.54,0,0,1,63.12,489.7ZM57,496.93q.26,6.07.25,6.29l7.32.34.17-5.27c0-3.29-.66-4.94-2-4.94a5.18,5.18,0,0,0-.85-.08,8.5,8.5,0,0,0-4.34,1.27A3.67,3.67,0,0,0,57,496.93Z"/><path class="cls-1" d="M79.58,489.93a4,4,0,0,1,3.78,2.74,27.57,27.57,0,0,1,.72,5.53q0,2-1.53,2c-1.44-.13-2.17-.41-2.17-.85s0-.69,0-1q0-4-1.68-4H78.3c-1.19,0-1.79.91-1.79,2.74V498q.22,4,4.81,5.87,1.94,1.52,1.93,6.46c0,.33,0,.67,0,1V512q0,5.7-1.53,7a7,7,0,0,1-4.08,1.15h-.09q-3.59,0-4.76-3a13.43,13.43,0,0,1-.85-5.06V511a2.08,2.08,0,0,1,.94-2,9.28,9.28,0,0,1,1.61-.23c.91.15,1.36.59,1.36,1.3-.11.9-.2,1.83-.25,2.78,0,1.83.68,2.87,2,3.13H78c.79,0,1.25-.69,1.36-2.07v-.8c0-3.52-.34-5.62-1-6.32q-5.61-2.81-5.61-8.59v-1.87q0-4.63,4.08-6.14A17.17,17.17,0,0,1,79.58,489.93Z"/><path class="cls-1" d="M101.67,489.68c.49,0,.78.35.85,1.06v1.42c0,.63-.35.94-.92.94l-5.16.25c-.22,4-.32,7.16-.32,9.57,0,1.5,0,2.8.1,3.89s.11,2.45.11,4q0,3.37-.23,8.06,0,.36-1.83.36h-.94c-.71,0-1.09-.11-1.15-.24a.38.38,0,0,1-.08-.23.36.36,0,0,1,0-.11c.16-2.42.23-4.77.23-7.06,0-1.67,0-3.33-.12-5-.07-1.43-.11-2.9-.11-4.4q0-3.72.36-8.66l-4.93.37c-.57,0-.85-.36-.85-1.07v-1.59c0-.67.24-1,.72-1.09q6.87-.51,12.14-.51C100.3,489.65,101,489.66,101.67,489.68Z"/><path class="cls-1" d="M118,488.51c.44,0,.78.79,1,2.38.9,3.13,1.67,6,2.29,8.67h.09q3.91-10.51,4.17-10.8h.25a3.8,3.8,0,0,1,2.81,1.32v.34q-1.62,5-4.85,12.76l-.51,1.36q-.57,14.58-.81,14.58c-.3.4-.55.6-.76.6-1.52.06-2.39.08-2.6.08s-.51-.14-.51-.25q.16-9.48.43-14.63,0-1.4-3.49-14.29c-.06,0-.08-.17-.08-.51V490q0-1.07,2.46-1.53Z"/><path class="cls-1" d="M137.62,489.91c2.65,0,4.44,2.12,5.36,6.38a62.28,62.28,0,0,1,.59,8.42q-.36,9.94-.85,9.95a7.31,7.31,0,0,1-1.78,3.23,6.5,6.5,0,0,1-4.34,1.53q-3.47,0-4.59-8.33a56.38,56.38,0,0,1-.43-6.89v-2q0-9.28,3.15-11.48A8.27,8.27,0,0,1,137.62,489.91Zm-2.72,13.86q.4,11.91,2.3,11.91,2.45,0,2.89-9.44v-3.83a16.69,16.69,0,0,0-1.53-7.74,1.64,1.64,0,0,0-1.28-.59c-.92,0-1.6,2.29-2,6.89C135.1,501,135,501.9,134.9,503.77Z"/><path class="cls-1" d="M149.36,490.19c1.24.11,1.87.39,1.87.85q-.6,8.93-.6,11.56,0,9.87.94,11.48a1.46,1.46,0,0,0,1.19.68h.08c1.65,0,2.47-.9,2.47-2.72a70.09,70.09,0,0,0,.34-7.4v-5.18q0-2.94-.17-7.74c0-.44.62-.7,1.87-.77h1c.67,0,1.07,1.08,1.19,3.23.06,1.36.09,2.44.09,3.23v6.47q0,11.25-2.55,14c-.78.62-2.4.94-4.85.94q-3.36,0-4.25-2.55t-.85-10.89q-.09-3.15-.09-9.61c.17-3.46.43-5.19.77-5.19A3,3,0,0,1,149.36,490.19Z"/><path class="cls-1" d="M167.66,489.12a6.89,6.89,0,0,1,5.79,3.4,13,13,0,0,1,1.1,5.28,9.11,9.11,0,0,1-3.31,7.48,120.44,120.44,0,0,0,5.1,12.08v.17c0,.61-.94,1.17-2.81,1.7q-.59,0-2-4-3.41-8.18-3.66-8.5h-.08l-1.11.08.77,12.59a2.78,2.78,0,0,1-1.62.42h-.17c-1.07,0-1.61-.33-1.61-1q-.85-13.14-1.28-27.89c0-1,.29-1.53.85-1.53A39.75,39.75,0,0,1,167.66,489.12Zm-1.53,3.66c0,1-.08,1.69-.08,2q0,4.8.34,8.42h.85c1.83,0,3.07-1.14,3.74-3.41a8,8,0,0,0,.26-2v-.25q0-4.68-4.68-4.68Z"/><path class="cls-1" d="M192.52,490.19c.91,0,3.06,0,6.46.08,1.31,0,2,.4,2,1.19v1.11c0,1-.31,1.44-.94,1.44h-1.61c-1,0-2.35.09-4.08.26v.59q0,2-.09,5.7l5.61-.42c.63,0,.94.68.94,2v.51c0,.73-.43,1.1-1.28,1.1-.42.06-2.24.2-5.44.43l.17,10.8c1.21,0,3.5-.11,6.89-.34.54,0,.82.45.85,1.36v.34c0,1.36-.48,2-1.45,2l-8,.6h-.17c-1.25,0-1.87-.32-1.87-.94q-.34-6.18-.34-13.27v-1.44q.26-12.76,1.1-12.76A2,2,0,0,1,192.52,490.19Z"/><path class="cls-1" d="M207.51,488.51c.44,0,.78.79,1,2.38.91,3.13,1.67,6,2.3,8.67h.08q3.92-10.51,4.17-10.8h.25a3.8,3.8,0,0,1,2.81,1.32v.34q-1.62,5-4.85,12.76l-.51,1.36q-.57,14.58-.81,14.58c-.29.4-.55.6-.76.6-1.52.06-2.38.08-2.59.08s-.52-.14-.52-.25q.18-9.48.43-14.63,0-1.4-3.49-14.29s-.08-.17-.08-.51V490q0-1.07,2.46-1.53Z"/><path class="cls-1" d="M224.16,490.19c.9,0,3.06,0,6.46.08,1.31,0,2,.4,2,1.19v1.11c0,1-.31,1.44-.94,1.44H230c-1,0-2.36.09-4.09.26v.59c0,1.32,0,3.22-.08,5.7l5.61-.42c.63,0,.94.68.94,2v.51c0,.73-.43,1.1-1.28,1.1-.42.06-2.24.2-5.44.43l.17,10.8q1.8,0,6.89-.34c.54,0,.82.45.85,1.36v.34c0,1.36-.48,2-1.45,2l-8,.6H224c-1.25,0-1.87-.32-1.87-.94q-.35-6.18-.34-13.27v-1.44q.25-12.76,1.1-12.76A2,2,0,0,1,224.16,490.19Z"/><path class="cls-1" d="M244.38,489.93a4,4,0,0,1,3.78,2.74,28.17,28.17,0,0,1,.73,5.53c0,1.36-.51,2-1.54,2-1.44-.13-2.16-.41-2.16-.85s0-.69,0-1q0-4-1.68-4h-.43c-1.19,0-1.78.91-1.78,2.74V498q.21,4,4.8,5.87,1.94,1.52,1.94,6.46c0,.33,0,.67,0,1V512c0,3.8-.52,6.15-1.54,7a7,7,0,0,1-4.08,1.15h-.08q-3.6,0-4.77-3a13.63,13.63,0,0,1-.85-5.06V511a2.1,2.1,0,0,1,.94-2,9.28,9.28,0,0,1,1.61-.23c.91.15,1.37.59,1.37,1.3-.12.9-.2,1.83-.26,2.78,0,1.83.68,2.87,2,3.13h.34c.8,0,1.25-.69,1.36-2.07v-.8c0-3.52-.34-5.62-1-6.32q-5.61-2.81-5.61-8.59v-1.87q0-4.63,4.08-6.14A17.27,17.27,0,0,1,244.38,489.93Z"/><path class="cls-1" d="M268.45,489.91c2.65,0,4.43,2.12,5.35,6.38a62.34,62.34,0,0,1,.6,8.42q-.36,9.94-.85,9.95a7.35,7.35,0,0,1-1.79,3.23,6.48,6.48,0,0,1-4.33,1.53q-3.46,0-4.6-8.33a58.39,58.39,0,0,1-.42-6.89v-2q0-9.28,3.14-11.48A8.34,8.34,0,0,1,268.45,489.91Zm-2.73,13.86q.4,11.91,2.3,11.91,2.44,0,2.89-9.44v-3.83a16.69,16.69,0,0,0-1.53-7.74,1.62,1.62,0,0,0-1.27-.59c-.93,0-1.61,2.29-2.05,6.89C265.92,501,265.81,501.9,265.72,503.77Z"/><path class="cls-1" d="M279.91,489.48h.85a1.87,1.87,0,0,1,1.83,1.19,28,28,0,0,1,1.1,5,64.63,64.63,0,0,0,4.13,9,59.73,59.73,0,0,1,2.65,5.36c-.22-2.51-.34-5.88-.34-10.1,0-2.77.05-5.89.15-9.38,0-.74.46-1.11,1.36-1.11h.6q1.8,0,2,.6c-.28,3.61-.43,6.34-.43,8.16q0,5.5.52,19.39a2,2,0,0,1-2,1.2c0,.11-.34.17-1,.17h-.09c-.73,0-1.33-.74-1.78-2.22q-2.83-6.13-5.45-10.71l-1.85-3.85.34,7.65.37,8.36q0,1.11-1.92,1.11t-1.95-1.11v-.42l-.51-21.95q-.09-3.63-.09-5.7C278.65,489.71,279.13,489.48,279.91,489.48Z"/><path class="cls-1" d="M323.37,489.68c.49,0,.78.35.85,1.06v1.42c-.05.63-.35.94-.92.94l-5.16.25c-.22,4-.32,7.16-.32,9.57,0,1.5,0,2.8.1,3.89s.11,2.45.11,4q0,3.37-.23,8.06,0,.36-1.83.36H315c-.71,0-1.09-.11-1.15-.24a.38.38,0,0,1-.08-.23.36.36,0,0,1,0-.11c.16-2.42.23-4.77.23-7.06,0-1.67,0-3.33-.12-5-.08-1.43-.11-2.9-.11-4.4q0-3.72.36-8.66l-4.93.37c-.57,0-.85-.36-.85-1.07v-1.59c0-.67.24-1,.72-1.09q6.87-.51,12.14-.51C322,489.65,322.7,489.66,323.37,489.68Z"/><path class="cls-1" d="M338.53,490c1,0,1.58.31,1.78.93L340,502.43q0,4.17.85,15.48a2.46,2.46,0,0,1-2.12.85h-.34a1.43,1.43,0,0,1-1.62-1.61c-.28-2.39-.54-6.21-.77-11.49l-4.84.34v1.45q0,8.91.25,11.14c-.27.91-1.17,1.36-2.72,1.36a1.41,1.41,0,0,1-1.36-.59q-.17-10-.26-27.05c0-1.3.29-1.95.86-1.95l1.19-.09c1.36.09,2,.37,2,.85q-.09,5.6-.09,8.42v2.55l5-.25q.36-10,.6-11.23c.24-.4.8-.59,1.7-.59Z"/><path class="cls-1" d="M346.37,491.67h1.11q1.53,0,1.53,3.24c.05.68.08,1.7.08,3.06v1.7q0,3.76-.34,17.26c0,.85-.71,1.36-2.12,1.53-1,0-1.63-.25-1.79-.76q0-5.9.43-18-.18-5.54-.34-7.15C344.93,492,345.41,491.67,346.37,491.67Z"/><path class="cls-1" d="M361,489.93a4,4,0,0,1,3.79,2.74,27.57,27.57,0,0,1,.72,5.53q0,2-1.53,2c-1.45-.13-2.17-.41-2.17-.85s0-.69,0-1q0-4-1.68-4h-.43c-1.19,0-1.78.91-1.78,2.74V498q.21,4,4.8,5.87,1.93,1.52,1.94,6.46c0,.33,0,.67,0,1V512q0,5.7-1.53,7a7,7,0,0,1-4.09,1.15H359c-2.4,0-4-1-4.76-3a13.43,13.43,0,0,1-.85-5.06V511a2.09,2.09,0,0,1,.93-2,9.27,9.27,0,0,1,1.62-.23c.9.15,1.36.59,1.36,1.3-.12.9-.2,1.83-.26,2.78,0,1.83.68,2.87,2,3.13h.34c.8,0,1.25-.69,1.37-2.07v-.8c0-3.52-.34-5.62-1-6.32q-5.61-2.81-5.61-8.59v-1.87q0-4.63,4.08-6.14A17.27,17.27,0,0,1,361,489.93Z"/><path class="cls-1" d="M371.35,485.08c1.54.06,2.3.29,2.3.68q-.09,17.34-.08,24.67c-.13.62-.44.93-.94.93h-1.79a1.28,1.28,0,0,1-1.27-.93c.06-2.38.08-4.06.08-5q0-19.91.43-19.9A2.5,2.5,0,0,1,371.35,485.08Zm-.42,30.45c1.81,0,2.72.57,2.72,1.7q.09,0,.09,1c0,1.36-.66,2-2,2h-.17c-1.3,0-2-.39-2-1.19v-1.87C369.65,516.1,370.08,515.53,370.93,515.53Z"/><path class="cls-2" d="M376.67,532.12v22.3s-15.74,7-15.41,28c0,0-9-24.68-31.65-28,0,0,13.85,24.73,6.34,35.05,0,0-11.93-14.27-16.43-12.37,0,0-.85,12.08-7.23,20.69-.34-7.7-3.76-27.51-28.68-42.13,0,0-1.66,19.49,0,25.82,0,0-1.85-4.22-11.41-5.81,0,0-4.29,6.34-3,12.14,0,0-4.9-3.17-8.54-3.68,0,0-7.37,8.52-4.76,15.66h-.27c-1.67-2.76-5.11-10.12-3.17-21.73,0,0-10.47,8-12.2,13.53,0,0-3.79-16.53-10.48-20,0,0-3.34,22-15.05,22,0,0-1.15-17-7.45-20A41,41,0,0,0,196,585.48a40.87,40.87,0,0,0-11.24-11.93c-6.3,3-7.46,20-7.46,20-11.7,0-15-22-15-22-6.68,3.51-10.48,20-10.48,20-1.74-5.52-12.22-13.53-12.22-13.53,2,11.61-1.47,19-3.15,21.73h-.28c2.62-7.14-4.76-15.66-4.76-15.66-3.64.51-8.53,3.68-8.53,3.68,1.26-5.8-3-12.14-3-12.14-9.56,1.59-11.41,5.81-11.41,5.81,1.67-6.33,0-25.82,0-25.82-20,11.71-26.11,26.75-28,36.23a49,49,0,0,1-3.8-14.79c-4.5-1.9-16.43,12.37-16.43,12.37-7.53-10.32,6.34-35.05,6.34-35.05-22.68,3.31-31.66,28-31.66,28,.32-21-15.42-28-15.42-28v-22.3s29.15-6,58.05-5.34c10.22.24,61.62,4.09,108.2,5.38,31.32.87,72.19-6,102.83-6C341.12,526,376.67,532.12,376.67,532.12Z"/></g></g></svg>