<svg xmlns="http://www.w3.org/2000/svg" xmlns:xlink="http://www.w3.org/1999/xlink" viewBox="0 0 112.29 151.94"><defs><style>.cls-1{fill:none;}.cls-2{clip-path:url(#clip-path);}.cls-3{fill:#58595b;}</style><clipPath id="clip-path" transform="translate(0)"><rect class="cls-1" width="112.29" height="151.94"/></clipPath></defs><title>PawGrey</title><g id="Layer_2" data-name="Layer 2"><g id="Layer_1-2" data-name="Layer 1"><g class="cls-2"><path class="cls-3" d="M74.29,147.13a19.17,19.17,0,0,1-7.8-.8c-4.93-1.78-9.66-1.18-14.29,1-5.67,2.62-11.47,4.67-17.84,4.65-9.61,0-15-4.63-16.81-14.05C16,130,17.93,123.17,24,117.78A87.89,87.89,0,0,0,41.84,96.11c3.94-6.76,10-9.1,16.8-7.39a11.15,11.15,0,0,1,7.59,5.83,69.63,69.63,0,0,0,17.19,21.76c1.54,1.29,3,2.71,4.37,4.12,4.58,4.57,6.51,9.86,3.85,16.09s-7.47,10-14.44,10.59a28.73,28.73,0,0,1-2.91,0" transform="translate(0)"/><path class="cls-3" d="M91.21,50.3c-.3,5.41-.94,10.25-2.94,14.81a13.33,13.33,0,0,1-20.41,5.06l-.7-.58c-8.91-7.26-9.69-15.28-2.19-24.1,3.34-3.93,6.55-7.89,7.13-13.24.26-2.37.18-4.79.23-7.18.07-3,1-3.66,3.68-2.3,8.77,4.48,13,12.08,14.57,21.46.36,2.16.45,4.36.63,6.07" transform="translate(0)"/><path class="cls-3" d="M22.25,47.34c.74-11.64,4.69-22,16.57-27.79,4.68-2.27,5.68-1.67,5.81,3.51a58.25,58.25,0,0,0,4.54,21.55c.74,1.74,1.3,3.56,2,5.32,3.2,8.24-.46,13.09-9.35,16-3,1-6.14.55-9.18-.15-5.26-1.21-8.13-4.7-9.39-9.78a47.36,47.36,0,0,1-1-8.65" transform="translate(0)"/><path class="cls-3" d="M110.37,76.45c-.33,7-1.88,13.23-5.42,18.87-3.2,5.1-8.38,7.13-13.93,5.62-4.33-1.17-8.69-6.85-8.87-11.74a10.68,10.68,0,0,1,3.06-7.6,42.83,42.83,0,0,1,6.36-5.9,66,66,0,0,0,11.45-11c2-2.35,3.18-2.23,4.66.51,1.93,3.61,2.43,7.56,2.69,11.19" transform="translate(0)"/><path class="cls-3" d="M13,104.44a9.27,9.27,0,0,1-7.74-3.37c-7.79-9.32-6.8-26.33,2.05-34.67,2.7-2.55,3.81-2.31,4.91,1.19a49.52,49.52,0,0,0,7.88,15.06l2.17,2.87c2.53,3.35,4.95,6.76,2.68,11.2-2.56,5-6.86,7.32-12,7.72" transform="translate(0)"/><path class="cls-3" d="M44.83,4l.48,4.16a5.27,5.27,0,0,1-1.42,4.41c-2.25,2.37-5,1.71-5.94-1.41-.92-3,.69-8,3.26-10.07.86-.69,1.77-1.49,3-1s.71,1.72.76,2.67c0,.39,0,.8,0,1.19h-.11" transform="translate(0)"/><path class="cls-3" d="M77.48,11.06c0,3.68-1.24,5.56-3.24,5.56s-4.19-2.23-4.14-4.7.5-5.1.47-7.7c0-1.93,1.57-1.45,2.61-.82a9.14,9.14,0,0,1,4.3,7.66" transform="translate(0)"/><path class="cls-3" d="M3.86,54.65c.13-3.13.79-5.95,3.31-7.85,1.53-1.15,2.93-1.07,2.95,1.33a24,24,0,0,0,.91,5.6,5.18,5.18,0,0,1,0,2.35C10.55,58.22,9.31,60,7,59.63c-2.82-.39-2.9-2.88-3.09-5" transform="translate(0)"/><path class="cls-3" d="M112.29,51.31c-.23,2-.39,4-2.44,5.14a2.55,2.55,0,0,1-3-.56,5.13,5.13,0,0,1-1.37-5.76,16.09,16.09,0,0,0,1.09-4.94c0-2.56,1.46-2,2.7-1.1,2.32,1.79,2.9,4.43,3.07,7.22" transform="translate(0)"/></g></g></g></svg>