<?xml version="1.0" standalone="no"?>
<!DOCTYPE svg PUBLIC "-//W3C//DTD SVG 20010904//EN"
 "http://www.w3.org/TR/2001/REC-SVG-20010904/DTD/svg10.dtd">
<svg version="1.0" xmlns="http://www.w3.org/2000/svg"
 width="1280.000000pt" height="1280.000000pt" viewBox="0 0 1280.000000 640.000000"
 preserveAspectRatio="xMidYMid meet">
<metadata>
Created by potrace 1.15, written by Peter Selinger 2001-2017
</metadata>
<g transform="translate(0.000000,640.000000) scale(0.100000,-0.100000)"
fill="#0051ac" stroke="none">
<path d="M500 5549 c0 -169 9 -201 70 -259 58 -54 80 -96 80 -148 0 -88 -123
-456 -503 -1512 l-135 -375 -7 -640 c-9 -854 0 -965 80 -1005 38 -19 548 -25
1151 -15 l401 7 17 102 c44 257 143 442 346 647 163 163 336 267 514 306 93
21 388 23 506 4 213 -35 403 -132 576 -293 185 -173 292 -369 342 -628 l27
-140 595 0 c327 -1 1338 -5 2245 -10 908 -4 1651 -7 1652 -6 1 1 12 50 23 107
24 127 54 219 105 319 132 261 378 506 605 601 113 48 221 63 445 63 165 -1
218 -5 299 -22 296 -63 601 -320 740 -623 57 -124 108 -270 121 -347 7 -40 15
-75 18 -78 2 -3 321 -8 708 -11 812 -7 984 0 1082 44 68 31 119 85 142 152 42
121 47 222 52 1027 l5 771 -171 599 c-300 1055 -368 1271 -420 1341 -57 76
-115 109 -203 117 -243 23 -1244 28 -6175 33 l-5333 5 0 -133z m1553 -269
c134 -13 182 -35 208 -96 31 -68 42 -392 35 -954 -6 -453 -16 -605 -42 -668
-32 -78 -120 -85 -1010 -80 -786 5 -781 4 -840 72 -17 20 -39 60 -48 89 -15
49 -15 56 3 127 67 254 465 1314 541 1437 24 40 65 61 138 72 80 12 896 13
1015 1z m1613 0 c76 -7 138 -17 150 -25 55 -36 347 -947 448 -1397 30 -135 31
-148 10 -217 -23 -79 -56 -109 -139 -126 -301 -61 -1275 -57 -1487 7 -122 36
-148 236 -129 1004 13 539 19 591 78 672 29 39 71 62 143 78 71 16 745 18 926
4z m1983 0 c103 -12 150 -34 173 -80 10 -19 46 -123 82 -230 162 -489 356
-1191 356 -1289 0 -42 -31 -101 -73 -138 -63 -55 -101 -58 -797 -58 -778 0
-738 -8 -814 157 -47 101 -114 306 -230 700 -146 498 -168 587 -170 698 -1 83
2 100 22 132 37 60 117 91 287 111 69 9 1087 6 1164 -3z m2020 -9 c66 -13 86
-30 118 -101 102 -228 410 -1303 420 -1465 l5 -80 -44 -70 -44 -70 -719 0
c-755 0 -769 1 -819 44 -44 37 -123 266 -249 721 -175 629 -215 844 -172 934
26 55 94 81 255 100 78 9 1197 -2 1249 -13z m1871 9 c166 -15 177 -20 210 -94
103 -229 375 -1167 411 -1418 20 -139 -10 -242 -77 -260 -77 -21 -352 -29
-874 -26 -416 3 -565 7 -594 17 -70 23 -88 52 -159 273 -122 376 -337 1122
-368 1277 -10 55 -10 63 10 94 29 47 104 115 135 123 15 3 50 10 79 14 79 11
1095 11 1227 0z m1983 1 c83 -6 136 -14 150 -24 65 -43 152 -294 342 -986 85
-312 115 -455 115 -559 0 -91 -10 -120 -58 -166 -60 -56 -88 -59 -741 -63
-603 -5 -719 0 -781 32 -20 10 -38 35 -58 77 -73 154 -355 1087 -422 1396 -21
94 -19 122 8 177 37 76 83 102 206 115 101 10 1085 11 1239 1z"/>
<path d="M2675 2359 c-260 -40 -484 -206 -600 -444 -62 -127 -77 -188 -82
-346 -4 -116 -2 -148 16 -220 61 -240 215 -435 426 -540 144 -71 203 -84 365
-83 123 1 143 3 230 32 373 123 608 495 560 887 -35 289 -211 529 -475 651
-41 19 -102 41 -137 49 -82 19 -227 26 -303 14z"/>
<path d="M9507 2354 c-90 -16 -184 -52 -272 -102 -85 -50 -230 -199 -282 -292
-182 -325 -134 -720 120 -986 441 -465 1199 -255 1358 375 29 115 23 328 -11
436 -97 303 -336 518 -635 570 -105 18 -174 18 -278 -1z"/>
</g>
</svg>
