<svg xmlns="http://www.w3.org/2000/svg" viewBox="0 0 404.58 293.67"><defs><style>.cls-1{fill:#57c4c6;}.cls-2{fill:#1e4949;}.cls-3{fill:#378988;}.cls-4{fill:#211e15;opacity:0.21;}.cls-5{fill:#b6b49c;}.cls-6{fill:#e9e5c5;}.cls-7{fill:#6e5136;}.cls-8{fill:#cc996b;}.cls-9{fill:#ef4857;}.cls-10{fill:#bdd751;}.cls-11{fill:#7dcaae;}.cls-12{fill:#e2559f;}.cls-13{fill:#764e00;}.cls-14{fill:#fbac1d;}.cls-15{fill:#be8313;}.cls-16{fill:#f9c470;}.cls-17{fill:#dc8427;}.cls-18{fill:#97999b;}.cls-19{fill:#f3f4f4;}.cls-20{fill:#6a6c6e;}.cls-21{fill:#231f20;}.cls-22{fill:#b9babc;}.cls-23{fill:#f69322;}.cls-24{fill:#2daad5;}.cls-25{fill:#2fbeef;}.cls-26{fill:#393839;}.cls-27{fill:#2a292a;}.cls-28{fill:#cfd2d3;}.cls-29{fill:#fff;}.cls-30{fill:#eeeded;}.cls-31{fill:#5c595a;}.cls-32{fill:#5c5a5b;}.cls-33{fill:#f7f8f9;}.cls-34{fill:none;stroke:#fff;stroke-linecap:round;stroke-linejoin:round;stroke-width:0;}</style></defs><title>VisualArtsBus</title><g id="Layer_2" data-name="Layer 2"><g id="Layer_1-2" data-name="Layer 1"><path class="cls-1" d="M78.51,240.56S53,242.51,57.9,253.87s12.87,5.9,14.26.46S72,243.81,78.51,240.56Z"/><path class="cls-1" d="M51.44,85.43S48.27,45.88,30.72,53.6s-9.07,19.95-.64,22.08S46.38,75.36,51.44,85.43Z"/><path class="cls-1" d="M315.34,68.7s35.41-51.79,43.86-28.53S329.61,54.44,315.34,68.7Z"/><path class="cls-1" d="M281.09,147.42s-31.95,8.71-46.47-21.06S209.2,24,136.59,26.88,32,130,93.75,151.05s107.47-15.25,151.76,10.89S281.09,147.42,281.09,147.42Z"/><path class="cls-1" d="M362.69,185.15C348,184.91,338.77,172.64,328.6,161c-4.7-5.37-9.59-10.6-15.31-14.44-9.88-6.64-22.22-9.15-40.25-1.09l-3.24,1.45c-48.78,21.61-70.19,26.95-73.92,8.87,0,0,59.23-3.8,80.42-38a83.69,83.69,0,0,1,7.78-10.58c24.44-28.48,70-45.69,103.06-11.7C424.08,133.54,395.83,185.7,362.69,185.15Z"/><path class="cls-1" d="M336.61,246c-16.34,14.56-23.1,4.42-29.6-8.2-5.38-10.46-10.59-22.63-20.93-23.86-18.87-2.25-18.05-50.17-16.28-67,.37-3.53.78-5.7,1.06-5.8,1.63-.54,46.73-16.3,46.73-16.3l1.63,23.91a46.29,46.29,0,0,0-5.93-2.17c-9.72-2.81-26.21-3.87-7.65,30.42,11.53,17.13,35.83,30.68,40.37,46.07C348.1,230.15,346,237.62,336.61,246Z"/><path class="cls-2" d="M346,223.07c-6.11,7.67-18.12,14-39,14.74-5.38-10.46-10.59-22.63-20.93-23.86-18.87-2.25-18.05-50.17-16.28-67-48.78,21.61-70.19,26.95-73.92,8.87,0,0,59.23-3.8,80.42-38a83.69,83.69,0,0,1,7.78-10.58,56.62,56.62,0,0,0,7.29-1.55C328.1,95,351.13,136,329.88,159.57L328.6,161c-4.7-5.37-9.59-10.6-15.31-14.44-9.72-2.81-26.21-3.87-7.65,30.42C317.17,194.13,341.47,207.68,346,223.07Z"/><path class="cls-1" d="M2.69,211.89c4,27.51,26.59,28.71,43.83,22.94a54.67,54.67,0,0,0,13.38-6.52l1.49-1c17.84-12.48,42.45-32.77,76.84-31.72,35.35,1.08,38.61,53.17,38.61,53.17s29.37-48.33,22.3-70.89c0,0-39.16,17.18-80.49-4.3C94.35,160.91,61,148.83,36.26,153a45.25,45.25,0,0,0-11.07,3.28c-11.73,5.28-20.14,16.1-22.39,34.94-.27,2.26-.47,4.42-.58,6.48A69.55,69.55,0,0,0,2.69,211.89Z"/><path class="cls-1" d="M92.11,268.83a40.09,40.09,0,0,0,21.32,5.54,38.67,38.67,0,0,0,5.3-.48c9.51-1.55,17.7-6.7,20.9-15.13a22.4,22.4,0,0,0,1.38-6.24c1.62-21.18-.55-61.39-.55-61.39s-7.58-2.52-15.43-5c-8-2.54-16.34-5-17.16-4.77-1.63.54-17.14,25.68-17.39,26.07.31-.17,13.85-7.75,21-3.86,3.91,2.12,5.93,7.64,2.89,19.63a39.45,39.45,0,0,1-2.78,6.08C100.39,249.36,74.75,258.41,92.11,268.83Z"/><path class="cls-3" d="M50.91,112.4S56.24,65.59,109,69.14,250,99.36,286.73,88.7,346.5,119,325.25,142.61s.59,29.63,13.62,34.37,16.59,46.22-45.62,43.85S43.72,176.61,56.2,154,42.61,131.36,50.91,112.4Z"/><path class="cls-1" d="M158.39,141.14s44.56-1.63,22.28,19S106.78,171,96.45,162.88c0,0-8.15,20.64-3.26,21.19s107.58,12.49,107.58,12.49l32.06-46.72-21.19-23.91-42.92-6.52Z"/><path class="cls-1" d="M242.61,102.57s1.63-82,36.4-81S316.5,58,297.49,63.45,247,117.78,242.61,102.57Z"/><path class="cls-1" d="M230.66,58.56s-10.33-45.64-24.45-30.43S222.51,63.45,230.66,58.56Z"/><path class="cls-4" d="M2.89,211.46c14.81,14.72,33,20.78,43.79,23.2a54.46,54.46,0,0,0,13.37-6.59l1.49-1c-.76-6.13-6.5-12.42-6.11-13.2C56,212.6,30.9,194.2,30.9,194.2L2.42,197.14A71.88,71.88,0,0,0,2.89,211.46Z"/><path class="cls-4" d="M25.19,156.31a31.38,31.38,0,0,1,12.28,19.42l.62,9.71S56.2,170,56.2,168.16c0-1.5-14.68-11.57-19.94-15.13A45.25,45.25,0,0,0,25.19,156.31Z"/><path class="cls-5" d="M265,146.19,285.67,41.9a5.91,5.91,0,0,0-5.91-7L95.82,38.43a5.91,5.91,0,0,0-5.71,6.91l16.51,94.93a5.92,5.92,0,0,0,5.59,4.89l146.71,5.78A5.91,5.91,0,0,0,265,146.19Z"/><path class="cls-5" d="M284.74,37.32s-5.86-5.58-9.13-5.86l-.14,9.68,7.23-.27Z"/><path class="cls-6" d="M84.85,42.11l8.47,48.7,3.44,19.76,4.6,26.46a5.9,5.9,0,0,0,5.58,4.89h.23l86.74,3.42,4.31.17,8.49.33,6.14.24,40.81,1.61a5.9,5.9,0,0,0,6-4.75L280,41l.46-2.3a5.91,5.91,0,0,0-4.8-7,6.74,6.74,0,0,0-1.11-.09L163.32,33.78l-1.88,0-38,.74-15.86.31-17,.33A5.91,5.91,0,0,0,84.85,42.11Z"/><path class="cls-4" d="M111.47,180l0,9.41.11,25.71.17,41.43,1.65,3.67a38.67,38.67,0,0,0,5.3-.49l20.9-15.12,56.75-41.06S268.9,127.29,268,114.28c0,0-18.59-12.71-22-12.4-2.73.25-87.35,50.18-120.94,70.06Z"/><path class="cls-4" d="M120,91.93l2.45,13.5,3.92,1L190.68,123l7.54,8.3,1.61,1.77,1.25,1.38,1,1.12,1.42,1.57,2.5-1.41,1.8-1,2.19-1.23,2.83-1.6.3-.17L194.4,80.93l-19-34-10.66-24-1.47-3.31-1.88,0-38,.74,1,3.32,6.64,21.46a23.67,23.67,0,0,0,.65,2.65C135.17,59,147,75,147,75l33.8,35.76C165.66,103.61,121.26,91.88,120,91.93Z"/><path class="cls-7" d="M.06,193.57C1.45,212.16,30.69,233,73.84,232.51s167-24.78,124.36-98.67c0,0-139.46-74.38-180-17.26,0,0-13,24.79,5.57,33.19s20.41,25.66,8.35,26.1S-1.33,175,.06,193.57Zm29.22-71.5s23.52-18.3,37.57,3.09S1.72,145,29.28,122.07Z"/><path class="cls-8" d="M1,192.23c1.39,18.58,30.62,39.37,73.78,38.93s167-24.78,124.35-98.67c0,0-139.46-74.38-180-17.25,0,0-13,24.78,5.57,33.18s20.42,25.66,8.35,26.1S-.36,173.64,1,192.23Zm29.22-71.51s23.51-18.29,37.56,3.09S2.68,143.65,30.25,120.72Z"/><path class="cls-9" d="M122.11,117.75s-21.11-11-27-4.16,6.83,14.27-3,16.35-25,10.71-16.94,14.27,28.54-8.92,38.05-4.75S149.16,129.65,122.11,117.75Z"/><path class="cls-10" d="M103,179.05c-.47-.81-9.81-25.27-24.37-19.32S76.27,194.81,62,198.38s-7.14,23.18,18.43,11.29S109.27,189.76,103,179.05Z"/><path class="cls-11" d="M168,159.51s-25.72-21.91-42.39-6.67.48,14.76-2.86,24.29S182.76,208.09,168,159.51Z"/><path class="cls-12" d="M189.59,142.34s-16.45-17.47-35.83-12.06S215.44,170.22,189.59,142.34Z"/><path class="cls-13" d="M157.35,80.51l22.46,32.8,25.55,37.32s15,8,17.45,2.05c1.37-3.26-7.29-28.92-15.3-51.21-5.44-15.11-10.57-28.68-12.11-32.69L195,67.57C189.57,63.61,157.35,80.51,157.35,80.51Z"/><path class="cls-14" d="M157.35,80.51l22.46,32.8a26.26,26.26,0,0,0,20.07-1.67,14.26,14.26,0,0,0,7.63-10.17c-5.44-15.11-10.57-28.68-12.11-32.69L190,73.87s-18.35,8.51-18.89,8.64S157.35,80.51,157.35,80.51Z"/><path class="cls-15" d="M196,69.34S197.4,77.78,181.12,84s-21.72-.69-21.72-.69l-2.05-2.78,23.39-2.29Z"/><path class="cls-14" d="M198.28,57.79s3.08,17-18.95,25.6-31.61-11.88-31.61-11.88L164.8,50.06Z"/><path class="cls-2" d="M101.41,10.08c.52-.07,28.29-4.27,31.76,30.41a84.87,84.87,0,0,0,1.29,8.65c5.76,28.16,24.27,36.93,42.22,31.05,19.67-6.44,34.12-26.35,10.15-61.94a39.64,39.64,0,0,0-3.5-4.48C157.56-14.7,102.14,9.76,101.41,10.08Z"/><path class="cls-16" d="M195.27,77.48l9.37,25.06s-2,5.25-7.23,6.77c0,0,6.43-5.08,4-8.85s-6.45-2.64-9.11-6.57S197,85,195.27,77.48Z"/><path class="cls-9" d="M101.41,10.08c.52-.07,28.29-4.27,31.76,30.41a84.87,84.87,0,0,0,1.29,8.65A10.14,10.14,0,0,0,142,52.63c14-.22,1.19-28.63,15.45-27.48S190.75,65.68,190,33.78a33.45,33.45,0,0,0-6.71-20C157.56-14.7,102.14,9.76,101.41,10.08Z"/><path class="cls-4" d="M268,114.28,300.84,132s-2.82,1.32-2.63,3.57l-31-17.87Z"/><path class="cls-17" d="M181.37,287.74,183,288l3,.47,1,3.61a10.79,10.79,0,0,1-10.89.21l-56.17-32.43a8.44,8.44,0,0,1-4.22-7.31V183.91a4.15,4.15,0,0,1,2.16-3.55l.93,2.51-.33.33,56.09,32.38,6.42-3.92L191,218.57l.91.64-1.71.8-8.86,4.15Z"/><path class="cls-18" d="M187,292.08a10.79,10.79,0,0,1-10.89.21l-56.17-32.43a8.44,8.44,0,0,1-4.22-7.31v-2.31l65.84,37.9L183,288l3,.47Z"/><path class="cls-19" d="M312.68,146a3.69,3.69,0,0,0-2.13-3.51l-2.27,3.37s2.26,4.07,2.35,4S312.68,146,312.68,146Z"/><path class="cls-20" d="M219.19,273.49l22.62-13.06L241.48,246l-25.43,9.54s.16,17.44.62,17.52Z"/><path class="cls-20" d="M271.78,243.15,297,228.57l-.33-14.39-25.43,9.54s.16,17.44.62,17.52S271.78,243.15,271.78,243.15Z"/><path class="cls-21" d="M236.42,255.88h0l-.15-.09-5.45-3.44a11.29,11.29,0,0,0-1.1-.69h0a9.61,9.61,0,0,0-9.43.13h0a18,18,0,0,0-9,15.6h0a9.59,9.59,0,0,0,5.06,8.5h0l5.16,3.3.12.08.22.14h0a9.58,9.58,0,0,0,9.89.13h0a18,18,0,0,0,9-15.59h0A9.61,9.61,0,0,0,236.42,255.88Z"/><path class="cls-22" d="M229.34,262.15h0a5,5,0,0,1,7.42,4.29h0a9.2,9.2,0,0,1-4.6,8h0a5,5,0,0,1-7.42-4.29h0A9.22,9.22,0,0,1,229.34,262.15Z"/><path class="cls-21" d="M291.22,224.3h0l-.15-.1-5.45-3.43a8.43,8.43,0,0,0-1.1-.69l0,0h0a9.56,9.56,0,0,0-9.43.13h0a18,18,0,0,0-9,15.59h0a9.6,9.6,0,0,0,5.06,8.51h0l5.16,3.3.12.08.22.13h0a9.6,9.6,0,0,0,9.89.13h0a18,18,0,0,0,9-15.59h0A9.58,9.58,0,0,0,291.22,224.3Z"/><path class="cls-22" d="M284.14,230.57h0a5,5,0,0,1,7.42,4.28h0a9.19,9.19,0,0,1-4.6,8h0a4.94,4.94,0,0,1-7.42-4.28h0A9.21,9.21,0,0,1,284.14,230.57Z"/><path class="cls-23" d="M312.68,146V216.4l-17.17,13a11,11,0,0,0-3.79-5.09l-.09-.06a8.18,8.18,0,0,0-9.12-.38,18,18,0,0,0-6.59,6.59,18.14,18.14,0,0,0-1.65,3.81.5.5,0,0,1,0,.13,18.27,18.27,0,0,0-.72,5.07,9.71,9.71,0,0,0,.3,2.44l-33,19a10.94,10.94,0,0,0-3.76-5.08l-.08-.07a8.12,8.12,0,0,0-9.12-.4,17.94,17.94,0,0,0-8.24,10.43.5.5,0,0,0,0,.13,17.94,17.94,0,0,0-.72,5,10,10,0,0,0,.31,2.47L187,292.08a3.75,3.75,0,0,1-5.62-3.24v-63.4a10.13,10.13,0,0,1,.18-1.91,10.29,10.29,0,0,1,4.95-7l124.2-71.7A1.32,1.32,0,0,1,312.68,146Z"/><polygon class="cls-24" points="115.7 243.17 181.55 281.18 181.37 288.06 115.7 250.24 115.7 243.17"/><path class="cls-25" d="M312.68,205.37v6.88l-21,12.1-.09-.06a8.18,8.18,0,0,0-9.12-.38,18,18,0,0,0-6.59,6.59,18.14,18.14,0,0,0-1.65,3.81.5.5,0,0,1,0,.13L237.08,255.9l-.08-.07a8.12,8.12,0,0,0-9.12-.4,17.94,17.94,0,0,0-8.24,10.43.5.5,0,0,0,0,.13l-38.23,22.07v-6.88Z"/><path class="cls-22" d="M219.64,265.86a17.8,17.8,0,0,0-.76,5.16,10,10,0,0,0,.31,2.47L187,292.08a3.75,3.75,0,0,1-5.62-3.24V288Z"/><path class="cls-22" d="M274.27,234.31a18,18,0,0,0-.76,5.2,9.71,9.71,0,0,0,.3,2.44l-33,19a11.05,11.05,0,0,0-3.84-5.15Z"/><path class="cls-22" d="M312.68,212.14v4.26l-17.17,13a10.9,10.9,0,0,0-3.88-5.15Z"/><path class="cls-26" d="M212.47,221.8v52.72l-9.19,5.3-.69.4-1.07.61-10.94,6.32V234.73a6,6,0,0,1,3-5.2l7.94-4.58,1.07-.62.69-.4,6.44-3.72.22-.11A1.83,1.83,0,0,1,212.47,221.8Z"/><path class="cls-26" d="M305.87,167.21V195a3.78,3.78,0,0,1-1.86,3.22l-24.47,14.12-.68.4-33.07,19.09-.69.4-26.9,15.52a1.38,1.38,0,0,1-1.43,0,1.41,1.41,0,0,1-.71-1.24V218.77a3.77,3.77,0,0,1,1.89-3.28l27.15-15.68.69-.4,33.07-19.08.68-.4,24.17-14A1.44,1.44,0,0,1,305.87,167.21Z"/><path class="cls-26" d="M305.87,167.21V195a3.78,3.78,0,0,1-1.86,3.22h0l-24.46,14.12-.68.4-.7.4-32.37,18.69-.69.4-.78.45L218.2,247.79a1.38,1.38,0,0,1-1.43,0,1.41,1.41,0,0,1-.71-1.24V218.77a3.77,3.77,0,0,1,1.89-3.28l26.37-15.23.78-.45.69-.4,32.37-18.69.7-.39.68-.4,24.17-14a1.34,1.34,0,0,1,.74-.19A1.44,1.44,0,0,1,305.87,167.21Z"/><path class="cls-27" d="M305.16,197.21a3.74,3.74,0,0,1-1.15,1l-24.47,14.12-.68.4-33.07,19.09-.69.4-26.9,15.52a1.38,1.38,0,0,1-1.43,0,3.91,3.91,0,0,1,1.18-1.07l27.15-15.67.69-.4,33.07-19.09.68-.4,24.17-13.95A1.42,1.42,0,0,1,305.16,197.21Z"/><path class="cls-28" d="M191,218.57l-.8,1.44-8.86,4.15v11.51l-65.66-37.9V183.91a4.15,4.15,0,0,1,2.16-3.55l.93,2.51-.33.33,56.09,32.38,6.42-3.92Z"/><path class="cls-29" d="M244.43,107.3,117.87,180.36a1.45,1.45,0,0,0,0,2.5l57.74,33.33a11.51,11.51,0,0,0,11.52,0l123.42-71.26a1.41,1.41,0,0,0,0-2.45L249.64,107.3A5.21,5.21,0,0,0,244.43,107.3Z"/><path class="cls-30" d="M312.68,146V158.4L181.55,234.31V223.53a10.29,10.29,0,0,1,4.95-7l124.2-71.7A1.32,1.32,0,0,1,312.68,146Z"/><path class="cls-26" d="M184,273.23a5.13,5.13,0,0,1-2.91.91,5,5,0,0,1-2.54-.68l-57.32-33.09-5.53-3.2V186.63l6.58,3.71,57.21,32.27a7.63,7.63,0,0,1,3.74,5.66l.24,4.92,1.71,34c.06.7.15,1.42.18,2.12C185.45,270.87,185.28,272.34,184,273.23Z"/><path class="cls-31" d="M123.74,238.48l-2.5,1.89-5.53-3.2V186.63l6.58,3.71v44.47Z"/><path class="cls-27" d="M184,273.23a5.13,5.13,0,0,1-2.91.91,5,5,0,0,1-2.54-.68l-62.85-36.29,6.58-2.36,63.08,34.5C185.45,270.87,185.28,272.34,184,273.23Z"/><polygon class="cls-27" points="190.58 284.92 209.94 273.75 212.47 274.52 190.58 287.15 190.58 284.92"/><polygon class="cls-32" points="203.28 223.93 203.28 279.82 202.59 280.22 202.59 224.33 203.28 223.93"/><polygon class="cls-32" points="245.79 199.41 245.79 231.87 245.1 232.27 245.1 199.81 245.79 199.41"/><polygon class="cls-32" points="279.54 179.93 279.54 212.38 278.86 212.78 278.86 180.32 279.54 179.93"/><path class="cls-27" d="M212.47,221.8v52.72l-2.53-.77V220.1A1.83,1.83,0,0,1,212.47,221.8Z"/><polygon class="cls-27" points="202.59 224.33 202.59 280.22 201.53 280.83 201.53 224.95 202.59 224.33"/><path class="cls-27" d="M305.87,167.21V195a3.78,3.78,0,0,1-1.86,3.22h0l-.29-1a1.9,1.9,0,0,0,.74-1.51V165.78A1.44,1.44,0,0,1,305.87,167.21Z"/><polygon class="cls-27" points="245.1 199.81 245.1 232.27 244.32 232.72 244.32 200.26 245.1 199.81"/><polygon class="cls-27" points="278.86 180.32 278.86 212.78 278.16 213.18 278.16 180.72 278.86 180.32"/><polygon class="cls-27" points="180.13 281.4 180.13 286.67 176.86 284.78 176.86 279.51 177.51 279.89 180.13 281.4"/><polygon class="cls-17" points="180.13 281.4 180.13 286.05 177.51 284.57 177.51 279.89 180.13 281.4"/><polygon class="cls-27" points="175.71 278.81 175.71 284.07 169.99 280.77 169.99 275.5 170.44 275.77 175.71 278.81"/><polygon class="cls-19" points="175.71 278.81 175.71 283.51 170.44 280.5 170.44 275.77 175.71 278.81"/><polygon class="cls-27" points="120.35 246.93 120.35 252.2 117.08 250.31 117.08 245.04 117.74 245.42 120.35 246.93"/><polygon class="cls-17" points="120.35 246.93 120.35 251.58 117.74 250.1 117.74 245.42 120.35 246.93"/><polygon class="cls-27" points="126.9 250.73 126.9 256 121.18 252.7 121.18 247.43 121.64 247.69 126.9 250.73"/><polygon class="cls-19" points="126.9 250.73 126.9 255.43 121.64 252.43 121.64 247.69 126.9 250.73"/><path class="cls-27" d="M183.48,233.19l-67.77-38.13v-8.43l6.58,3.71,57.21,32.27a7.63,7.63,0,0,1,3.74,5.66Z"/><path class="cls-28" d="M224.45,180.32l-22.88,13.21a8.71,8.71,0,0,1-8.65,0L155.7,172a1.52,1.52,0,0,1,0-2.62l4.88-3.33.71.07,15.58-9.07a11.46,11.46,0,0,1,11.48,0l10.43,6,18.39,10.62,2.39-.33,5,4.62a1.34,1.34,0,0,1,.21.2l0,0h0A1.39,1.39,0,0,1,224.45,180.32Z"/><path class="cls-30" d="M224.45,180.32l-22.88,13.21a8.64,8.64,0,0,1-4.33,1.15l-.46-6.91-3.84-9.52L196.78,163l2,.09,18.39,10.62,2.39-.33,5,4.62a1.34,1.34,0,0,1,.21.2l0,0h0A1.39,1.39,0,0,1,224.45,180.32Z"/><path class="cls-33" d="M188.59,155.5l31,17.89a1.18,1.18,0,0,1,0,2.05l-19.62,11.33a7.42,7.42,0,0,1-7.43,0l-31.93-18.43a1.3,1.3,0,0,1,0-2.25l18.17-10.57A9.8,9.8,0,0,1,188.59,155.5Z"/><path class="cls-28" d="M286.21,145l-22.88,13.21a8.66,8.66,0,0,1-8.66,0l-37.21-21.49a1.51,1.51,0,0,1,0-2.61l4.88-3.33.72.07,15.58-9.07a11.44,11.44,0,0,1,11.47,0l10.43,6,18.4,10.62,2.39-.33,5,4.62a2.09,2.09,0,0,1,.22.2l0,0h0A1.38,1.38,0,0,1,286.21,145Z"/><path class="cls-30" d="M286.21,145l-22.88,13.21A8.71,8.71,0,0,1,259,159.4l-.47-6.92L254.69,143l3.84-15.23,2,.08,18.4,10.62,2.39-.33,5,4.62a2.09,2.09,0,0,1,.22.2l0,0h0A1.38,1.38,0,0,1,286.21,145Z"/><path class="cls-33" d="M250.34,120.22l31,17.88a1.18,1.18,0,0,1,0,2.05l-19.63,11.34a7.47,7.47,0,0,1-7.43,0l-31.92-18.44a1.29,1.29,0,0,1,0-2.24l18.17-10.58A9.8,9.8,0,0,1,250.34,120.22Z"/><path class="cls-21" d="M253.73,240.88c2.46-1.64.72-5.88,3.61-6.93a2.14,2.14,0,0,1,2,.26l.14.11a.68.68,0,0,1,.31.08c.1,0,.31.33.36.34s.27-.31.31-.37a8,8,0,0,0,.37-.88c-.67-1.89-1-4.39.54-6s3.55-.52,4.64.92a6.68,6.68,0,0,1,.68,6.47c-.28.82-.89,1.86-.64,2.75a2.58,2.58,0,0,0,1,1,1.45,1.45,0,0,0,.65-.12,4,4,0,0,0,.57-2c-.05-1.39-.73-2.5-.44-3.94.37-1.79,1.89-2.86-.05-4.43-.55-.44-1.08-.36-1.31-1.2-.43-1.59,1.6-3.5,3.08-3.63a2.18,2.18,0,0,1,1.89.82,4.25,4.25,0,0,1,.68,1.14c.22.47.28.92.44,1.27.38.29.73.27,1-.62a9.58,9.58,0,0,1,3.05-4.75s0,0,0,0a2.72,2.72,0,0,1,1.54-1.28c.46-.18,1-.1,1.44-.24l.29-.34a1.27,1.27,0,0,1,.65-.62.31.31,0,0,1,.31.53l-.19.14a.57.57,0,0,0-.13.21,1.6,1.6,0,0,0,.71-.25c.24-.15.53.21.31.4a2,2,0,0,1-.52.35,10.76,10.76,0,0,0-1.18,1.06c-.1.1-.24,0-.23-.12h0c-.2.88-1.21,1.25-2,1.35a.4.4,0,0,1-.34-.1l0,0a8.5,8.5,0,0,0-1.16,3.94,4.51,4.51,0,0,1-.63,2.5c-1,1.32-2.68.84-3.54-.36l0,0c-.73-.63-1.37-1.59-2-2.2a4.24,4.24,0,0,0,.4,1.73c.08.24.27.44.35.69a3.83,3.83,0,0,1,.1,1.78,20,20,0,0,0-.44,3.38,24.47,24.47,0,0,1,.26,3.31,4,4,0,0,1-.25,1,3.13,3.13,0,0,1-1.17,2,2.93,2.93,0,0,1-3.63.19l-.28-.09a1.1,1.1,0,0,1-.33-.21c-1.08-.71-1.11-2-.83-3.17a9.79,9.79,0,0,1,.4-2,7.09,7.09,0,0,0,.46-2.69c-.07-.68-.39-1.26-.45-2a.43.43,0,0,0,0,0l-.05,0c-.66-.54-1.91-.84-2.27.05a6.62,6.62,0,0,0-.05,1.19c.07,1.45,1.12,2.69.87,4.18a2.18,2.18,0,0,1-3.78,1.31c-.58-.54-1-1.24-1.63-.1-.41.71-.11,1.81-.51,2.57-.58,1.12-2.06,1.39-3.1,1.94A.14.14,0,0,1,253.73,240.88Z"/><path class="cls-29" d="M237.63,244.05a.86.86,0,0,1-.32,1.08.83.83,0,0,1-1.07-.13c-.12-.13.08-.33.19-.19a.6.6,0,0,0,.79.08.61.61,0,0,0,0-1c-.58-.5-1.12.08-1.64.34,0,0-.09,0-.08-.05C235.52,243.07,237.27,243.1,237.63,244.05Z"/><path class="cls-29" d="M235.35,247.49c1.72.28,4.25-.46,4.52-2.45a2.28,2.28,0,0,0-2.69-2.61.19.19,0,0,0-.1,0,2.88,2.88,0,0,0-3.73,1.41A2.58,2.58,0,0,0,235.35,247.49Zm-1.14-4a2.58,2.58,0,0,1,2.89-.5.2.2,0,0,0,.25-.12,1.9,1.9,0,0,1,1.47,3,4,4,0,0,1-3.62,1A2.07,2.07,0,0,1,234.21,243.45Z"/><path class="cls-29" d="M234.76,249.67c2.56.68,6.73-.13,7.7-3a4.64,4.64,0,0,0-.17-3.76c-.63-.93-1.7-1.09-2.7-1.4l0,0c-2.57-1.35-6.22-1.15-7.72,1.69A4.44,4.44,0,0,0,234.76,249.67Zm-1.51-7.15c1.74-1.62,4.06-1.2,6.06-.44a.27.27,0,0,0,.36-.17c1.66,1,3.26,1.93,2.35,4.4s-3.94,3.08-6.18,2.79a4.36,4.36,0,0,1-3.27-1.59A4.14,4.14,0,0,1,233.25,242.52Z"/><path class="cls-29" d="M213.24,270.16a37.47,37.47,0,0,1,7.54-11.65,27.31,27.31,0,0,1,5.81-4.5c1.81-1,3.8-1.65,5.61-2.66a13.42,13.42,0,0,0,3.63,1,13.16,13.16,0,0,0,6.87-.53c1.71-.7,2.4-2.39,2.8-4.09a7.36,7.36,0,0,0-.13-4.36.41.41,0,0,0,.37-.36c.57-3.48,3.79-5.69,6.19-8,1.77-1.68,3.22-3.88,2.19-6.34-.06-.13-.27-.09-.23.06.94,4-3,6-5.46,8.35a11.59,11.59,0,0,0-3.59,5.27l-.07-.09a5.49,5.49,0,0,0-1.85-1.54.23.23,0,0,0,.11-.09c1.53-2.47,3.7-4,5.85-5.82a5.68,5.68,0,0,0,2.11-5.06c0-.4-.67-.41-.63,0,.26,3.15-1.88,4.46-4,6.2a13.6,13.6,0,0,0-3.74,4.42.27.27,0,0,0,0,.19,9.22,9.22,0,0,0-2.13-.63c.75-2.16,3.18-3.57,4.83-5,1.15-1,2.2-2,2.08-3.57,0-.09-.13-.12-.15,0-.79,3.86-6,4.88-7.34,8.47v0l-.18,0a.35.35,0,0,0-.32-.38c-3.78-.58-8.9.13-9.56,4.76a15.19,15.19,0,0,0-.15,2.24c-3.55,1.26-7.16,2.53-10.19,4.85a24.75,24.75,0,0,0-6.79,8.63c-.17.32.34.6.47.28a21.56,21.56,0,0,1,7.72-9,26.15,26.15,0,0,1,5.49-2.76,10,10,0,0,0,3.31-1.64,8.11,8.11,0,0,0,.26,1.74c-3.15,2.45-7.1,3.55-10.21,6.1a27.71,27.71,0,0,0-6.88,9.17.39.39,0,1,0,.72.3,21.39,21.39,0,0,1,7.83-10c2.75-2,6.07-3,8.64-5.23a3.77,3.77,0,0,0,.58,1.13,4,4,0,0,0,1.12,1c-4.07,2-7.92,3.84-11.22,7.14a40,40,0,0,0-7.9,11.56C212.39,270.22,213,270.59,213.24,270.16Zm18-20.57a6.08,6.08,0,0,1-.69-6.31c1.66-2.94,5.78-2.84,8.65-2.89a.53.53,0,0,0,.18,0c1.57.34,3.39.77,4.53,1.91,1.48,1.5,1,3.8.56,5.61a4.35,4.35,0,0,1-3.51,3.52,13.62,13.62,0,0,1-5,.1C234.44,251.23,232.43,250.78,231.27,249.59Z"/><path class="cls-29" d="M255.43,228.21a.4.4,0,0,1,.27-.11.38.38,0,0,1,.26.11.34.34,0,0,1,.11.26.35.35,0,0,1-.11.27.36.36,0,0,1-.26.11.39.39,0,0,1-.27-.11.38.38,0,0,1-.1-.27A.37.37,0,0,1,255.43,228.21Z"/><path class="cls-29" d="M255.57,230.5a.51.51,0,0,1,.46-.12.67.67,0,0,1,.2.12.45.45,0,0,1,.12.21l0,.08a.45.45,0,0,1,0,.23.47.47,0,0,1-.12.19.4.4,0,0,1-.19.11.45.45,0,0,1-.23,0l-.07,0a.46.46,0,0,1-.33-.33A.46.46,0,0,1,255.57,230.5Z"/><path class="cls-29" d="M255.29,233.35a.26.26,0,0,1,0,.51A.26.26,0,0,1,255.29,233.35Z"/><path class="cls-29" d="M253,235.46a.2.2,0,0,1,.09-.09.24.24,0,0,1,.11-.06l.13,0a.31.31,0,0,1,.19,0,.24.24,0,0,1,.15.09.34.34,0,0,1,.11.25.36.36,0,0,1-.11.25.38.38,0,0,1-.15.09.31.31,0,0,1-.19,0l-.13,0-.08,0a.2.2,0,0,1-.09-.09.26.26,0,0,1-.07-.2A.33.33,0,0,1,253,235.46Z"/><path class="cls-29" d="M251,237.25a.65.65,0,0,1,.13-.23.55.55,0,0,1,.36-.15.35.35,0,0,1,.2,0,.42.42,0,0,1,.17.1.37.37,0,0,1,.1.17.31.31,0,0,1,0,.19v.14a.54.54,0,0,1-.13.22.51.51,0,0,1-.37.15.31.31,0,0,1-.19,0,.39.39,0,0,1-.17-.11.34.34,0,0,1-.1-.16.46.46,0,0,1-.05-.2Z"/><path class="cls-29" d="M249.89,239.31a.24.24,0,0,1,0,.47A.24.24,0,0,1,249.89,239.31Z"/><path class="cls-29" d="M249.08,240a.63.63,0,0,1,0,1.26A.63.63,0,0,1,249.08,240Z"/><path class="cls-29" d="M246.46,242.86l.06-.14a.69.69,0,0,1,.22-.23l0,0a.52.52,0,0,1,.27-.07.5.5,0,0,1,.27.07l0,0a.44.44,0,0,1,.17.16.29.29,0,0,1,.08.14.39.39,0,0,1,.05.24l0,.17-.06.15a.44.44,0,0,1-.16.17.29.29,0,0,1-.14.08.48.48,0,0,1-.24.06l-.17,0-.15-.06a.44.44,0,0,1-.17-.16.29.29,0,0,1-.08-.14.39.39,0,0,1-.05-.24Z"/><path class="cls-29" d="M239.77,237.74a.45.45,0,0,1,0,.9A.45.45,0,0,1,239.77,237.74Z"/><path class="cls-29" d="M240.91,236.06l.05-.15a.46.46,0,0,1,.43-.33.48.48,0,0,1,.44.33l0,.15a.63.63,0,0,1,0,.36.52.52,0,0,1-.5.38.5.5,0,0,1-.49-.38A.63.63,0,0,1,240.91,236.06Z"/><path class="cls-29" d="M244.09,233.79a.49.49,0,0,1,0,1A.49.49,0,0,1,244.09,233.79Z"/><path class="cls-29" d="M245.58,232.81a.26.26,0,0,1,0,.51A.26.26,0,0,1,245.58,232.81Z"/><path class="cls-29" d="M228.16,245.38a.24.24,0,0,1,0,.47A.24.24,0,0,1,228.16,245.38Z"/><path class="cls-29" d="M226.14,246.05a.38.38,0,0,1,0,.75A.38.38,0,0,1,226.14,246.05Z"/><path class="cls-29" d="M223.45,247.09a.15.15,0,0,1,.06-.09.25.25,0,0,1,.12-.11h0a.36.36,0,0,1,.2-.06.37.37,0,0,1,.21.06h0l.09.06a.42.42,0,0,1,.09.14.2.2,0,0,1,0,.11.33.33,0,0,1,0,.17.47.47,0,0,1-.17.25.35.35,0,0,1-.5,0,.47.47,0,0,1-.16-.25v-.11A.32.32,0,0,1,223.45,247.09Z"/><path class="cls-29" d="M221.28,248.23a.49.49,0,0,1,0,1A.49.49,0,0,1,221.28,248.23Z"/><path class="cls-29" d="M218.49,250.27l.06-.11a.33.33,0,0,1,.3-.17.36.36,0,0,1,.31.17l.05.11a.46.46,0,0,1,0,.21.46.46,0,0,1,0,.2.42.42,0,0,1-.36.21.43.43,0,0,1-.36-.21.46.46,0,0,1-.05-.2A.46.46,0,0,1,218.49,250.27Z"/><path class="cls-29" d="M216.29,252.37a.29.29,0,0,1,.05-.13l0-.07a.54.54,0,0,1,.16-.1h.22a.32.32,0,0,1,.14.08.29.29,0,0,1,.08.14.25.25,0,0,1,0,.17.09.09,0,0,1,0,.05l0,.09,0,0a.2.2,0,0,1-.09.09.22.22,0,0,1-.13,0h-.13a.26.26,0,0,1-.2-.08.27.27,0,0,1-.08-.19S216.29,252.41,216.29,252.37Z"/><path class="cls-29" d="M214.8,253.86a.4.4,0,0,1,0,.79A.4.4,0,0,1,214.8,253.86Z"/><path class="cls-29" d="M213.45,255.52a.63.63,0,0,1,0,1.25A.63.63,0,0,1,213.45,255.52Z"/><path class="cls-29" d="M215,268.7a.67.67,0,0,0,.18.44.26.26,0,0,0,.44-.18.42.42,0,0,0,.16-.32v0h0v0a.28.28,0,0,0-.21-.31.49.49,0,0,0-.27,0A.42.42,0,0,0,215,268.7Z"/><path class="cls-29" d="M215.76,268.59v0h0v0Z"/><path class="cls-29" d="M216.42,265.78a.36.36,0,0,1,0,.71A.36.36,0,0,1,216.42,265.78Z"/><path class="cls-29" d="M217.54,263.2a.34.34,0,0,1,.23-.1.35.35,0,0,1,.29.16l.1.16,0,.07a.49.49,0,0,1,0,.12.32.32,0,0,1-.09.17.27.27,0,0,1-.13.07.29.29,0,0,1-.22,0l-.16-.1a.34.34,0,0,1-.16-.29A.29.29,0,0,1,217.54,263.2Z"/><path class="cls-29" d="M219.66,260.73a.41.41,0,0,1,0,.82A.41.41,0,0,1,219.66,260.73Z"/><path class="cls-29" d="M221,258.67a.65.65,0,0,1,.78-.37h.07a.58.58,0,0,1,.37.33.54.54,0,0,1,.05.22.57.57,0,0,1-.08.29l0,.08a.73.73,0,0,1-.17.18.42.42,0,0,1-.14.09l-.1,0-.17,0a.54.54,0,0,1-.25-.06.29.29,0,0,1-.14-.08.4.4,0,0,1-.16-.18.4.4,0,0,1-.06-.13v0l0-.17A.54.54,0,0,1,221,258.67Z"/><path class="cls-29" d="M224.43,256.26l0-.1a.58.58,0,0,1,.19-.19.55.55,0,0,1,.25-.07.56.56,0,0,1,.26.07.58.58,0,0,1,.19.19l0,.1a.64.64,0,0,1,0,.58.58.58,0,0,1-1,0,.64.64,0,0,1,0-.58Z"/><path class="cls-29" d="M228.19,254.07a.46.46,0,0,1,.32-.13h.15l.11.05a.49.49,0,0,1,.16.16.41.41,0,0,1,0,.46.49.49,0,0,1-.16.16.56.56,0,0,1-.23.06h0a.46.46,0,0,1-.32-.13.31.31,0,0,1-.1-.15.42.42,0,0,1,.1-.49Z"/><path class="cls-29" d="M232.21,252.59a.32.32,0,0,1,0,.63A.32.32,0,0,1,232.21,252.59Z"/><path class="cls-29" d="M249.33,255.44a23,23,0,0,0,2.6-3.13,19.71,19.71,0,0,0,1.47-3.92,8.06,8.06,0,0,1,2.37-3.89,5.24,5.24,0,0,1,4.46-.72,30.49,30.49,0,0,0,4.14.77c1.31.08,2.58-.15,3.88-.19.43,0,.65.66.23.85a8.19,8.19,0,0,1-4.62.47c-2.67-.42-5.84-2.62-8.29-.43-1.72,1.56-2,4.22-2.73,6.3a11.52,11.52,0,0,1-3,4.45C249.51,256.35,249,255.83,249.33,255.44Z"/><path class="cls-29" d="M253.65,253.44c.06-.06.09-.14.16-.19s.17-.09.24-.15a1.81,1.81,0,0,0,.4-.43.18.18,0,0,1,.32.14,1,1,0,0,1-.45.63,1,1,0,0,1-.33.16.47.47,0,0,1-.33-.09A0,0,0,0,1,253.65,253.44Z"/><path class="cls-29" d="M255.43,251.54a0,0,0,1,1,0,0S255.4,251.54,255.43,251.54Z"/><path class="cls-29" d="M257,246.68c.73-.39,1.24-.1,2.06,0a9.3,9.3,0,0,0,5.73-.49.43.43,0,1,1,.34.78c-1.67.69-3.18.42-4.92.22s-3.18-.14-3.91,1.78c-.29.76-.45,1.56-.79,2.31,0,0-.07,0-.07,0C255.36,249.86,255.54,247.45,257,246.68Z"/><path class="cls-29" d="M256.49,252a7.71,7.71,0,0,0,1.17-1.61.18.18,0,0,1,.26-.06c.2-.53.22-1.23.86-1.41a4.16,4.16,0,0,1,1.17,0,4.84,4.84,0,0,1,1.37.07l.05,0a.08.08,0,0,1,0,.16h0a8.39,8.39,0,0,1-1.88.19c-.45.06-.81.23-.9.68a1.39,1.39,0,0,1-.24.66.25.25,0,0,1-.33.09,1.79,1.79,0,0,1-1.45,1.42C256.49,252.12,256.42,252,256.49,252Z"/><path class="cls-29" d="M310.47,214.28c.28-.58,1.06-1.47,1.77-1.42.06,0,.11.06.07.11a2.25,2.25,0,0,1-.48.44,3.5,3.5,0,0,0-.79,1,3.17,3.17,0,0,0-.46,2.3.2.2,0,0,1-.38.11A3.61,3.61,0,0,1,310.47,214.28Z"/><path class="cls-29" d="M312.23,214.79a.16.16,0,0,1,.08.3c-.28.11-.28.45-.23.7a.2.2,0,0,1-.33.19C311.32,215.59,311.72,214.86,312.23,214.79Z"/><path class="cls-29" d="M312,211.32c.24-.08.42.32.18.43a5,5,0,0,0-2.9,6.16c.11.34-.41.48-.53.15A5.06,5.06,0,0,1,312,211.32Z"/><path class="cls-29" d="M300.25,209.29c-1.78-1.79-1.85-4.51-1.78-6.86a.47.47,0,0,1,.94,0c-.1,3.59.28,6.88,4.37,7.73,1.67.34,3.25.59,4.19,2.13a9.2,9.2,0,0,1,1.2-1.3c-1.73-2.24-4.62-1.78-6.66-3.45a5.52,5.52,0,0,1-1.46-5.56.16.16,0,0,1,.3,0c.4,1.31.09,2.69.76,4,.78,1.46,2.37,1.82,3.83,2.26s3,1.07,3.43,2.63a3.56,3.56,0,0,1,2.93-.87c.09,0,.06.15,0,.15-3.54.29-7.3,5.6-4.59,8.75a.47.47,0,1,1-.74.57c-1.32-2-.86-4.38.41-6.29l.41-.58,0,0C306.05,210,302.33,211.39,300.25,209.29Z"/><path class="cls-29" d="M302.76,200.62c.05-.23.37-.15.39,0a8,8,0,0,0,.84,3.8c.86,1.33,2.43,1.57,3.77,2.19A5.44,5.44,0,0,1,310.7,210c0,.07-.09.1-.12,0-.88-2.14-2.42-2.8-4.44-3.46a5.52,5.52,0,0,1-2.19-1.13A5.39,5.39,0,0,1,302.76,200.62Z"/><path class="cls-29" d="M303.07,200.25s0,0,0,0A0,0,0,1,1,303.07,200.25Z"/><path class="cls-29" d="M311.38,208.34a.49.49,0,0,1,.33-.13.27.27,0,0,1,.18,0,.38.38,0,0,1,.15.09.44.44,0,0,1,.1.15.41.41,0,0,1,0,.19.43.43,0,0,1-.14.33.49.49,0,0,1-.33.13.3.3,0,0,1-.18,0,.38.38,0,0,1-.15-.09.44.44,0,0,1-.1-.15.39.39,0,0,1,0-.18A.52.52,0,0,1,311.38,208.34Z"/><path class="cls-29" d="M310.14,207l0,0a.13.13,0,0,1,.06-.07.24.24,0,0,1,.14-.05.27.27,0,0,1,.12,0,.22.22,0,0,1,.11.14l0,.13a.33.33,0,0,1,0,.14.26.26,0,0,1-.07.11.24.24,0,0,1-.18.07.26.26,0,0,1-.18-.07.24.24,0,0,1-.06-.11.17.17,0,0,1,0-.14Z"/><path class="cls-29" d="M308.58,205.9a.46.46,0,0,1,.31-.13.43.43,0,0,1,.3.13.34.34,0,0,1,.09.14.29.29,0,0,1,0,.16.44.44,0,0,1-.13.31.43.43,0,0,1-.3.13.46.46,0,0,1-.31-.13.42.42,0,0,1-.09-.14.32.32,0,0,1,0-.17A.42.42,0,0,1,308.58,205.9Z"/><path class="cls-29" d="M306.46,205.26a.58.58,0,0,1,.14-.24.57.57,0,0,1,.39-.16.39.39,0,0,1,.21,0,.44.44,0,0,1,.18.12.45.45,0,0,1,.11.17.54.54,0,0,1,.05.21l0,.15a.72.72,0,0,1-.14.24.57.57,0,0,1-.39.16.36.36,0,0,1-.21,0,.44.44,0,0,1-.18-.12.45.45,0,0,1-.11-.17.42.42,0,0,1-.05-.22Z"/><path class="cls-29" d="M304.3,203.74a.66.66,0,0,1,.22-.22l.11-.05a.63.63,0,0,1,.33-.09.67.67,0,0,1,.34.09.67.67,0,0,1,0,1.15.67.67,0,0,1-.34.09.63.63,0,0,1-.33-.09l-.11-.05a.66.66,0,0,1-.22-.22.65.65,0,0,1-.08-.31A.61.61,0,0,1,304.3,203.74Z"/><path class="cls-29" d="M303.8,201.48a.37.37,0,0,1,.1-.25.35.35,0,0,1,.25-.1.32.32,0,0,1,.25.1.36.36,0,0,1,.11.25l0,.09a.23.23,0,0,1-.06.12.23.23,0,0,1-.07.07l0,0a.27.27,0,0,1-.18.07.24.24,0,0,1-.18-.07l0,0A.35.35,0,0,1,303.8,201.48Z"/><path class="cls-29" d="M304.15,199a.31.31,0,0,1,0,.62A.31.31,0,0,1,304.15,199Z"/><path class="cls-29" d="M305.77,219.87a.51.51,0,0,1,0,1A.51.51,0,0,1,305.77,219.87Z"/><path class="cls-29" d="M305.1,218.6a.3.3,0,0,1,0,.59A.3.3,0,0,1,305.1,218.6Z"/><path class="cls-29" d="M304.76,216.94l0-.05.05-.06a.17.17,0,0,1,.13,0,.2.2,0,0,1,.11,0,.23.23,0,0,1,.1.12l0,.13a.28.28,0,0,1,0,.13.21.21,0,0,1-.06.1.22.22,0,0,1-.17.07.2.2,0,0,1-.16-.07.21.21,0,0,1-.06-.1.15.15,0,0,1,0-.13Z"/><path class="cls-29" d="M305.05,215.29a.45.45,0,0,1,.05-.19.32.32,0,0,1,.27-.15.34.34,0,0,1,.27.15.67.67,0,0,1,.05.19.28.28,0,0,1,0,.18.29.29,0,0,1-.09.15.33.33,0,0,1-.23.1.35.35,0,0,1-.24-.1.36.36,0,0,1-.08-.33Z"/><path class="cls-29" d="M305.67,213.22l.17-.08.09,0h.17a.17.17,0,0,1,.1,0,.22.22,0,0,1,.13.08.42.42,0,0,1,.11.18.44.44,0,0,1,0,.32l-.08.17a.48.48,0,0,1-.41.23.54.54,0,0,1-.34-.14.38.38,0,0,1-.09-.15.3.3,0,0,1,0-.18A.45.45,0,0,1,305.67,213.22Z"/><path class="cls-29" d="M306.45,212a.18.18,0,0,1,0,.35A.18.18,0,0,1,306.45,212Z"/><path class="cls-29" d="M304.28,211.62l0-.1.07-.09.09-.07.1,0a.33.33,0,0,1,.17,0,.2.2,0,0,1,.11,0,.42.42,0,0,1,.14.09l.06.07a.31.31,0,0,1,.1.24.29.29,0,0,1-.1.23L305,212l-.09.07-.1,0a.25.25,0,0,1-.17,0,.2.2,0,0,1-.11,0l-.1,0a.3.3,0,0,1-.08-.08.31.31,0,0,1-.05-.1.29.29,0,0,1,0-.16Z"/><path class="cls-29" d="M302.4,211a.22.22,0,0,1,0,.43A.22.22,0,0,1,302.4,211Z"/><path class="cls-29" d="M300.64,209.93a.59.59,0,0,1,0,1.18A.59.59,0,0,1,300.64,209.93Z"/><path class="cls-29" d="M298.62,208.72a.32.32,0,0,1,0,.63A.32.32,0,0,1,298.62,208.72Z"/><path class="cls-29" d="M297.4,206.68a.47.47,0,0,1,0,.94A.47.47,0,0,1,297.4,206.68Z"/><path class="cls-29" d="M297.27,205.2a.33.33,0,0,1,0,.66A.33.33,0,0,1,297.27,205.2Z"/><path class="cls-29" d="M297.14,202.9a.34.34,0,0,1,0,.67A.34.34,0,0,1,297.14,202.9Z"/><path class="cls-29" d="M253.56,240.92a.17.17,0,0,0,.15.22,3.65,3.65,0,0,0,2.85-1.48,4.39,4.39,0,0,0,.77-1.67c.16-.65.34-1.44,1-1.67a3.1,3.1,0,0,0,2.52,1.37c1.29.09,1.92-1.19,2-2.32.15-1.45-.73-2.73-.78-4.15,0-.79.34-1.7,1.29-1.27a1.81,1.81,0,0,1,.9.93s0,.05,0,.08a2.7,2.7,0,0,0,.23,1,2.66,2.66,0,0,1,.11,1.37c-.14.88-.38,1.74-.57,2.61-.28,1.24-.58,2.7.31,3.78a3.84,3.84,0,0,0,3.56,1.25,3.58,3.58,0,0,0,2.3-2.31c.56-.62.47-1.94.4-2.66a11.27,11.27,0,0,1,0-3.62,8.72,8.72,0,0,0,.55-3,9.36,9.36,0,0,0-.77-2.07l0,0a2.8,2.8,0,0,1,.35.25,7,7,0,0,1,.62.6,6.16,6.16,0,0,0,1.22,1.06,2,2,0,0,0,2.58-.34,5.18,5.18,0,0,0,1-3.08,11.51,11.51,0,0,1,.36-1.84c.1-.39.26-1.21.69-1.45a1.21,1.21,0,0,0,.68,0,2.93,2.93,0,0,0,.86-.3,2.62,2.62,0,0,0,.71-.57,2.4,2.4,0,0,0,.32-.43,3.27,3.27,0,0,0,.35-.3l.51-.45c.36-.31.72-.59,1.1-.87.1-.08.11-.26,0-.29a1.58,1.58,0,0,0-.78,0c.11-.18.23-.35.35-.51s-.06-.25-.18-.23a3.25,3.25,0,0,0-1.18.37,3,3,0,0,0-.72.6,2.07,2.07,0,0,0-1.41.31,2.92,2.92,0,0,0-.7.51,1,1,0,0,0-.19.23.14.14,0,0,0-.12.06,3.27,3.27,0,0,1-.35.48,1.94,1.94,0,0,1-.44.31,4,4,0,0,0-.72.7,9,9,0,0,0-1.15,1.71c-.33.62-.59,1.28-.86,1.93a1,1,0,0,1-.22.38c-.17.15-.29.06-.43-.06l-.17-.21a5.76,5.76,0,0,0-.69-1.65,2.39,2.39,0,0,0-2-.85c-1.42,0-3.21.86-3.57,2.34a2.59,2.59,0,0,0,.21,2c.42.61,1.24.58,1.71,1.1.62.7.1,1.79-.23,2.48a4.09,4.09,0,0,0-.5,2.35c.17,1.42,1.32,4.07-.62,4.72-1,0-.39-2.56-.25-3.11a23,23,0,0,0,.69-3.17,5.52,5.52,0,0,0-1-4,4.15,4.15,0,0,0-3.87-1.39c-3.56.58-1.82,5.21-2.35,7.65a3.52,3.52,0,0,0-2.33-.89,2.91,2.91,0,0,0-2,1.42c-1.12,1.82-.4,4.49-2.22,5.92C253.47,240.79,253.5,240.87,253.56,240.92Zm.37-.17a3.67,3.67,0,0,0,.87-1.25.18.18,0,0,0,.17.22.19.19,0,0,0,0-.37.18.18,0,0,0-.13.06,27.42,27.42,0,0,0,.84-3.11,3.13,3.13,0,0,1,1.85-2.35c1-.31,1.78.5,2.59,1a.27.27,0,0,0,.39-.16,6.28,6.28,0,0,0,.16-2.86,7.25,7.25,0,0,1-.17-2.7,2.77,2.77,0,0,1,1.31-1.93,3,3,0,0,1,2.39,0,3.92,3.92,0,0,1,2.51,3.72c.12,1.82-.51,3.6-.77,5.38a2.37,2.37,0,0,0,.21,1.85.9.9,0,0,0,.36.26.23.23,0,0,0,.17.34,1.69,1.69,0,0,0,1.54-1,3.56,3.56,0,0,0,.1-2.45,6,6,0,0,1-.33-2.87c.2-.75.7-1.39.91-2.15a2.13,2.13,0,0,0-.18-1.76c-.39-.58-1.05-.57-1.59-.91-.76-.48-.54-1.87-.11-2.51a3.89,3.89,0,0,1,2.44-1.3,2.13,2.13,0,0,1,2.33,1c.22.41.33.9.56,1.3a1,1,0,0,0,0,.24.62.62,0,0,0,.76.39,1.13,1.13,0,0,0,.74-.75c.16-.39.3-.78.46-1.16a10,10,0,0,1,1.3-2.24c.25-.3.58-.56.8-.88a6,6,0,0,0,.63-.87l.33-.26a2.84,2.84,0,0,1,.63-.41,3.73,3.73,0,0,1,.73-.26l.3-.07a.21.21,0,0,0,.38.13,2.78,2.78,0,0,1,.81-.72,3.83,3.83,0,0,1,.61-.3c-.12.18-.23.37-.34.56a.16.16,0,0,0,.22.21,1.29,1.29,0,0,1,.6-.17c-.26.2-.53.4-.79.62l-.55.48,0,0a.26.26,0,0,0-.42-.1,1,1,0,0,0-.24.37,1.38,1.38,0,0,1-.19.28,2.09,2.09,0,0,1-.56.51,2.2,2.2,0,0,1-.7.31,1.49,1.49,0,0,1-.36.05h0c-1-.07-1.3,1.71-1.48,2.36a16,16,0,0,0-.36,1.83,4.47,4.47,0,0,1-.58,1.92,1.56,1.56,0,0,1-1.6.75,3.23,3.23,0,0,1-1.51-1,6.08,6.08,0,0,0-1.33-1.15l-.2-.3a1.18,1.18,0,0,0-.13-.18l-.15-.14,0,0h0l-.05,0H270a.16.16,0,0,0-.18.1,1.22,1.22,0,0,0-.1.74,0,0,0,0,0,0,0,.05.05,0,0,0,0,0,9.26,9.26,0,0,0,.78,1.77,5.38,5.38,0,0,1-.28,3.33,7.13,7.13,0,0,0-.07,3.28,9.57,9.57,0,0,1,.19,1.76,3.82,3.82,0,0,1-.12.89l-.09.27c-.67,1-1.43,2.13-2.75,2.19a3,3,0,0,1-3-2.09,11.65,11.65,0,0,1,.51-4,6.13,6.13,0,0,0,.22-1.85,3.65,3.65,0,0,0-.31-1,2,2,0,0,0-1.8-2.29h-.1a.08.08,0,0,0,0-.07.09.09,0,0,0,0-.06l0,0h0l-.08,0h0a.08.08,0,0,0-.07,0h0a.1.1,0,0,0-.05,0,.16.16,0,0,0,0,.17l0,.06a1.16,1.16,0,0,0-.37.18s0,0,0,0a.07.07,0,0,0,0,0,.1.1,0,0,0,0-.07l0,0-.06,0a.09.09,0,0,0-.07,0h-.13l0,0a.09.09,0,0,0,0,.05.07.07,0,0,0,0,0s0,0,0,0h0l0,0h.17a2.45,2.45,0,0,0-.56,2c.19,1.5,1.15,3,.55,4.48-.15.36-.39.85-.79,1a2.33,2.33,0,0,1-1.05-.05,2.05,2.05,0,0,1-1.6-1.11.26.26,0,0,0-.29-.12c-1.34.22-1.39,1.73-1.73,2.75A3.51,3.51,0,0,1,253.93,240.75Z"/><path class="cls-29" d="M278.08,220.53l0,0a.16.16,0,0,1,.09,0l.07,0a.13.13,0,0,1,.06,0,.22.22,0,0,1,.05.08.14.14,0,0,1,0,.09l0,.05,0,0a.1.1,0,0,1,0,.05.05.05,0,0,1,0,0,.06.06,0,0,1-.06,0h0l0,0a.1.1,0,0,1-.05,0l0-.06v-.05a.14.14,0,0,1,0-.09A.12.12,0,0,1,278.08,220.53Z"/><path class="cls-29" d="M278.82,220.42c.08,0,.08.14,0,.14A.07.07,0,0,1,278.82,220.42Z"/><path class="cls-29" d="M279.87,219.94l0,0,.08,0H280l0,0a.16.16,0,0,1,0,.07.11.11,0,0,1,0,.08v.08a.08.08,0,0,1,0,0l0,0h-.1l0,0a.08.08,0,0,1,0,0l0-.05v0a.11.11,0,0,1,0-.08A.1.1,0,0,1,279.87,219.94Z"/><path class="cls-29" d="M278.54,221l0,0,.07,0,.08,0a.15.15,0,0,1,.07.13.13.13,0,0,1-.07.13.11.11,0,0,1-.08,0,.1.1,0,0,1-.07,0l0,0a.14.14,0,0,1-.07-.11A.15.15,0,0,1,278.54,221Z"/><path class="cls-29" d="M277.94,221.35a.08.08,0,0,1,0,.16A.08.08,0,1,1,277.94,221.35Z"/><path class="cls-29" d="M277.27,221.3a.08.08,0,1,1,0,.15A.08.08,0,0,1,277.27,221.3Z"/><path class="cls-29" d="M277.44,221.6a.11.11,0,0,1,0,.21A.11.11,0,0,1,277.44,221.6Z"/><path class="cls-29" d="M276.28,222.21a.16.16,0,0,1,0,.31A.16.16,0,0,1,276.28,222.21Z"/><path class="cls-29" d="M275.78,223.63a.07.07,0,1,1,0,.13A.07.07,0,0,1,275.78,223.63Z"/><path class="cls-29" d="M275.73,222.93a.1.1,0,0,1,0,.2A.1.1,0,0,1,275.73,222.93Z"/><path class="cls-29" d="M274.9,224a.1.1,0,0,1,0,.2A.1.1,0,0,1,274.9,224Z"/><path class="cls-29" d="M274.93,225l0,0,.06,0h.05l0,0a.05.05,0,0,1,0,0,.06.06,0,0,1,0,.06v.08l0,0,0,0H275l0,0s0,0,0,0l0-.05a.06.06,0,0,1,0-.06A.05.05,0,0,1,274.93,225Z"/><path class="cls-29" d="M275.34,224.27a.14.14,0,0,1,0,.28A.14.14,0,0,1,275.34,224.27Z"/><path class="cls-29" d="M274.29,225.49a.13.13,0,0,1,0,.26A.13.13,0,0,1,274.29,225.49Z"/><path class="cls-29" d="M274.69,226.68s0,0,0,0l0,0h.07l.05,0,0,0a.13.13,0,0,1,0,.06v.09l0,0,0,0h-.07l0,0,0,0a.14.14,0,0,1,0-.06v-.05A.09.09,0,0,1,274.69,226.68Z"/><path class="cls-29" d="M274,227.73a.16.16,0,0,1,0,.31A.16.16,0,1,1,274,227.73Z"/><path class="cls-29" d="M272.66,227.35l0,0a.08.08,0,0,1,0,0,.05.05,0,0,1,0,0h.13a.12.12,0,0,1,.08,0l0,0a.16.16,0,0,1,0,.09.25.25,0,0,1,0,.07s0,0,0,0a.17.17,0,0,1-.17,0h-.08a.1.1,0,0,1,0-.05s0,0,0,0a.14.14,0,0,1,0-.06Z"/><path class="cls-29" d="M273.24,228.24a.09.09,0,0,1,0,.18A.09.09,0,0,1,273.24,228.24Z"/><path class="cls-29" d="M273.85,226.83a.18.18,0,0,1,0,.35A.18.18,0,0,1,273.85,226.83Z"/><path class="cls-29" d="M274.57,227.49l0-.08a.07.07,0,0,1,.07,0,.08.08,0,0,1,.07,0l0,.08a.14.14,0,0,1,0,.07.14.14,0,0,1,0,.06.12.12,0,0,1-.22,0,.07.07,0,0,1,0-.06A.08.08,0,0,1,274.57,227.49Z"/><path class="cls-29" d="M274.9,225.92s0,0,0,0l0,0h.16a.07.07,0,0,1,.06.06.06.06,0,0,1,0,0v0l0,0,0,0H275a.05.05,0,0,1,0,0l0,0a.43.43,0,0,1,0-.05Z"/><path class="cls-29" d="M274.73,224.51a.12.12,0,0,1,0,.24A.12.12,0,0,1,274.73,224.51Z"/><path class="cls-29" d="M272.36,227.88a.07.07,0,1,1,0,.13A.07.07,0,0,1,272.36,227.88Z"/><path class="cls-29" d="M273.24,227.61a.11.11,0,1,1,0,.22A.11.11,0,0,1,273.24,227.61Z"/><path class="cls-29" d="M273.74,228.25a.13.13,0,0,1,0,.26A.13.13,0,0,1,273.74,228.25Z"/><path class="cls-29" d="M274.35,228a.18.18,0,0,1,0,.35A.18.18,0,0,1,274.35,228Z"/><path class="cls-29" d="M271.72,227.31v0l0,0h0l.05,0h.06a.05.05,0,0,1,.05,0l0,0s0,0,0,.05,0,0,0,0l0,0a.05.05,0,0,1-.05,0h-.06l-.05,0h0a0,0,0,0,1,0,0v0s0,0,0,0Z"/><path class="cls-29" d="M270.43,225.75a.1.1,0,0,1,0,.19A.1.1,0,0,1,270.43,225.75Z"/><path class="cls-29" d="M270.26,224.58a.1.1,0,0,1,0,.21A.1.1,0,0,1,270.26,224.58Z"/><path class="cls-29" d="M271,225.36l.05-.07,0,0,.06,0h0l.05,0a.05.05,0,0,1,0,0s0,0,0,0a.09.09,0,0,1,0,.05.08.08,0,0,1,0,0l-.06,0h-.08l0,0,0,0v-.09Z"/><path class="cls-29" d="M269.55,225.17a.13.13,0,0,1,0,.25A.13.13,0,0,1,269.55,225.17Z"/><path class="cls-29" d="M271,224.56c.08,0,.08.14,0,.14A.07.07,0,0,1,271,224.56Z"/><path class="cls-29" d="M269.38,224.39a.13.13,0,0,1,0,.26A.13.13,0,0,1,269.38,224.39Z"/><path class="cls-29" d="M270.1,225.2a.09.09,0,0,1,0,.18A.09.09,0,1,1,270.1,225.2Z"/><path class="cls-29" d="M270.83,226.3a.16.16,0,0,1,0-.07l0,0a.11.11,0,0,1,.07,0l.06,0,.06,0,0,.05a.13.13,0,0,1,0,.06v0a.43.43,0,0,1,0,.07l0,0-.08,0-.06,0s0,0-.05,0l0,0a.13.13,0,0,1,0-.06Z"/><path class="cls-29" d="M271.59,225.66a.13.13,0,0,1,0,.25A.13.13,0,0,1,271.59,225.66Z"/><path class="cls-29" d="M271.64,226.38a.07.07,0,1,1,0,.14A.07.07,0,0,1,271.64,226.38Z"/><path class="cls-29" d="M271.11,226.74s0,0,0,0l0,0h.13l0,0v0a0,0,0,0,1,0,0v.05l0,0,0,0h-.11l0,0,0,0a.13.13,0,0,1,0-.06A.06.06,0,0,1,271.11,226.74Z"/><path class="cls-29" d="M272,226.83a.12.12,0,1,1,0,.24A.12.12,0,0,1,272,226.83Z"/><path class="cls-29" d="M268.58,227.64a.11.11,0,0,1,.11,0,.11.11,0,0,1,.08.08l0,.07a.07.07,0,0,1-.09.09l-.07,0a.11.11,0,0,1-.07-.08A.11.11,0,0,1,268.58,227.64Z"/><path class="cls-29" d="M269,226.93l0,0,.05,0,.06,0a.11.11,0,0,1,.06.09.13.13,0,0,1-.06.1h-.11l0,0A.1.1,0,0,1,269,227,.08.08,0,0,1,269,226.93Z"/><path class="cls-29" d="M268.77,225.63a.1.1,0,0,1,0,.21A.1.1,0,0,1,268.77,225.63Z"/><path class="cls-29" d="M267.34,226.08a.1.1,0,0,1,0,.19A.1.1,0,1,1,267.34,226.08Z"/><path class="cls-29" d="M267.39,227a.11.11,0,1,1,0,.22A.11.11,0,0,1,267.39,227Z"/><path class="cls-29" d="M267.67,225.22a.07.07,0,0,1,0,.14A.07.07,0,0,1,267.67,225.22Z"/><path class="cls-29" d="M268.55,224.66a.08.08,0,0,1,0,.16A.08.08,0,0,1,268.55,224.66Z"/><path class="cls-29" d="M268.11,225.85a.1.1,0,0,1,0,.21A.1.1,0,0,1,268.11,225.85Z"/><path class="cls-29" d="M268.88,224.88a.09.09,0,0,1,0,.17A.09.09,0,0,1,268.88,224.88Z"/><path class="cls-29" d="M268.22,225.32a0,0,0,0,1,0,.05A0,0,0,0,1,268.22,225.32Z"/><path class="cls-29" d="M268.72,226.26a.14.14,0,0,1,0,.27A.14.14,0,0,1,268.72,226.26Z"/><path class="cls-29" d="M268.06,226.76a.14.14,0,0,1,0,.27A.14.14,0,0,1,268.06,226.76Z"/><path class="cls-29" d="M269.66,229.73a.15.15,0,0,1,0,.29A.15.15,0,0,1,269.66,229.73Z"/><path class="cls-29" d="M269.16,231a.12.12,0,0,1,0,.23A.12.12,0,0,1,269.16,231Z"/><path class="cls-29" d="M270,230.59a.06.06,0,0,1,0,0,.05.05,0,0,1,0,0l0,0h.08l.05,0v0a.14.14,0,0,1,0,.06v.11s0,0,0,.05l0,0s0,0,0,0h-.07l-.06,0v0a.14.14,0,0,1,0-.06Z"/><path class="cls-29" d="M269.82,228.57a.09.09,0,0,1,0,.17A.09.09,0,0,1,269.82,228.57Z"/><path class="cls-29" d="M269.16,228.21a.12.12,0,0,1,0,.24A.12.12,0,0,1,269.16,228.21Z"/><path class="cls-29" d="M269.38,227.83a.06.06,0,0,1,0,.11A.06.06,0,0,1,269.38,227.83Z"/><path class="cls-29" d="M270.06,229.21a0,0,0,0,1,0,0s0,0,0,0l0,0h0a.09.09,0,0,1,.07,0h0a.09.09,0,0,1,0,.05l0,.11s0,0,0,0l0,0,0,0h-.06l-.05,0,0,0a.07.07,0,0,1,0-.05Z"/><path class="cls-29" d="M269.49,228.82a.12.12,0,0,1,0,.23A.12.12,0,0,1,269.49,228.82Z"/><path class="cls-29" d="M270,229.64a.13.13,0,0,1,0,.25A.13.13,0,0,1,270,229.64Z"/><path class="cls-29" d="M269.49,230.72a.09.09,0,0,1,0,.18A.09.09,0,1,1,269.49,230.72Z"/><path class="cls-29" d="M268.17,239.28a.09.09,0,0,1,0,.18A.09.09,0,0,1,268.17,239.28Z"/><path class="cls-29" d="M268.66,238.05a.16.16,0,0,1,0,.32A.16.16,0,0,1,268.66,238.05Z"/><path class="cls-29" d="M269.31,237.88a.23.23,0,0,1,.07-.07l.06,0,0,0h.13a.09.09,0,0,1,.06,0l0,0v0a.22.22,0,0,1,0,.08.14.14,0,0,1,0,.07l0,.05a.27.27,0,0,1-.07.08.23.23,0,0,1-.11,0h-.06l-.09-.05a.25.25,0,0,1,0-.07.24.24,0,0,1,0-.08A.2.2,0,0,1,269.31,237.88Z"/><path class="cls-29" d="M269.14,236a.09.09,0,0,1,0-.05s0,0,0,0l0,0h.08a.09.09,0,0,1,.06,0l0,0a.19.19,0,0,1,0,.07v.06a.43.43,0,0,0,0,.05l0,0s0,0-.05,0h-.09l-.06,0,0,0a.14.14,0,0,1,0-.06Z"/><path class="cls-29" d="M268.67,234.25l0,0,0,0h.07l.06,0v0a.07.07,0,0,1,0,.06s0,0,0,.08v.07l0,0h-.11a0,0,0,0,1,0,0l0,0v-.05a.22.22,0,0,1,0-.08S268.66,234.27,268.67,234.25Z"/><path class="cls-29" d="M269.38,233.15a.15.15,0,0,1,0,.29A.15.15,0,0,1,269.38,233.15Z"/><path class="cls-29" d="M268.83,232.35a.07.07,0,0,1,0,.13A.07.07,0,1,1,268.83,232.35Z"/><path class="cls-29" d="M269.6,231.51a.13.13,0,0,1,0,.26A.13.13,0,0,1,269.6,231.51Z"/><path class="cls-29" d="M268.9,231.61a.08.08,0,0,1,0,0h0l.05,0h.1l0,0,0,0a.06.06,0,0,1,0,0v0s0,0,0,0l0,0H269l0,0,0,0v-.07Z"/><path class="cls-29" d="M269.34,232.38a.05.05,0,0,1,0,0l0,0h.06l.05,0a.11.11,0,0,1,0,.08v.1s0,0,0,0a.05.05,0,0,1,0,0l0,0h-.07l-.05,0a.11.11,0,0,1,0-.08v-.1S269.33,232.39,269.34,232.38Z"/><path class="cls-29" d="M268.61,233a.12.12,0,0,1,0,.24A.12.12,0,0,1,268.61,233Z"/><path class="cls-29" d="M269.29,234.84a.07.07,0,0,0,0,.06l0,0a.08.08,0,0,0,0,0h0l0,0,0,0s0,0,0,0h.07l.06,0,0,0,0,0v0a.13.13,0,0,0,0-.06v0s0,0,0-.06a.11.11,0,0,0,0-.06l0,0-.08,0h-.15l-.06,0,0,.05,0,0Z"/><path class="cls-29" d="M268.94,235.27a.18.18,0,0,1,0,.36A.18.18,0,0,1,268.94,235.27Z"/><path class="cls-29" d="M269,234l0,0h0l.05,0h0s0,0,0,0,0,0,0,0a0,0,0,0,1,0,0s0,0,0,0l-.05,0h0l0,0a.06.06,0,0,1,0-.09Z"/><path class="cls-29" d="M268.34,233.31a.2.2,0,0,1,.19-.05.13.13,0,0,1,.09.05h0a.16.16,0,0,1,0,.07.15.15,0,0,1,0,.07.22.22,0,0,1,0,.08.21.21,0,0,1,0,.06l0,0a.19.19,0,0,1-.1,0h-.06l-.08-.05h0a.41.41,0,0,1,0-.09A.19.19,0,0,1,268.34,233.31Z"/><path class="cls-29" d="M269.33,234a.09.09,0,0,1,0,.18A.09.09,0,1,1,269.33,234Z"/><path class="cls-29" d="M270.21,236.89a0,0,0,0,1,0,.09A0,0,0,0,1,270.21,236.89Z"/><path class="cls-29" d="M269.49,236.81a.13.13,0,0,1,0,.26A.13.13,0,0,1,269.49,236.81Z"/><path class="cls-29" d="M269.81,236.11h.13l0,0a.09.09,0,0,1,0,.08.12.12,0,0,1,0,.09l0,0-.06,0-.07,0a.14.14,0,0,1-.06-.11A.17.17,0,0,1,269.81,236.11Z"/><path class="cls-29" d="M269.1,237.13a.14.14,0,1,1,0,.28A.14.14,0,0,1,269.1,237.13Z"/><path class="cls-29" d="M269.1,236.34a0,0,0,0,1,0,.09C269.05,236.43,269.05,236.34,269.1,236.34Z"/><path class="cls-29" d="M268.81,238.62l0,0h.07l0,0v0a.06.06,0,0,1,0,0v.08s0,0,0,0h-.05l-.05,0v0a0,0,0,0,1,0,0v-.06S268.81,238.63,268.81,238.62Z"/><path class="cls-29" d="M267.35,239.38l0,0,0-.05.06,0h.13a.2.2,0,0,1,.08,0l0,0a.19.19,0,0,1,0,.08.14.14,0,0,1,0,.07.05.05,0,0,1,0,0l-.08.05h-.13l0,0a.1.1,0,0,1-.05,0l0,0a.15.15,0,0,1,0-.07Z"/><path class="cls-29" d="M267.67,239.76a.11.11,0,0,1,0,.21A.11.11,0,0,1,267.67,239.76Z"/><path class="cls-29" d="M269,239.09a.17.17,0,0,1,0,.34A.17.17,0,0,1,269,239.09Z"/><path class="cls-29" d="M268.22,238.49a.05.05,0,0,1,0,.1A.05.05,0,0,1,268.22,238.49Z"/><path class="cls-29" d="M266,239.93l0,0,0,0,.06,0h.1l0,0a.1.1,0,0,1,.05,0l0,0s0,0,0,0v0s0,0,0,0a.1.1,0,0,1,0,.05l0,0,0,0h-.09l-.05,0,0,0s0,0,0,0a.17.17,0,0,1,0-.07v-.1Z"/><path class="cls-29" d="M265.59,238.56s0,0,0,0l0,0h.08a.05.05,0,0,1,0,0l.07.09a.1.1,0,0,1,0,0v.1l-.05,0-.05,0h-.05a.07.07,0,0,1-.06,0,.09.09,0,0,1,0-.06l0-.12v0S265.58,238.57,265.59,238.56Z"/><path class="cls-29" d="M264.8,238.75a.12.12,0,0,1,0,.24A.12.12,0,0,1,264.8,238.75Z"/><path class="cls-29" d="M265.35,239.5v0l0,0h0s0,0,0,0h.06s0,0,0,0a.08.08,0,0,1,0,0l0,.05v.07a.13.13,0,0,1,0,.06l0,0-.07,0h0l0,0a.13.13,0,0,1,0-.06v-.07Z"/><path class="cls-29" d="M266.45,239.07a.19.19,0,0,1,0,.37A.19.19,0,0,1,266.45,239.07Z"/><path class="cls-29" d="M266.94,240.2a0,0,0,0,1,0,0v0H267l0,0h0s0,0,0,0v.05a0,0,0,0,1,0,0s0,0,0,0l0,0h0s0,0-.05,0h0v-.09Z"/><path class="cls-29" d="M265,238.07l0,0,0-.05h.14l0,.05,0,0a.24.24,0,0,1,0,.08.19.19,0,0,1,0,.08.16.16,0,0,1-.28,0,.19.19,0,0,1,0-.08A.24.24,0,0,1,265,238.07Z"/><path class="cls-29" d="M265.3,236.14a.14.14,0,0,1,0,.27A.14.14,0,0,1,265.3,236.14Z"/><path class="cls-29" d="M265.22,238.71a.22.22,0,0,1,0-.08l0-.06.06,0h.13l.08,0,0,0a.17.17,0,0,1,0,.1v0a.22.22,0,0,1,0,.08l0,.06a.09.09,0,0,1-.06,0l-.07,0h-.06l-.08,0,0,0a.17.17,0,0,1,0-.1Z"/><path class="cls-29" d="M265.9,239.5a.09.09,0,0,1,0,.18A.09.09,0,1,1,265.9,239.5Z"/><path class="cls-29" d="M266.79,239.42a.17.17,0,0,1,0,.33A.17.17,0,0,1,266.79,239.42Z"/><path class="cls-29" d="M265,237a.06.06,0,0,1,0,.12C264.89,237.11,264.89,237,265,237Z"/><path class="cls-29" d="M265.46,237.07v0l0,0,0,0h.12l.06,0,0,0a.14.14,0,0,1,0,.06.43.43,0,0,1,0,.05l0,0-.06,0a.08.08,0,0,1-.07,0h-.08l0,0,0,0a.43.43,0,0,1,0-.05Z"/><path class="cls-29" d="M264.54,237.57l0,0a.1.1,0,0,1,0,0l0,0h.13a.1.1,0,0,1,.05,0,.08.08,0,0,1,0,0v0a.14.14,0,0,1,0,.09.25.25,0,0,1,0,.07l0,0a.12.12,0,0,1-.08,0h-.06l-.05,0a.13.13,0,0,1,0-.07.14.14,0,0,1,0-.09Z"/><path class="cls-29" d="M264.73,236.28s0,0,0-.05l0,0,0,0h.06s0,0,0,0l0,0,0,0,0,0v0a0,0,0,0,1,0,0s0,0,0,0,0,0,0,0l0,0h-.13l0,0,0,0,0,0s0,0,0-.06A0,0,0,0,1,264.73,236.28Z"/><path class="cls-29" d="M265.79,235.34a.17.17,0,0,1,0,.33A.17.17,0,0,1,265.79,235.34Z"/><path class="cls-29" d="M265,235.37a.13.13,0,0,1,0,.26A.13.13,0,0,1,265,235.37Z"/><path class="cls-29" d="M265.52,233.9a.11.11,0,0,1,0,.22A.11.11,0,1,1,265.52,233.9Z"/><path class="cls-29" d="M266,233.27a.06.06,0,0,1,.05,0s0,0,0,0,0,0,0,0l0,0h.09l.05,0,.06,0,0,0a.13.13,0,0,1,0,.1l0,0,0,0-.07,0h0l-.05,0,0-.06h0a.09.09,0,1,1-.08-.1Z"/><path class="cls-29" d="M265.79,231a.08.08,0,0,1,0,.16A.08.08,0,0,1,265.79,231Z"/><path class="cls-29" d="M265.07,231.05a.09.09,0,0,1,0,.18A.09.09,0,0,1,265.07,231.05Z"/><path class="cls-29" d="M265,229s0,0,0,.06,0,0,0,0a.05.05,0,0,0,0,0h.05a0,0,0,0,0,0,0,.05.05,0,0,0,.05,0l0,0a.14.14,0,0,0,0-.06.14.14,0,0,0,0-.07l-.05,0h-.1l-.07,0,0,0A.15.15,0,0,0,265,229Z"/><path class="cls-29" d="M262.87,228.22a.17.17,0,0,1,0,.33A.17.17,0,0,1,262.87,228.22Z"/><path class="cls-29" d="M261.1,229a.18.18,0,1,1,0,.36A.18.18,0,1,1,261.1,229Z"/><path class="cls-29" d="M261.38,232.81a.1.1,0,0,1,0,.2A.1.1,0,0,1,261.38,232.81Z"/><path class="cls-29" d="M261.71,235.62a.05.05,0,0,1,0,.1A.05.05,0,0,1,261.71,235.62Z"/><path class="cls-29" d="M260.13,235.91l0,0,0,0h0a.07.07,0,0,1,.06,0,.09.09,0,0,1,0,.07v.14l0,0h-.06l-.06,0,0,0v-.19Z"/><path class="cls-29" d="M259,234.2a.09.09,0,0,1,0,.17A.09.09,0,0,1,259,234.2Z"/><path class="cls-29" d="M256.8,234.91a.1.1,0,0,1,0,.2A.1.1,0,0,1,256.8,234.91Z"/><path class="cls-29" d="M256.63,236.76a.07.07,0,0,1,0,.14A.07.07,0,0,1,256.63,236.76Z"/><path class="cls-29" d="M255.39,238.82a.09.09,0,0,1,.08,0,.11.11,0,0,1,.09,0s0,0,0,.05,0,0,0,0l0,0a.07.07,0,0,1-.06,0,.08.08,0,0,1-.06,0l0,0s0,0,0,0S255.38,238.84,255.39,238.82Z"/><path class="cls-29" d="M254.7,240.11a.09.09,0,0,1,0,.17A.09.09,0,0,1,254.7,240.11Z"/><path class="cls-29" d="M256.3,239s0,0,0,0A0,0,0,1,1,256.3,239Z"/><path class="cls-29" d="M255.37,239.67v0s0,0,0,0l0,0,.05,0a.12.12,0,0,1,.12,0l0,0a.14.14,0,0,1,0,.06.09.09,0,0,1,0,.05l0,0-.05,0h-.07l-.05,0h0l0,0,0,0v-.07Z"/><path class="cls-29" d="M256.09,238.51v0s0,0,0,0l0,0h.09l0,0,0,0,0,.05v.07l0,.05,0,0-.06,0h-.05l0,0a.05.05,0,0,1,0-.05.09.09,0,0,1,0-.07Z"/><path class="cls-29" d="M255.64,237.14h0a.22.22,0,0,1,.05-.08l.07,0h.07a.17.17,0,0,1,.1,0,.23.23,0,0,1,.07.07.17.17,0,0,1,0,.1h0a.14.14,0,0,1,0,.07s0,0,0,.06l0,0a.11.11,0,0,1-.08,0h0a.18.18,0,0,1-.1,0l0,0,0,0a.24.24,0,0,1,0-.08A.09.09,0,0,1,255.64,237.14Z"/><path class="cls-29" d="M256.51,237.7v.05l0,.05a.05.05,0,0,0,.05,0h.21l0,0s0,0,0,0l0,0a.13.13,0,0,0,0-.06v-.09l0,0h0l0,0h0l-.05,0h-.1l-.09.05s0,0,0,.05h0l0,0h0v0S256.5,237.69,256.51,237.7Z"/><polygon class="cls-29" points="256.77 237.82 256.77 237.82 256.78 237.82 256.77 237.82"/><path class="cls-29" d="M256.76,237.83h0Z"/><path class="cls-29" d="M255.86,238.05a.11.11,0,0,1,0,.21A.11.11,0,1,1,255.86,238.05Z"/><path class="cls-29" d="M256.19,236a.13.13,0,0,1,0,.26A.13.13,0,0,1,256.19,236Z"/><path class="cls-29" d="M257.14,235.92v0l0,0,0,0h.11a.05.05,0,0,1,.05,0l0,0a.13.13,0,0,1,0,.06.08.08,0,0,1,0,0l0,0a.05.05,0,0,1-.05,0h-.13s0,0,0,0,0,0,0,0a0,0,0,0,1,0,0Z"/><path class="cls-29" d="M256.57,235.18a.16.16,0,0,1,0,.32A.16.16,0,0,1,256.57,235.18Z"/><path class="cls-29" d="M256.68,236.28a.15.15,0,0,1,0-.07.1.1,0,0,1,0-.05l0,0h.12a.15.15,0,0,1,.07,0l0,0a.29.29,0,0,1,0,.09v.11a.17.17,0,0,1,0,.07l0,.06-.06,0a.08.08,0,0,1-.07,0h-.05l-.08,0,0,0a.29.29,0,0,1,0-.09Z"/><path class="cls-29" d="M257.68,235a.17.17,0,0,1,0,.34A.17.17,0,0,1,257.68,235Z"/><path class="cls-29" d="M257.62,234.24a.1.1,0,0,1,0,.21A.1.1,0,0,1,257.62,234.24Z"/><path class="cls-29" d="M259,235.37a.13.13,0,0,1,0,.27A.13.13,0,0,1,259,235.37Z"/><path class="cls-29" d="M258.4,234.36c.11,0,.11.19,0,.19A.1.1,0,0,1,258.4,234.36Z"/><path class="cls-29" d="M258.22,235.16a.09.09,0,0,1,.15,0l0,0a.14.14,0,1,1-.19.19l0,0A.1.1,0,0,1,258.22,235.16Z"/><path class="cls-29" d="M259.22,234.88a.13.13,0,0,1,0,.25A.13.13,0,0,1,259.22,234.88Z"/><path class="cls-29" d="M259.38,236.31a.21.21,0,0,1,0-.06l0,0a.1.1,0,0,1,.05,0h.1s0,0,.06,0l0,0,0,0,0,.05a.09.09,0,0,1,0,.07.07.07,0,0,1,0,.05s0,0,0,0,0,0,0,0l0,0-.07,0h-.06l0,0,0,0,0,0,0,0a.11.11,0,0,1,0-.08A.09.09,0,0,1,259.38,236.31Z"/><path class="cls-29" d="M260.77,235.21a.13.13,0,0,1,0,.26A.13.13,0,0,1,260.77,235.21Z"/><path class="cls-29" d="M261.07,236.59v0l0,0a.07.07,0,0,1,.06,0,.1.1,0,0,1,.05,0l.06.1a.08.08,0,0,1,0,0,0,0,0,0,1,0,0s0,0,0,0l0,0a.08.08,0,0,1-.07,0h0l0,0-.05-.12a0,0,0,0,1,0,0A0,0,0,0,1,261.07,236.59Z"/><path class="cls-29" d="M261.7,234.75l0,0s0,0,0,0h.13l0,0,0,0v.06a.08.08,0,0,1,0,.07.05.05,0,0,1,0,.05l0,0a.07.07,0,0,1-.06,0h-.05s0,0,0,0a.1.1,0,0,1,0-.05v-.13Z"/><path class="cls-29" d="M261.21,234a.13.13,0,0,1,0,.27A.13.13,0,0,1,261.21,234Z"/><path class="cls-29" d="M261.38,235.44c.07,0,.07.12,0,.12A.06.06,0,0,1,261.38,235.44Z"/><path class="cls-29" d="M260.63,236.16l0,0a.15.15,0,0,1,.07,0,.11.11,0,0,1,.08,0h.08l0,0,0,0a.07.07,0,0,1,0,.05v0l0,0,0,0-.05,0-.05,0h-.08l-.07,0,0,0a.24.24,0,0,1,0-.08A.13.13,0,0,1,260.63,236.16Z"/><path class="cls-29" d="M260.22,236.72a.11.11,0,0,1,0,.21A.11.11,0,1,1,260.22,236.72Z"/><path class="cls-29" d="M259.33,235.71a.13.13,0,0,1,0,.25A.13.13,0,0,1,259.33,235.71Z"/><path class="cls-29" d="M259.79,235.16l0,0,0,0,0,0H260l0,0,0,0,0,0,0,0v.07s0,0,0,0l0,.06,0,0-.05,0h-.09l-.06,0,0,0,0,0v0a.13.13,0,0,1,0-.06S259.78,235.18,259.79,235.16Z"/><path class="cls-29" d="M258.67,234.51a.17.17,0,0,1,0,.34A.17.17,0,0,1,258.67,234.51Z"/><path class="cls-29" d="M257.13,234.75a.15.15,0,0,1,0,.29A.15.15,0,0,1,257.13,234.75Z"/><path class="cls-29" d="M261,234.61a.18.18,0,0,1,0,.35A.18.18,0,0,1,261,234.61Z"/><path class="cls-29" d="M261.6,233.92l0,0s0,0,.06,0a.1.1,0,0,1,.07,0,.11.11,0,0,1,.08,0,.12.12,0,0,1,.05,0l0,0a.16.16,0,0,1,0,.09.17.17,0,0,1,0,.1.19.19,0,0,1-.16.09.22.22,0,0,1-.16-.09.3.3,0,0,1,0-.1A.29.29,0,0,1,261.6,233.92Z"/><path class="cls-29" d="M261.05,233a.17.17,0,0,1,0,.33A.17.17,0,0,1,261.05,233Z"/><path class="cls-29" d="M261.1,231.54a.1.1,0,0,1,0,.2A.1.1,0,0,1,261.1,231.54Z"/><path class="cls-29" d="M261.14,232a.05.05,0,0,1,0-.05.15.15,0,0,1,.14,0h.05l0,0,0,0,0,0a.13.13,0,0,1,0,.06v.07l0,0s0,0,0,0h-.05a.11.11,0,0,1-.08,0l-.06,0,0,0a.19.19,0,0,1,0-.07A.14.14,0,0,1,261.14,232Z"/><path class="cls-29" d="M261,232.19a.17.17,0,0,1,0,.33A.17.17,0,0,1,261,232.19Z"/><path class="cls-29" d="M260.88,230.85a.13.13,0,0,1,0,.26A.13.13,0,0,1,260.88,230.85Z"/><path class="cls-29" d="M261.32,230.44a.1.1,0,0,1,0,.19A.1.1,0,0,1,261.32,230.44Z"/><path class="cls-29" d="M261,229.67a.15.15,0,0,1,0,.29A.15.15,0,0,1,261,229.67Z"/><path class="cls-29" d="M261.43,229.8a.13.13,0,0,1,0,.25A.13.13,0,0,1,261.43,229.8Z"/><path class="cls-29" d="M260.56,230.6s0,0,0-.06l0,0,.08,0h.06a.07.07,0,0,1,.06,0s0,0,.05,0l0,.05a.13.13,0,0,1,0,.06v0s0,0,0,.06l0,0-.08,0h-.12l0,0,0,0a.13.13,0,0,1,0-.06Z"/><path class="cls-29" d="M261.41,228.57v0l0,0,0,0h.09l0,0s0,0,0,0a.08.08,0,0,1,0,0l0,.05v.08a.25.25,0,0,1,0,.07l0,0-.08,0h-.06l0,0a.13.13,0,0,1,0-.07.11.11,0,0,1,0-.08Z"/><path class="cls-29" d="M262,227.67a.11.11,0,0,1,0,.21A.11.11,0,1,1,262,227.67Z"/><path class="cls-29" d="M263.69,228.1a.17.17,0,0,1,0,.34A.17.17,0,0,1,263.69,228.1Z"/><path class="cls-29" d="M263.81,229.12a.15.15,0,0,1,0,.29A.15.15,0,0,1,263.81,229.12Z"/><path class="cls-29" d="M265,228.22a.19.19,0,0,1,0-.07l0-.06a.1.1,0,0,1,.05,0h.14l.06,0,0,0a.15.15,0,0,1,0,.09v.05a.22.22,0,0,1-.05.08l0,0-.06,0h-.11l-.05,0a.09.09,0,0,1,0-.06s0,0,0,0h0Z"/><path class="cls-29" d="M264.6,229.29l0-.08,0-.05h.12l.05.05,0,.08a.29.29,0,0,1,0,.09.24.24,0,0,1,0,.08.18.18,0,0,1-.15.08.17.17,0,0,1-.14-.08.24.24,0,0,1,0-.08A.29.29,0,0,1,264.6,229.29Z"/><path class="cls-29" d="M264.52,228.38a.12.12,0,0,1,0,.23A.12.12,0,0,1,264.52,228.38Z"/><path class="cls-29" d="M264.46,227.79l0-.06a.09.09,0,0,1,.08,0h0l0,0s0,0,0,0,0,0,0,0a.1.1,0,0,1-.05.08l-.06,0h0s0,0,0,0h0l0,0h0a0,0,0,0,1,0,0Z"/><path class="cls-29" d="M263.81,228.69c.16,0,.16.27,0,.27A.14.14,0,0,1,263.81,228.69Z"/><path class="cls-29" d="M263.47,227.53a.13.13,0,1,1,0,.27A.13.13,0,0,1,263.47,227.53Z"/><path class="cls-29" d="M262.65,227.57a.1.1,0,0,1,0,.19A.1.1,0,1,1,262.65,227.57Z"/><path class="cls-29" d="M262.09,228.22l0,0a.05.05,0,0,1,0,0h.08l.05,0,0,0a.14.14,0,0,1,0,.06v.06a.09.09,0,0,1,0,0l0,0,0,0h-.08l-.05,0,0,0a.14.14,0,0,1,0-.06v-.06A.11.11,0,0,1,262.09,228.22Z"/><path class="cls-29" d="M262.2,228.55a.16.16,0,1,1,0,.33A.16.16,0,0,1,262.2,228.55Z"/><path class="cls-29" d="M264.79,230.06a.41.41,0,0,1,0-.09l.07,0,.08,0a.19.19,0,0,1,.1,0l.07.07h0l0,0a.11.11,0,0,1,0,.08.07.07,0,0,1,0,.05.16.16,0,0,1,0,.07l0,0,0,0H265a.08.08,0,0,1-.07,0h0a.23.23,0,0,1-.07-.07.19.19,0,0,1,0-.1Z"/><path class="cls-29" d="M265.57,229.11a.22.22,0,0,1,.05-.08h0a.12.12,0,0,1,.08,0h.07l.06,0a.23.23,0,0,1,.07.07h0v0a0,0,0,0,1,0,0v0a.07.07,0,0,1,0,.05v0a.23.23,0,0,1-.07.07l-.06,0h-.07l-.08-.05h0l0-.06a.13.13,0,0,1,0-.06Z"/><path class="cls-29" d="M265.75,229.72l0,0h0l.06,0h0l.05,0,.05.06a.05.05,0,0,1,0,0s0,0,0,0a.06.06,0,0,1,0,0l0,0h0l-.06,0h0l-.05,0-.05-.06,0,0a.09.09,0,0,1,0-.05A.06.06,0,0,1,265.75,229.72Z"/><path class="cls-29" d="M265.37,230.55s0,0,0,0l0,0h.08l.05,0,.06,0,0,0a.09.09,0,0,1,0,.05.06.06,0,0,1,0,0l0,0,0,0-.05,0h0a.05.05,0,0,1-.05,0l-.05-.05a.08.08,0,0,1,0,0s0,0,0,0A.06.06,0,0,1,265.37,230.55Z"/><path class="cls-29" d="M266.07,230a.12.12,0,0,1,0,.24A.12.12,0,0,1,266.07,230Z"/><path class="cls-29" d="M266.07,230.92a.11.11,0,0,1,0,.22A.11.11,0,0,1,266.07,230.92Z"/><path class="cls-29" d="M265.52,231.83a.15.15,0,0,1,0,.29A.15.15,0,0,1,265.52,231.83Z"/><path class="cls-29" d="M265.46,233a.1.1,0,0,1,0,.19A.1.1,0,0,1,265.46,233Z"/><path class="cls-29" d="M266.18,231.84a.13.13,0,0,1,0,.26A.13.13,0,0,1,266.18,231.84Z"/><path class="cls-29" d="M265.46,232.16a.14.14,0,0,1,.14.11h0a.06.06,0,0,1,.07,0l.23.11a.1.1,0,0,1,0,.05.17.17,0,0,1,0,.07.07.07,0,0,1-.06,0,.06.06,0,0,1-.07,0l-.22-.11,0,0a.15.15,0,0,1-.1,0A.15.15,0,0,1,265.46,232.16Z"/><path class="cls-29" d="M265.57,234.59a.14.14,0,1,1,0,.28A.14.14,0,0,1,265.57,234.59Z"/><path class="cls-29" d="M266.07,234.24a.05.05,0,1,1,0,.1A.05.05,0,1,1,266.07,234.24Z"/><path class="cls-29" d="M266.23,232.47a.1.1,0,1,1,0,.21A.1.1,0,0,1,266.23,232.47Z"/><path class="cls-29" d="M265.09,234.43v0s0,0,0,0h.1s0,0,0,0,0,0,0,0l0,0v.06l0,.05,0,0-.05,0h-.05l0,0,0-.05v-.06Z"/><path class="cls-29" d="M267.9,240l0,0a.17.17,0,0,1,.06-.06l.08,0,.07,0a.17.17,0,0,1,.06.06l0,0a.16.16,0,0,1,0,.09.17.17,0,0,1,0,.1.19.19,0,0,1-.15.09.19.19,0,0,1-.16-.09.17.17,0,0,1,0-.1A.16.16,0,0,1,267.9,240Z"/><path class="cls-29" d="M297.33,225.15A2.66,2.66,0,0,1,297,224a1.28,1.28,0,0,1,.5-.93,2,2,0,0,1,2.18,0c.46.23.86.57,1.34.76a1.83,1.83,0,0,0,1.36.06c.1,0,.19.11.11.18-.74.59-1.54,0-2.2-.4s-1.71-.83-2.48-.28,0,1.57.13,2.3a3,3,0,0,1-.41,2.37c-.14.21-.47,0-.33-.19A2.73,2.73,0,0,0,297.33,225.15Z"/><path class="cls-29" d="M299,226.45c.2-.29,0-.57,0-.88a.77.77,0,0,1,.28-.82.46.46,0,0,1,.44,0,3.62,3.62,0,0,0,.45.2,1.35,1.35,0,0,0,.49.06.73.73,0,0,0,.25,0l.12,0h0s0,0,0-.05.17,0,.19.05-.1.22-.21.26a1.63,1.63,0,0,1-.9.06,1.18,1.18,0,0,1-.4-.17c-.1-.06-.23-.17-.35-.11-.3.16-.1.55,0,.77a1.36,1.36,0,0,1,.09.48.69.69,0,0,1-.05.24.45.45,0,0,1-.18.21C299.14,226.78,299,226.58,299,226.45Z"/><path class="cls-29" d="M295.78,229a2.17,2.17,0,0,0,.58-2.21,12.42,12.42,0,0,1-.23-1.92,4,4,0,0,1,1.19-3.14,2.45,2.45,0,0,1,2.79-.4c.59.31,1.1.73,1.69,1a4,4,0,0,0,1,.36c.36.08.72,0,1.07.09a.16.16,0,0,1,0,.29,2.3,2.3,0,0,1-1.63-.07,7.62,7.62,0,0,1-1.68-.86,2.67,2.67,0,0,0-1.75-.65,2.38,2.38,0,0,0-1.5.88c-.9,1.07-.8,2.59-.62,3.89.13.95.25,2.41-.92,2.77C295.77,229,295.76,229,295.78,229Z"/><path class="cls-29" d="M288.47,215.76Z"/><path class="cls-29" d="M288.13,215.81a.51.51,0,0,0,.28.49.85.85,0,0,0,.31.09.35.35,0,0,0,.3-.07c.09-.09.07-.21.06-.33a1.17,1.17,0,0,0-.06-.2.57.57,0,0,0-.13-.21.38.38,0,0,0-.13-.06.41.41,0,0,0-.24-.08.4.4,0,0,0-.26.1A.37.37,0,0,0,288.13,215.81Zm.33.13v0s0,0,0,0v0h0v0h0a0,0,0,0,0,0,0s0,0,0,0h.1s0,0,.06,0h.1l0,.05h0v0a.23.23,0,0,1,0,.11.13.13,0,0,1,0,.06h0v.06h-.09l-.07,0h0l-.06,0,0,0s0,0,0,0h0s0,0,0,0h0Z"/><path class="cls-29" d="M287.23,215.3a1.56,1.56,0,0,1,1-.87,1.26,1.26,0,0,1,1.2.3.14.14,0,0,1,0,.23,1.64,1.64,0,0,1,.63.79,1.32,1.32,0,0,1-.33,1.37,1.12,1.12,0,0,1-1.46,0,1.55,1.55,0,0,1-.63-1.48.85.85,0,0,1,1.22-.62c.12.08,0,.28-.12.2-.34-.2-.72.11-.78.45a1.27,1.27,0,0,0,.5,1.12.79.79,0,0,0,1,.07.93.93,0,0,0,.26-.92,1.8,1.8,0,0,0-.88-1,.11.11,0,0,1,0-.18,1.17,1.17,0,0,0-1.17.65,1.57,1.57,0,0,0,.31,1.8,2.09,2.09,0,0,0,1.86.46,1.09,1.09,0,0,0,.77-.56,1.52,1.52,0,0,0,0-1.07,2.42,2.42,0,0,0-1.42-1.53.07.07,0,0,1,0-.13,2.4,2.4,0,0,1,1.64,1.49,1.91,1.91,0,0,1,.06,1.25,1.29,1.29,0,0,1-.77.76,2.4,2.4,0,0,1-2.35-.35A1.91,1.91,0,0,1,287.23,215.3Z"/><path class="cls-29" d="M285.61,222.84a5.13,5.13,0,0,1,.34-.66,3.92,3.92,0,0,1,.51-.57c.35-.35.75-.65,1.12-1a3.74,3.74,0,0,0,1-1.16,1.12,1.12,0,0,0,.13-.53,3.06,3.06,0,0,0,1.17.12,3,3,0,0,0,.74-.19c0,.11,0,.21,0,.32a1.68,1.68,0,0,1-.22.6,3.39,3.39,0,0,1-.89.92c-.33.26-.69.5-1,.78a2.38,2.38,0,0,0-.75,1c-.07.24.27.36.4.17a4.07,4.07,0,0,1,.4-.59,4.89,4.89,0,0,1,.46-.45c.34-.3.72-.56,1.05-.87a2.89,2.89,0,0,0,.73-1,1.31,1.31,0,0,0,.07-.91,2.3,2.3,0,0,0,1.31-1.78,2.67,2.67,0,0,0-1-2.27.21.21,0,0,0,.15-.16c.32-1-.09-2,.23-3a8.53,8.53,0,0,1,1.34-2.17c1-1.34,1.94-3.16.94-4.79a.07.07,0,0,0-.13.06,4.36,4.36,0,0,1-.06,3.16,9.83,9.83,0,0,1-1.41,2,6.67,6.67,0,0,0-1.13,1.85c-.3.84,0,1.72-.25,2.55a2.81,2.81,0,0,0-.63-.3.13.13,0,0,0,0-.06,3,3,0,0,1,.14-2.56,14.33,14.33,0,0,1,1.47-2.15,5,5,0,0,0,1-2.23,1.94,1.94,0,0,0-.51-1.8s-.14,0-.12.07a3.21,3.21,0,0,1,0,2.47,10.28,10.28,0,0,1-1.56,2.21c-.79,1-1.65,2.63-.93,3.88a2.9,2.9,0,0,0-.83-.1,2.45,2.45,0,0,0-.38,0c0-.32-.07-.63-.05-1a4.66,4.66,0,0,1,.21-1.22,7.12,7.12,0,0,1,1.09-2c.79-1.07,1.8-2.37,1.4-3.78a.17.17,0,0,0-.33.09c.45,1.69-1,2.87-1.89,4.07a5,5,0,0,0-.9,2,4.34,4.34,0,0,0,0,1.93,2.8,2.8,0,0,0-.78.5,3.07,3.07,0,0,0-.88,1.45,1.76,1.76,0,0,0,.42,1.72,4.35,4.35,0,0,0,1.69,1.25.79.79,0,0,1-.08.45,3,3,0,0,1-.41.57,9,9,0,0,1-.95.9,4.16,4.16,0,0,0-1.6,2C285.31,222.88,285.54,223,285.61,222.84Zm2.63-4.53s0,0,0,0h0a4,4,0,0,1-1.35-1.21c-.59-.86.12-2.09.89-2.61a2.08,2.08,0,0,1,1.44-.32,4.87,4.87,0,0,1,.83.23,3.9,3.9,0,0,0,.8.31h.06l.06,0a2.51,2.51,0,0,1,.73,2.55,2.15,2.15,0,0,1-2.22,1.39A2.86,2.86,0,0,1,288.24,218.31Z"/><path class="cls-29" d="M286.63,222.47a3.42,3.42,0,0,1,1.17-1.72c.29-.24.6-.46.9-.69l.43-.34a1.07,1.07,0,0,0,.38-.41c0-.05.08,0,.07,0a1.31,1.31,0,0,1-.49.79l-.88.74a3.64,3.64,0,0,0-1.2,1.7C287,222.82,286.57,222.71,286.63,222.47Z"/><path class="cls-29" d="M284.89,222.18a.16.16,0,0,1,0,.31A.16.16,0,1,1,284.89,222.18Z"/><path class="cls-29" d="M286,220.65a.18.18,0,0,1,0,.36A.18.18,0,0,1,286,220.65Z"/><path class="cls-29" d="M286.81,219.35l0,0a.08.08,0,0,1,0,0s0,0,0,0a.07.07,0,0,1,.06,0h0l0,0,0,0a.09.09,0,0,1,0,.06l0,.05a.14.14,0,0,1,0,.09.2.2,0,0,1,0,.08l0,0-.08,0-.07,0a.05.05,0,0,1-.05,0,.22.22,0,0,1,0-.08.14.14,0,0,1,0-.09Z"/><path class="cls-29" d="M285.46,221.35l0,0a.1.1,0,0,1,0-.05l.05,0h.12l0,0,.06.05a.15.15,0,0,1,0,.07s0,0,0,.07v.16a.24.24,0,0,1,0,.08.21.21,0,0,1,0,.06.15.15,0,0,1-.06,0h-.12l-.09-.05a.24.24,0,0,1-.05-.14v-.16A.15.15,0,0,1,285.46,221.35Z"/><path class="cls-29" d="M286.64,219.93a.09.09,0,0,1,0,.17A.09.09,0,0,1,286.64,219.93Z"/><path class="cls-29" d="M286.77,218.34a.17.17,0,0,1,0,.33A.17.17,0,0,1,286.77,218.34Z"/><path class="cls-29" d="M286,217.06a.06.06,0,0,1,0,0s0,0,0,0,0,0,0,0h0a.09.09,0,0,1,.08,0v0s0,0,0,.05v.13s0,0,0,.05l0,0,0,0h-.07a.09.09,0,0,1-.06,0,.11.11,0,0,1,0-.08Z"/><path class="cls-29" d="M285.87,215.76l0,0,.07-.05h.08l0,0h0v.06a0,0,0,0,1,0,0l0,.07s0,0,0,0l-.05,0h0l-.05,0,0,0v0S285.86,215.78,285.87,215.76Z"/><path class="cls-29" d="M286.52,214.47a.15.15,0,0,1,0,.3A.15.15,0,1,1,286.52,214.47Z"/><path class="cls-29" d="M287,213.64l0,0,.05-.06.09,0,.08,0,.06.06,0,0a.17.17,0,0,1,0,.1.16.16,0,0,1,0,.09.19.19,0,0,1-.16.1.21.21,0,0,1-.17-.1.29.29,0,0,1,0-.09A.3.3,0,0,1,287,213.64Z"/><path class="cls-29" d="M287.4,212.11l0,0a.15.15,0,0,1,.09,0h.07l.06,0a.2.2,0,0,1,0,.08.14.14,0,0,1,0,.09v.06l0,0,0,0,0,0h-.14a.12.12,0,0,1-.05-.05l0,0v-.06a.17.17,0,0,1,0-.17Z"/><path class="cls-29" d="M287.65,210.92a.09.09,0,0,1,0-.07s0,0,0-.06l.06,0,.08,0h.05a.14.14,0,0,1,.08,0l0,0a.15.15,0,0,1,0,.09V211a.1.1,0,0,1,0,.07.1.1,0,0,1,0,.07.09.09,0,0,1-.06,0,.09.09,0,0,1-.07,0h-.06l-.08,0,0,0a.19.19,0,0,1,0-.1Z"/><path class="cls-29" d="M288.27,209.77a.14.14,0,0,1,0,.28A.14.14,0,0,1,288.27,209.77Z"/><path class="cls-29" d="M289.28,208.62a.17.17,0,0,1,0,.33A.17.17,0,0,1,289.28,208.62Z"/><path class="cls-29" d="M289.77,207.88l0-.06h0l0,0h.06l0,0,0,.06a.08.08,0,0,1,0,.08l-.06,0h0l0,0A.08.08,0,0,1,289.77,207.88Z"/><path class="cls-29" d="M290.2,206.61a.16.16,0,0,1,0-.07h0l.06,0h.11a.18.18,0,0,1,.07.05l0,0a.05.05,0,0,1,0,0,.07.07,0,0,1,0,.05v0a.33.33,0,0,1,0,.06l0,0a.05.05,0,0,1-.05,0l-.07,0h0l-.08,0v0s0,0,0,0a.14.14,0,0,1,0-.06Z"/><path class="cls-29" d="M294.33,204.47a.18.18,0,0,1,.05-.07h0a.05.05,0,0,1,.05,0l.06,0h.05l.07,0,0,0a.05.05,0,0,1,0,0,.07.07,0,0,1,0,.05v0l0,0,0,0s0,0-.05,0l-.07,0h0l-.07,0h0a.1.1,0,0,1,0,0,.13.13,0,0,1,0-.06Z"/><path class="cls-29" d="M294.8,205.56a.15.15,0,0,1,0,.29A.15.15,0,0,1,294.8,205.56Z"/><path class="cls-29" d="M294.6,207.08a.19.19,0,0,1,.07-.12l.05-.05a.35.35,0,0,1,.14,0,.14.14,0,0,1,.11,0l.09.06a.22.22,0,0,1,.05.08.23.23,0,0,1,0,.11v.07a.35.35,0,0,1-.07.12l-.06,0a.33.33,0,0,1-.14,0,.17.17,0,0,1-.1,0,.15.15,0,0,1-.09-.06.16.16,0,0,1-.06-.08.22.22,0,0,1,0-.11Z"/><path class="cls-29" d="M294.3,208.5a.22.22,0,0,1,0,.44A.22.22,0,0,1,294.3,208.5Z"/><path class="cls-29" d="M293.54,210.39a.22.22,0,0,1,0,.43A.22.22,0,0,1,293.54,210.39Z"/><path class="cls-29" d="M292.19,211.61a.17.17,0,0,1,.06-.1l.05,0a.21.21,0,0,1,.12,0,.1.1,0,0,1,.09,0,.12.12,0,0,1,.07,0,.18.18,0,0,1,.05.07.15.15,0,0,1,0,.09v.06a.24.24,0,0,1-.06.11l-.05,0a.15.15,0,0,1-.11,0l-.1,0-.07,0a.22.22,0,0,1-.05-.08.29.29,0,0,1,0-.09Z"/><path class="cls-29" d="M292.12,213.05a.24.24,0,0,1,.06-.11l.05,0a.27.27,0,0,1,.12,0,.16.16,0,0,1,.1,0,.18.18,0,0,1,.07.05.14.14,0,0,1,.05.08.1.1,0,0,1,0,.09v.07a.36.36,0,0,1-.07.1l0,0a.21.21,0,0,1-.12,0,.15.15,0,0,1-.09,0,.14.14,0,0,1-.08-.05.22.22,0,0,1-.05-.08.24.24,0,0,1,0-.09Z"/><path class="cls-29" d="M292.1,214.3a.2.2,0,0,1,0,.39A.2.2,0,0,1,292.1,214.3Z"/><path class="cls-34" d="M292.6,215.88h0"/><path class="cls-29" d="M292.6,215.74a.07.07,0,1,1,0,.14A.07.07,0,0,1,292.6,215.74Z"/><path class="cls-29" d="M292.68,216.87a.24.24,0,0,1,.06-.11l.08,0,.1,0,.12,0a.38.38,0,0,1,.09.09l0,.08,0,.05a.14.14,0,0,1,0,.09.07.07,0,0,1,0,.05.18.18,0,0,1-.05.07l0,0,0,0H293l-.08,0-.08,0a.2.2,0,0,1-.09-.09.24.24,0,0,1,0-.12Z"/><path class="cls-29" d="M292.45,218.29l.06-.06.05,0a.23.23,0,0,1,.11,0,.21.21,0,0,1,.2.2.22.22,0,0,1-.1.18.18.18,0,0,1-.1,0,.22.22,0,0,1-.11,0l-.05,0-.06-.06a.21.21,0,0,1,0-.18Z"/><path class="cls-29" d="M291.55,219.21l0-.05,0,0h0l0,0,.06-.07.06,0a.1.1,0,0,1,.07,0h.05a.09.09,0,0,1,.07,0l0,0a.16.16,0,0,1,0,.07v0a.24.24,0,0,1,0,.09l-.05.08s0,.11-.11.14a.19.19,0,0,1-.1,0,.17.17,0,0,1-.1,0,.27.27,0,0,1-.08-.07.36.36,0,0,1,0-.1Z"/><path class="cls-29" d="M291.18,220.81v0h0a.09.09,0,0,1,.09-.06.11.11,0,0,1,.09.06h0a.09.09,0,0,1,0,.05v0h0V221s0,0,0,0,0,0,0,0h-.1l0,0a.05.05,0,0,1,0,0v-.06h0A.06.06,0,0,1,291.18,220.81Z"/><path class="cls-29" d="M290.07,221.73l0,0a.1.1,0,0,1,0-.05l.06,0,0,0h.1l.08,0,0,0a.16.16,0,0,1,0,.09.14.14,0,0,1,0,.07l0,.06-.08,0a.17.17,0,0,1-.1,0l0,0,0,0a.1.1,0,0,1,0,0s0,0,0,0a.13.13,0,0,1,0-.06Z"/><path class="cls-29" d="M289,222.59a.41.41,0,0,1,.05-.09l0,0a.22.22,0,0,1,.11,0,.09.09,0,0,1,.07,0l.07,0a.16.16,0,0,1,0,.07.19.19,0,0,1,0,.08v0a.19.19,0,0,1-.05.09l0,0a.19.19,0,0,1-.1,0l-.08,0-.07,0,0-.06a.24.24,0,0,1,0-.08Z"/><path class="cls-29" d="M237.42,238.13a.33.33,0,0,1,.07-.13l.06,0a.28.28,0,0,1,.15,0,.14.14,0,0,1,.11,0,.24.24,0,0,1,.16.16.2.2,0,0,1,0,.11v.08a.35.35,0,0,1-.08.13l-.06,0a.28.28,0,0,1-.15,0,.14.14,0,0,1-.11,0,.24.24,0,0,1-.16-.16.14.14,0,0,1,0-.11Z"/><path class="cls-29" d="M235.91,238.34l0-.06,0-.05,0,0,.06,0h.15l.08,0,0,0a.16.16,0,0,1,0,.07.19.19,0,0,1,0,.08v0a.19.19,0,0,1,0,.09l0,0-.05,0-.05,0h-.1l-.06,0a.05.05,0,0,1,0,0l0,0a.05.05,0,0,1,0,0,.15.15,0,0,1,0-.09Z"/><path class="cls-29" d="M228.64,244.44v0h0a.24.24,0,0,1,0-.15.18.18,0,0,1,.05-.07l0,0,0,0,.07,0H229a.19.19,0,0,1,.1,0,.15.15,0,0,1,.07,0l.05.05a.15.15,0,0,1,0,.07.19.19,0,0,1,0,.1v.05s0,.06,0,.09l0,.07h0v0l-.06.08,0,.06a.26.26,0,0,1-.09.05l-.06,0a.14.14,0,0,1-.11,0l-.06,0-.05,0a.18.18,0,0,1-.06-.09.3.3,0,0,1,0-.1Z"/><path class="cls-29" d="M229.36,242.39a.22.22,0,0,1,0,.43A.22.22,0,0,1,229.36,242.39Z"/><path class="cls-29" d="M246.78,245.41a.29.29,0,0,1,.07-.12l.06,0a.23.23,0,0,1,.14,0,.2.2,0,0,1,.11,0l.09.06a.15.15,0,0,1,.06.09.2.2,0,0,1,0,.11v.07a.33.33,0,0,1-.07.13l-.06,0a.23.23,0,0,1-.14,0l-.11,0-.09-.06a.24.24,0,0,1-.06-.09.43.43,0,0,1,0-.11Z"/><path class="cls-29" d="M246.78,247.31l.05-.11a.41.41,0,0,1,.12-.14.35.35,0,0,1,.16-.08l.13,0a.39.39,0,0,1,.18,0,.31.31,0,0,1,.15.1l.08.1a.34.34,0,0,1,0,.17.31.31,0,0,1,0,.19l0,.11a.55.55,0,0,1-.17.17h0l-.1,0a.25.25,0,0,1-.17,0,.33.33,0,0,1-.16-.05h0a.24.24,0,0,1-.09-.07l-.08-.1a.34.34,0,0,1-.05-.17A.31.31,0,0,1,246.78,247.31Z"/><path class="cls-29" d="M245.18,250.23a.5.5,0,0,1,.15-.26l.11-.09a.59.59,0,0,1,.29-.07.33.33,0,0,1,.22.05.4.4,0,0,1,.19.11.44.44,0,0,1,.12.19.42.42,0,0,1,.05.22l0,.16a.64.64,0,0,1-.15.25l-.12.09a.57.57,0,0,1-.29.08.54.54,0,0,1-.22-.05.36.36,0,0,1-.18-.12.35.35,0,0,1-.12-.19.33.33,0,0,1-.05-.22Z"/><path class="cls-29" d="M244.06,252.32a.56.56,0,0,1,.13-.22l.1-.07a.45.45,0,0,1,.25-.07.41.41,0,0,1,.19,0,.44.44,0,0,1,.16.1.39.39,0,0,1,.1.16.35.35,0,0,1,0,.2l0,.13a.56.56,0,0,1-.13.22l-.1.07a.45.45,0,0,1-.25.07.41.41,0,0,1-.19,0,.34.34,0,0,1-.16-.1.39.39,0,0,1-.1-.16.45.45,0,0,1-.05-.19Z"/><path class="cls-29" d="M241.38,253.64a.55.55,0,0,1,.12-.21.43.43,0,0,1,.22-.12.53.53,0,0,1,.25,0h0a.48.48,0,0,1,.22.12.5.5,0,0,1,.13.49.71.71,0,0,1-.13.22.48.48,0,0,1-.22.12.42.42,0,0,1-.27,0,.44.44,0,0,1-.34-.34v0A.57.57,0,0,1,241.38,253.64Z"/><path class="cls-29" d="M239,253.85v-.14a.49.49,0,0,1,.1-.19.32.32,0,0,1,.1-.1.5.5,0,0,1,.19-.1l.15,0a.53.53,0,0,1,.28.07h0l.06,0,.06,0h0l.09.11h0a.48.48,0,0,1,.08.28l0,.16a.52.52,0,0,1-.14.25.76.76,0,0,1-.19.12.63.63,0,0,1-.44,0,.57.57,0,0,1-.18-.12.71.71,0,0,1-.1-.14.31.31,0,0,1,0-.1A.41.41,0,0,1,239,253.85Z"/><path class="cls-29" d="M236.62,253.45a.19.19,0,0,1,.07-.12.4.4,0,0,1,.15-.14l.07,0a.23.23,0,0,1,.14,0,.42.42,0,0,1,.22,0h0l0,0a.56.56,0,0,1,.25.14l.09.12a.69.69,0,0,1,.08.28.54.54,0,0,1-.05.22.44.44,0,0,1-.12.18.57.57,0,0,1-.18.12.41.41,0,0,1-.22,0,.55.55,0,0,1-.28-.07l0,0h0l-.11-.09-.08-.11a.38.38,0,0,1-.06-.13l0-.15A.36.36,0,0,1,236.62,253.45Z"/><path class="cls-29" d="M234.43,253.55l0-.12a.63.63,0,0,1,.24-.21.24.24,0,0,1,.12,0H235a.33.33,0,0,1,.19.06.35.35,0,0,1,.1.08l.08.1,0,.12v.26a.46.46,0,0,1-.09.17.2.2,0,0,1-.09.09.24.24,0,0,1-.11.06.2.2,0,0,1-.13,0,.46.46,0,0,1-.2,0c-.11,0-.09,0-.16-.09a.2.2,0,0,1-.09-.09.28.28,0,0,1-.09-.17h0l0-.13Z"/><path class="cls-29" d="M308.49,179.68a25.62,25.62,0,0,1,2.26-3,6.58,6.58,0,0,0,1.61-3.85c0-.11.2-.16.22,0,.38,2.5-2.17,4.45-3.33,6.35a17.15,17.15,0,0,0-2,7.57c0,.44-.73.44-.69,0A16.85,16.85,0,0,1,308.49,179.68Z"/><path class="cls-29" d="M308.13,176.92c.75-.95,1.69-1.73,2.5-2.62a6,6,0,0,0,1.68-3.58c0-.07.13-.1.14,0,.44,2.34-1.8,4.16-3.2,5.68a8.33,8.33,0,0,0-1.89,3.3,22.69,22.69,0,0,0-.65,3.74c0,.4-.67.4-.62,0C306.34,181.14,306.68,178.78,308.13,176.92Z"/><path class="cls-29" d="M306.05,177.91a10,10,0,0,1,3-4.39,15.75,15.75,0,0,0,1.88-2.12,8.22,8.22,0,0,0,.73-1.29,10.35,10.35,0,0,1,.8-1.68c.05-.07.14,0,.13.06a9.49,9.49,0,0,1-2.81,5.1c-1.26,1.33-2.69,2.63-3.14,4.48C306.54,178.44,306,178.28,306.05,177.91Z"/><path class="cls-29" d="M307.13,189a.61.61,0,0,1,.07-.1l0,0a.16.16,0,0,1,.08-.06.15.15,0,0,1,.11,0h.07a.19.19,0,0,1,.12.07l0,0,.05.07,0,.07a.2.2,0,0,1,0,.13.24.24,0,0,1,0,.08.25.25,0,0,1,0,.07l-.06.05-.07,0-.12,0h-.08l-.08,0-.06-.05-.05-.07,0-.07a.19.19,0,0,1,0-.13A.31.31,0,0,1,307.13,189Z"/><path class="cls-29" d="M308.32,186.22a.39.39,0,0,1,0,.77A.39.39,0,0,1,308.32,186.22Z"/><path class="cls-29" d="M308.6,184.37v0l0,0a.32.32,0,0,1,.22-.17l.1,0a.23.23,0,0,1,.14,0,.12.12,0,0,1,.08,0,.26.26,0,0,1,.1.11l0,.09a.34.34,0,0,1,0,.2.32.32,0,0,1-.06.15.94.94,0,0,1-.09.12l-.07.05-.09,0h-.09a.32.32,0,0,1-.14,0l-.08,0-.06-.07a.22.22,0,0,1-.05-.08.28.28,0,0,1,0-.13v-.07A.41.41,0,0,1,308.6,184.37Z"/><path class="cls-29" d="M309.56,181.89a.36.36,0,0,1,0,.72A.36.36,0,0,1,309.56,181.89Z"/><path class="cls-29" d="M310.23,180.1V180h0a.34.34,0,0,1,0-.1l0-.08,0-.07h0l.07-.06.08,0,.09,0,.09,0a.24.24,0,0,1,.11.06.09.09,0,0,1,.06.06.2.2,0,0,1,.06.11.07.07,0,0,1,0,.05.2.2,0,0,1,0,.13h0v0h0a.23.23,0,0,1-.06.12.28.28,0,0,1-.1.09h0l0,0-.09,0h-.17l-.07,0a.27.27,0,0,1-.1-.11.05.05,0,0,1,0,0,.2.2,0,0,1,0-.11Z"/><path class="cls-29" d="M311.34,178v-.11a.13.13,0,0,1,0-.09.08.08,0,0,1,.05-.05.16.16,0,0,1,.09,0h.16a.12.12,0,0,1,.08,0,.12.12,0,0,1,.05.05.12.12,0,0,1,0,.08.15.15,0,0,1,0,.09v.07a.31.31,0,0,1-.05.1.12.12,0,0,1-.05.05l-.09.05h-.05a.11.11,0,0,1-.1,0h0a.09.09,0,0,1-.11,0,.1.1,0,0,1,0-.1v0h0a.16.16,0,0,1,0-.09V178Z"/><path class="cls-29" d="M311.94,167.18a.1.1,0,0,1,0,.2A.1.1,0,0,1,311.94,167.18Z"/><path class="cls-29" d="M311.2,168.37a.31.31,0,0,1,0,.62A.31.31,0,0,1,311.2,168.37Z"/><path class="cls-29" d="M309.94,170.26a.22.22,0,0,1,.08-.13.26.26,0,0,1,.13-.08.24.24,0,0,1,.15,0l.1,0a.4.4,0,0,1,.18.1l.06.08a.46.46,0,0,1,.05.2v.05a.4.4,0,0,1,0,.15.33.33,0,0,1-.21.21.4.4,0,0,1-.15,0h-.11a.59.59,0,0,1-.17-.1l-.06-.08a.37.37,0,0,1,0-.2v-.05A.19.19,0,0,1,309.94,170.26Z"/><path class="cls-29" d="M308.57,172.39a.41.41,0,0,1,0,.81A.41.41,0,0,1,308.57,172.39Z"/><path class="cls-29" d="M306.8,174.42a.16.16,0,0,1,0-.07.2.2,0,0,1,.09-.09h0a.27.27,0,0,1,.3,0h0l.07.05a.24.24,0,0,1,.06.11.11.11,0,0,1,0,.08.3.3,0,0,1,0,.13l0,.05,0,.07a.18.18,0,0,1-.08.09l-.06,0-.12,0H307l-.07,0a.23.23,0,0,1-.09-.08.31.31,0,0,1-.05-.1l0-.05v-.09A.27.27,0,0,1,306.8,174.42Z"/><path class="cls-29" d="M312.21,190.76a.21.21,0,0,1,.12.4,1,1,0,0,0-.58.92.93.93,0,0,0,.17.53.8.8,0,0,0,.2.21l.25.21c.1.09,0,.3-.12.28a.68.68,0,0,1-.41-.14,2.13,2.13,0,0,1-.3-.3,1.38,1.38,0,0,1-.27-.81A1.4,1.4,0,0,1,312.21,190.76Z"/><path class="cls-29" d="M310.69,190.54a2.78,2.78,0,0,1,1.33-1.16c.27-.09.39.29.18.43a3.51,3.51,0,0,0-1,.93,2.56,2.56,0,0,0,0,2.78,1,1,0,0,0,1.21.34c.19-.06.26.2.13.3a1.24,1.24,0,0,1-1.61-.08,2.52,2.52,0,0,1-.73-1.73A3.05,3.05,0,0,1,310.69,190.54Z"/><path class="cls-29" d="M311.93,188.1c.35-.22.67.34.32.56a5.26,5.26,0,0,0-2.53,3.8,2.68,2.68,0,0,0,.64,2,2.21,2.21,0,0,0,1.93.73.18.18,0,0,1,.09.34,2.41,2.41,0,0,1-2.19-.47,3.11,3.11,0,0,1-1.09-2.32A5.77,5.77,0,0,1,311.93,188.1Z"/><path class="cls-29" d="M312,195.79s0,.05,0,.05A0,0,0,0,1,312,195.79Z"/><path class="cls-29" d="M307.81,192.3a7.5,7.5,0,0,1,4.31-5.63.24.24,0,1,1,.19.43,6.66,6.66,0,0,0-4,4.89,4.27,4.27,0,0,0,.45,3.36c.81,1,2.46.81,3.57,1.15a.09.09,0,0,1,0,.17,10.63,10.63,0,0,1-2.25-.19,2.73,2.73,0,0,1-1.52-.74A4.14,4.14,0,0,1,307.81,192.3Z"/><path class="cls-29" d="M271.42,217.66a.2.2,0,0,1,.17,0,.24.24,0,0,1,.08.09l0,0h0l0,0,0,.05,0,0,0,0,.1.06h0l.06,0h.09s0,0,.05,0h0l.05,0h0l0,0h0l0,0h0s0,0,0,0,0,0,0,0v0l0,0h0v0a.11.11,0,0,0,0,0v0h0v-.1h0l0,0h0v0l0,0h0a.21.21,0,0,1,0-.06h0s0,0,0,0l0,0s0-.11,0-.11a.3.3,0,0,1,.23,0,.58.58,0,0,1,.11.15.67.67,0,0,1,0,.42.54.54,0,0,1-.25.34.67.67,0,0,1-.52,0,.94.94,0,0,1-.45-.3.34.34,0,0,1-.09-.19A.18.18,0,0,1,271.42,217.66Z"/><path class="cls-29" d="M272.41,217.68h0Z"/><polygon class="cls-29" points="272.38 217.88 272.38 217.87 272.38 217.87 272.38 217.88"/><path class="cls-29" d="M272.3,218Z"/><path class="cls-29" d="M271,218a2,2,0,0,0,.57.61,1.46,1.46,0,0,0,.82.19,1.29,1.29,0,0,0,1.1-1.14,1.34,1.34,0,0,0-.22-1c-.05-.07.07-.17.14-.1a1.64,1.64,0,0,1,0,1.95,1.58,1.58,0,0,1-2,.49,1.36,1.36,0,0,1-.84-.88A.19.19,0,0,1,271,218Z"/><path class="cls-29" d="M269.66,219.11a3.22,3.22,0,0,0,3.92.56,2.28,2.28,0,0,0,1.25-1.75,4.21,4.21,0,0,0-.2-1.31c-.07-.3-.3-.79-.13-1.08a.05.05,0,0,1,.08,0,.78.78,0,0,1,.29.5c.08.23.16.46.23.69a3.26,3.26,0,0,1,.18,1.45,2.81,2.81,0,0,1-1.44,2,3.73,3.73,0,0,1-4.59-.59C269,219.23,269.43,218.82,269.66,219.11Z"/><path class="cls-29" d="M213.24,232.48a.29.29,0,0,1,.07-.19s.05-.09.07-.14a.21.21,0,0,0,0-.06h0a0,0,0,0,0,0,0s0,0,0-.06,0,0,0,0h0v-.08a.17.17,0,0,0,0-.07v-.07l0,0h-.06c-.08,0-.11-.09-.12-.16v-.05a.2.2,0,0,1,.17-.12.5.5,0,0,1,.34.16l0,.06,0,0h0a.43.43,0,0,1,0,.07.35.35,0,0,1,.07.23.78.78,0,0,1-.24.59l-.08.07a.23.23,0,0,1-.15,0l-.1,0a.09.09,0,0,1-.11-.11Z"/><polygon class="cls-29" points="213.45 231.99 213.45 231.99 213.45 231.99 213.45 231.99"/><path class="cls-29" d="M213.21,233.66a8.15,8.15,0,0,1,.61-.92,2.7,2.7,0,0,0,.49-.81.84.84,0,0,0-.09-.77.46.46,0,0,0-.3-.17c-.14,0-.25.06-.38,0a.2.2,0,0,1-.09-.22c0-.2.3-.24.47-.23a.84.84,0,0,1,.49.16,1.06,1.06,0,0,1,.44,1,2.17,2.17,0,0,1-.5,1.1c-.13.17-.27.34-.41.49s-.36.34-.54.5S213.14,233.78,213.21,233.66Z"/><path class="cls-29" d="M213.72,234.37a13.34,13.34,0,0,0,1.48-2.73,1.72,1.72,0,0,0,0-1.44.86.86,0,0,0-1-.39.27.27,0,0,1-.21-.49,1.26,1.26,0,0,1,1.44.27,1.83,1.83,0,0,1,.49,1.66,5.32,5.32,0,0,1-.71,1.83,4.45,4.45,0,0,1-1.27,1.49C213.8,234.65,213.65,234.49,213.72,234.37Z"/><path class="cls-29" d="M184.67,252.14a10,10,0,0,0,2.38-2.39,8,8,0,0,0,1.18-3.12,21.1,21.1,0,0,1,.43-3.73c.2-.63.73-1.81,1.49-1.88,0,0,0,0,0,0a2.38,2.38,0,0,1-.42.42,2.93,2.93,0,0,0-.49.7,4.7,4.7,0,0,0-.44,1.85,21.1,21.1,0,0,1-.27,3.64,8,8,0,0,1-3.49,5C184.75,252.81,184.37,252.37,184.67,252.14Z"/><path class="cls-29" d="M184.69,250.68a7,7,0,0,0,2-2.63,11.67,11.67,0,0,0,.72-3.46c.18-2,.84-4.22,3-4.89a.07.07,0,0,1,0,.13,4.86,4.86,0,0,0-2.21,2.54,18.07,18.07,0,0,0-.46,3.67c-.23,1.87-1,4.07-2.67,5.13C184.77,251.36,184.42,250.92,184.69,250.68Z"/><path class="cls-29" d="M184.69,254.43c.58-1,1.94-1.5,2.83-2.2a6.1,6.1,0,0,0,2-3.11,9.07,9.07,0,0,0,.17-3.63c-.13-1.05-.28-2.2.58-3,0,0,.1,0,.07.05-.74,1.05-.28,2.46-.15,3.62a8.4,8.4,0,0,1-.32,3.52,6.76,6.76,0,0,1-1.69,2.84,8.45,8.45,0,0,1-1.4,1.06,12.17,12.17,0,0,0-1.52,1.25A.35.35,0,0,1,184.69,254.43Z"/><path class="cls-29" d="M185.57,255.86a.26.26,0,0,1,.07-.11.39.39,0,0,1,.16-.1.61.61,0,0,1,.19,0l.08,0,.08,0a.39.39,0,0,1,.1.08.2.2,0,0,1,0,.08.28.28,0,0,1,0,.13v.09l0,.08a.28.28,0,0,1-.09.1.24.24,0,0,1-.11.06l-.08,0h-.19a.39.39,0,0,1-.16-.1l0-.07a.29.29,0,0,1-.05-.18A.17.17,0,0,1,185.57,255.86Z"/><path class="cls-29" d="M187.07,254.47a.28.28,0,0,1,.09-.1.34.34,0,0,1,.12-.06.3.3,0,0,1,.16,0h0l.06,0h.06l.09,0,0,.05a.19.19,0,0,1,.07.12h0s0,.06,0,.08v0h0s0,.07,0,.09h0l0,0a.16.16,0,0,1-.07.11l-.07.06h0a.25.25,0,0,1-.09,0h-.14s0,0,0,0a.34.34,0,0,1-.18,0l-.08-.06a.51.51,0,0,1-.09-.16.33.33,0,0,1,0-.14A.23.23,0,0,1,187.07,254.47Z"/><polygon class="cls-29" points="187.55 254.32 187.55 254.32 187.55 254.32 187.55 254.32"/><path class="cls-29" d="M188.77,252.78a.35.35,0,0,1,0,.69A.35.35,0,0,1,188.77,252.78Z"/><path class="cls-29" d="M189.54,251.78l0-.08h0l0,0a.32.32,0,0,1,.1-.1l.14,0,.15,0,.1.1,0,0h0a.05.05,0,0,1,0,0,.27.27,0,0,1,0,.12s0,.06,0,.08a.34.34,0,0,1-.09.14h0a.24.24,0,0,1-.09.06.25.25,0,0,1-.12,0h-.08a.33.33,0,0,1-.13-.07h0a.32.32,0,0,1-.08-.14.19.19,0,0,1,0-.08Z"/><path class="cls-29" d="M184.76,248.74l0,0a.48.48,0,0,1,.11-.09l.09,0a.28.28,0,0,1,.12,0,.19.19,0,0,1,.13,0l.08,0a.24.24,0,0,1,.09.08.25.25,0,0,1,0,.07.28.28,0,0,1,0,.13v.08a.34.34,0,0,1-.09.14l0,0,0,0-.06,0a.24.24,0,0,1-.11.06h0l-.05,0a.25.25,0,0,1-.17,0l-.08,0,0,0a0,0,0,0,1,0,0h0s0,0,0,0l0-.05a.19.19,0,0,1,0-.08v0a.48.48,0,0,1,0-.17A.34.34,0,0,1,184.76,248.74Z"/><path class="cls-29" d="M185.76,247.33a.35.35,0,0,0,0,.14.26.26,0,0,0,.07.11.42.42,0,0,0,.16.09h.09a.31.31,0,0,0,.18-.05.49.49,0,0,0,.13-.12h0l0-.09v0h0s0-.06,0-.09h0v0a.37.37,0,0,0,0-.18l-.06-.07a.27.27,0,0,0-.07-.06h0a.28.28,0,0,0-.15,0,.27.27,0,0,0-.12,0,.18.18,0,0,0-.09.06l0,0s0,0,0,0h0l0,0,0,.05A.31.31,0,0,0,185.76,247.33Z"/><path class="cls-29" d="M185.88,247.08v0h0Z"/><path class="cls-29" d="M186.61,243.34v0a.18.18,0,0,1,0-.1.33.33,0,0,1,.07-.13l.09-.08a.25.25,0,0,1,.25,0,.26.26,0,0,1,.15.17s0,0,0,0a.43.43,0,0,1,0,.11.55.55,0,0,1-.06.18l0,0s0,0,0,.08l-.09.18a.25.25,0,0,1-.14.11.29.29,0,0,1-.16,0,.21.21,0,0,1-.11-.1l0-.05a.29.29,0,0,1,0-.13Z"/><path class="cls-29" d="M187.62,240.41a.3.3,0,0,1,0,.59A.3.3,0,0,1,187.62,240.41Z"/><path class="cls-29" d="M189.2,238.42a.36.36,0,0,1,.07-.1.18.18,0,0,1,.07,0l.09,0,.12,0a.26.26,0,0,1,.09.09l.06.09,0,0a.27.27,0,0,1,0,.09.09.09,0,0,1,0,.05.18.18,0,0,1-.05.07l0,0-.05,0h-.08l-.08,0-.1-.06-.08-.08a.27.27,0,0,1,0-.12Z"/><path class="cls-29" d="M189.42,267.33a.54.54,0,0,1,.56-.19.18.18,0,0,1,0,.35h0l-.08,0h0l0,0h0l0,0h0l0,0,0,0h0v0s0,.06,0,0v0l0,.05V268a.07.07,0,0,0,0,.05l0,.11,0,0,0,.05a.41.41,0,0,0,.07.11l.05.07.11.13a2.43,2.43,0,0,0,.14.2.15.15,0,0,1,0,.18.14.14,0,0,1-.18,0,2.26,2.26,0,0,1-.26-.16,1.34,1.34,0,0,1-.5-.86A.8.8,0,0,1,189.42,267.33Z"/><path class="cls-29" d="M190,265.81a.27.27,0,0,1,.31.16.25.25,0,0,1-.11.32,2.26,2.26,0,0,0-1,.68,1.63,1.63,0,0,0-.31,1.21,1.38,1.38,0,0,0,.58,1c.35.16.78,0,1.06.34a.15.15,0,0,1-.22.21c-.17-.15-.46-.06-.66-.07a1.06,1.06,0,0,1-.62-.22,1.9,1.9,0,0,1-.68-1.38A2.15,2.15,0,0,1,190,265.81Z"/><path class="cls-29" d="M187.83,266.11a6.64,6.64,0,0,1,1.91-1.71.32.32,0,0,1,.32.55,5.88,5.88,0,0,0-1.58,1.36,3.64,3.64,0,0,0-.93,2c0,1.4,1.54,2.27,2.78,2.27a.13.13,0,0,1,0,.26,2.78,2.78,0,0,1-3.43-2.27A3.46,3.46,0,0,1,187.83,266.11Z"/><path class="cls-29" d="M158.66,262c0,1.74,1,3.17,2,4.47a9.17,9.17,0,0,1,2.05,3.82c.3,1.53.15,3.11.51,4.63a4.31,4.31,0,0,0,1,2c.44.49,1,.84,1.27,1.48,0,.07-.08.1-.12.05-.49-.64-1.25-1-1.75-1.59a5,5,0,0,1-.86-1.65c-.51-1.57-.36-3.24-.65-4.85-.57-3.13-4-5.07-3.94-8.37C158.19,261.71,158.67,261.71,158.66,262Z"/><path class="cls-29" d="M157.13,262c0-.16.26-.09.24.06-.21,1.38.66,2.65,1.3,3.8a30.53,30.53,0,0,1,1.75,3.29,16.92,16.92,0,0,1,.61,3.54,11.82,11.82,0,0,0,.47,1.77c.21.63.53,1.19.79,1.79a.21.21,0,0,1-.36.22,8.89,8.89,0,0,1-1.29-3.48c-.24-1.37-.11-2.75-.71-4s-1.3-2.44-2-3.64A4.65,4.65,0,0,1,157.13,262Z"/><path class="cls-29" d="M155.69,260.93c.09-.28.53-.16.45.12-.84,2.69,1,5.11,2.16,7.39a23.28,23.28,0,0,1,1.34,3.32c.19.6.36,1.21.5,1.83a6.71,6.71,0,0,1,.28,1.83c0,.12-.16.13-.21,0a17,17,0,0,1-.5-1.93c-.17-.64-.36-1.28-.58-1.91a25.68,25.68,0,0,0-1.62-3.68C156.36,265.78,154.91,263.45,155.69,260.93Z"/><path class="cls-29" d="M159.8,264.12h0v0l0,0a.12.12,0,0,1,0-.05s0,0,0,0l.08,0h.05l0,0,.05,0a.16.16,0,0,1,0,.07v0h0a.2.2,0,0,1,0,.11s0,0,0,.05a.22.22,0,0,1-.18.1.2.2,0,0,1-.18-.1A.2.2,0,0,1,159.8,264.12Z"/><path class="cls-29" d="M161.22,266.05l0,.07,0,.07.06.07h0l.07.06h0l.08,0a.28.28,0,0,0,.13,0,.11.11,0,0,0,.08,0,.1.1,0,0,0,.07,0,.09.09,0,0,0,.06-.06.24.24,0,0,0,.06-.11h0l0,0h0l0-.06v0a.25.25,0,0,0,0-.09.18.18,0,0,0,0-.1.3.3,0,0,0,0-.08.43.43,0,0,0,0-.07h0l-.06-.05h0l-.07,0h-.21l-.07,0h-.05a.22.22,0,0,0-.1.09.37.37,0,0,0-.07.12A.6.6,0,0,0,161.22,266.05Z"/><path class="cls-29" d="M162.8,268.4a.39.39,0,0,1,.15-.16l0,0,.1,0a.33.33,0,0,1,.17,0,.22.22,0,0,1,.11,0,.38.38,0,0,1,.13.09l.07.09,0,.1a.29.29,0,0,1,0,.16.3.3,0,0,1-.05.16l0,0a.46.46,0,0,1-.15.16.43.43,0,0,1-.22.06l-.12,0a.52.52,0,0,1-.19-.11.42.42,0,0,1-.09-.14.32.32,0,0,1,0-.17A.39.39,0,0,1,162.8,268.4Z"/><path class="cls-29" d="M163.93,271.2A.51.51,0,0,1,164,271l.07-.05a.41.41,0,0,1,.18-.05.32.32,0,0,1,.14,0,.26.26,0,0,1,.11.07.29.29,0,0,1,.09.16.31.31,0,0,1,0,.19l0,.15,0,.08a.18.18,0,0,1-.08.09.18.18,0,0,1-.07.05.19.19,0,0,1-.13,0h-.08l-.08,0a.39.39,0,0,1-.1-.08.43.43,0,0,1,0-.12l0-.15A.31.31,0,0,1,163.93,271.2Z"/><path class="cls-29" d="M164,273.68a.29.29,0,0,1,.08-.13l.1-.07.11,0,.12,0a.22.22,0,0,1,.09.07.22.22,0,0,1,.08.13l.06.17a.21.21,0,0,1,0,.11.17.17,0,0,1,0,.1l0,.06-.09.06h-.18l-.06,0a.19.19,0,0,1-.1-.1l-.11-.15a.28.28,0,0,1,0-.15Z"/><path class="cls-29" d="M165.45,276.9a.26.26,0,0,1,.07-.11l.07-.05.08,0a.34.34,0,0,1,.14,0,.29.29,0,0,1,.13.05l0,0,0,0,0,0,.06.08v0l.05.08,0,.08a.28.28,0,0,1,0,.13.11.11,0,0,1,0,.08.21.21,0,0,1-.07.11l-.07.05-.08,0h-.13a.17.17,0,0,1-.12,0l-.08-.05h0a.38.38,0,0,1-.14-.14l0,0,0-.08a.33.33,0,0,1,0-.14A.16.16,0,0,1,165.45,276.9Z"/><path class="cls-29" d="M167.07,279a.17.17,0,0,1,0,.33A.17.17,0,0,1,167.07,279Z"/><path class="cls-29" d="M158.94,274.35l0-.05a.13.13,0,0,1,.06-.07v0l.07-.06,0,0a.41.41,0,0,1,.19-.05.41.41,0,0,1,.18.05.37.37,0,0,1,.18.32.38.38,0,0,1-.18.32.41.41,0,0,1-.18.05.41.41,0,0,1-.19-.05c-.06,0-.07-.06-.11-.1l0,0,0,0,0-.05a.29.29,0,0,1,0-.09Z"/><path class="cls-29" d="M158.61,272.84l0-.08a.2.2,0,0,1,.09-.09.1.1,0,0,1,.07,0,.28.28,0,0,1,.13,0H159l.08,0,.09.09a.24.24,0,0,1,.06.11.34.34,0,0,1,0,.26.18.18,0,0,1-.05.07v0l0,0a.15.15,0,0,1-.09.06.12.12,0,0,1-.1,0h-.08a.25.25,0,0,1-.12-.07l0,0v0l-.06-.07A.3.3,0,0,1,158.61,272.84Z"/><path class="cls-29" d="M156.86,270.79l0-.08,0-.08.08-.09.07,0a.31.31,0,0,1,.13,0h.09l.08,0,.09.08a.24.24,0,0,1,.06.11l0,.08a.31.31,0,0,1,0,.19.29.29,0,0,1-.09.15l-.07.06a.41.41,0,0,1-.18.05.25.25,0,0,1-.14,0,.19.19,0,0,1-.11-.07.38.38,0,0,1-.09-.15A.31.31,0,0,1,156.86,270.79Z"/><path class="cls-29" d="M155.34,268v0h0a.32.32,0,0,1,0-.14.25.25,0,0,1,.08-.12h0l0,0,.1-.07.12,0h.08a.25.25,0,0,1,.14.08l0,0h0a.2.2,0,0,1,.08.12.17.17,0,0,1,0,.14h0v.07a.32.32,0,0,1,0,.14.25.25,0,0,1-.08.12.23.23,0,0,1-.12.08.28.28,0,0,1-.15,0l-.1,0a.42.42,0,0,1-.17-.1l-.06-.07a.45.45,0,0,1,0-.19Z"/><path class="cls-29" d="M154.41,264.2a.44.44,0,0,1,0,.87A.44.44,0,0,1,154.41,264.2Z"/><path class="cls-29" d="M154.06,262a.39.39,0,0,1,.08-.14.41.41,0,0,1,.11-.07.22.22,0,0,1,.12,0,.29.29,0,0,1,.16,0,.34.34,0,0,1,.12.12l0,0,0,.07a.3.3,0,0,1,0,.13.24.24,0,0,1,0,.08.36.36,0,0,1-.07.1l-.06.05-.08,0a.25.25,0,0,1-.12,0l-.12,0,0,0a.25.25,0,0,1-.12-.11.29.29,0,0,1,0-.16Z"/><path class="cls-29" d="M154.26,260.7a.49.49,0,0,1,0-.11h0l.07-.07h0l.06,0h.07a.23.23,0,0,1,.14,0,.14.14,0,0,1,.08.07.19.19,0,0,1,.05.09.38.38,0,0,1,0,.15h0s0,.07-.06.1-.06,0-.1.06h-.17l-.09-.05a.18.18,0,0,1-.07-.08.23.23,0,0,1,0-.14Z"/><path class="cls-29" d="M185,283.61a1.08,1.08,0,0,1,.67-.38.76.76,0,0,1,.75.3.41.41,0,0,1,0,.49.33.33,0,0,1-.41.05.1.1,0,0,1,0-.19s0,0,0-.05a.14.14,0,0,0,0-.06h0a.27.27,0,0,0-.2-.11.57.57,0,0,0-.25,0,1,1,0,0,0-.24.15,1.69,1.69,0,0,0-.38,1.44c0,.13-.21.16-.23,0A2.09,2.09,0,0,1,185,283.61Z"/><path class="cls-29" d="M183.87,284.63c0-.41,0-.82,0-1.22a4,4,0,0,1,.5-2.19,1.2,1.2,0,0,1,1.63-.47c.47.32.57.93.84,1.39s1.06.82.95,1.52c0,.14-.21.11-.25,0-.19-.6-.88-.87-1.17-1.42s-.44-1.45-1.18-1.15-.85,1.53-.86,2.23c0,.42,0,.84,0,1.26a4.17,4.17,0,0,1-.06,1.32.19.19,0,0,1-.38,0C183.85,285.44,183.89,285,183.87,284.63Z"/><path class="cls-29" d="M182.86,286.3c.73-1.2.1-2.68.21-4a4.82,4.82,0,0,1,1.54-2.89,10.9,10.9,0,0,1,1.29-1.16c.44-.32.78-.19,1,.29a12,12,0,0,0,2.24,3.31c.23.24-.14.61-.37.37a12.06,12.06,0,0,1-2-2.8c-.07-.14-.15-.28-.21-.43s-.09-.3-.16-.35-.49.27-.64.39a12.59,12.59,0,0,0-1.17,1.14,4.38,4.38,0,0,0-.85,1.4,4.21,4.21,0,0,0-.16,1.8c.09,1.09.24,2.17-.49,3.07C183,286.59,182.78,286.43,182.86,286.3Z"/><path class="cls-29" d="M135.25,254.7a.8.8,0,0,0,.81.26,1.11,1.11,0,0,0,.4-.13.64.64,0,0,0,.25-.33.53.53,0,0,0-.09-.42.09.09,0,0,0,0-.07.22.22,0,0,0-.14-.22l-.13,0-.17,0-.26,0a.9.9,0,0,0-.54.2A.66.66,0,0,0,135.25,254.7Zm.34-.26s0,0,0-.05v0l0-.06h0l0,0,.05-.05,0,0h0l0,0h0l0,0h.68a.14.14,0,0,1,0,.09.27.27,0,0,1-.11.22l-.05,0h0l-.05,0s0,0,0,0l-.07,0-.09,0h-.43l0,0,0,0v0h0v-.06S135.61,254.42,135.59,254.44Z"/><path class="cls-29" d="M135.73,254.22h0S135.72,254.23,135.73,254.22Z"/><path class="cls-29" d="M134.62,253.41a3.25,3.25,0,0,1,1-.65c.18-.07.34.18.15.28a2.32,2.32,0,0,0-1.23,1,.79.79,0,0,0,.54,1.07,2.15,2.15,0,0,0,1.46-.08,1,1,0,0,0,.67-1.27,1.49,1.49,0,0,0-.54-.6c-.13-.08-.54-.39-.66-.18a.06.06,0,0,1-.11,0c0-.26.35-.29.56-.26a1.73,1.73,0,0,1,.79.49,1.18,1.18,0,0,1-.09,1.72,2.26,2.26,0,0,1-1.83.54,1.2,1.2,0,0,1-1.16-1A1.42,1.42,0,0,1,134.62,253.41Z"/><path class="cls-29" d="M133.34,254a2.46,2.46,0,0,1,.62-1.31c.1-.09.24.06.15.15a2,2,0,0,0-.5,1,2.12,2.12,0,0,0,0,1.17,2.43,2.43,0,0,0,.82.87,2.11,2.11,0,0,0,1.07.52,2.22,2.22,0,0,0,1.23-.32,5,5,0,0,0,.94-.63,1.93,1.93,0,0,0,.55-2.11,2.7,2.7,0,0,0-1.56-1.56,2.61,2.61,0,0,0-.56,0,2.06,2.06,0,0,0-.92.37c-.09.07-.17-.08-.09-.14a2.12,2.12,0,0,1,1.18-.43s0-.1.11-.08a3.6,3.6,0,0,1,.44.12,1.75,1.75,0,0,1,.32.12v0a2.64,2.64,0,0,1,1.32,1.23,2.27,2.27,0,0,1-.32,2.5,3.92,3.92,0,0,1-1.1.84,3.06,3.06,0,0,1-1.34.46,2.14,2.14,0,0,1-1.28-.43,3.64,3.64,0,0,1-1-1A2,2,0,0,1,133.34,254Z"/><path class="cls-29" d="M128,255.27a7.09,7.09,0,0,1,1.16-.88,2.11,2.11,0,0,1,1.3-.28c.48.06.93.33,1.41.36a4,4,0,0,1,.29-1.27,7.93,7.93,0,0,0-2.23-.65,3.13,3.13,0,0,0-1.1.08,3.46,3.46,0,0,0-1,.46.19.19,0,0,1-.23-.3,2.75,2.75,0,0,1,2.23-.63,6.81,6.81,0,0,1,2.39.83,6.39,6.39,0,0,1,.75-1.21c1.36-1.77,3.56-1.23,5.27-.32.22.11.07.5-.17.41-1.32-.52-3-1.34-4.28-.25a5.44,5.44,0,0,0-1.2,1.72,2.74,2.74,0,0,0-.18,1.93,3.34,3.34,0,0,0,2.56,2.38,4.3,4.3,0,0,0,3.66-1.16,1.07,1.07,0,0,0,.18-.19.21.21,0,0,1,.09-.4l.26,0c.78-1.16,1-2.78-.23-3.74-.09-.07,0-.24.1-.17a2.87,2.87,0,0,1,.64,3.84c.86-.12,1.72-.24,2.59-.34a4.38,4.38,0,0,1,2.76.44,18,18,0,0,0,2.59,1.57,5.74,5.74,0,0,0,3.21.1s.07.05,0,.07a5.17,5.17,0,0,1-5.15-.87,6.12,6.12,0,0,0-1.35-.79,3.9,3.9,0,0,0-1.73-.17c-1.09.09-2.18.28-3.26.45a5.37,5.37,0,0,1-1,1c.81.84,2.1.44,3.08.08a5.06,5.06,0,0,1,1.57-.37,4.48,4.48,0,0,1,1.77.4,19.45,19.45,0,0,0,3.56,1.15,5.78,5.78,0,0,0,1.71.06,3.28,3.28,0,0,0,.82-.2c.27-.1.49-.29.74-.41a.12.12,0,0,1,.16.16c-.52.95-2,1.05-2.95,1a14,14,0,0,1-4-1.15,4,4,0,0,0-2.46-.44c-.68.14-1.3.45-2,.57a2,2,0,0,1-2.12-.77,4.1,4.1,0,0,1-.78.46,1.94,1.94,0,0,0,1.28.69,5.42,5.42,0,0,0,2-.29,4.91,4.91,0,0,1,3.5.17c1.25.55,2.37,1.38,3.79,1.45a9.51,9.51,0,0,0,2.32-.22,2.23,2.23,0,0,0,1.74-.93c0-.05.12,0,.1,0-.47,1.14-2.14,1.24-3.18,1.36a5.52,5.52,0,0,1-2.42-.23,18.65,18.65,0,0,1-1.88-.85,5.08,5.08,0,0,0-2.25-.64,14.69,14.69,0,0,0-2.59.59c-1,.2-2.4.09-2.86-.94a4.8,4.8,0,0,1-1.3.23A3.8,3.8,0,0,1,132.2,256l0-.07s0,0,0,0a.52.52,0,0,1-.06.16l0,0-.08.1,0,0-.1.07-.08,0-.08,0a.3.3,0,0,1-.13,0,.28.28,0,0,1-.12,0l-.09-.08a.37.37,0,0,1,0-.11v-.08a.29.29,0,0,1,0-.16l0-.06a.26.26,0,0,1,.11-.07h0l0,0h0v0a.37.37,0,0,1,.05-.11l.09-.08a.27.27,0,0,1,.12,0H132l.08,0,0,0a3.21,3.21,0,0,1-.16-1,2.86,2.86,0,0,1-1.05-.09,1.82,1.82,0,0,0-1.35.2,5.79,5.79,0,0,0-1.06.78,4.57,4.57,0,0,0-.44.44,2.59,2.59,0,0,0-.32.59c-.08.18-.39.09-.38-.1A1.81,1.81,0,0,1,128,255.27Z"/><path class="cls-29" d="M127.8,254.13c.26-.61,1.07-.79,1.67-.83.86-.06,1.72.21,2.57.08.05,0,.07.06,0,.07a4.16,4.16,0,0,1-1.16.21c-.39,0-.77,0-1.16,0a2.82,2.82,0,0,0-.91.17,2.7,2.7,0,0,0-.78.51A.16.16,0,0,1,127.8,254.13Z"/><path class="cls-29" d="M119.52,239.7a.18.18,0,0,1,.22-.12.19.19,0,0,1,.12.22.9.9,0,0,0,0,.18.88.88,0,0,1,0-.16c0-.12.21-.11.24,0l0,.14a.86.86,0,0,1,0,.16,1.29,1.29,0,0,0,.06.25.6.6,0,0,0,.1.23l.08.09.07.05a.43.43,0,0,0,.17.06h.24l.09,0,.06-.06,0-.06a.09.09,0,0,1,.18,0,.55.55,0,0,1-.62.4.79.79,0,0,1-.41-.17,1.14,1.14,0,0,1-.28-.46,1.31,1.31,0,0,1-.06-.27,1,1,0,0,1,0-.17,1.74,1.74,0,0,0,.06.85,1,1,0,0,0,.55.55,1.11,1.11,0,0,0,1.41-.63c0-.06.12,0,.1,0a1.23,1.23,0,0,1-1.13,1,1.38,1.38,0,0,1-1.3-.88A2.29,2.29,0,0,1,119.52,239.7Z"/><path class="cls-29" d="M118.36,239.2a.18.18,0,0,1,.31.18,2.26,2.26,0,0,0,.1,1.73,2.67,2.67,0,0,0,.89,1.45c1.07.64,2.24-.24,3.13-.78.1-.07.21.08.13.16-.88.89-2.35,1.79-3.56.95a3.34,3.34,0,0,1-1-1.7A2.24,2.24,0,0,1,118.36,239.2Z"/><path class="cls-29" d="M128.42,251a.3.3,0,0,1,0,.59A.3.3,0,0,1,128.42,251Z"/><path class="cls-29" d="M129.26,251.13a.22.22,0,0,1,.05-.08l.06-.05h0l.06,0,.06,0h0a.21.21,0,0,1,.11,0,.19.19,0,0,1,.1,0l.05,0a.2.2,0,0,1,0,.09.07.07,0,0,1,0,.06.21.21,0,0,1,0,.11l0,.06a.28.28,0,0,1-.09.1l0,0a.17.17,0,0,1-.1,0l-.07,0h-.06a.16.16,0,0,1-.1,0l0,0a.23.23,0,0,1-.07-.07l0-.06v-.07A.29.29,0,0,1,129.26,251.13Z"/><path class="cls-29" d="M130.89,251.2h0a.08.08,0,0,0,0,0,.18.18,0,0,1,.06-.09L131,251l.09,0h0a.2.2,0,0,1,.11,0,.17.17,0,0,1,.1,0l.06,0a.29.29,0,0,1,.08.16.21.21,0,0,1,0,.11l0,.07-.08.08h0s0,0-.06,0h0l0,0a.27.27,0,0,1-.1.06.23.23,0,0,1-.22-.06l0-.06,0-.08s0,0,0,0,0-.06,0-.09S130.89,251.23,130.89,251.2Z"/><path class="cls-29" d="M132.45,251.51a.21.21,0,0,1,0,.42A.21.21,0,0,1,132.45,251.51Z"/><path class="cls-29" d="M133.72,250.83h0Z"/><path class="cls-29" d="M133.69,250.84h0Z"/><path class="cls-29" d="M133.33,250.44l0-.08a.2.2,0,0,1,.09-.09l.07,0a.11.11,0,0,1,.08,0,.11.11,0,0,1,.08,0,.11.11,0,0,1,.08,0,.19.19,0,0,1,.11.07l0,.06,0,.08v.17l0,.07a.24.24,0,0,1-.08.09l-.08,0h-.12a.14.14,0,0,1-.11,0l-.06,0a.32.32,0,0,1-.1-.1h0l0-.08h0s0-.07,0-.11Z"/><path class="cls-29" d="M135,249.7a.22.22,0,0,1,.1-.09l0,0h0l.07,0a.11.11,0,0,1,.08,0h.1a.2.2,0,0,1,.11,0l.09.06a.48.48,0,0,1,.08.19v.08a.75.75,0,0,1-.07.12l-.06,0a.23.23,0,0,1-.14,0h-.1a.27.27,0,0,1-.16,0l0,0a.29.29,0,0,1-.1-.09.35.35,0,0,1,0-.14A.31.31,0,0,1,135,249.7Z"/><path class="cls-29" d="M137.13,250.05a.24.24,0,0,1,.06-.09l.09-.06.11,0h.07a.24.24,0,0,1,.12.07l0,.06a.33.33,0,0,1,0,.14l0,.15a.12.12,0,0,1,0,.1.19.19,0,0,1,0,.09l-.09.06-.1,0h-.08a.26.26,0,0,1-.11-.07l0-.05a.35.35,0,0,1,0-.14l0-.15A.23.23,0,0,1,137.13,250.05Z"/><path class="cls-29" d="M138.72,251.14h0s0,0,0,0,0,0,0,0a.18.18,0,0,1,.07-.05H139l0,0a.1.1,0,0,1,.07,0h0l0,0,.07.07,0,0a.14.14,0,0,1,0,.06,0,0,0,0,1,0,.05.19.19,0,0,1,0,.07l-.06.06-.07,0H139l-.09,0h0l-.06,0s0,0-.05-.06l0,0v0l0,0v-.05A.11.11,0,0,1,138.72,251.14Z"/><path class="cls-29" d="M140.67,252.1a.12.12,0,0,1,0,.24A.12.12,0,0,1,140.67,252.1Z"/><path class="cls-29" d="M140.76,253.7a.25.25,0,0,1,0,.49A.25.25,0,0,1,140.76,253.7Z"/><path class="cls-29" d="M140.46,255a.36.36,0,0,1,.07-.1l.06-.05.08,0,.09,0,.08,0,.08,0a.24.24,0,0,1,.09.08.16.16,0,0,1,0,.07.28.28,0,0,1,0,.13v.08a.29.29,0,0,1,0,.09l-.05.07-.05,0a.2.2,0,0,1-.11,0h-.08l-.09,0-.08,0-.09-.08a.16.16,0,0,1,0-.07.24.24,0,0,1,0-.08.14.14,0,0,1,0-.09A.24.24,0,0,1,140.46,255Z"/><polygon class="cls-29" points="143.09 254.78 143.09 254.77 143.09 254.77 143.09 254.78"/><polygon class="cls-29" points="142.93 254.61 142.93 254.61 142.93 254.61 142.93 254.61 142.93 254.61"/><path class="cls-29" d="M143.07,254.73v0a.1.1,0,0,0,0-.05Z"/><path class="cls-29" d="M142.51,254.66a.16.16,0,0,1,.07-.07.14.14,0,0,1,.09-.05.14.14,0,0,1,.11,0,.17.17,0,0,1,.1,0s0,0,0,0h0s0,0,0,0l0,0,0,0h0l.07,0,0,0h0a.35.35,0,0,1,.05.08s0,0,0,.07h0s0,.05,0,.06h0a.17.17,0,0,1,0,.06h0a.2.2,0,0,1-.09.09.25.25,0,0,1-.14,0,.37.37,0,0,1-.18-.05l-.05,0,0,0a.33.33,0,0,1-.07-.13v-.07A.25.25,0,0,1,142.51,254.66Z"/><polygon class="cls-29" points="143.07 254.74 143.07 254.73 143.06 254.73 143.07 254.74"/><polygon class="cls-29" points="143.09 254.79 143.09 254.78 143.09 254.78 143.09 254.79"/><path class="cls-29" d="M143.08,254.76h0v0Z"/><path class="cls-29" d="M144.08,254.89a.24.24,0,0,1,.06-.11.28.28,0,0,1,.15-.08.25.25,0,0,1,.17,0h0a.5.5,0,0,1,.14.08.31.31,0,0,1,.09.22.32.32,0,0,1-.09.23.5.5,0,0,1-.14.08h-.21a.29.29,0,0,1-.15-.09l0-.06a.33.33,0,0,1,0-.17A.18.18,0,0,1,144.08,254.89Z"/><path class="cls-29" d="M145.79,255.45a.41.41,0,0,1,.07-.11.34.34,0,0,1,.11-.07.35.35,0,0,1,.14,0,.28.28,0,0,1,.17,0l.06,0,.07,0a.24.24,0,0,1,.06.11.11.11,0,0,1,0,.08s0,0,0,.06v0s0,0,0,0h0a.06.06,0,0,1,0,0l0,.05,0,0v0s0,0,0,0h0l-.08,0a.11.11,0,0,1-.08,0,.28.28,0,0,1-.13,0l-.07,0a.51.51,0,0,1-.16-.09l-.05-.07a.33.33,0,0,1,0-.17A.19.19,0,0,1,145.79,255.45Z"/><path class="cls-29" d="M147.38,256.31l.07-.07a.2.2,0,0,1,.11,0h.1l.13.07.11.1,0,0a.27.27,0,0,1,.07.13l0,.06a.17.17,0,0,1,0,.1l0,.06,0,.05-.09,0h-.08a.32.32,0,0,1-.14,0l0,0-.14-.07-.1-.1,0-.07a.19.19,0,0,1,0-.15A.2.2,0,0,1,147.38,256.31Z"/><path class="cls-29" d="M148.87,257.07l0-.07a.34.34,0,0,1,.08-.09l.1-.05h.06a.25.25,0,0,1,.17,0,.29.29,0,0,1,.14.08l.05.06a.29.29,0,0,1,0,.16.27.27,0,0,1,0,.12.21.21,0,0,1-.06.1.29.29,0,0,1-.14.08.25.25,0,0,1-.17,0h-.06l-.07,0a.2.2,0,0,1-.08-.08.21.21,0,0,1,0-.06.27.27,0,0,1,0-.12Z"/><path class="cls-29" d="M151.73,260l.1-.15.06-.07.08,0H152l.09,0,0,0,.06.07,0,.05a.24.24,0,0,1,0,.12l-.06.17a.41.41,0,0,1-.07.11l-.05,0a.27.27,0,0,1-.12,0,.16.16,0,0,1-.1,0l-.08,0a.22.22,0,0,1-.05-.08.16.16,0,0,1,0-.1A.27.27,0,0,1,151.73,260Z"/><path class="cls-29" d="M151,260.39a.3.3,0,0,1,0,.6A.3.3,0,0,1,151,260.39Z"/><path class="cls-29" d="M148.51,260.78a.34.34,0,0,1,.28,0l.05,0a.2.2,0,0,1,.08.08.27.27,0,0,1,0,.12.23.23,0,0,1,0,.11.2.2,0,0,1-.08.08l-.05,0a.34.34,0,0,1-.28,0,.28.28,0,0,1-.13-.23A.28.28,0,0,1,148.51,260.78Z"/><path class="cls-29" d="M146.92,260.28a.32.32,0,0,1,0,.64A.32.32,0,0,1,146.92,260.28Z"/><path class="cls-29" d="M144.88,259.91h0a.2.2,0,0,1,0-.08l0,0H145l.1,0h.07l0,0h0l.07,0,.05,0a.18.18,0,0,1,.06.09.24.24,0,0,1,0,.08l.06.1v0a.2.2,0,0,1,0,.07s0,0,0,0a.21.21,0,0,1,0,.06.2.2,0,0,1-.08,0h-.07a.1.1,0,0,1-.07,0l-.09-.05s-.07,0-.09,0a.19.19,0,0,1-.09,0h0l0-.05v0l0,0,0-.06v-.13Z"/><path class="cls-29" d="M143.39,259a.28.28,0,0,1,0,.56A.28.28,0,0,1,143.39,259Z"/><path class="cls-29" d="M141.35,259.57a.47.47,0,0,1,.1-.1l.05,0a.23.23,0,0,1,.14,0l.12,0,.09.06a.16.16,0,0,1,.05.09h0v0h0a.1.1,0,0,1,0,.12h0v0h0a.16.16,0,0,1-.05.09.24.24,0,0,1-.09.06.27.27,0,0,1-.12,0,.33.33,0,0,1-.14,0l-.05,0-.1-.1a.3.3,0,0,1,0-.26Z"/><polygon class="cls-29" points="139.32 260 139.33 260 139.32 260 139.32 260"/><path class="cls-29" d="M139.34,260h0Z"/><path class="cls-29" d="M139.11,260.16a.21.21,0,0,1,0-.06.08.08,0,0,1,0-.05.09.09,0,0,1,.06,0l.06,0,0,0,.11,0h0a.42.42,0,0,1,.15,0,.57.57,0,0,1,.11.11.2.2,0,0,1,0,.11.24.24,0,0,1,0,.12.35.35,0,0,1-.08.13.33.33,0,0,1-.13.07.22.22,0,0,1-.16,0h0a.2.2,0,0,1-.08,0h0l-.06-.06,0,0,0-.07v-.07A.22.22,0,0,1,139.11,260.16Z"/><path class="cls-29" d="M137.59,259.61l0-.08,0-.06a.17.17,0,0,1,.1-.07.28.28,0,0,1,.13,0H138a.33.33,0,0,1,.13.07l.1.07.06,0a.28.28,0,0,1,.08.17.2.2,0,0,1,0,.11l0,.07,0,.06a.18.18,0,0,1-.09.06.22.22,0,0,1-.11,0H138a.39.39,0,0,1-.15,0,.38.38,0,0,1-.13-.06l-.06-.05a.36.36,0,0,1-.07-.1.31.31,0,0,1,0-.08A.19.19,0,0,1,137.59,259.61Z"/><path class="cls-29" d="M137,258.5a.3.3,0,0,1,0,.59A.3.3,0,0,1,137,258.5Z"/><path class="cls-29" d="M135.14,259l0,0,0,0,.06,0a.19.19,0,0,1,.13,0h.07a.35.35,0,0,1,.13.08.29.29,0,0,1,.08.13.38.38,0,0,1,0,.15.29.29,0,0,1-.08.13.26.26,0,0,1-.13.08h-.16a.26.26,0,0,1-.13-.08.27.27,0,0,1-.07-.13v0h0a.17.17,0,0,1,0-.1A.16.16,0,0,1,135.14,259Z"/><path class="cls-29" d="M133.4,258.65v.08a.19.19,0,0,0,.05.1.12.12,0,0,0,0,.05.19.19,0,0,0,.1.05h.24c.06,0,0,0,.09,0a.1.1,0,0,0,.07,0l0,0h0v0l.05-.06h0a.17.17,0,0,0,.06-.06.12.12,0,0,0,0-.08.2.2,0,0,0,0-.11.12.12,0,0,0,0-.08l0,0-.07,0H134l0,0h-.22l-.07,0h0l-.09.05a.3.3,0,0,0-.08.08.19.19,0,0,0-.05.1Z"/><path class="cls-29" d="M132.31,257.59v0a.34.34,0,0,0,0,.09l0,0s0,0,0,0h0a.41.41,0,0,0,.11.12h0l0,0h.08a.23.23,0,0,0,.11,0l.08-.08a.06.06,0,0,1,0,0h0a.27.27,0,0,0,.07-.13.3.3,0,0,0-.37-.37.26.26,0,0,0-.13.08.29.29,0,0,0-.08.13h0A.28.28,0,0,0,132.31,257.59Z"/><path class="cls-29" d="M130.78,255.18l0-.07a.29.29,0,0,1,.11-.11l.07,0h.09s0,0,.06,0h0s.06,0,.08,0h.05l.06,0a.34.34,0,0,1,.08.09.43.43,0,0,1,.05.16s0,.07,0,.09l0,.09a.23.23,0,0,1-.08.09l0,0h0l-.09,0h0a.2.2,0,0,1-.11,0H131a.21.21,0,0,1-.1-.06.2.2,0,0,1-.08-.08.2.2,0,0,1,0-.11A.24.24,0,0,1,130.78,255.18Z"/><polygon class="cls-29" points="131.12 254.97 131.12 254.97 131.12 254.97 131.13 254.97 131.12 254.97"/><polygon class="cls-29" points="131.14 254.96 131.15 254.96 131.15 254.96 131.14 254.96"/><path class="cls-29" d="M129.49,255.61l.1,0a.33.33,0,0,1,.14,0,.41.41,0,0,1,.11.07.24.24,0,0,1,.07.12.29.29,0,0,1,0,.13l0,.1a.3.3,0,0,1-.22.23h-.17a.34.34,0,0,1-.14-.09.32.32,0,0,1-.08-.31A.31.31,0,0,1,129.49,255.61Z"/><path class="cls-29" d="M128.23,256.75l0,0c.56-.24.56.76,0,.51l0,0A.27.27,0,0,1,128.23,256.75Z"/><path class="cls-29" d="M143.93,265.72c.45.25,1,0,1.38-.25l1.4-.79a12.66,12.66,0,0,1,1.34-.75.76.76,0,0,1,.92.31,2.14,2.14,0,0,1,.49,1.08,4.21,4.21,0,0,1-.1,1.32,2.72,2.72,0,0,0,.1,1.44,9.39,9.39,0,0,0,.63,1.32c.06.09-.08.21-.15.12a4.28,4.28,0,0,1-1.1-2.18c-.09-.94.48-1.84-.15-2.7a1.26,1.26,0,0,0-.22-.24c-.13-.1-.2,0-.33,0s-.47.27-.7.4l-1.35.76c-.72.42-1.57,1-2.42.6C143.37,266,143.64,265.56,143.93,265.72Z"/><path class="cls-29" d="M145.29,267l1.33-.86a6.65,6.65,0,0,1,.66-.42.47.47,0,0,1,.58.07.8.8,0,0,1,.08.59,4.19,4.19,0,0,0,0,.71c0,.24.09.46.14.7a4.26,4.26,0,0,0,.19.7c.05.12-.13.18-.2.08a3,3,0,0,1-.48-1.16,5.22,5.22,0,0,1,0-1.25s0-.11,0-.12-.24.12-.27.14l-.6.39-1.19.77C145.28,267.45,145.08,267.11,145.29,267Z"/><path class="cls-29" d="M146.33,267.46a.16.16,0,0,0,.22-.1s0,0,0,0v0h0l0,0h.29l0,0h0l0,0s0,0,0,0h0l0,0s0,0,0,0h0v0a.24.24,0,0,1,0,.08.09.09,0,0,1,0,.05h0v0a.28.28,0,0,1,0,.09,1.11,1.11,0,0,1-.08.34c0,.09.13.16.17.07a1.37,1.37,0,0,0,.13-.49.79.79,0,0,0-.12-.42.59.59,0,0,0-.31-.23.53.53,0,0,0-.65.23A.16.16,0,0,0,146.33,267.46Z"/><path class="cls-29" d="M122.53,242.68c.41.32.74.72,1.12,1.07a7.56,7.56,0,0,0,1.28,1,7,7,0,0,0,3.57.61c.05,0,.06.07,0,.08a5.9,5.9,0,0,1-2,.24,4.45,4.45,0,0,1-1.72-.47,6.05,6.05,0,0,1-1.37-1,6.51,6.51,0,0,1-1.16-1.3C122.22,242.78,122.39,242.58,122.53,242.68Z"/><path class="cls-29" d="M123.59,242.33c.6.37,1.19.74,1.76,1.14a3.27,3.27,0,0,0,1.67.76c.09,0,.12.15,0,.17a2.33,2.33,0,0,1-1.75-.5c-.64-.41-1.25-.84-1.86-1.29C123.26,242.49,123.41,242.22,123.59,242.33Z"/><path class="cls-29" d="M129.16,246.18a.16.16,0,0,1-.07-.15.16.16,0,0,1,.11-.14h.05a.2.2,0,0,1,.13,0l0,0,.11.08a.5.5,0,0,1,.15.17.14.14,0,0,1,0,.15l-.06,0a.14.14,0,0,1-.09,0,.53.53,0,0,0-.1-.06l-.12,0h0l-.08-.05h0l0,0Z"/><path class="cls-29" d="M128.06,246.32a.2.2,0,0,1,.05-.09l0,0a.23.23,0,0,1,.11,0l.08,0,.07,0a.16.16,0,0,1,0,.07.19.19,0,0,1,0,.08v.06a.41.41,0,0,1-.05.09l0,0a.17.17,0,0,1-.1,0l-.08,0-.07,0a.16.16,0,0,1,0-.07.11.11,0,0,1,0-.08Z"/><path class="cls-29" d="M125.69,245.81a.16.16,0,0,1,0-.09.16.16,0,0,1,.15-.09.17.17,0,0,1,.16.09.15.15,0,0,1,0,.18h0l0,.17v0l0,0a.19.19,0,0,1-.08,0l-.06,0a.17.17,0,0,1-.06-.08l0-.17h0A.16.16,0,0,1,125.69,245.81Z"/><path class="cls-29" d="M124.23,244.9a.25.25,0,0,1,0,.5A.25.25,0,0,1,124.23,244.9Z"/><path class="cls-29" d="M122.75,243.9a.26.26,0,0,1,0,.52A.26.26,0,0,1,122.75,243.9Z"/><path class="cls-29" d="M121.64,243.33a.15.15,0,0,0,0,.07l0,0a.1.1,0,0,0,0,0h0a.06.06,0,0,0,0,0h0s0,0,0,0H122l0,0a0,0,0,0,0,0,0l0,0v-.12s0,0,0-.06l0,0,0,0,0,0,0,0h-.14a.09.09,0,0,0-.06,0s0,0,0,0v.08Z"/><path class="cls-29" d="M119.6,243.61a.41.41,0,0,1,.05-.09l0,0a.23.23,0,0,1,.11,0h0l.07,0h0l.07,0,0,0,0,0s0,0,0,0a.13.13,0,0,1,0,.06v0l0,0s0,0-.08.06l-.07,0s0,0,0,0l-.07,0-.08,0-.07,0a.16.16,0,0,1,0-.07.19.19,0,0,1,0-.07Z"/><path class="cls-29" d="M118.26,242.55l.06-.07.09,0h.06l.1,0,.08.05a.24.24,0,0,1,.07.18v0l.07.17v.05a.14.14,0,0,1,0,.06l0,0,0,0a.12.12,0,0,1-.08,0s-.08,0-.11,0l-.12-.12h0l-.09,0-.06-.07,0-.06a.35.35,0,0,1,0-.2Z"/><path class="cls-29" d="M117.68,241.38l.07,0,.08,0a.2.2,0,0,1,.11,0,.2.2,0,0,1,.08.08.2.2,0,0,1,0,.11v.14l0,0,0,0-.06,0h-.14l-.06,0-.07-.07a.21.21,0,0,1-.06-.1.2.2,0,0,1,0-.11A.21.21,0,0,1,117.68,241.38Z"/><path class="cls-29" d="M117.42,240.11l0-.05a.23.23,0,0,1,.07-.07l.06,0h.07a.16.16,0,0,1,.1,0l.08.05,0,0h0l0,.05,0,.07a.19.19,0,0,1,0,.08v.12l0,.06,0,.05-.08,0h-.19l-.08,0,0,0,0-.06h0l0-.06h0v-.1A.2.2,0,0,1,117.42,240.11Z"/><path class="cls-29" d="M117.73,239.11a.2.2,0,0,1,0,.4A.2.2,0,0,1,117.73,239.11Z"/></g></g></svg>