<?xml version="1.0" encoding="utf-8"?>
<!-- Generator: Adobe Illustrator 23.0.4, SVG Export Plug-In . SVG Version: 6.00 Build 0)  -->
<svg version="1.1" id="Layer_1" xmlns="http://www.w3.org/2000/svg" xmlns:xlink="http://www.w3.org/1999/xlink" x="0px" y="0px"
	 viewBox="0 0 150 50" style="enable-background:new 0 0 150 50;" xml:space="preserve">
<style type="text/css">
	.st0{fill:#FFFFFF;}
</style>
<g>
	<path class="st0" d="M29.94,3.98l0.46,16.61c0,0,7.77,2.46,10.98,2.21c3.21-0.24,4.87-1.45,4.87-1.45L46.12,1.56
		c0,0-5.21,0.1-8.53,0.68C34.27,2.82,29.94,3.98,29.94,3.98z M42.4,12.86h-2.34V5.63h2.34C42.98,6.63,42.4,12.86,42.4,12.86z"/>
	<path class="st0" d="M48.44,1.87v20.74c0,0,1.73,0.11,3.61-0.22s2.04-0.98,2.04-0.98S51.94,7.4,52.72,7.31
		c0.78-0.09,2.92-0.27,2.92-0.27L55.5,1.29c0,0-0.82-0.05-1.46-0.05C51.05,1.24,48.44,1.87,48.44,1.87z"/>
	<path class="st0" d="M70.84,1.87c-2.29-0.08-3.71-0.07-3.71-0.07c-2.71,1.66-8.62,5.24-8.62,5.24l9.41,0.27c0,0,1.56,3.14,0,3.47
		c-1.56,0.33-12.27-1.89-12.27,0c0,1.89,1.81,10.59,1.81,10.59s2.68,0.69,6.89,1.24c4.21,0.55,8.83,0.66,8.83,0.66
		S72.54,1.93,70.84,1.87z M62.85,16.76c-0.2,0.79-2.53,0.97-2.53,0.97s-1.36-4.48-1.36-4.87c0-0.39,2.73,0,2.73,0
		S63.04,15.98,62.85,16.76z"/>
	<path class="st0" d="M75.18,23.16c0,0-1.17-21.18,0-21.29s12.47-1.83,13.25,0C89.2,3.7,89.2,22.41,89.2,22.41s-1.49,0.39-2.79,0.52
		c-1.3,0.13-4.67,0.13-4.67,0.13s2.28-17.45,0.2-17.43s-3.51,14.03-3.12,17.56L75.18,23.16z"/>
	<path class="st0" d="M103.42,1.46c0,0-1.18-0.04-2.82-0.06l-0.5,2.28l-0.8-2.28C95.7,1.38,91,1.53,90.8,2.35
		c-0.33,1.33-0.57,19.58,0.54,19.8c1.11,0.22,8.87-0.2,10.31-1.86c0,0,0.33,3.32-0.22,3.76c-0.55,0.44-29.45,3.21-43.62,0
		c0,0,0.55,2.77,1.22,4.21c0,0,31,3.88,46.61-1.88C105.64,26.37,106.86,7.66,103.42,1.46z M98.22,16.52c-0.78,0-2.33-9.3-2.1-10.3
		c0.22-1,2.21-0.33,2.21-0.33C100.43,18.18,98.99,16.52,98.22,16.52z"/>
	<path class="st0" d="M118.01,11.79c-1.09-0.31-4.07,0.47-4.07,0.47s0.94,8.6-0.16,8.6s-2.82,0.47-2.82-2.66
		c0-3.13-0.94-8.13-0.16-8.29c0.78-0.16,7.19,0,7.35-0.63c0.16-0.63,0.47-7.51-0.16-7.82c-0.63-0.31-5.94-1.72-11.1,0.16
		c0,0-0.63,22.83,0.94,24.55c0,0,8.44,0.94,10.95-0.16C118.79,26.02,119.1,12.1,118.01,11.79z M112.84,3.42
		c3.28,0,3.13,1.41,3.13,1.88c0,0.47-5.79,0-5.79,0S109.56,3.42,112.84,3.42z"/>
	<path class="st0" d="M105.8,37.13c-0.9-0.21-3.36,0.31-3.36,0.31s0.77,5.76-0.13,5.76c-0.9,0-2.32,0.31-2.32-1.78
		c0-2.09-0.77-5.44-0.13-5.55c0.65-0.1,5.94,0,6.07-0.42c0.13-0.42,0.39-5.03-0.13-5.24c-0.52-0.21-4.91-1.15-9.17,0.1
		c0,0-0.52,15.29,0.77,16.44c0,0,2.56,1.22,5.66,1.01c3.1-0.21,3.76-1.98,4.66-2.3C107.73,45.46,106.71,37.34,105.8,37.13z
		 M101.54,31.53c2.71,0,2.58,0.94,2.58,1.26c0,0.31-4.78,0-4.78,0S98.83,31.53,101.54,31.53z"/>
	<path class="st0" d="M30.63,23.8c0.4,0.1,8.77,1.01,9.17,1.31c0.4,0.3-0.14,14.68,1.11,14.68c1.25,0,1.63-14.51,2.69-14.51
		c1.06,0,2.69,0.1,2.69,0.1s4.04,13.84,5.09,13.84c1.06,0-2.99-14.57-2.46-14.57s5.43-0.5,5.43,0c0,0.5,4.98,23.2,4.05,23.51
		c-0.93,0.3-7.77,0.45-8.17-0.86c-0.4-1.31-2.4-6.92-3.84-6.92c-1.44,0-1.35,7.3-3.07,7.3s-12.08,2.1-12.22,0.89
		C30.96,47.35,30.63,23.8,30.63,23.8z"/>
	<path class="st0" d="M71.91,32.16c-0.41-0.07-2.74-0.79-6.24-0.99c-1.78-0.1-5.01,0.11-5.93,0.99c0,0,1.53,15.12,2.25,15.23
		c0.72,0.11,3.22,1.65,6.55,1.55c3.33-0.1,4.71-1.55,4.81-2.76C73.44,44.96,72.52,32.27,71.91,32.16z M70.47,41.65
		c-0.1,0.77-1.23,1.1-1.94,0.88c-0.72-0.22-1.02-7.17-0.92-7.73c0.1-0.55,2.25-0.11,2.25-0.11S70.58,40.88,70.47,41.65z"/>
	<path class="st0" d="M73.92,32c0,0,1.68,16.83,2.05,16.93c0.36,0.1,19.11-2.19,19.23-2.51c0.12-0.31,0.97-3.87,0.61-3.97
		c-0.36-0.1-15.56,1.67-16.05,0.63c-0.49-1.05-0.73-11.7-0.73-11.7S75.25,30.75,73.92,32z"/>
	<path class="st0" d="M80.52,31.42c0,0,4.21,9.66,4.9,9.87c0.68,0.2,4.1,0.1,4.44-0.1s5.69-10.37,5.24-10.48
		c-0.46-0.1-5.24,0.2-5.24,0.2l-2.16,6.2c0,0-1.82-5.39-2.73-5.59C84.05,31.32,80.52,31.42,80.52,31.42z"/>
	<path class="st0" d="M115.71,35.49c0,0,3.87,0.68,3.64-0.57s-0.11-6.26-1.37-6.38c-1.25-0.11-10.02,0.11-10.25,1.59
		c-0.23,1.48-0.46,9.11,1.14,9.11s6.49-0.11,6.72,0.57s1.14,2.96-0.23,3.07c-1.37,0.11-1.02-2.39-1.59-2.39
		c-0.57,0-4.55-0.23-4.67,0.23s0,5.81,1.25,6.38s8.88,0.34,9.34-1.94c0.46-2.28,1.02-7.52-1.94-8.31c-2.96-0.8-5.12,0.8-5.47-1.37
		c-0.34-2.16-0.46-4.1,0.8-3.99C114.34,31.62,116.39,33.78,115.71,35.49z"/>
</g>
</svg>
