<?xml version="1.0" encoding="utf-8"?>
<!-- Generator: Adobe Illustrator 22.1.0, SVG Export Plug-In . SVG Version: 6.00 Build 0)  -->
<svg version="1.1" id="Layer_1" xmlns="http://www.w3.org/2000/svg" xmlns:xlink="http://www.w3.org/1999/xlink" x="0px" y="0px"
	 viewBox="0 0 283.5 130.4" style="enable-background:new 0 0 283.5 130.4;" xml:space="preserve">
<style type="text/css">
	.st0{fill:#0067B1;}
</style>
<g>
	<g>
		<path class="st0" d="M125.4,42c-0.9-0.6-1.9-0.9-3.1-0.9c-1.2,0-2.3,0.3-3.1,0.8c-0.8,0.5-1.5,1.2-2,2c-0.5,0.8-0.8,1.7-1.1,2.7
			c-0.2,1-0.3,2-0.3,3.1c0,1.1,0.1,2.2,0.2,3.3c0.2,1.1,0.5,2.1,0.9,3c0.5,0.9,1.1,1.6,1.9,2.2c0.8,0.6,1.9,0.9,3.3,0.9
			c0.8,0,1.5-0.1,2.1-0.3c0.6-0.2,1.2-0.4,1.7-0.7c0.5-0.3,1-0.6,1.4-0.9c0.4-0.3,0.8-0.7,1.2-1l1,0.6c-0.2,0.6-0.4,1.3-0.6,1.9
			c-0.2,0.7-0.3,1.3-0.5,2c-1,0.4-2.1,0.7-3.3,1c-1.2,0.3-2.7,0.5-4.3,0.5c-1.8,0-3.4-0.3-5-0.8c-1.6-0.5-2.9-1.3-4-2.3
			c-1.1-1-2-2.3-2.7-3.7c-0.7-1.5-1-3.1-1-5c0-2,0.4-3.7,1.1-5.3c0.7-1.5,1.7-2.8,2.9-3.9c1.2-1.1,2.7-1.9,4.3-2.4
			c1.6-0.5,3.4-0.8,5.3-0.8c1.3,0,2.7,0.1,4,0.4c1.4,0.3,2.7,0.7,3.9,1.2c-0.1,0.4-0.1,0.7-0.2,1.1c-0.1,0.4-0.2,0.7-0.3,1.1
			c-0.1,0.5-0.2,0.9-0.3,1.4c-0.1,0.5-0.1,0.9-0.2,1.4h-1.3C126.8,43.4,126.3,42.5,125.4,42z"/>
		<path class="st0" d="M134.5,62c-0.4-0.1-0.7-0.2-1.1-0.2c-0.4-0.1-0.7-0.1-1.1-0.1c-0.4,0-0.7,0-1.1,0.1c-0.4,0.1-0.7,0.1-1,0.2
			l1.9-4.4c0.3-0.7,0.6-1.4,1-2.3c0.4-0.9,0.8-1.8,1.2-2.8c0.4-1,0.8-2,1.3-3.1c0.4-1.1,0.9-2.2,1.3-3.2c0.2-0.6,0.5-1.3,0.8-2.1
			c0.3-0.8,0.6-1.6,0.9-2.4c0.3-0.8,0.5-1.5,0.8-2.1c0.2-0.6,0.4-1.1,0.5-1.3c0.4,0.1,0.8,0.2,1.2,0.2c0.4,0.1,0.8,0.1,1.2,0.1
			c0.4,0,0.8,0,1.2-0.1c0.4-0.1,0.8-0.1,1.2-0.2c0.2,0.8,0.5,1.7,0.9,2.8c0.4,1.1,0.8,2.2,1.2,3.4c0.4,1.2,0.9,2.4,1.3,3.5
			c0.5,1.2,0.9,2.3,1.3,3.3c0.5,1.2,0.9,2.2,1.2,3.1c0.4,0.9,0.7,1.8,1,2.6c0.3,0.8,0.7,1.6,1,2.4c0.4,0.8,0.8,1.7,1.2,2.7
			c-0.6-0.1-1.4-0.2-2.1-0.2c-0.8,0-1.5-0.1-2.2-0.1c-0.7,0-1.4,0-2.1,0.1c-0.7,0.1-1.4,0.1-2.1,0.2c-0.2-0.8-0.4-1.6-0.7-2.4
			c-0.2-0.8-0.5-1.5-0.8-2.3c-0.7,0-1.5,0-2.2,0c-0.7,0-1.5,0-2.2,0c-0.6,0-1.1,0-1.7,0c-0.6,0-1.2,0-1.7,0
			c-0.3,0.8-0.6,1.5-0.8,2.3C135,60.4,134.8,61.2,134.5,62z M137,54.3c0.2,0,0.5,0,0.7,0c0.2,0,0.5,0,0.7,0h1.5h1.5
			c0.2,0,0.5,0,0.7,0c0.2,0,0.5,0,0.7,0l-2.8-7.7L137,54.3z"/>
		<path class="st0" d="M175.6,48.3c-0.5,0.9-1.2,1.6-2,2.2c-0.8,0.6-1.8,0.9-2.9,1.2c-1.1,0.2-2.2,0.3-3.4,0.3c-0.8,0-1.4,0-1.9,0
			c-0.5,0-1-0.1-1.3-0.1c0,0.7,0,1.5,0,2.5c0,1,0,2,0.1,3.1c0,1,0.1,2,0.1,2.8c0,0.8,0.1,1.4,0.2,1.8c-0.6-0.1-1.2-0.1-1.8-0.2
			c-0.6-0.1-1.2-0.1-1.8-0.1c-0.7,0-1.5,0-2.2,0.1c-0.7,0.1-1.5,0.1-2.2,0.2c0.1-1.1,0.2-2,0.2-2.9c0.1-0.9,0.1-1.7,0.1-2.6
			c0-0.8,0.1-1.7,0.1-2.6c0-0.9,0-1.9,0-3c0-0.8,0-1.7,0-2.8c0-1,0-2.1-0.1-3.2c0-1.1-0.1-2.2-0.1-3.4c0-1.1-0.1-2.2-0.2-3.2
			c0.7,0.1,1.5,0.2,2.3,0.2c0.8,0,1.5,0.1,2.2,0.1c1.1,0,2.3,0,3.4-0.1c1.2-0.1,2.3-0.1,3.3-0.1c1.1,0,2.1,0.1,3.2,0.3
			c1.1,0.2,2,0.5,2.9,1c0.8,0.5,1.5,1.1,2,2c0.5,0.8,0.8,1.9,0.8,3.2C176.4,46.2,176.2,47.3,175.6,48.3z M168.5,43
			c-0.2-0.5-0.5-0.9-0.8-1.2c-0.3-0.3-0.7-0.5-1.1-0.6c-0.4-0.1-0.9-0.1-1.4-0.1c-0.2,0-0.4,0-0.6,0c-0.2,0-0.4,0-0.5,0
			c0,0.8,0,1.6,0,2.3c0,0.7,0,1.4,0,2v1.9v1.9c0.1,0,0.2,0,0.3,0.1c0.1,0,0.2,0,0.3,0h0.7c0.7,0,1.2-0.1,1.7-0.3
			c0.4-0.2,0.8-0.5,1.1-0.9c0.3-0.4,0.5-0.8,0.6-1.4c0.1-0.5,0.2-1.1,0.2-1.7C168.8,44.2,168.7,43.5,168.5,43z"/>
		<path class="st0" d="M187.4,56.7c0,1.9,0.1,3.7,0.3,5.3c-0.6-0.1-1.3-0.2-2-0.2c-0.7,0-1.4-0.1-2.1-0.1c-0.7,0-1.4,0-2.1,0.1
			c-0.7,0.1-1.3,0.1-1.8,0.2c0.1-1.8,0.2-3.7,0.2-5.4c0.1-1.8,0.1-3.6,0.1-5.4c0-0.4,0-1,0-1.6c0-0.6,0-1.3,0-2c0-0.7,0-1.4,0-2
			c0-0.6,0-1.2,0-1.6c0-0.8,0-1.6-0.1-2.6c0-1-0.1-1.9-0.2-2.8c0.6,0.1,1.2,0.1,2,0.2c0.7,0.1,1.4,0.1,2,0.1c0.7,0,1.4,0,2.1-0.1
			c0.7-0.1,1.4-0.1,1.9-0.2c-0.1,1.6-0.2,3.1-0.3,4.7c-0.1,1.5-0.1,3.1-0.1,4.7V51C187.4,52.9,187.4,54.8,187.4,56.7z"/>
		<path class="st0" d="M193.3,41.9c-1,0.1-2,0.1-3,0.2c0.1-0.6,0.2-1.2,0.2-1.9c0-0.3,0-0.6-0.1-0.9c0-0.3-0.1-0.6-0.1-1
			c1.6,0.2,3.3,0.3,4.9,0.3c1.6,0,3.3,0,4.9,0c1.6,0,3.2,0,4.8,0c1.6,0,3.3-0.1,5.1-0.3c0,0.3-0.1,0.6-0.1,0.9
			c0,0.3-0.1,0.7-0.1,1.1c0,0.3,0,0.6,0.1,1c0,0.3,0.1,0.6,0.1,0.8c-1-0.1-2-0.2-3-0.2c-1-0.1-2-0.1-3.1-0.1c0,0.7-0.1,1.6-0.1,2.5
			c0,0.9,0,1.9,0,2.8v1.8c0,1.3,0,2.5,0,3.6c0,1.1,0,2.2,0,3.3c0,1.1,0,2.1,0.1,3.1c0,1,0.1,2.1,0.2,3.1c-1.1-0.1-2-0.2-2.7-0.2
			c-0.6,0-1.1-0.1-1.4-0.1c-0.9,0-1.7,0-2.3,0.1c-0.6,0.1-1.1,0.1-1.5,0.2c0.1-0.6,0.1-1.3,0.2-2.1c0-0.8,0.1-1.6,0.1-2.4
			c0-0.9,0.1-1.7,0.1-2.6c0-0.9,0-1.7,0-2.5v-2.9V48c0-0.8,0-1.8,0-2.9c0-1.1-0.1-2.2-0.1-3.3C195.3,41.8,194.3,41.8,193.3,41.9z"/>
		<path class="st0" d="M212.2,62c-0.4-0.1-0.7-0.2-1.1-0.2c-0.4-0.1-0.7-0.1-1.1-0.1c-0.4,0-0.7,0-1.1,0.1c-0.4,0.1-0.7,0.1-1,0.2
			l1.9-4.4c0.3-0.7,0.6-1.4,1-2.3c0.4-0.9,0.8-1.8,1.2-2.8c0.4-1,0.8-2,1.3-3.1c0.4-1.1,0.9-2.2,1.3-3.2c0.2-0.6,0.5-1.3,0.8-2.1
			c0.3-0.8,0.6-1.6,0.9-2.4c0.3-0.8,0.6-1.5,0.8-2.1c0.2-0.6,0.4-1.1,0.5-1.3c0.4,0.1,0.8,0.2,1.2,0.2c0.4,0.1,0.8,0.1,1.2,0.1
			c0.4,0,0.8,0,1.2-0.1c0.4-0.1,0.8-0.1,1.2-0.2c0.2,0.8,0.5,1.7,0.9,2.8c0.4,1.1,0.8,2.2,1.2,3.4c0.4,1.2,0.9,2.4,1.3,3.5
			c0.4,1.2,0.9,2.3,1.3,3.3c0.5,1.2,0.9,2.2,1.2,3.1c0.4,0.9,0.7,1.8,1,2.6c0.3,0.8,0.7,1.6,1,2.4c0.4,0.8,0.8,1.7,1.2,2.7
			c-0.6-0.1-1.4-0.2-2.1-0.2c-0.8,0-1.5-0.1-2.2-0.1c-0.7,0-1.4,0-2.1,0.1c-0.7,0.1-1.4,0.1-2.1,0.2c-0.2-0.8-0.4-1.6-0.7-2.4
			c-0.2-0.8-0.5-1.5-0.8-2.3c-0.7,0-1.5,0-2.2,0c-0.7,0-1.5,0-2.2,0c-0.6,0-1.1,0-1.7,0c-0.6,0-1.2,0-1.7,0
			c-0.3,0.8-0.6,1.5-0.8,2.3C212.7,60.4,212.5,61.2,212.2,62z M214.7,54.3c0.2,0,0.5,0,0.7,0c0.2,0,0.5,0,0.7,0h1.5h1.4
			c0.2,0,0.5,0,0.7,0c0.2,0,0.5,0,0.7,0l-2.8-7.7L214.7,54.3z"/>
		<path class="st0" d="M243.2,58.6c0.7,0,1.4,0,2.2-0.1c0.8,0,1.6-0.1,2.4-0.1c0.8,0,1.5-0.1,2-0.2c0,0.2-0.1,0.5-0.1,0.8
			c0,0.3,0,0.7,0,1.1c0,0.3,0,0.6,0,0.9c0,0.3,0.1,0.6,0.1,0.9c-1.4-0.1-2.6-0.2-3.7-0.2c-1.1,0-2.2-0.1-3.2-0.1
			c-1.2,0-2.6,0-4.1,0.1c-1.5,0-3.1,0.1-4.8,0.2c0.2-1,0.3-2,0.4-3.1c0.1-1.1,0.1-2.1,0.1-3v-1.7c0-1.1,0-2,0-2.9c0-0.9,0-1.7,0-2.5
			c0-0.8,0-1.5,0-2.2c0-0.7,0-1.5-0.1-2.2c0-1-0.1-2-0.1-3.1c0-1.1-0.1-2-0.2-2.9c1.4,0.2,2.8,0.3,4.2,0.3c0.7,0,1.3,0,2-0.1
			c0.6,0,1.3-0.1,1.9-0.2c-0.1,0.6-0.1,1.3-0.1,2.3c0,1-0.1,2-0.1,3c0,1.1-0.1,2.1-0.1,3.2c0,1.1,0,2,0,2.7v1.5c0,0.3,0,0.8,0,1.5
			c0,0.7,0,1.5,0,2.3c0,0.8,0,1.5,0,2.2c0,0.7,0,1.2,0,1.4C242.1,58.6,242.6,58.6,243.2,58.6z"/>
		<path d="M108,70.2h1.5v10.3h4.9v1.2H108V70.2z"/>
		<path d="M120.7,70.2v11.5h-1.5V70.2H120.7z"/>
		<path d="M126.5,81.7V70.2h1.6l3.7,5.8c0.8,1.4,1.5,2.5,2.1,3.7l0.1,0c-0.1-1.5-0.2-2.9-0.2-4.7v-4.8h1.4v11.5h-1.5l-3.7-5.8
			c-0.8-1.3-1.6-2.6-2.1-3.8l-0.1,0c0.1,1.5,0.1,2.8,0.1,4.8v4.9H126.5z"/>
		<path d="M146.8,76.3h-4.5v4.2h5v1.2h-6.5V70.2h6.2v1.3h-4.7V75h4.5V76.3z"/>
		<path d="M152.4,81.7V70.2h1.6l3.7,5.8c0.8,1.4,1.5,2.5,2.1,3.7l0.1,0c-0.1-1.5-0.2-2.9-0.2-4.7v-4.8h1.4v11.5h-1.5l-3.7-5.8
			c-0.8-1.3-1.6-2.6-2.1-3.8l-0.1,0c0.1,1.5,0.1,2.8,0.1,4.8v4.9H152.4z"/>
		<path d="M173.3,79.9c0.7,0.4,1.6,0.8,2.7,0.8c1.5,0,2.4-0.8,2.4-2c0-1.1-0.6-1.7-2.2-2.3c-1.9-0.7-3-1.7-3-3.3
			c0-1.8,1.5-3.1,3.7-3.1c1.2,0,2,0.3,2.5,0.6l-0.4,1.2c-0.4-0.2-1.1-0.5-2.2-0.5c-1.6,0-2.2,0.9-2.2,1.7c0,1.1,0.7,1.6,2.3,2.2
			c1.9,0.8,2.9,1.7,2.9,3.4c0,1.8-1.3,3.3-4,3.3c-1.1,0-2.3-0.3-2.9-0.8L173.3,79.9z"/>
		<path d="M191,76.3h-4.5v4.2h5v1.2h-6.5V70.2h6.2v1.3h-4.7V75h4.5V76.3z"/>
		<path d="M196.6,70.3c0.8-0.2,1.8-0.3,2.9-0.3c1.6,0,2.6,0.3,3.4,1c0.6,0.5,0.9,1.3,0.9,2.2c0,1.5-1,2.5-2.2,2.9v0.1
			c0.9,0.3,1.4,1.1,1.7,2.3c0.4,1.6,0.6,2.7,0.9,3.2h-1.5c-0.2-0.3-0.4-1.3-0.8-2.8c-0.3-1.6-1-2.2-2.3-2.2h-1.4v5h-1.5V70.3z
			 M198.1,75.6h1.5c1.6,0,2.6-0.9,2.6-2.2c0-1.5-1.1-2.1-2.6-2.1c-0.7,0-1.2,0.1-1.5,0.1V75.6z"/>
		<path d="M211.8,81.7L208,70.2h1.6l1.8,5.7c0.5,1.6,0.9,3,1.2,4.3h0c0.3-1.3,0.8-2.8,1.3-4.3l1.9-5.7h1.6l-4.1,11.5H211.8z"/>
		<path d="M223.4,70.2v11.5h-1.5V70.2H223.4z"/>
		<path d="M237.2,81.3c-0.5,0.3-1.6,0.5-3,0.5c-3.3,0-5.7-2.1-5.7-5.8c0-3.6,2.4-6.1,6-6.1c1.4,0,2.3,0.3,2.7,0.5l-0.4,1.2
			c-0.5-0.3-1.3-0.5-2.3-0.5c-2.7,0-4.5,1.7-4.5,4.8c0,2.8,1.6,4.6,4.4,4.6c0.9,0,1.8-0.2,2.4-0.5L237.2,81.3z"/>
		<path d="M248.1,76.3h-4.5v4.2h5v1.2h-6.5V70.2h6.2v1.3h-4.7V75h4.5V76.3z"/>
	</g>
	<path class="st0" d="M95.2,56.6c-0.5-6.2-3.5-11.9-8.4-15.8c0,0,0,0,0,0c0,0-0.1,0-0.1-0.1c0,0,0,0,0,0c0,0,0,0,0,0
		c-6.2-5.1-14.4-7.9-22.5-7.5c-17.7,0.9-31.4,15.9-30.5,33.6c0.7,15.2,12.1,27.9,27.1,30.2c0.2,0,0.4,0,0.6,0c0.1,0,0.2,0,0.3,0
		c0.1,0,0.1,0,0.2,0c2,0,3.8-1.5,4-3.6c0.3-2.2-1.3-4.3-3.6-4.5c-3.2-0.4-5.7-3-6-6.2c-0.3-3,0-10.5,7.6-14.6
		c3.8-2.1,6.8-1.8,8.3-0.8c0.8,0.5,1,1.1,1,1.4c0,0.2-0.3,0.6-1,1c-2.2-0.1-4.1,1.6-4.3,3.8c-0.1,1.8,0.5,3.5,1.8,4.7
		c1.5,1.4,3.5,1.7,5.2,1.7c1,0,2-0.1,2.6-0.2C88.6,78.3,96.1,68.3,95.2,56.6z M81.4,69.9c0-0.1,0-0.2,0.1-0.4
		c0.3-3.4-1.5-6.8-4.7-8.9c-4.5-2.9-10.7-2.7-16.6,0.5c-7.7,4.2-12,11.8-11.9,20.6c-3.8-4-6.2-9.4-6.5-15.2
		c-0.6-13.2,9.6-24.5,22.8-25.1c6.1-0.3,12.4,1.8,17,5.7c0,0,0,0,0.1,0c0,0,0,0,0,0c3.2,2.5,5.1,6.1,5.4,10.1
		C87.6,63.1,84.9,67.5,81.4,69.9z"/>
</g>
</svg>
