<svg id="Layer_1" data-name="Layer 1" xmlns="http://www.w3.org/2000/svg" xmlns:xlink="http://www.w3.org/1999/xlink" viewBox="0 0 150 90"><defs><style>.cls-1{fill:none;}.cls-2{clip-path:url(#clip-path);}.cls-3{fill:url(#radial-gradient);}.cls-4{clip-path:url(#clip-path-2);}.cls-5{fill:url(#radial-gradient-2);}.cls-6{clip-path:url(#clip-path-3);}.cls-7{fill:url(#radial-gradient-3);}.cls-8{clip-path:url(#clip-path-4);}.cls-9{clip-path:url(#clip-path-5);}.cls-10{fill:url(#radial-gradient-5);}</style><clipPath id="clip-path"><path class="cls-1" d="M3.81,25.94,0,29.76H36.31a22.88,22.88,0,0,1,4.4-3.82Z"/></clipPath><radialGradient id="radial-gradient" cx="-413.6" cy="466.04" r="1.17" gradientTransform="translate(25997.34 -29264.19) scale(62.86)" gradientUnits="userSpaceOnUse"><stop offset="0" stop-color="#0b70b7"/><stop offset="0.5" stop-color="#4f2d82"/><stop offset="0.62" stop-color="#6b2a72"/><stop offset="0.87" stop-color="#b0234a"/><stop offset="1" stop-color="#d81f33"/></radialGradient><clipPath id="clip-path-2"><path class="cls-1" d="M53.35,33.57a11.43,11.43,0,0,0,0,22.86H68.59l-3.8-3.81H53.35a7.62,7.62,0,0,1,0-15.24h3.81L61,33.57Z"/></clipPath><radialGradient id="radial-gradient-2" cx="-413.6" cy="466.04" r="1.17" gradientTransform="translate(25997.51 -29264.39) scale(62.86)" xlink:href="#radial-gradient"/><clipPath id="clip-path-3"><polygon class="cls-1" points="0 33.57 3.81 37.38 15.24 37.38 15.24 60.24 19.05 64.06 19.05 33.57 0 33.57"/></clipPath><radialGradient id="radial-gradient-3" cx="-413.6" cy="466.04" r="1.17" gradientTransform="translate(25997.52 -29264.39) scale(62.86)" xlink:href="#radial-gradient"/><clipPath id="clip-path-4"><path class="cls-1" d="M22.87,33.57V64.06l3.81-3.82V37.38h5.11a23.08,23.08,0,0,1,1.76-3.81Z"/></clipPath><clipPath id="clip-path-5"><path class="cls-1" d="M53.35,25.94a19.06,19.06,0,0,0,0,38.12H64.79l3.8-3.82H53.35a15.24,15.24,0,0,1,0-30.48H61l-3.81-3.82Z"/></clipPath><radialGradient id="radial-gradient-5" cx="-413.6" cy="466.04" r="1.17" gradientTransform="translate(25997.52 -29264.39) scale(62.86)" xlink:href="#radial-gradient"/></defs><title>Artboard 6</title><g class="cls-2"><rect class="cls-3" y="25.94" width="40.71" height="3.81"/></g><g class="cls-4"><rect class="cls-5" x="41.92" y="33.57" width="26.68" height="22.87"/></g><g class="cls-6"><rect class="cls-7" y="33.57" width="19.06" height="30.49"/></g><g class="cls-8"><rect class="cls-7" x="22.87" y="33.57" width="10.68" height="30.49"/></g><g class="cls-9"><rect class="cls-10" x="34.3" y="25.94" width="34.3" height="38.11"/></g><path d="M84.06,57.46a3.15,3.15,0,0,1-2.33,1,3.24,3.24,0,0,1-2.32-1c-1-1.08-1.09-2.82-1.09-4.15s0-3.07,1.09-4.15a3.21,3.21,0,0,1,2.32-1,3.12,3.12,0,0,1,2.32.94,2.81,2.81,0,0,1,.7,1.79h1.66A4.42,4.42,0,0,0,85.14,48a4.89,4.89,0,0,0-3.41-1.31A4.94,4.94,0,0,0,78.27,48c-1.39,1.35-1.61,3.23-1.61,5.27s.22,3.91,1.61,5.27a5,5,0,0,0,6.89,0,4.5,4.5,0,0,0,1.27-3H84.77a2.93,2.93,0,0,1-.71,1.84"/><path d="M95.23,57.91V53.49A3.32,3.32,0,0,0,95,52.08a3.18,3.18,0,0,0-3.21-1.75,3.9,3.9,0,0,0-2.81,1,2.74,2.74,0,0,0-.8,1.92h1.5a1.49,1.49,0,0,1,.45-1.1,2.25,2.25,0,0,1,1.66-.55,2.09,2.09,0,0,1,1.5.47,1.78,1.78,0,0,1,.47,1.39v.67l-2.78.16c-2.49.15-3.25,1.68-3.25,2.86a2.87,2.87,0,0,0,3.14,2.81,3.33,3.33,0,0,0,2.94-1.5h0a1.3,1.3,0,0,0,1.32,1.39,2.16,2.16,0,0,0,1-.21V58.47a2.32,2.32,0,0,1-.4.05c-.3,0-.5-.12-.5-.61m-1.52-2.08a3,3,0,0,1-.77,2.08,2.61,2.61,0,0,1-1.88.74c-1.3,0-1.81-.76-1.81-1.57,0-1.16,1.09-1.59,2-1.64l2.45-.15Z"/><path d="M101.84,50.33a3.08,3.08,0,0,0-2.76,1.61L99,50.57H97.61V59.7h1.54V55.46a6,6,0,0,1,.32-2.33,2.24,2.24,0,0,1,2-1.41c1.44,0,2,.81,2,2.18v5.8H105v-6c0-2.12-1.09-3.36-3.16-3.36"/><path d="M111,50.33a3.18,3.18,0,0,0-2.65,1.3v-5h-1.54v13h1.35l.11-1.19A3.21,3.21,0,0,0,111,59.93a3.49,3.49,0,0,0,2.58-1,6.13,6.13,0,0,0-.07-7.69,3.6,3.6,0,0,0-2.51-.92m-.25,8.3a2.12,2.12,0,0,1-1.48-.59,3.78,3.78,0,0,1-1-2.91,3.78,3.78,0,0,1,1-2.91,2.12,2.12,0,0,1,1.48-.59c2,0,2.58,1.82,2.58,3.5s-.54,3.5-2.58,3.5"/><path d="M120.31,50.33a3.91,3.91,0,0,0-3.44,1.91,5.56,5.56,0,0,0-.71,2.93,5.15,5.15,0,0,0,1.14,3.39,3.88,3.88,0,0,0,3,1.37,4.23,4.23,0,0,0,2.33-.68A3.4,3.4,0,0,0,124.07,57h-1.5a2,2,0,0,1-.54,1,2.29,2.29,0,0,1-1.7.6,2.32,2.32,0,0,1-1.68-.65,3.35,3.35,0,0,1-.88-2.29h6.46l0-.92a4.71,4.71,0,0,0-1.16-3.22,3.67,3.67,0,0,0-2.78-1.17m-2.5,4a2.53,2.53,0,0,1,2.5-2.69,2.16,2.16,0,0,1,1.81.83,3.2,3.2,0,0,1,.56,1.86Z"/><path d="M127.54,52.17l-.13-1.61h-1.35V59.7h1.51V55.64a4.1,4.1,0,0,1,.83-2.93,2.57,2.57,0,0,1,1.74-.72,4.76,4.76,0,0,1,.84.07v-1.5a5.68,5.68,0,0,0-.72-.05,2.83,2.83,0,0,0-2.72,1.66"/><path d="M134,52.17l-.13-1.61h-1.35V59.7H134V55.64a4.1,4.1,0,0,1,.83-2.93,2.57,2.57,0,0,1,1.74-.72,5,5,0,0,1,.85.07v-1.5a6,6,0,0,0-.73-.05A2.83,2.83,0,0,0,134,52.17"/><path d="M146.13,58.52c-.31,0-.51-.12-.51-.61V53.49a3.48,3.48,0,0,0-.27-1.41,3.18,3.18,0,0,0-3.21-1.75,3.9,3.9,0,0,0-2.81,1,2.74,2.74,0,0,0-.8,1.92H140a1.49,1.49,0,0,1,.45-1.1,2.25,2.25,0,0,1,1.66-.55,2.11,2.11,0,0,1,1.5.47,1.82,1.82,0,0,1,.47,1.39v.67l-2.78.16c-2.49.15-3.25,1.68-3.25,2.86a2.87,2.87,0,0,0,3.14,2.81,3.33,3.33,0,0,0,2.94-1.5h0a1.29,1.29,0,0,0,1.31,1.39,2.2,2.2,0,0,0,1-.21V58.47a2.5,2.5,0,0,1-.4.05m-2-2.69a3,3,0,0,1-.78,2.08,2.59,2.59,0,0,1-1.87.74c-1.31,0-1.81-.76-1.81-1.57,0-1.16,1.08-1.59,2-1.64l2.46-.15Z"/><polygon points="85.45 29.76 76.21 29.76 76.21 31.25 80.02 31.25 80.02 42.55 81.64 42.55 81.64 31.25 85.45 31.25 85.45 29.76"/><path d="M86.93,35l-.13-1.61H85.45v9.13H87V38.49a4.08,4.08,0,0,1,.83-2.92,2.48,2.48,0,0,1,1.73-.72,4.07,4.07,0,0,1,.85.07v-1.5a4.46,4.46,0,0,0-.72-.06A2.84,2.84,0,0,0,86.93,35"/><path d="M98.61,40.76V36.34a3.3,3.3,0,0,0-.28-1.4,3.17,3.17,0,0,0-3.21-1.75,3.9,3.9,0,0,0-2.81,1,2.71,2.71,0,0,0-.8,1.91H93a1.49,1.49,0,0,1,.45-1.1,2.3,2.3,0,0,1,1.66-.54,2.06,2.06,0,0,1,1.5.47,1.78,1.78,0,0,1,.47,1.39V37l-2.78.16c-2.49.14-3.25,1.68-3.25,2.85a2.87,2.87,0,0,0,3.14,2.82,3.33,3.33,0,0,0,2.94-1.5h0a1.31,1.31,0,0,0,1.32,1.39,2.16,2.16,0,0,0,1-.22V41.32a2.11,2.11,0,0,1-.4.06c-.31,0-.5-.13-.5-.62m-1.52-2.07a2.94,2.94,0,0,1-.78,2.07,2.53,2.53,0,0,1-1.87.74c-1.3,0-1.81-.75-1.81-1.57,0-1.15,1.08-1.58,2-1.64l2.45-.14Z"/><path d="M105.22,33.19a3.12,3.12,0,0,0-2.77,1.6l-.12-1.37H101v9.13h1.54V38.31a6.18,6.18,0,0,1,.32-2.33,2.24,2.24,0,0,1,2-1.41c1.44,0,2,.82,2,2.19v5.79h1.53v-6c0-2.11-1.08-3.35-3.15-3.35"/><path d="M115.07,37.37c-1-.16-1.69-.23-2.2-.3-.76-.11-1.22-.44-1.22-1.2a1.36,1.36,0,0,1,.92-1.22,2.35,2.35,0,0,1,1.06-.18,2.17,2.17,0,0,1,1.5.48,1.68,1.68,0,0,1,.52,1.14h1.54a2.65,2.65,0,0,0-.65-1.75,3.66,3.66,0,0,0-2.91-1.15,3.7,3.7,0,0,0-2.69,1,2.63,2.63,0,0,0-.76,1.78,2.39,2.39,0,0,0,2.24,2.46l2.06.27c.94.12,1.43.61,1.43,1.3a1.28,1.28,0,0,1-.46,1,2.45,2.45,0,0,1-1.68.5,2.89,2.89,0,0,1-1.64-.41,1.81,1.81,0,0,1-.74-1.43h-1.53a3,3,0,0,0,.88,2.1,4.83,4.83,0,0,0,5.94,0,2.61,2.61,0,0,0-1.61-4.39"/><path d="M123.19,33.2a3.22,3.22,0,0,0-2.73,1.43l-.1-1.19H119v13h1.53v-5a3.21,3.21,0,0,0,2.66,1.3,3.6,3.6,0,0,0,2.51-.92A5.38,5.38,0,0,0,127.09,38a5.42,5.42,0,0,0-1.32-3.79,3.46,3.46,0,0,0-2.58-1m-.25,8.3a2.12,2.12,0,0,1-1.48-.59,3.79,3.79,0,0,1-1-2.91,3.78,3.78,0,0,1,1-2.9,2.08,2.08,0,0,1,1.48-.6c2,0,2.58,1.83,2.58,3.5s-.55,3.5-2.58,3.5"/><path d="M132.52,33.19a3.84,3.84,0,0,0-2.76,1.06,5,5,0,0,0-1.3,3.74,4.94,4.94,0,0,0,1.3,3.73,4.09,4.09,0,0,0,5.52,0,5,5,0,0,0,1.3-3.73,5,5,0,0,0-1.3-3.74,3.88,3.88,0,0,0-2.76-1.06m1.64,7.63a2.25,2.25,0,0,1-1.64.65,2.27,2.27,0,0,1-1.65-.65A4.14,4.14,0,0,1,130,38a4.15,4.15,0,0,1,.84-2.84,2.27,2.27,0,0,1,1.65-.65,2.25,2.25,0,0,1,1.64.65A4.1,4.1,0,0,1,135,38a4.09,4.09,0,0,1-.85,2.83"/><path d="M139.66,35l-.13-1.61h-1.35v9.13h1.51V38.49a4.08,4.08,0,0,1,.83-2.92,2.5,2.5,0,0,1,1.73-.72,4.07,4.07,0,0,1,.85.07v-1.5a4.28,4.28,0,0,0-.72-.06A2.82,2.82,0,0,0,139.66,35"/><path d="M147.2,40V34.74h2.71V33.42H147.2V30.73l-1.53.36v2.33H143.9v1.32h1.77v5.47a2.24,2.24,0,0,0,2.51,2.47,6.42,6.42,0,0,0,1.82-.26V41.11a11.42,11.42,0,0,1-1.57.16c-.85,0-1.23-.36-1.23-1.25"/></svg>